<?xml version="1.0" encoding="utf-8"?>
<!-- Generator: Adobe Illustrator 24.2.1, SVG Export Plug-In . SVG Version: 6.00 Build 0)  -->
<svg version="1.1" xmlns="http://www.w3.org/2000/svg" xmlns:xlink="http://www.w3.org/1999/xlink" x="0px" y="0px"
	 viewBox="0 0 500 500" style="enable-background:new 0 0 500 500;" xml:space="preserve">
<g id="Floor">
	<path style="fill:#F5F5F5;" d="M409.04,250.09c-88.41-51.04-231.28-51.04-319.12,0c-87.84,51.05-87.37,133.8,1.03,184.85
		c88.42,51.05,231.29,51.05,319.13,0C497.92,383.89,497.45,301.13,409.04,250.09z"/>
</g>
<g id="Carpet">
	<g>
		<g>
			<path style="fill:#BA68C8;" d="M442.27,317.28c0.02,2.04-1.31,4.09-4.01,5.65L235.8,439.82c-5.33,3.08-13.94,3.08-19.24,0
				l-158.2-91.94c-2.74-1.59-4.04-3.69-3.94-5.77l-0.02-0.01v2.33l0.02-0.01c0.08,1.94,1.39,3.87,3.94,5.35l158.2,91.94
				c5.29,3.08,13.9,3.08,19.24,0l202.46-116.89c2.64-1.52,3.97-3.51,4.01-5.51l0.01,0L442.27,317.28L442.27,317.28z"/>
			<path style="opacity:0.2;" d="M442.27,317.28c0.02,2.04-1.31,4.09-4.01,5.65L235.8,439.82c-5.33,3.08-13.94,3.08-19.24,0
				l-158.2-91.94c-2.74-1.59-4.04-3.69-3.94-5.77l-0.02-0.01v2.33l0.02-0.01c0.08,1.94,1.39,3.87,3.94,5.35l158.2,91.94
				c5.29,3.08,13.9,3.08,19.24,0l202.46-116.89c2.64-1.52,3.97-3.51,4.01-5.51l0.01,0L442.27,317.28L442.27,317.28z"/>
		</g>
		<path style="fill:#BA68C8;" d="M58.37,347.88l158.2,91.94c5.29,3.08,13.9,3.08,19.24,0l202.46-116.89
			c2.7-1.56,4.04-3.61,4.01-5.65c-0.02-1.99-1.33-3.97-3.94-5.49l-158.2-91.94c-5.3-3.08-13.91-3.08-19.24,0L58.43,336.74
			c-2.58,1.49-3.9,3.42-4,5.37C54.33,344.19,55.63,346.29,58.37,347.88z"/>
		<path style="opacity:0.1;" d="M58.37,347.88l158.2,91.94c5.29,3.08,13.9,3.08,19.24,0l202.46-116.89c2.7-1.56,4.04-3.61,4.01-5.65
			c-0.02-1.99-1.33-3.97-3.94-5.49l-158.2-91.94c-5.3-3.08-13.91-3.08-19.24,0L58.43,336.74c-2.58,1.49-3.9,3.42-4,5.37
			C54.33,344.19,55.63,346.29,58.37,347.88z"/>
		<path style="opacity:0.3;fill:#FFFFFF;" d="M58.37,347.88l158.2,91.94c5.29,3.08,13.9,3.08,19.24,0l202.46-116.89
			c2.7-1.56,4.04-3.61,4.01-5.65c-0.02-1.99-1.33-3.97-3.94-5.49l-158.2-91.94c-5.3-3.08-13.91-3.08-19.24,0L58.43,336.74
			c-2.58,1.49-3.9,3.42-4,5.37C54.33,344.19,55.63,346.29,58.37,347.88z"/>
		<g style="opacity:0.3;">
			<g>
				<path style="fill:#FFFFFF;" d="M226.19,421.81l-136.7-79.45L270.5,237.86l136.7,79.45L226.19,421.81z M94.91,342.37
					l131.28,76.29L401.78,317.3L270.5,241L94.91,342.37z"/>
			</g>
			<g>
				<path style="fill:#FFFFFF;" d="M226.2,413.43l-122.24-71.04l166.53-96.15l122.24,71.04L226.2,413.43z M109.39,342.39
					l116.81,67.89l161.1-93.01l-116.82-67.89L109.39,342.39z"/>
			</g>
		</g>
	</g>
</g>
<g id="Window">
	<g>
		<g>
			<g style="enable-background:new    ;">
				<g>
					<polygon style="fill:#F0F0F0;" points="179.07,63.32 174.92,60.91 175.17,166.89 179.32,169.3 					"/>
				</g>
				<g>
					<polygon style="fill:#F5F5F5;" points="179.32,169.3 175.17,166.89 55.43,236.02 59.58,238.44 					"/>
				</g>
				<g>
					<path style="fill:#E0E0E0;" d="M184.11,172.03L54.82,246.68l-0.27-116.96l129.29-74.65L184.11,172.03z M59.58,238.44
						l119.74-69.13l-0.24-105.98L59.33,132.46L59.58,238.44"/>
				</g>
				<g>
					<polygon style="fill:#F5F5F5;" points="183.84,55.08 179.68,52.66 50.39,127.31 54.54,129.73 					"/>
				</g>
				<g>
					<polygon style="fill:#F0F0F0;" points="54.54,129.73 50.39,127.31 50.66,244.27 54.82,246.68 					"/>
				</g>
			</g>
		</g>
		<g>
			<polygon style="fill:#E0E0E0;" points="121.6,96.51 121.84,202.49 117.06,205.25 116.82,99.27 			"/>
			<polygon style="fill:#F0F0F0;" points="116.82,99.27 116.82,99.27 117.06,205.25 112.91,202.84 112.68,101.66 			"/>
			
				<rect x="116.45" y="97.89" transform="matrix(0.866 -0.5 0.5 0.866 -32.9741 72.7179)" style="fill:#E0E0E0;" width="5.52" height="0"/>
		</g>
		<polygon style="opacity:0.2;" points="116.83,103.12 116.82,99.27 121.6,96.51 121.61,100.36 116.83,103.12 		"/>
		<polygon style="opacity:0.2;" points="116.83,103.12 113.48,101.19 116.82,99.27 116.82,99.27 		"/>
		
			<rect x="116.45" y="97.89" transform="matrix(0.866 -0.5 0.5 0.866 -32.9745 72.7203)" style="fill:#E0E0E0;" width="5.52" height="0"/>
	</g>
</g>
<g id="Shadows_1_">
	<path style="opacity:0.1;" d="M89.25,333.03c-6.2-3.58-16.23-3.58-22.4,0c-6.16,3.58-6.13,9.39,0.07,12.97
		c6.21,3.58,16.23,3.58,22.4,0C95.49,342.42,95.45,336.61,89.25,333.03z"/>
	<path style="opacity:0.1;" d="M321.32,298.4l30.39-17.54c0.9-0.52,0.9-1.81,0-2.33l-26.78-15.56c-0.42-0.24-0.93-0.24-1.35,0
		l-31.06,17.93c-0.9,0.52-0.9,1.81,0,2.33l26.11,15.17C319.46,298.88,320.49,298.88,321.32,298.4z"/>
	<path style="opacity:0.1;" d="M268.48,363.66c-16.4-9.47-42.89-9.47-59.18,0c-16.29,9.47-16.2,24.82,0.19,34.28
		c16.4,9.47,42.9,9.47,59.19,0C284.97,388.47,284.88,373.13,268.48,363.66z"/>
	<path style="opacity:0.1;" d="M304.88,317.14c-13.81-7.97-36.13-7.97-49.86,0c-13.72,7.98-13.65,20.91,0.16,28.88
		c13.81,7.98,36.14,7.98,49.86,0C318.77,338.04,318.7,325.11,304.88,317.14z"/>
	<polygon style="opacity:0.15;" points="462.91,302.81 447.97,312.08 332.51,244.91 194.86,243.33 195.33,228.59 341.97,228.59 	"/>
</g>
<g id="Album">
	<g>
		<g>
			<g>
				<path style="fill:#37474F;" d="M350.88,74.93c-0.82,0-1.49-0.67-1.5-1.49c-0.01-1.94-1.44-3.83-4.01-5.31
					c-3.98-2.3-9.82-3.12-15.24-2.13c-0.81,0.14-1.6-0.39-1.74-1.21c-0.15-0.82,0.39-1.6,1.21-1.74c6.08-1.1,12.7-0.15,17.27,2.49
					c3.54,2.04,5.49,4.84,5.51,7.89C352.39,74.25,351.72,74.92,350.88,74.93C350.89,74.93,350.89,74.93,350.88,74.93z"/>
			</g>
			<g>
				<path style="fill:#37474F;" d="M350.88,85.31c-0.82,0-1.49-0.67-1.5-1.49c-0.01-1.94-1.44-3.83-4.01-5.31
					c-3.98-2.3-9.82-3.12-15.24-2.13c-0.81,0.14-1.6-0.39-1.74-1.21c-0.15-0.82,0.39-1.6,1.21-1.74c6.08-1.1,12.7-0.15,17.27,2.49
					c3.54,2.04,5.49,4.84,5.51,7.89C352.39,84.63,351.72,85.31,350.88,85.31C350.89,85.31,350.89,85.31,350.88,85.31z"/>
			</g>
			<g>
				<path style="fill:#37474F;" d="M350.88,95.7c-0.82,0-1.49-0.67-1.5-1.49c-0.01-1.94-1.44-3.83-4.01-5.31
					c-3.98-2.3-9.82-3.12-15.24-2.13c-0.81,0.14-1.6-0.39-1.74-1.21c-0.15-0.82,0.39-1.6,1.21-1.74c6.08-1.1,12.7-0.15,17.27,2.49
					c3.54,2.04,5.49,4.84,5.51,7.89C352.39,95.02,351.72,95.69,350.88,95.7C350.89,95.7,350.89,95.7,350.88,95.7z"/>
			</g>
			<g>
				<path style="fill:#37474F;" d="M350.88,106.08c-0.82,0-1.49-0.67-1.5-1.49c-0.01-1.94-1.44-3.83-4.01-5.31
					c-3.98-2.3-9.82-3.12-15.24-2.13c-0.81,0.14-1.6-0.39-1.74-1.21c-0.15-0.82,0.39-1.6,1.21-1.74c6.08-1.1,12.7-0.15,17.27,2.49
					c3.54,2.04,5.49,4.84,5.51,7.89C352.39,105.4,351.72,106.07,350.88,106.08C350.89,106.08,350.89,106.08,350.88,106.08z"/>
			</g>
			<g>
				<path style="fill:#37474F;" d="M350.88,116.46c-0.82,0-1.49-0.67-1.5-1.49c-0.01-1.94-1.44-3.83-4.01-5.31
					c-3.98-2.3-9.82-3.12-15.24-2.13c-0.81,0.14-1.6-0.39-1.74-1.21c-0.15-0.82,0.39-1.6,1.21-1.74c6.08-1.1,12.7-0.15,17.27,2.49
					c3.54,2.04,5.49,4.84,5.51,7.89C352.39,115.78,351.72,116.46,350.88,116.46C350.89,116.46,350.89,116.46,350.88,116.46z"/>
			</g>
			<g>
				<path style="fill:#37474F;" d="M350.88,126.85c-0.82,0-1.49-0.67-1.5-1.49c-0.01-1.94-1.44-3.83-4.01-5.31
					c-3.98-2.3-9.82-3.12-15.24-2.13c-0.81,0.14-1.6-0.39-1.74-1.21c-0.15-0.82,0.39-1.6,1.21-1.74c6.08-1.1,12.7-0.15,17.27,2.49
					c3.54,2.04,5.49,4.84,5.51,7.89C352.39,126.17,351.72,126.84,350.88,126.85C350.89,126.85,350.89,126.85,350.88,126.85z"/>
			</g>
			<g>
				<path style="fill:#37474F;" d="M350.88,137.23c-0.82,0-1.49-0.67-1.5-1.49c-0.01-1.94-1.44-3.83-4.01-5.31
					c-3.98-2.3-9.82-3.12-15.24-2.13c-0.81,0.14-1.6-0.39-1.74-1.21c-0.15-0.82,0.39-1.6,1.21-1.74c6.08-1.1,12.7-0.15,17.27,2.49
					c3.54,2.04,5.49,4.84,5.51,7.89C352.39,136.55,351.72,137.22,350.88,137.23C350.89,137.23,350.89,137.23,350.88,137.23z"/>
			</g>
			<g>
				<path style="fill:#37474F;" d="M350.88,147.61c-0.82,0-1.49-0.67-1.5-1.49c-0.01-1.94-1.44-3.83-4.01-5.31
					c-3.98-2.3-9.82-3.12-15.24-2.13c-0.81,0.14-1.6-0.39-1.74-1.21c-0.15-0.82,0.39-1.6,1.21-1.74c6.08-1.1,12.7-0.15,17.27,2.49
					c3.54,2.04,5.49,4.84,5.51,7.89C352.39,146.93,351.72,147.61,350.88,147.61C350.89,147.61,350.89,147.61,350.88,147.61z"/>
			</g>
			<g>
				<path style="fill:#37474F;" d="M350.88,158c-0.82,0-1.49-0.67-1.5-1.49c-0.01-1.94-1.44-3.83-4.01-5.31
					c-3.98-2.3-9.82-3.12-15.24-2.13c-0.81,0.14-1.6-0.39-1.74-1.21c-0.15-0.82,0.39-1.6,1.21-1.74c6.08-1.1,12.7-0.15,17.27,2.49
					c3.54,2.04,5.49,4.84,5.51,7.89C352.39,157.32,351.72,157.99,350.88,158C350.89,158,350.89,158,350.88,158z"/>
			</g>
			<g>
				<path style="fill:#37474F;" d="M350.88,168.38c-0.82,0-1.49-0.67-1.5-1.49c-0.01-1.94-1.44-3.83-4.01-5.31
					c-3.98-2.3-9.82-3.12-15.24-2.13c-0.81,0.14-1.6-0.39-1.74-1.21c-0.15-0.82,0.39-1.6,1.21-1.74c6.08-1.1,12.7-0.15,17.27,2.49
					c3.54,2.04,5.49,4.84,5.51,7.89C352.39,167.7,351.72,168.37,350.88,168.38C350.89,168.38,350.89,168.38,350.88,168.38z"/>
			</g>
			<g>
				<path style="fill:#37474F;" d="M350.88,178.76c-0.82,0-1.49-0.67-1.5-1.49c-0.01-1.94-1.44-3.83-4.01-5.31
					c-3.98-2.3-9.82-3.12-15.24-2.13c-0.81,0.14-1.6-0.39-1.74-1.21c-0.15-0.82,0.39-1.6,1.21-1.74c6.08-1.1,12.7-0.15,17.27,2.49
					c3.54,2.04,5.49,4.84,5.51,7.89C352.39,178.08,351.72,178.76,350.88,178.76C350.89,178.76,350.89,178.76,350.88,178.76z"/>
			</g>
			<g>
				<path style="fill:#37474F;" d="M350.88,189.15c-0.82,0-1.49-0.66-1.5-1.49c-0.01-1.94-1.44-3.83-4.01-5.31
					c-3.98-2.3-9.82-3.12-15.24-2.13c-0.81,0.14-1.6-0.39-1.74-1.21c-0.15-0.82,0.39-1.6,1.21-1.74c6.08-1.1,12.7-0.15,17.27,2.49
					c3.54,2.04,5.49,4.84,5.51,7.89C352.39,188.47,351.72,189.14,350.88,189.15C350.89,189.15,350.89,189.15,350.88,189.15z"/>
			</g>
			<g>
				<path style="fill:#37474F;" d="M350.88,199.53c-0.82,0-1.49-0.66-1.5-1.49c-0.01-1.94-1.44-3.83-4.01-5.31
					c-3.98-2.3-9.82-3.12-15.24-2.13c-0.81,0.14-1.6-0.39-1.74-1.21c-0.15-0.82,0.39-1.6,1.21-1.74c6.08-1.1,12.7-0.15,17.27,2.49
					c3.54,2.04,5.49,4.84,5.51,7.89C352.39,198.85,351.72,199.52,350.88,199.53C350.89,199.53,350.89,199.53,350.88,199.53z"/>
			</g>
			<g>
				<path style="fill:#37474F;" d="M350.88,209.91c-0.82,0-1.49-0.66-1.5-1.49c-0.01-1.94-1.44-3.83-4.01-5.31
					c-3.98-2.3-9.82-3.12-15.24-2.13c-0.81,0.14-1.6-0.39-1.74-1.21c-0.15-0.82,0.39-1.6,1.21-1.74c6.08-1.1,12.7-0.15,17.27,2.49
					c3.54,2.04,5.49,4.84,5.51,7.89C352.39,209.23,351.72,209.91,350.88,209.91C350.89,209.91,350.89,209.91,350.88,209.91z"/>
			</g>
			<g>
				<path style="fill:#37474F;" d="M350.88,220.3c-0.82,0-1.49-0.66-1.5-1.49c-0.01-1.94-1.44-3.83-4.01-5.31
					c-3.98-2.3-9.82-3.12-15.24-2.13c-0.81,0.14-1.6-0.39-1.74-1.21c-0.15-0.82,0.39-1.6,1.21-1.74c6.08-1.1,12.7-0.15,17.27,2.49
					c3.54,2.04,5.49,4.84,5.51,7.89C352.39,219.62,351.72,220.29,350.88,220.3C350.89,220.3,350.89,220.3,350.88,220.3z"/>
			</g>
			<g>
				<path style="fill:#37474F;" d="M350.88,230.68c-0.82,0-1.49-0.67-1.5-1.49c-0.01-1.94-1.44-3.83-4.01-5.31
					c-3.98-2.3-9.82-3.12-15.24-2.13c-0.81,0.14-1.6-0.39-1.74-1.21c-0.15-0.82,0.39-1.6,1.21-1.74c6.08-1.1,12.7-0.15,17.27,2.49
					c3.54,2.04,5.49,4.84,5.51,7.89C352.39,230,351.72,230.67,350.88,230.68C350.89,230.68,350.89,230.68,350.88,230.68z"/>
			</g>
		</g>
		<g>
			<rect x="197.09" y="59.97" style="fill:#BA68C8;" width="135.78" height="2.17"/>
			<rect x="197.09" y="59.97" style="opacity:0.4;fill:#FFFFFF;" width="135.78" height="2.17"/>
			<rect x="197.09" y="62.14" style="fill:#BA68C8;" width="135.78" height="166.99"/>
			<rect x="197.09" y="62.14" style="opacity:0.2;fill:#FFFFFF;" width="135.78" height="166.99"/>
		</g>
		<g>
			<rect x="197.09" y="64.1" style="fill:#F0F0F0;" width="135.78" height="2.17"/>
			<rect x="197.09" y="66.26" style="fill:#E0E0E0;" width="135.78" height="166.99"/>
		</g>
		<g>
			<rect x="197.09" y="68.22" style="fill:#F0F0F0;" width="135.78" height="2.17"/>
			<rect x="197.09" y="70.39" style="fill:#E0E0E0;" width="135.78" height="166.99"/>
		</g>
		<g>
			<g>
				<polygon style="fill:#BA68C8;" points="458.47,133.1 457.99,302.26 345.26,237.17 345.74,68.01 				"/>
			</g>
			<polygon style="fill:#BA68C8;" points="345.74,68.01 347.3,66.72 460.41,132.02 458.47,133.1 			"/>
			<polygon style="fill:#BA68C8;" points="458.05,302.26 459.98,301.17 460.41,132.02 458.47,133.1 			"/>
		</g>
		<g style="opacity:0.2;">
			<polygon style="fill:#FFFFFF;" points="458.47,133.1 457.99,302.26 345.26,237.17 345.74,68.01 			"/>
		</g>
		<polygon style="opacity:0.4;fill:#FFFFFF;" points="345.74,68.01 347.3,66.72 460.41,132.02 458.47,133.1 		"/>
		<g>
			<g>
				<polygon style="fill:#E0E0E0;" points="454.97,135.27 454.49,304.42 341.76,239.34 342.24,70.18 				"/>
			</g>
			<g>
				<g>
					<path style="fill:#FAFAFA;" d="M361.64,159.58l73.27,42.3l0.18-62.82l-73.27-42.3L361.64,159.58z M367.9,156.02l0.14-48.51
						l5.14,2.97l55.67,32.14l-0.12,42.54l-0.02,5.96L367.9,156.02z"/>
				</g>
				<g>
					<g style="enable-background:new    ;">
						<g>
							<polygon style="fill:#FAFAFA;" points="387.8,129.67 371.84,142.24 371.81,154.52 424.89,185.16 424.92,172.89 414.81,152.8 
								405.73,159.85 408.94,169.83 404.28,160.97 							"/>
						</g>
						<g>
							<path style="fill:#FAFAFA;" d="M405.24,135.86c-2.5-1.44-4.53-0.28-4.54,2.59c-0.01,2.87,2.01,6.37,4.51,7.81
								c2.5,1.44,4.53,0.28,4.54-2.59C409.76,140.8,407.74,137.3,405.24,135.86z"/>
						</g>
					</g>
				</g>
			</g>
			<g>
				<g>
					<path style="fill:#FAFAFA;" d="M361.64,235.54l73.27,42.3l0.18-62.82l-73.27-42.3L361.64,235.54z M367.9,231.97l0.14-48.51
						l5.14,2.97l55.67,32.14l-0.12,42.54l-0.02,5.96L367.9,231.97z"/>
				</g>
				<g>
					<g style="enable-background:new    ;">
						<g>
							<polygon style="fill:#FAFAFA;" points="387.8,205.63 371.84,218.19 371.81,230.47 424.89,261.11 424.92,248.84 
								414.81,228.75 405.73,235.8 408.94,245.78 404.28,236.92 							"/>
						</g>
						<g>
							<path style="fill:#FAFAFA;" d="M405.24,211.81c-2.5-1.44-4.53-0.28-4.54,2.59c-0.01,2.87,2.01,6.37,4.51,7.81
								c2.5,1.44,4.53,0.28,4.54-2.59C409.76,216.75,407.74,213.25,405.24,211.81z"/>
						</g>
					</g>
				</g>
			</g>
			<polygon style="fill:#FAFAFA;" points="342.24,70.18 343.8,68.88 456.91,134.18 454.97,135.27 			"/>
			<polygon style="fill:#F0F0F0;" points="454.55,304.42 456.48,303.34 456.91,134.18 454.97,135.27 			"/>
		</g>
		<g>
			<g>
				<polygon style="fill:#E0E0E0;" points="451.47,137.44 450.99,306.59 338.26,241.5 338.74,72.35 				"/>
			</g>
			<g>
				<g>
					<path style="fill:#FAFAFA;" d="M358.14,161.75l73.27,42.3l0.18-62.82l-73.27-42.3L358.14,161.75z M364.4,158.19l0.14-48.51
						l5.14,2.97l55.67,32.14l-0.12,42.54l-0.02,5.96L364.4,158.19z"/>
				</g>
				<g>
					<g style="enable-background:new    ;">
						<g>
							<polygon style="fill:#FAFAFA;" points="384.3,131.84 368.34,144.41 368.31,156.68 421.39,187.33 421.42,175.05 
								411.31,154.96 402.23,162.01 405.44,171.99 400.78,163.13 							"/>
						</g>
						<g>
							<path style="fill:#FAFAFA;" d="M401.74,138.03c-2.5-1.44-4.53-0.28-4.54,2.59c-0.01,2.87,2.01,6.37,4.51,7.81
								c2.5,1.44,4.53,0.28,4.54-2.59C406.26,142.97,404.24,139.47,401.74,138.03z"/>
						</g>
					</g>
				</g>
			</g>
			<g>
				<g>
					<path style="fill:#FAFAFA;" d="M358.14,237.7l73.27,42.3l0.18-62.82l-73.27-42.3L358.14,237.7z M364.4,234.14l0.14-48.51
						l5.14,2.97l55.67,32.14l-0.12,42.54l-0.02,5.96L364.4,234.14z"/>
				</g>
				<g>
					<g style="enable-background:new    ;">
						<g>
							<polygon style="fill:#FAFAFA;" points="384.3,207.79 368.34,220.36 368.31,232.63 421.39,263.28 421.42,251 411.31,230.91 
								402.23,237.96 405.44,247.94 400.78,239.08 							"/>
						</g>
						<g>
							<path style="fill:#FAFAFA;" d="M401.74,213.98c-2.5-1.44-4.53-0.28-4.54,2.59c-0.01,2.87,2.01,6.37,4.51,7.81
								c2.5,1.44,4.53,0.28,4.54-2.59C406.26,218.92,404.24,215.42,401.74,213.98z"/>
						</g>
					</g>
				</g>
			</g>
			<polygon style="fill:#FAFAFA;" points="338.74,72.35 340.3,71.05 453.41,136.35 451.47,137.44 			"/>
			<polygon style="fill:#F0F0F0;" points="451.05,306.59 452.98,305.5 453.41,136.35 451.47,137.44 			"/>
		</g>
		<g>
			<g>
				<polygon style="fill:#E0E0E0;" points="447.97,139.6 447.49,308.76 334.76,243.67 335.24,74.51 				"/>
			</g>
			<g>
				<g>
					<path style="fill:#FAFAFA;" d="M360.14,167.11l73.27,42.3l0.18-62.82l-73.27-42.3L360.14,167.11z M366.4,163.54l0.14-48.51
						l5.14,2.97l55.67,32.14l-0.12,42.54l-0.02,5.96L366.4,163.54z"/>
				</g>
				<g>
					<g style="enable-background:new    ;">
						<g>
							<polygon style="fill:#FAFAFA;" points="386.3,137.2 370.34,149.76 370.31,162.04 423.39,192.69 423.42,180.41 413.31,160.32 
								404.23,167.37 407.44,177.35 402.78,168.49 							"/>
						</g>
						<g>
							<path style="fill:#FAFAFA;" d="M403.74,143.38c-2.5-1.44-4.53-0.28-4.54,2.59c-0.01,2.87,2.01,6.37,4.51,7.81
								c2.5,1.44,4.53,0.28,4.54-2.59C408.26,148.32,406.24,144.82,403.74,143.38z"/>
						</g>
					</g>
				</g>
			</g>
			<g>
				<g>
					<path style="fill:#FAFAFA;" d="M360.14,243.06l73.27,42.3l0.18-62.82l-73.27-42.3L360.14,243.06z M366.4,239.49l0.14-48.51
						l5.14,2.97l55.67,32.14l-0.12,42.54l-0.02,5.96L366.4,239.49z"/>
				</g>
				<g>
					<g style="enable-background:new    ;">
						<g>
							<polygon style="fill:#FAFAFA;" points="386.3,213.15 370.34,225.71 370.31,237.99 423.39,268.64 423.42,256.36 
								413.31,236.27 404.23,243.32 407.44,253.3 402.78,244.44 							"/>
						</g>
						<g>
							<path style="fill:#FAFAFA;" d="M403.74,219.33c-2.5-1.44-4.53-0.28-4.54,2.59c-0.01,2.87,2.01,6.37,4.51,7.81
								c2.5,1.44,4.53,0.28,4.54-2.59C408.26,224.27,406.24,220.78,403.74,219.33z"/>
						</g>
					</g>
				</g>
			</g>
			<polygon style="fill:#FAFAFA;" points="335.24,74.51 336.8,73.22 449.91,138.52 447.97,139.6 			"/>
			<polygon style="fill:#F0F0F0;" points="447.55,308.76 449.48,307.67 449.91,138.52 447.97,139.6 			"/>
		</g>
		<g>
			<rect x="197.09" y="72.35" style="fill:#F0F0F0;" width="135.78" height="2.17"/>
			<rect x="197.09" y="74.51" style="fill:#E0E0E0;" width="135.78" height="166.99"/>
		</g>
		<g>
			<path style="fill:#455A64;" d="M334.86,84.26c-4.48,0-8.91-1.02-12.21-2.93c-0.72-0.41-0.96-1.33-0.55-2.05
				c0.41-0.72,1.33-0.96,2.05-0.55c4.18,2.41,10.48,3.19,16.06,1.97c0.81-0.18,1.61,0.34,1.79,1.14c0.18,0.81-0.33,1.61-1.14,1.79
				C338.9,84.06,336.87,84.26,334.86,84.26z"/>
		</g>
		<g>
			<path style="fill:#455A64;" d="M334.86,94.65c-4.48,0-8.91-1.02-12.21-2.93c-0.72-0.41-0.96-1.33-0.55-2.05
				c0.41-0.72,1.33-0.96,2.05-0.55c4.18,2.41,10.48,3.19,16.06,1.97c0.81-0.18,1.61,0.34,1.79,1.14c0.18,0.81-0.33,1.61-1.14,1.79
				C338.9,94.44,336.87,94.65,334.86,94.65z"/>
		</g>
		<g>
			<path style="fill:#455A64;" d="M334.86,105.03c-4.48,0-8.91-1.02-12.21-2.93c-0.72-0.41-0.96-1.33-0.55-2.05
				c0.41-0.72,1.33-0.96,2.05-0.55c4.18,2.41,10.48,3.19,16.06,1.97c0.81-0.18,1.61,0.34,1.79,1.14c0.18,0.81-0.33,1.61-1.14,1.79
				C338.9,104.82,336.87,105.03,334.86,105.03z"/>
		</g>
		<g>
			<path style="fill:#455A64;" d="M334.86,115.41c-4.48,0-8.91-1.02-12.21-2.93c-0.72-0.41-0.96-1.33-0.55-2.05
				c0.41-0.72,1.33-0.96,2.05-0.55c4.18,2.41,10.48,3.19,16.06,1.97c0.81-0.18,1.61,0.34,1.79,1.14c0.18,0.81-0.33,1.61-1.14,1.79
				C338.9,115.21,336.87,115.41,334.86,115.41z"/>
		</g>
		<g>
			<path style="fill:#455A64;" d="M334.86,125.8c-4.48,0-8.91-1.02-12.21-2.93c-0.72-0.41-0.96-1.33-0.55-2.05
				c0.41-0.72,1.33-0.96,2.05-0.55c4.18,2.41,10.48,3.19,16.06,1.97c0.81-0.18,1.61,0.34,1.79,1.14c0.18,0.81-0.33,1.61-1.14,1.79
				C338.9,125.59,336.87,125.8,334.86,125.8z"/>
		</g>
		<g>
			<path style="fill:#455A64;" d="M334.86,136.18c-4.48,0-8.91-1.02-12.21-2.93c-0.72-0.41-0.96-1.33-0.55-2.05
				c0.41-0.72,1.33-0.96,2.05-0.55c4.18,2.41,10.48,3.19,16.06,1.97c0.81-0.18,1.61,0.34,1.79,1.14c0.18,0.81-0.33,1.61-1.14,1.79
				C338.9,135.97,336.87,136.18,334.86,136.18z"/>
		</g>
		<g>
			<path style="fill:#455A64;" d="M334.86,146.56c-4.48,0-8.91-1.02-12.21-2.93c-0.72-0.41-0.96-1.33-0.55-2.05
				c0.41-0.72,1.33-0.96,2.05-0.55c4.18,2.41,10.48,3.19,16.06,1.97c0.81-0.18,1.61,0.34,1.79,1.14c0.18,0.81-0.33,1.61-1.14,1.79
				C338.9,146.36,336.87,146.56,334.86,146.56z"/>
		</g>
		<g>
			<path style="fill:#455A64;" d="M334.86,156.95c-4.48,0-8.91-1.02-12.21-2.93c-0.72-0.41-0.96-1.33-0.55-2.05
				c0.41-0.72,1.33-0.96,2.05-0.55c4.18,2.41,10.48,3.19,16.06,1.97c0.81-0.18,1.61,0.34,1.79,1.14c0.18,0.81-0.33,1.61-1.14,1.79
				C338.9,156.74,336.87,156.95,334.86,156.95z"/>
		</g>
		<g>
			<path style="fill:#455A64;" d="M334.86,167.33c-4.48,0-8.91-1.02-12.21-2.93c-0.72-0.41-0.96-1.33-0.55-2.05
				c0.41-0.72,1.33-0.96,2.05-0.55c4.18,2.41,10.48,3.19,16.06,1.97c0.81-0.18,1.61,0.34,1.79,1.14c0.18,0.81-0.33,1.61-1.14,1.79
				C338.9,167.12,336.87,167.33,334.86,167.33z"/>
		</g>
		<g>
			<path style="fill:#455A64;" d="M334.86,177.71c-4.48,0-8.91-1.02-12.21-2.93c-0.72-0.41-0.96-1.33-0.55-2.05
				c0.41-0.72,1.33-0.96,2.05-0.55c4.18,2.41,10.48,3.19,16.06,1.97c0.81-0.18,1.61,0.34,1.79,1.14c0.18,0.81-0.33,1.61-1.14,1.79
				C338.9,177.51,336.87,177.71,334.86,177.71z"/>
		</g>
		<g>
			<path style="fill:#455A64;" d="M334.86,188.1c-4.48,0-8.91-1.02-12.21-2.93c-0.72-0.41-0.96-1.33-0.55-2.05
				c0.41-0.72,1.33-0.96,2.05-0.55c4.18,2.41,10.48,3.19,16.06,1.97c0.81-0.18,1.61,0.34,1.79,1.14c0.18,0.81-0.33,1.61-1.14,1.79
				C338.9,187.89,336.87,188.1,334.86,188.1z"/>
		</g>
		<g>
			<path style="fill:#455A64;" d="M334.86,198.48c-4.48,0-8.91-1.02-12.21-2.93c-0.72-0.41-0.96-1.33-0.55-2.05
				c0.41-0.72,1.33-0.96,2.05-0.55c4.18,2.41,10.48,3.19,16.06,1.97c0.81-0.18,1.61,0.34,1.79,1.14c0.18,0.81-0.33,1.61-1.14,1.79
				C338.9,198.27,336.87,198.48,334.86,198.48z"/>
		</g>
		<g>
			<path style="fill:#455A64;" d="M334.86,208.86c-4.48,0-8.91-1.02-12.21-2.93c-0.72-0.41-0.96-1.33-0.55-2.05
				c0.41-0.72,1.33-0.96,2.05-0.55c4.18,2.41,10.48,3.19,16.06,1.97c0.81-0.18,1.61,0.34,1.79,1.14c0.18,0.81-0.33,1.61-1.14,1.79
				C338.9,208.66,336.87,208.86,334.86,208.86z"/>
		</g>
		<g>
			<path style="fill:#455A64;" d="M334.86,219.25c-4.48,0-8.91-1.02-12.21-2.93c-0.72-0.41-0.96-1.33-0.55-2.05
				c0.41-0.72,1.33-0.96,2.05-0.55c4.18,2.41,10.48,3.19,16.06,1.97c0.81-0.18,1.61,0.34,1.79,1.14c0.18,0.81-0.33,1.61-1.14,1.79
				C338.9,219.04,336.87,219.25,334.86,219.25z"/>
		</g>
		<g>
			<path style="fill:#455A64;" d="M334.86,229.63c-4.48,0-8.91-1.02-12.21-2.93c-0.72-0.41-0.96-1.33-0.55-2.05
				c0.41-0.72,1.33-0.96,2.05-0.55c4.18,2.41,10.48,3.19,16.06,1.97c0.81-0.18,1.61,0.34,1.79,1.14c0.18,0.81-0.33,1.61-1.14,1.79
				C338.9,229.42,336.87,229.63,334.86,229.63z"/>
		</g>
		<g>
			<path style="fill:#455A64;" d="M334.86,240.01c-4.48,0-8.91-1.02-12.21-2.93c-0.72-0.41-0.96-1.33-0.55-2.05
				c0.41-0.72,1.33-0.96,2.05-0.55c4.18,2.41,10.48,3.19,16.06,1.97c0.81-0.18,1.61,0.34,1.79,1.14c0.18,0.81-0.33,1.61-1.14,1.79
				C338.9,239.81,336.87,240.01,334.86,240.01z"/>
		</g>
		<g>
			<path style="fill:#FAFAFA;" d="M215.6,91.72v58.73h90.51V91.72H215.6z M299.49,143.82h-77.27V98.34h77.27V143.82z"/>
			<polygon style="fill:#FAFAFA;" points="279.76,115.16 269.38,125.54 273.13,132.66 247.78,107.31 226.01,129.07 226.01,140.04 
				295.71,140.04 295.71,131.11 			"/>
			<path style="fill:#FAFAFA;" d="M272.64,110.3c0,2.89-2.35,5.24-5.24,5.24c-2.89,0-5.24-2.35-5.24-5.24s2.35-5.24,5.24-5.24
				C270.3,105.06,272.64,107.4,272.64,110.3z"/>
		</g>
		<g>
			<path style="fill:#FAFAFA;" d="M215.6,163.99v58.73h90.51v-58.73H215.6z M299.49,216.1h-77.27v-45.48h77.27V216.1z"/>
			<polygon style="fill:#FAFAFA;" points="279.76,187.44 269.38,197.82 273.13,204.93 247.78,179.58 226.01,201.35 226.01,212.32 
				295.71,212.32 295.71,203.39 			"/>
			<path style="fill:#FAFAFA;" d="M272.64,182.57c0,2.89-2.35,5.24-5.24,5.24c-2.89,0-5.24-2.35-5.24-5.24s2.35-5.24,5.24-5.24
				C270.3,177.33,272.64,179.68,272.64,182.57z"/>
		</g>
	</g>
</g>
<g id="Side_table">
	<g>
		<g>
			<polygon style="fill:#E6E6E6;" points="346.24,277.9 348.9,279.45 348.89,276.37 			"/>
			<polygon style="fill:#787878;" points="348.82,261.5 348.82,261.46 348.82,261.46 348.82,261.46 			"/>
			<rect x="335.89" y="254" style="fill:#CFCFCF;" width="0" height="29.86"/>
			<polygon style="fill:#CFCFCF;" points="348.78,246.54 322.92,261.47 322.92,261.47 			"/>
			<path style="fill:#BA68C8;" d="M348.89,276.37l0.01,3.07l2.77-1.6l-0.1-36.13l-31.44,18.15l0.1,36.13l2.77-1.6l-0.01-3.07
				l23.26-13.43L348.89,276.37z M322.92,261.47L322.92,261.47L322.92,261.47l25.86-14.93l0.03,11.72l-25.86,14.93L322.92,261.47z
				 M322.96,276.39L322.96,276.39L322.96,276.39l25.86-14.93l0,0l0,0.03l0.03,11.68L323,288.11L322.96,276.39z"/>
			<polygon style="fill:#BA68C8;" points="348.86,273.18 348.82,261.5 348.82,261.46 322.96,276.39 322.96,276.39 323,288.11 			"/>
			<polygon style="fill:#BA68C8;" points="348.81,258.26 348.78,246.54 322.92,261.47 322.92,261.47 322.95,273.19 			"/>
			<polygon style="fill:#BA68C8;" points="320.12,259.87 292.67,243.92 292.77,280.05 320.22,296 			"/>
			<polygon style="fill:#BA68C8;" points="320.12,259.87 351.56,241.72 324.11,225.77 292.67,243.92 			"/>
			<polygon style="fill:#E6E6E6;" points="346.24,277.9 348.9,279.45 348.89,276.37 			"/>
			<polygon style="fill:#787878;" points="348.82,261.5 348.82,261.46 348.82,261.46 348.82,261.46 			"/>
			<rect x="335.89" y="254" style="fill:#CFCFCF;" width="0" height="29.86"/>
			<polygon style="fill:#CFCFCF;" points="348.78,246.54 322.92,261.47 322.92,261.47 			"/>
			<path style="opacity:0.6;fill:#FFFFFF;" d="M348.89,276.37l0.01,3.07l2.77-1.6l-0.1-36.13l-31.44,18.15l0.1,36.13l2.77-1.6
				l-0.01-3.07l23.26-13.43L348.89,276.37z M322.92,261.47L322.92,261.47L322.92,261.47l25.86-14.93l0.03,11.72l-25.86,14.93
				L322.92,261.47z M322.96,276.39L322.96,276.39L322.96,276.39l25.86-14.93l0,0l0,0.03l0.03,11.68L323,288.11L322.96,276.39z"/>
			<polygon style="opacity:0.8;fill:#FFFFFF;" points="348.86,273.18 348.82,261.5 348.82,261.46 322.96,276.39 322.96,276.39 
				323,288.11 			"/>
			<polygon style="opacity:0.8;fill:#FFFFFF;" points="348.81,258.26 348.78,246.54 322.92,261.47 322.92,261.47 322.95,273.19 			
				"/>
			<polygon style="fill:#455A64;" points="340.35,255.76 340.34,254.15 331.38,259.32 331.38,259.32 331.4,260.94 			"/>
			<polygon style="fill:#455A64;" points="340.35,270.48 340.34,268.86 331.38,274.03 331.38,274.03 331.4,275.65 			"/>
			<polygon style="opacity:0.5;fill:#FFFFFF;" points="320.12,259.87 292.67,243.92 292.77,280.05 320.22,296 			"/>
			<polygon style="opacity:0.8;fill:#FFFFFF;" points="320.12,259.87 351.56,241.72 324.11,225.77 292.67,243.92 			"/>
		</g>
		<g>
			<path style="opacity:0.05;" d="M316.33,240.15c3.26-1.88,8.53-1.88,11.76,0c3.24,1.88,3.22,4.93-0.04,6.81
				c-3.26,1.88-8.53,1.88-11.76,0C313.05,245.08,313.07,242.03,316.33,240.15z"/>
			<g>
				<g>
					<path style="fill:#FFFFFF;" d="M313.5,228.31l8.94,0.26l8.94-0.26c0.39,6.04-0.79,12.19-2.42,15.2l-0.01,0
						c-0.29,0.66-0.88,1.28-1.77,1.8c-2.64,1.52-6.9,1.52-9.52,0c-0.91-0.53-1.49-1.17-1.77-1.85
						C314.29,240.43,313.12,234.32,313.5,228.31z"/>
					<g>
						<path style="fill:#EBEBEB;" d="M316.14,224.65c-3.5,2.02-3.52,5.3-0.04,7.32c3.48,2.02,9.14,2.02,12.64,0
							c3.5-2.02,3.52-5.3,0.04-7.32C325.31,222.62,319.65,222.62,316.14,224.65z"/>
					</g>
					<g>
						<path style="fill:#E0E0E0;" d="M317.53,225.45c-2.73,1.58-2.75,4.14-0.03,5.71c2.72,1.58,7.13,1.58,9.86,0
							c2.73-1.58,2.75-4.14,0.03-5.71C324.68,223.87,320.26,223.87,317.53,225.45z"/>
					</g>
					<g style="opacity:0.15;">
						<path d="M317.53,225.45c-2.73,1.58-2.75,4.14-0.03,5.71c2.72,1.58,7.13,1.58,9.86,0c2.73-1.58,2.75-4.14,0.03-5.71
							C324.68,223.87,320.26,223.87,317.53,225.45z"/>
					</g>
				</g>
				<g>
					<path style="fill:#BA68C8;" d="M323.19,228.56c-1.5,1.23-3.51,1.69-5.24,1.19c-1.73-0.49-3.14-1.92-3.68-3.72
						c1.09-0.48,1.95-1.18,2.87-1.99c-1.28-0.34-2.76-0.28-4.06,0.14c-0.7-1.07-0.88-2.62-0.31-3.87c1.54-0.68,3.31-0.8,4.85-0.34
						c-1.36-1.18-3.08-1.72-4.9-1.54c-0.18-4.39,1.18-7.53,1.18-7.53c3.33,0.17,6.57,1.61,7.65,2.64c0.19,1.33-0.37,3.54-0.37,3.54
						c1.52-0.84,1.55-2.29,1.55-2.29c2.09,0.52,2.98,1.56,3.3,2.36c-0.15,1.31-1.36,3.49-1.97,4c1.96-0.59,2.75-2.77,2.75-2.77
						C328.74,222.95,328.37,228.12,323.19,228.56z"/>
					<path style="opacity:0.2;" d="M323.19,228.56c-1.5,1.23-3.51,1.69-5.24,1.19c-1.73-0.49-3.14-1.92-3.68-3.72
						c1.09-0.48,1.95-1.18,2.87-1.99c-1.28-0.34-2.76-0.28-4.06,0.14c-0.7-1.07-0.88-2.62-0.31-3.87c1.54-0.68,3.31-0.8,4.85-0.34
						c-1.36-1.18-3.08-1.72-4.9-1.54c-0.18-4.39,1.18-7.53,1.18-7.53c3.33,0.17,6.57,1.61,7.65,2.64c0.19,1.33-0.37,3.54-0.37,3.54
						c1.52-0.84,1.55-2.29,1.55-2.29c2.09,0.52,2.98,1.56,3.3,2.36c-0.15,1.31-1.36,3.49-1.97,4c1.96-0.59,2.75-2.77,2.75-2.77
						C328.74,222.95,328.37,228.12,323.19,228.56z"/>
					<path style="opacity:0.3;fill:#FFFFFF;" d="M323.19,228.56c-1.5,1.23-3.51,1.69-5.24,1.19c-1.73-0.49-3.14-1.92-3.68-3.72
						c1.09-0.48,1.95-1.18,2.87-1.99c-1.28-0.34-2.76-0.28-4.06,0.14c-0.7-1.07-0.88-2.62-0.31-3.87c1.54-0.68,3.31-0.8,4.85-0.34
						c-1.36-1.18-3.08-1.72-4.9-1.54c-0.18-4.39,1.18-7.53,1.18-7.53c3.33,0.17,6.57,1.61,7.65,2.64c0.19,1.33-0.37,3.54-0.37,3.54
						c1.52-0.84,1.55-2.29,1.55-2.29c2.09,0.52,2.98,1.56,3.3,2.36c-0.15,1.31-1.36,3.49-1.97,4c1.96-0.59,2.75-2.77,2.75-2.77
						C328.74,222.95,328.37,228.12,323.19,228.56z"/>
					<g>
						<path style="fill:#F5F5F5;" d="M323.31,229.06c0.01,0,0.01,0,0.02,0c0.11-0.01,0.19-0.1,0.18-0.21
							c-0.32-4.21-2.73-11.16-8.47-16.89c-0.08-0.07-0.2-0.08-0.27,0c-0.08,0.08-0.08,0.2,0,0.27c5.67,5.66,8.04,12.5,8.36,16.65
							C323.12,228.98,323.21,229.06,323.31,229.06z"/>
					</g>
				</g>
				<g>
					<path style="fill:#BA68C8;" d="M321.73,230.81c1.33,1.09,3.19,1.49,4.85,1.05c1.66-0.44,3.08-1.7,3.71-3.3
						c-1.01-0.42-1.78-1.04-2.59-1.76c1.23-0.3,2.63-0.26,3.84,0.11c0.74-0.96,1.01-2.34,0.54-3.46c-1.42-0.59-3.09-0.7-4.57-0.27
						c1.36-1.06,3.03-1.55,4.75-1.41c0.45-3.93-0.64-6.72-0.64-6.72c-3.18,0.19-6.32,1.51-7.41,2.44c-0.26,1.19,0.13,3.15,0.13,3.15
						c-1.38-0.74-1.32-2.02-1.32-2.02c-1.99,0.48-2.89,1.41-3.24,2.12c0.06,1.16,1.06,3.08,1.6,3.53c-1.8-0.51-2.41-2.44-2.41-2.44
						C316.89,225.87,316.92,230.43,321.73,230.81z"/>
					<path style="opacity:0.3;fill:#FFFFFF;" d="M321.73,230.81c1.33,1.09,3.19,1.49,4.85,1.05c1.66-0.44,3.08-1.7,3.71-3.3
						c-1.01-0.42-1.78-1.04-2.59-1.76c1.23-0.3,2.63-0.26,3.84,0.11c0.74-0.96,1.01-2.34,0.54-3.46c-1.42-0.59-3.09-0.7-4.57-0.27
						c1.36-1.06,3.03-1.55,4.75-1.41c0.45-3.93-0.64-6.72-0.64-6.72c-3.18,0.19-6.32,1.51-7.41,2.44c-0.26,1.19,0.13,3.15,0.13,3.15
						c-1.38-0.74-1.32-2.02-1.32-2.02c-1.99,0.48-2.89,1.41-3.24,2.12c0.06,1.16,1.06,3.08,1.6,3.53c-1.8-0.51-2.41-2.44-2.41-2.44
						C316.89,225.87,316.92,230.43,321.73,230.81z"/>
					<g>
						<path style="fill:#FFFFFF;" d="M321.6,231.27c0.09,0,0.18-0.07,0.19-0.16c0.55-3.67,3.21-9.75,8.92-14.83
							c0.08-0.07,0.09-0.19,0.02-0.27c-0.07-0.08-0.19-0.09-0.27-0.02c-5.78,5.15-8.48,11.33-9.04,15.06
							c-0.02,0.11,0.06,0.2,0.16,0.22C321.58,231.27,321.59,231.27,321.6,231.27z"/>
					</g>
				</g>
			</g>
		</g>
	</g>
</g>
<g id="Plant">
	<g>
		<g>
			<path style="fill:#FFFFFF;" d="M93.11,312.42l-15.02,0.44l-15.02-0.44c-0.65,10.15,1.33,20.48,4.06,25.53l0.01,0
				c0.49,1.11,1.47,2.16,2.97,3.03c4.43,2.56,11.6,2.56,16,0c1.53-0.89,2.51-1.97,2.97-3.1C91.8,332.8,93.75,322.51,93.11,312.42z"
				/>
			<g>
				<path style="fill:#EBEBEB;" d="M88.68,306.27c5.89,3.4,5.92,8.91,0.07,12.31c-5.85,3.4-15.36,3.4-21.25,0
					c-5.89-3.4-5.92-8.91-0.07-12.31C73.28,302.87,82.79,302.87,88.68,306.27z"/>
			</g>
			<g>
				<path style="fill:#E0E0E0;" d="M86.35,307.62c4.59,2.65,4.62,6.95,0.05,9.6c-4.56,2.65-11.98,2.65-16.58,0
					c-4.59-2.65-4.62-6.95-0.05-9.6C74.34,304.97,81.76,304.97,86.35,307.62z"/>
			</g>
			<g style="opacity:0.15;">
				<path d="M86.35,307.62c4.59,2.65,4.62,6.95,0.05,9.6c-4.56,2.65-11.98,2.65-16.58,0c-4.59-2.65-4.62-6.95-0.05-9.6
					C74.34,304.97,81.76,304.97,86.35,307.62z"/>
			</g>
		</g>
		<g>
			<path style="fill:#BA68C8;" d="M102.79,248.31c-33.86,11.09-34.16,33.73-26.53,49.86c1.92,3.27,7.75,5.02,12.82-15.04l-8.89,1.14
				l10.36-5.25l2.69-8.05l-8.64,0.64L95.57,267C99.61,254.78,102.79,248.31,102.79,248.31z"/>
			<path style="opacity:0.2;" d="M102.79,248.31c-33.86,11.09-34.16,33.73-26.53,49.86c1.92,3.27,7.75,5.02,12.82-15.04l-8.89,1.14
				l10.36-5.25l2.69-8.05l-8.64,0.64L95.57,267C99.61,254.78,102.79,248.31,102.79,248.31z"/>
			<path style="opacity:0.2;fill:#FFFFFF;" d="M102.79,248.31c-33.86,11.09-34.16,33.73-26.53,49.86
				c1.92,3.27,7.75,5.02,12.82-15.04l-8.89,1.14l10.36-5.25l2.69-8.05l-8.64,0.64L95.57,267
				C99.61,254.78,102.79,248.31,102.79,248.31z"/>
			<path style="fill:#FFFFFF;" d="M93.21,253.98c-17.85,13.55-19.47,29.09-14.42,45.3C77.01,285,75.08,270.56,93.21,253.98z"/>
		</g>
		<g>
			<path style="fill:#BA68C8;" d="M45.45,271.32c33.37,4.7,37.42,25.74,32.99,42.03c-1.25,3.36-6.38,5.96-14.44-11.88l8.47-0.42
				l-10.52-3.17l-3.84-7.05l8.15-0.84l-10.98-2.47C49.48,276.82,45.45,271.32,45.45,271.32z"/>
			<path style="opacity:0.2;fill:#FFFFFF;" d="M45.45,271.32c33.37,4.7,37.42,25.74,32.99,42.03c-1.25,3.36-6.38,5.96-14.44-11.88
				l8.47-0.42l-10.52-3.17l-3.84-7.05l8.15-0.84l-10.98-2.47C49.48,276.82,45.45,271.32,45.45,271.32z"/>
			<path style="opacity:0.1;" d="M45.45,271.32c33.37,4.7,37.42,25.74,32.99,42.03c-1.25,3.36-6.38,5.96-14.44-11.88l8.47-0.42
				l-10.52-3.17l-3.84-7.05l8.15-0.84l-10.98-2.47C49.48,276.82,45.45,271.32,45.45,271.32z"/>
			<path style="fill:#FFFFFF;" d="M55.3,275c18.88,9.65,22.96,23.85,20.96,39.8C75.55,301.2,74.95,287.43,55.3,275z"/>
		</g>
		<g>
			<path style="fill:#BA68C8;" d="M112.55,279.2c-30.6,0.5-36.61,19.01-34.44,34.19c0.75,3.17,5.09,6.09,14.34-9.09l-7.59-1.32
				l9.84-1.68l4.25-5.92l-7.25-1.67l10.17-1C108.3,283.71,112.55,279.2,112.55,279.2z"/>
			<path style="fill:#FFFFFF;" d="M103.26,281.42c-18.1,6.59-23.36,18.93-23.34,33.52C82.08,302.77,84.16,290.43,103.26,281.42z"/>
			<path style="opacity:0.2;fill:#FFFFFF;" d="M112.55,279.2c-30.6,0.5-36.61,19.01-34.44,34.19c0.75,3.17,5.09,6.09,14.34-9.09
				l-7.59-1.32l9.84-1.68l4.25-5.92l-7.25-1.67l10.17-1C108.3,283.71,112.55,279.2,112.55,279.2z"/>
		</g>
	</g>
</g>
<g id="Characters">
	<path style="fill:#37474F;" d="M311.4,266.39c0,0.05,0.03,0.11,0.03,0.16v-0.17L311.4,266.39z"/>
	<g>
		<g>
			<g>
				<path style="fill:#455A64;" d="M253.44,177.99c-0.37-2.3-1.75-4.35-3.81-5.53l-9.2-5.28c-1.38-0.79-2.93-0.63-4.08,0.13l0,0
					l-126.89,75.47c-0.46,0.17-0.88,0.42-1.24,0.74l0,0l0,0c-0.79,0.7-1.32,1.71-1.32,2.92v86.07c0,2.79,1.49,5.37,3.91,6.76
					l15.03,8.63l127.7-75.88v-92.8C253.55,178.81,253.51,178.4,253.44,177.99z"/>
				<polygon style="opacity:0.2;fill:#FFFFFF;" points="108.22,243.52 108.22,243.52 108.22,243.52 				"/>
				<path style="opacity:0.2;" d="M121.93,248.34l-9.2-5.28c-1.07-0.62-2.26-0.65-3.28-0.28c-0.46,0.17-0.88,0.42-1.24,0.74
					c0,0,0,0,0,0c-0.79,0.7-1.32,1.71-1.32,2.92v86.07c0,2.79,1.49,5.37,3.91,6.76l15.03,8.63v-92.8
					C125.85,252.31,124.36,249.73,121.93,248.34z"/>
				<path style="opacity:0.1;" d="M125.21,252.03c0.41,0.96,0.64,2,0.64,3.08v92.8l127.7-75.88v-92.8c0-0.42-0.04-0.83-0.11-1.23
					L125.21,252.03z"/>
			</g>
			<g>
				<path style="fill:#455A64;" d="M313.09,245.95c-0.66-0.99-1.53-1.84-2.59-2.45l-53.39-30.65c-1.27-0.73-2.69-0.65-3.81-0.03v0
					l-0.01,0c-0.05,0.03-0.1,0.06-0.15,0.09l-13.78,8.05c-1.23,0.63-2.12,1.89-2.12,3.46v52.7c0,2.79,1.49,5.37,3.91,6.76
					l53.39,30.65c1.37,0.79,2.92,0.63,4.08-0.13l0,0.01l13.69-7.99c0.11-0.06,0.21-0.12,0.32-0.18l0.03-0.02l0,0
					c1.03-0.68,1.76-1.84,1.76-3.25v-52.7C314.41,248.69,313.93,247.2,313.09,245.95z M298.98,254.01
					C298.98,254.01,298.98,254.01,298.98,254.01C298.98,254.01,298.98,254.01,298.98,254.01
					C298.98,254.01,298.98,254.01,298.98,254.01z"/>
				<path style="opacity:0.2;" d="M300.38,311.14v-52.7c0-2.79-1.49-5.37-3.91-6.76l-53.39-30.65c-1.23-0.71-2.61-0.65-3.72-0.08
					c-1.23,0.63-2.12,1.89-2.12,3.46v52.7c0,2.79,1.49,5.37,3.91,6.76l53.39,30.65c1.37,0.79,2.92,0.63,4.08-0.13
					C299.66,313.71,300.38,312.55,300.38,311.14z"/>
				<path style="opacity:0.1;" d="M298.98,254.01c0.89,1.28,1.4,2.82,1.4,4.44v52.7c0,1.41-0.72,2.57-1.75,3.25l0,0.01l13.69-7.99
					c0.11-0.06,0.21-0.12,0.32-0.18l0.03-0.02l0,0c1.03-0.68,1.76-1.84,1.76-3.25v-52.7c0-1.56-0.48-3.05-1.32-4.31L298.98,254.01z"
					/>
			</g>
			<g>
				<path style="fill:#455A64;" d="M297.13,279.34l-99,57.16c-1.53,0.88-4,0.88-5.52,0l-23.42-13.61l-28.17,16.26
					c-1.53,0.88-1.54,2.31-0.02,3.19l51.61,29.99c1.52,0.88,3.99,0.88,5.52,0l99-57.16c0.77-0.44,1.15-1.03,1.14-1.61l0,0v-35.82
					C298.28,278.32,297.9,278.9,297.13,279.34z"/>
				<path style="opacity:0.1;" d="M297.13,279.34l-99,57.16c-1.53,0.88-4,0.88-5.52,0l-23.42-13.61l-28.17,16.26
					c-1.53,0.88-1.54,2.31-0.02,3.19l51.61,29.99c1.52,0.88,3.99,0.88,5.52,0l99-57.16c0.77-0.44,1.15-1.03,1.14-1.61l0,0v-35.82
					C298.28,278.32,297.9,278.9,297.13,279.34z"/>
				<g>
					<path style="fill:#455A64;" d="M297.15,276.15l-51.61-29.99c-1.52-0.88-3.98-0.88-5.51,0l-99,57.16
						c-1.53,0.88-1.54,2.31-0.02,3.19l28.19,16.38l23.42,13.61c1.52,0.88,3.99,0.88,5.52,0l99-57.16c0.76-0.44,1.14-1.02,1.15-1.6
						c0-0.04-0.02-0.08-0.02-0.13C298.21,277.08,297.85,276.55,297.15,276.15z"/>
					<g style="opacity:0.3;">
						<path d="M141.04,303.31c-1.53,0.88-1.54,2.31-0.02,3.19l51.61,29.99c1.52,0.88,3.99,0.88,5.52,0l99-57.16
							c1.52-0.88,1.53-2.31,0.01-3.19l-51.61-29.99c-1.52-0.88-3.98-0.88-5.51,0L141.04,303.31z"/>
					</g>
				</g>
			</g>
		</g>
		<g>
			<g>
				<g>
					<g>
						<path style="fill:#BA68C8;" d="M274.88,290.71c9.24,2.61,16.75-5.27,14.51-14.12C281.17,271.54,269.22,282.14,274.88,290.71z"
							/>
						<path style="opacity:0.5;" d="M274.88,290.71c9.24,2.61,16.75-5.27,14.51-14.12C281.17,271.54,269.22,282.14,274.88,290.71z"
							/>
					</g>
					<g>
						<path style="fill:#FFA8A7;" d="M276.26,268.93c10.93,5.49,15.28,9.49,16.96,13.38c1.27,2.93,0,7.28-0.88,12.74L290,311.23
							c-4.03,1.82-8.84-0.06-9.55-0.91c-2.47-8.32-3.05-17.14-1.17-20.72c-18.13-5.85-23.09-15.41-23.39-18.32L276.26,268.93z"/>
						<path style="fill:#FFFFFF;" d="M282.4,303.28c-1.34-0.3-2.69-0.77-3.8-1.56c0.38,2.77,1,5.71,1.86,8.6
							c0.71,0.84,5.52,2.73,9.55,0.91l1.16-8.01C288.29,303.89,285.27,303.92,282.4,303.28z"/>
						<g>
							<path style="fill:#E6E6E6;" d="M292.11,328.97c-2.98-0.72-5.7-2.49-7.56-4.93c-0.98-1.29-1.77-2.78-3.07-3.75
								c-1.32-0.97-3.21-1.45-3.81-2.98c-0.02-0.16-0.03-0.3-0.04-0.45c-0.05,0.52-0.04,1.1,0.04,1.78
								c0.59,1.49,2.43,1.96,3.73,2.91c1.28,0.94,2.04,2.4,3,3.66c1.82,2.38,4.48,4.11,7.39,4.82c2.92,0.7,6.89,1.35,8.74-1.01
								c0.27-0.35,0.46-0.75,0.59-1.18c-0.02,0.03-0.03,0.06-0.05,0.08C299.16,330.35,295.09,329.69,292.11,328.97z"/>
							<path style="fill:#BA68C8;" d="M287.42,324.04c0.74-1.37,2.23-2.19,3.72-2.65c2.33-0.73,4.87-0.76,7.23-0.14
								c-2.86-1.96-5.38-4.54-6.77-7.71v-2.01c0-0.65-0.41-1.23-1.03-1.45c-1.2-0.42-3.34-0.99-5.72-0.91
								c-0.7,0.03-1.24,0.61-1.24,1.31v0.81c-0.71-0.03-1.99-0.25-3.15-0.97l-0.46-1.62c-0.38,0.04-0.79,0.44-0.88,2.17
								c-0.09,1.66-1.75,2.69-1.49,6.01c0.01,0.15,0.02,0.29,0.04,0.45c0.61,1.53,2.49,2,3.81,2.98c1.31,0.96,2.09,2.46,3.07,3.75
								c0.67,0.88,1.46,1.67,2.33,2.36C286.88,325.58,287.03,324.76,287.42,324.04z"/>
							<path style="opacity:0.2;" d="M287.42,324.04c0.74-1.37,2.23-2.19,3.72-2.65c2.33-0.73,4.87-0.76,7.23-0.14
								c-2.86-1.96-5.38-4.54-6.77-7.71v-2.01c0-0.65-0.41-1.23-1.03-1.45c-1.2-0.42-3.34-0.99-5.72-0.91
								c-0.7,0.03-1.24,0.61-1.24,1.31v0.81c-0.71-0.03-1.99-0.25-3.15-0.97l-0.46-1.62c-0.38,0.04-0.79,0.44-0.88,2.17
								c-0.09,1.66-1.75,2.69-1.49,6.01c0.01,0.15,0.02,0.29,0.04,0.45c0.61,1.53,2.49,2,3.81,2.98c1.31,0.96,2.09,2.46,3.07,3.75
								c0.67,0.88,1.46,1.67,2.33,2.36C286.88,325.58,287.03,324.76,287.42,324.04z"/>
							<path style="opacity:0.1;fill:#FFFFFF;" d="M287.42,324.04c0.74-1.37,2.23-2.19,3.72-2.65c2.33-0.73,4.87-0.76,7.23-0.14
								c-2.86-1.96-5.38-4.54-6.77-7.71v-2.01c0-0.65-0.41-1.23-1.03-1.45c-1.2-0.42-3.34-0.99-5.72-0.91
								c-0.7,0.03-1.24,0.61-1.24,1.31v0.81c-0.71-0.03-1.99-0.25-3.15-0.97l-0.46-1.62c-0.38,0.04-0.79,0.44-0.88,2.17
								c-0.09,1.66-1.75,2.69-1.49,6.01c0.01,0.15,0.02,0.29,0.04,0.45c0.61,1.53,2.49,2,3.81,2.98c1.31,0.96,2.09,2.46,3.07,3.75
								c0.67,0.88,1.46,1.67,2.33,2.36C286.88,325.58,287.03,324.76,287.42,324.04z"/>
							<path style="fill:#FFFFFF;" d="M301.09,323.39c-0.63-0.84-1.58-1.38-2.46-1.96c-0.09-0.06-0.18-0.13-0.26-0.19
								c-2.36-0.62-4.9-0.59-7.23,0.14c-1.49,0.47-2.98,1.28-3.72,2.65c-0.39,0.72-0.54,1.54-0.54,2.36
								c1.54,1.22,3.33,2.11,5.24,2.57c2.98,0.72,7.05,1.38,8.94-1.04c0.02-0.03,0.03-0.06,0.05-0.08
								C302.04,326.56,302.04,324.67,301.09,323.39z"/>
						</g>
					</g>
					<path style="fill:#BA68C8;" d="M274.88,290.71c-1.1-2.9-0.36-6.3,1.47-8.81c1.83-2.5,4.63-4.18,7.6-5.1
						c1.77-0.55,3.71-0.85,5.45-0.22c-2.87-3.24-8.36-5.99-12.2-7.99l-5.05-1.88l-18.65-3.24
						C254.46,278.66,255.02,279.47,274.88,290.71z"/>
					<path style="opacity:0.2;" d="M274.88,290.71c-1.1-2.9-0.36-6.3,1.47-8.81c1.83-2.5,4.63-4.18,7.6-5.1
						c1.77-0.55,3.71-0.85,5.45-0.22c-2.87-3.24-8.36-5.99-12.2-7.99l-5.05-1.88l-18.65-3.24
						C254.46,278.66,255.02,279.47,274.88,290.71z"/>
					<path style="opacity:0.1;fill:#FFFFFF;" d="M274.88,290.71c-1.1-2.9-0.36-6.3,1.47-8.81c1.83-2.5,4.63-4.18,7.6-5.1
						c1.77-0.55,3.71-0.85,5.45-0.22c-2.87-3.24-8.36-5.99-12.2-7.99l-5.05-1.88l-18.65-3.24
						C254.46,278.66,255.02,279.47,274.88,290.71z"/>
					<path style="opacity:0.2;" d="M265.61,276.95c0.77-1.24,1.96-2.58,3.2-3.36c-2.91,0.56-5.64,2.02-7.73,4.12
						c-0.86,0.86-1.36,1.99-1.71,3.2c3.05,2.66,7.84,5.45,15.52,9.79c-0.68-1.8-0.65-3.79-0.1-5.64
						C272.12,281.95,269.03,279.21,265.61,276.95z"/>
				</g>
				<g>
					<g>
						<path style="fill:#BA68C8;" d="M257.1,298.5c9.24,2.61,16.75-5.27,14.51-14.12C263.39,279.34,251.43,289.94,257.1,298.5z"/>
						<path style="opacity:0.5;" d="M257.1,298.5c9.24,2.61,16.75-5.27,14.51-14.12C263.39,279.34,251.43,289.94,257.1,298.5z"/>
					</g>
					<g>
						<path style="fill:#FFA8A7;" d="M258.48,276.73c10.93,5.49,15.28,9.49,16.96,13.38c1.27,2.93,0,7.28-0.88,12.74l-2.34,16.18
							c-4.03,1.82-8.84-0.06-9.55-0.91c-2.47-8.32-3.05-17.14-1.17-20.72c-18.13-5.85-23.09-15.41-23.39-18.32L258.48,276.73z"/>
						<path style="fill:#FFFFFF;" d="M264.61,311.08c-1.34-0.3-2.69-0.77-3.8-1.56c0.38,2.77,1,5.71,1.86,8.6
							c0.71,0.84,5.52,2.73,9.55,0.91l1.16-8.01C270.51,311.68,267.49,311.71,264.61,311.08z"/>
						<g>
							<path style="fill:#E6E6E6;" d="M274.32,336.77c-2.98-0.72-5.7-2.49-7.56-4.93c-0.98-1.29-1.77-2.78-3.07-3.75
								c-1.32-0.97-3.21-1.45-3.81-2.98c-0.02-0.16-0.03-0.3-0.04-0.45c-0.05,0.52-0.04,1.1,0.04,1.78
								c0.59,1.49,2.43,1.96,3.73,2.91c1.28,0.94,2.04,2.4,3,3.66c1.82,2.38,4.48,4.11,7.39,4.82c2.92,0.7,6.89,1.35,8.74-1.01
								c0.27-0.35,0.46-0.75,0.59-1.18c-0.02,0.03-0.03,0.06-0.05,0.08C281.38,338.15,277.31,337.49,274.32,336.77z"/>
							<path style="fill:#BA68C8;" d="M269.63,331.83c0.74-1.37,2.23-2.19,3.72-2.65c2.33-0.73,4.87-0.76,7.23-0.14
								c-2.86-1.96-5.38-4.54-6.77-7.71v-2.01c0-0.65-0.41-1.23-1.03-1.45c-1.2-0.42-3.34-0.99-5.72-0.91
								c-0.7,0.03-1.24,0.61-1.24,1.31v0.81c-0.71-0.03-1.99-0.25-3.15-0.97l-0.46-1.62c-0.38,0.04-0.79,0.44-0.88,2.17
								c-0.09,1.66-1.75,2.69-1.49,6.01c0.01,0.15,0.02,0.29,0.04,0.45c0.61,1.53,2.49,2,3.81,2.98c1.31,0.96,2.09,2.46,3.07,3.75
								c0.67,0.88,1.46,1.67,2.33,2.36C269.1,333.37,269.24,332.55,269.63,331.83z"/>
							<path style="opacity:0.2;" d="M269.63,331.83c0.74-1.37,2.23-2.19,3.72-2.65c2.33-0.73,4.87-0.76,7.23-0.14
								c-2.86-1.96-5.38-4.54-6.77-7.71v-2.01c0-0.65-0.41-1.23-1.03-1.45c-1.2-0.42-3.34-0.99-5.72-0.91
								c-0.7,0.03-1.24,0.61-1.24,1.31v0.81c-0.71-0.03-1.99-0.25-3.15-0.97l-0.46-1.62c-0.38,0.04-0.79,0.44-0.88,2.17
								c-0.09,1.66-1.75,2.69-1.49,6.01c0.01,0.15,0.02,0.29,0.04,0.45c0.61,1.53,2.49,2,3.81,2.98c1.31,0.96,2.09,2.46,3.07,3.75
								c0.67,0.88,1.46,1.67,2.33,2.36C269.1,333.37,269.24,332.55,269.63,331.83z"/>
							<path style="opacity:0.1;fill:#FFFFFF;" d="M269.63,331.83c0.74-1.37,2.23-2.19,3.72-2.65c2.33-0.73,4.87-0.76,7.23-0.14
								c-2.86-1.96-5.38-4.54-6.77-7.71v-2.01c0-0.65-0.41-1.23-1.03-1.45c-1.2-0.42-3.34-0.99-5.72-0.91
								c-0.7,0.03-1.24,0.61-1.24,1.31v0.81c-0.71-0.03-1.99-0.25-3.15-0.97l-0.46-1.62c-0.38,0.04-0.79,0.44-0.88,2.17
								c-0.09,1.66-1.75,2.69-1.49,6.01c0.01,0.15,0.02,0.29,0.04,0.45c0.61,1.53,2.49,2,3.81,2.98c1.31,0.96,2.09,2.46,3.07,3.75
								c0.67,0.88,1.46,1.67,2.33,2.36C269.1,333.37,269.24,332.55,269.63,331.83z"/>
							<path style="fill:#FFFFFF;" d="M283.3,331.19c-0.63-0.84-1.58-1.38-2.46-1.96c-0.09-0.06-0.18-0.13-0.26-0.19
								c-2.36-0.62-4.9-0.59-7.23,0.14c-1.49,0.47-2.98,1.28-3.72,2.65c-0.39,0.72-0.54,1.54-0.54,2.36
								c1.54,1.22,3.33,2.11,5.24,2.57c2.98,0.72,7.05,1.38,8.94-1.04c0.02-0.03,0.03-0.06,0.05-0.08
								C284.25,334.36,284.26,332.46,283.3,331.19z"/>
						</g>
					</g>
					<path style="fill:#BA68C8;" d="M257.1,298.5c-1.1-2.9-0.36-6.3,1.47-8.81c1.83-2.5,4.63-4.18,7.6-5.1
						c1.77-0.55,3.71-0.85,5.45-0.22c-2.87-3.24-6.19-6.11-10.04-8.11l-2.41-5.19l-23.45,0.19
						C236.67,286.46,237.23,287.27,257.1,298.5z"/>
					<path style="opacity:0.2;" d="M257.1,298.5c-1.1-2.9-0.36-6.3,1.47-8.81c1.83-2.5,4.63-4.18,7.6-5.1
						c1.77-0.55,3.71-0.85,5.45-0.22c-2.87-3.24-6.19-6.11-10.04-8.11l-2.41-5.19l-23.45,0.19
						C236.67,286.46,237.23,287.27,257.1,298.5z"/>
					<path style="opacity:0.1;fill:#FFFFFF;" d="M257.1,298.5c-1.1-2.9-0.36-6.3,1.47-8.81c1.83-2.5,4.63-4.18,7.6-5.1
						c1.77-0.55,3.71-0.85,5.45-0.22c-2.87-3.24-6.19-6.11-10.04-8.11l-2.41-5.19l-23.45,0.19
						C236.67,286.46,237.23,287.27,257.1,298.5z"/>
				</g>
			</g>
			<g>
				<path style="fill:#FFA8A7;" d="M272.44,238.37l5.5,11.42l9.05-5.08c2.19-1.23,3.92-3.14,4.93-5.44l0.18-0.41
					c0.71-1.61,1.78-3.04,3.12-4.18c0.93-0.79,1.84-1.62,2.66-2.5c0.36-0.38,0.94-0.45,1.37-0.14l0.01,0.01
					c0.39,0.27,0.55,0.78,0.37,1.22c-0.66,1.65-1.67,3.23-2.93,4.44l2.1-0.06c1.65-0.04,3.24-0.58,4.57-1.54l2.93-2.11
					c0.57-0.41,1.36-0.13,1.56,0.54l0,0c0.07,0.25,0.05,0.51-0.07,0.74l-0.37,0.72c-0.22,0.44-0.34,0.92-0.32,1.42l0,0
					c0.05,1.78-0.54,3.51-1.65,4.9l-0.33,0.41c-0.96,1.2-2.27,2.07-3.75,2.51l-1.34,0.39c-2.76,0.81-5.3,2.23-7.42,4.17l-10.79,9.85
					c-2.92,2.67-7.51,2.21-9.86-0.97l-10.17-13.82L272.44,238.37z"/>
				<path style="fill:#FFA8A7;" d="M233.41,248.45c-7.12,6.39-11.59,15.99-11.89,25.55c-0.07,2.26,1.38,4.46,2.73,6.27
					c0.24,0.32,0.49,0.64,0.6,1.02c0.12,0.38,0.06,0.84-0.25,1.09c-0.35,0.28-0.87,0.2-1.29,0.05c-1.12-0.38-2.14-1.04-2.94-1.91
					c-0.3,1.02,0.05,2.26,0.42,3.25c0.37,1,0.84,1.97,0.98,3.02c0.14,1.05-0.13,2.24-0.99,2.86c-0.73,0.52-1.71,0.53-2.58,0.32
					c-2.41-0.57-4.29-2.61-5.14-4.93c-1.29-4.54-0.12-34.18,11.04-44.91L233.41,248.45z"/>
				<path style="fill:#455A64;" d="M257.8,224.1l1.22-0.13c4.32-0.46,8.46,1.86,10.33,5.78l5.84,12.29
					c-6.53,4.44-14.85,2.78-14.85,2.78L257.8,224.1z"/>
				<path style="opacity:0.15;" d="M257.8,224.1l1.22-0.13c4.32-0.46,8.46,1.86,10.33,5.78l5.84,12.29
					c-6.53,4.44-14.85,2.78-14.85,2.78L257.8,224.1z"/>
				<path style="opacity:0.3;fill:#FFFFFF;" d="M257.8,224.1l1.22-0.13c4.32-0.46,8.46,1.86,10.33,5.78l5.84,12.29
					c-6.53,4.44-14.85,2.78-14.85,2.78L257.8,224.1z"/>
				<path style="fill:#455A64;" d="M235.39,271.62c-0.03-6.9-0.05-11.59-0.05-11.59s-3.06-22.2,0.39-32.88l22.07-3.05
					c12.22,7.71,12.14,22.36,13.06,32.66c0.49,3.1,0.91,6.46,1.28,9.97C261.25,273.27,247.62,275.09,235.39,271.62z"/>
				<path style="opacity:0.5;fill:#FFFFFF;" d="M235.39,271.62c-0.03-6.9-0.05-11.59-0.05-11.59s-3.06-22.2,0.39-32.88l22.07-3.05
					c12.22,7.71,12.14,22.36,13.06,32.66c0.49,3.1,0.91,6.46,1.28,9.97C261.25,273.27,247.62,275.09,235.39,271.62z"/>
				<path style="fill:#455A64;" d="M239.62,226.61l-3.9,0.54l0,0c-1.83,0.25-3.48,1.2-4.62,2.65l-7.96,10.11
					c1.91,8.69,10.37,9.52,10.37,9.52C242.72,239.89,243.42,231.31,239.62,226.61z"/>
				<path style="opacity:0.3;fill:#FFFFFF;" d="M239.62,226.61l-3.9,0.54l0,0c-1.83,0.25-3.48,1.2-4.62,2.65l-7.96,10.11
					c1.91,8.69,10.37,9.52,10.37,9.52C242.72,239.89,243.42,231.31,239.62,226.61z"/>
				<path style="fill:#263238;" d="M254.53,219.5c5.21-3.14,8.93-8.63,9.93-14.63c0.28-1.66,0.34-3.43-0.38-4.95
					c-0.72-1.52-2.75-2.76-4.39-2.42c-0.09-2.64-1.47-5.15-3.49-6.86c-2.02-1.71-4.62-2.65-7.25-2.9c-2.63-0.25-5.29,0.15-7.83,0.9
					c-2.51,0.74-5,1.83-7.62,1.79c-1.04-0.02-2.08-0.22-3.12-0.18c-1.04,0.04-2.14,0.38-2.78,1.2c-0.79,1.02-0.64,2.53,0.01,3.64
					c0.65,1.11,1.72,1.98,2.74,2.76c-1.13,0.64-1.78,2.04-1.54,3.32c0.15,0.82,0.63,1.55,1.22,2.14c0.59,0.59,1.76,1.28,2.45,1.74
					c0.32-2.64,1.23-5.19,2.11-7.7c1.94,1.96,4.05,2.67,6.81,2.87c2.75,0.2,5.57-0.63,7.78-2.29c0.33,2.33,0.79,4.8,1.77,6.94
					c0.98,2.14,2.34,5.24,5.12,4.66L254.53,219.5z"/>
				<g>
					<g>
						<path style="fill:#FFA8A7;" d="M253.63,216.34c-0.16,2.79,0.17,5.61,0.96,8.29c0.61,0.41,0.84,1.57,0.56,2.25
							c-0.28,0.68-0.93,1.15-1.63,1.38c-0.7,0.22-1.45,0.22-2.19,0.17c-2.65-0.18-5.26-0.96-7.58-2.27c0.12-1.62-0.03-3.44-0.49-5
							C246.51,219.48,250.38,218.02,253.63,216.34z"/>
						<path style="opacity:0.2;" d="M247.55,223.76c1.68-0.43,3.27-1.33,4.34-2.69c0.99-1.26,1.48-2.81,1.74-4.41
							c0-0.11,0-0.22,0-0.32c-3.25,1.68-7.12,3.14-10.37,4.81c0.27,0.92,0.42,1.94,0.48,2.95
							C245.02,224.16,246.31,224.08,247.55,223.76z"/>
					</g>
					<g>
						<path style="fill:#FFA8A7;" d="M261.52,207.74c-0.83-0.64-2.04-0.59-3-0.16c-0.96,0.44-1.72,1.2-2.46,1.94
							c-2.78,0.58-4.14-2.52-5.12-4.66c-0.98-2.14-1.43-4.61-1.77-6.94c-2.21,1.66-5.03,2.49-7.78,2.29
							c-2.75-0.2-4.87-0.91-6.81-2.87c-0.89,2.51-1.8,5.06-2.11,7.7c-0.06,2.48-0.12,4.97-0.18,7.45c-0.04,1.65-0.07,3.35,0.54,4.88
							c0.74,1.87,2.39,3.29,4.24,4.09c1.85,0.8,3.89,1.06,5.91,1.12c0.13,0,0.26,0,0.39,0.01c2.8,0.06,5.66-0.27,8.13-1.58
							c1.65-0.87,3.09-2.25,3.94-3.9c0.48-0.92,0.78-1.93,0.82-2.98c1.26,0.94,3.32,0.94,4.58,0c1.26-0.94,1.89-2.6,1.75-4.16
							C262.51,209.13,262.19,208.26,261.52,207.74z"/>
						<path style="fill:#37474F;" d="M236.91,208.18c0,0.77-0.62,1.39-1.39,1.39c-0.77,0-1.39-0.62-1.39-1.39s0.62-1.39,1.39-1.39
							C236.29,206.79,236.91,207.41,236.91,208.18z"/>
						<path style="fill:#37474F;" d="M248.26,208.18c0,0.77-0.62,1.39-1.39,1.39c-0.77,0-1.39-0.62-1.39-1.39s0.62-1.39,1.39-1.39
							C247.63,206.79,248.26,207.41,248.26,208.18z"/>
						<polygon style="fill:#F28F8F;" points="241.02,208.62 241.02,213.7 237.51,212.44 						"/>
						<path style="opacity:0.5;fill:#F28F8F;" d="M251.99,211.56c0,1.1-1.1,2-2.46,2c-1.36,0-2.46-0.89-2.46-2c0-1.1,1.1-2,2.46-2
							C250.89,209.57,251.99,210.46,251.99,211.56z"/>
						<ellipse style="opacity:0.5;fill:#F28F8F;" cx="234.13" cy="211.56" rx="2.46" ry="2"/>
						<path style="fill:#F28F8F;" d="M241.35,216.29l5.13-1.87c0.34,0.88,0.12,1.98-0.47,2.72c-0.59,0.74-1.59,1.13-2.53,0.98
							C242.55,217.97,241.69,217.17,241.35,216.29z"/>
						<path style="opacity:0.3;" d="M241.35,216.29l5.13-1.87c0.34,0.88,0.12,1.98-0.47,2.72c-0.59,0.74-1.59,1.13-2.53,0.98
							C242.55,217.97,241.69,217.17,241.35,216.29z"/>
					</g>
				</g>
			</g>
		</g>
		<g>
			<g>
				<path style="fill:#BA68C8;" d="M255.92,259.29c5.46,2.99,4.4,8.51,1.75,12.21C246.63,271.11,252.28,260.66,255.92,259.29z"/>
				<path style="opacity:0.5;" d="M255.92,259.29c5.46,2.99,4.4,8.51,1.75,12.21C246.63,271.11,252.28,260.66,255.92,259.29z"/>
				<g>
					<path style="fill:#FFA8A7;" d="M213.17,230.5c11.4,4.16,18.98,35.88,18.98,35.88l25.52-6.53l3.36,7.71l-26.19,12.55
						c-4.78,2.29-10.51,0.54-13.19-4.03l-9.53-16.23L213.17,230.5z"/>
					<path style="fill:#FFA8A7;" d="M257.67,259.85c2.81-1.78,5.52-3.82,8.02-6.04c0.75-0.66,1.67-1.11,2.66-1.22
						c3.61-0.37,7.33-0.34,10.93,0.11c0.84,0.1,1.46,0.82,1.48,1.66c0.02,1.15,0.05,2.36,0.08,3.55c0.05,1.95-1.53,3.55-3.48,3.54
						c-1.12-0.01-2.24-0.01-3.37-0.04c-2.41,3.47-8.72,6.3-12.95,6.14C254.29,265.91,257.67,259.85,257.67,259.85z"/>
					<path style="fill:#F28F8F;" d="M263.16,257.57l2.18-1.33c1.25-0.76,2.69-1.14,4.15-1.1c0.92,0.02,1.85,0.05,2.77,0.08
						c1.1,0.03,1.87,1.11,1.53,2.16c0,0.01-0.01,0.02-0.01,0.03c-0.22,0.7-0.88,1.17-1.62,1.15c-1.14-0.03-2.3-0.06-3.42-0.09
						c-0.2,1.32-0.82,2.66-1.76,3.61c-0.94,0.95-2.18,1.59-3.5,1.8c1.48,0.42,3.01,0.15,4.25-0.75c1.25-0.9,2.05-2.38,2.12-3.91
						l2.2,0.09c1.03,0.04,1.98-0.59,2.32-1.57l0,0c0.53-1.5-0.55-3.09-2.14-3.15l-2.35-0.08c-1.82-0.06-3.6,0.53-5.01,1.66
						L263.16,257.57z"/>
				</g>
				<path style="fill:#BA68C8;" d="M213.17,230.5c11.4,4.16,18.98,35.88,18.98,35.88l23.76-7.09c0,0-4.82,4.78,1.75,12.21
					c-5.79,2.86-22.82,8.61-22.82,8.61c-4.78,2.29-10.51,0.54-13.19-4.03l-9.53-16.23L213.17,230.5z"/>
				<path style="opacity:0.5;" d="M213.17,230.5c11.4,4.16,18.98,35.88,18.98,35.88l23.76-7.09c0,0-4.82,4.78,1.75,12.21
					c-5.79,2.86-22.82,8.61-22.82,8.61c-4.78,2.29-10.51,0.54-13.19-4.03l-9.53-16.23L213.17,230.5z"/>
				<path style="opacity:0.1;fill:#FFFFFF;" d="M213.17,230.5c11.4,4.16,18.98,35.88,18.98,35.88l23.76-7.09
					c0,0-4.82,4.78,1.75,12.21c-5.79,2.86-22.82,8.61-22.82,8.61c-4.78,2.29-10.51,0.54-13.19-4.03l-9.53-16.23L213.17,230.5z"/>
			</g>
			<g>
				<g>
					<path style="fill:#FFA8A7;" d="M226.74,390.31c-2.75-1.85-4.79-4.85-7.26-7.05c-1.46-1.3-3.13-2.36-4.92-3.13l-0.18-1.51
						l-0.54-12.96h12.37l0.2,9.45c0.03,1.32,0.45,2.61,1.2,3.7c1.17,1.69,2.21,3.28,2.91,4.38c-1.98,0.34-3.88,1.19-5.45,2.45
						C225.47,387.25,225.97,388.85,226.74,390.31z"/>
					<path style="fill:#455A64;" d="M213.9,378.97l0.48-0.35l0.18,1.51c1.79,0.77,3.46,1.83,4.92,3.13c2.47,2.2,4.51,5.2,7.26,7.05
						c-0.77-1.46-1.27-3.06-1.66-4.66c1.57-1.27,3.47-2.11,5.45-2.45c0.57-0.1,1.14-0.16,1.71-0.17c1.54,2.18,6.08,7.4,12.08,10.84
						c0.67,0.38,1.07,1.1,1.07,1.87v1.21c-1.99,3.35-5.39,3.9-12.56,3.9s-11.56-8.66-13.24-10.53c-1.68-1.87-4.58-1.89-6.12-4.48
						C213.48,385.83,213.15,381.24,213.9,378.97z"/>
				</g>
				<g>
					<path style="fill:#FFA8A7;" d="M259.37,373.91c-2.75-1.85-4.79-4.85-7.26-7.05c-1.46-1.3-3.13-2.36-4.92-3.13l-0.18-1.51
						l-0.54-12.96l12.27-4.86l0.3,14.31c0.03,1.32,0.45,2.61,1.2,3.7c1.17,1.69,2.21,3.28,2.91,4.38c-1.98,0.34-3.88,1.19-5.45,2.45
						C258.1,370.85,258.6,372.46,259.37,373.91z"/>
					<path style="fill:#455A64;" d="M246.54,362.58l0.48-0.35l0.18,1.51c1.79,0.77,3.46,1.83,4.92,3.13c2.47,2.2,4.51,5.2,7.26,7.05
						c-0.77-1.46-1.27-3.06-1.66-4.66c1.57-1.27,3.47-2.11,5.45-2.45c0.57-0.1,1.14-0.16,1.71-0.17c1.54,2.18,6.08,7.4,12.08,10.84
						c0.67,0.38,1.07,1.1,1.07,1.87v1.21c-1.99,3.35-5.39,3.9-12.56,3.9c-7.16,0-11.56-8.66-13.24-10.53
						c-1.68-1.87-4.58-1.89-6.12-4.48C246.12,369.44,245.78,364.84,246.54,362.58z"/>
				</g>
				<g>
					<path style="fill:#455A64;" d="M222.64,282.3c17.77,6.53,33.18,12.69,35.36,32.09c2.18,19.4,2.09,29.55,2.09,29.55
						c-10.94,26.08-46.29,29.38-52.94,19.47c0,0-1.9-25.45-0.91-31.44c-15.59-8.43-28.97-16-32.8-19.2
						C167.63,283.66,209.06,279.02,222.64,282.3z"/>
					<path style="opacity:0.2;fill:#455A64;" d="M222.64,282.3c17.77,6.53,33.18,12.69,35.36,32.09c2.18,19.4,2.09,29.55,2.09,29.55
						c-10.94,26.08-46.29,29.38-52.94,19.47c0,0-1.9-25.45-0.91-31.44c-15.59-8.43-28.97-16-32.8-19.2
						C167.63,283.66,209.06,279.02,222.64,282.3z"/>
				</g>
				<g style="opacity:0.3;">
					<path d="M222.64,282.3c17.77,6.53,33.18,12.69,35.36,32.09c2.18,19.4,2.09,29.55,2.09,29.55
						c-10.94,26.08-46.29,29.38-52.94,19.47c0,0-1.9-25.45-0.91-31.44c-15.59-8.43-28.97-16-32.8-19.2
						C167.63,283.66,209.06,279.02,222.64,282.3z"/>
					<path style="opacity:0.2;" d="M222.64,282.3c17.77,6.53,33.18,12.69,35.36,32.09c2.18,19.4,2.09,29.55,2.09,29.55
						c-10.94,26.08-46.29,29.38-52.94,19.47c0,0-1.9-25.45-0.91-31.44c-15.59-8.43-28.97-16-32.8-19.2
						C167.63,283.66,209.06,279.02,222.64,282.3z"/>
				</g>
				<g style="opacity:0.2;">
					<path style="fill:#FFFFFF;" d="M222.64,282.3c17.77,6.53,33.18,12.69,35.36,32.09c2.18,19.4,2.09,29.55,2.09,29.55
						c-10.94,26.08-46.29,29.38-52.94,19.47c0,0-1.9-25.45-0.91-31.44c-15.59-8.43-28.97-16-32.8-19.2
						C167.63,283.66,209.06,279.02,222.64,282.3z"/>
					<path style="opacity:0.2;fill:#FFFFFF;" d="M222.64,282.3c17.77,6.53,33.18,12.69,35.36,32.09c2.18,19.4,2.09,29.55,2.09,29.55
						c-10.94,26.08-46.29,29.38-52.94,19.47c0,0-1.9-25.45-0.91-31.44c-15.59-8.43-28.97-16-32.8-19.2
						C167.63,283.66,209.06,279.02,222.64,282.3z"/>
				</g>
				<g>
					<path style="fill:#BA68C8;" d="M173.43,312.79c2.36-6.15,8.1-10.42,14.15-13.03c6.05-2.61,12.58-3.89,18.78-6.1
						c6.2-2.21,13.85-6.06,17.36-11.63c-0.1-0.08-0.19-0.16-0.29-0.24c-3.29-2.79-4.26-7.47-2.34-11.34
						c0.82-1.66,1.25-3.56,1.3-5.42c0.1-3.48-0.91-6.88-1.92-10.21c-2.43-8.1-4.87-16.21-7.3-24.31
						c-13.95-6.62-21.68-5.55-30.37-4.47c-8.69,1.08-18.68,6.24-22.27,23.38C156.95,266.57,153.69,306.8,173.43,312.79z"/>
					<path style="opacity:0.3;" d="M173.43,312.79c2.36-6.15,8.1-10.42,14.15-13.03c6.05-2.61,12.58-3.89,18.78-6.1
						c6.2-2.21,13.85-6.06,17.36-11.63c-0.1-0.08-0.19-0.16-0.29-0.24c-3.29-2.79-4.26-7.47-2.34-11.34
						c0.82-1.66,1.25-3.56,1.3-5.42c0.1-3.48-0.91-6.88-1.92-10.21c-2.43-8.1-4.87-16.21-7.3-24.31
						c-13.95-6.62-21.68-5.55-30.37-4.47c-8.69,1.08-18.68,6.24-22.27,23.38C156.95,266.57,153.69,306.8,173.43,312.79z"/>
					<path style="opacity:0.1;fill:#FFFFFF;" d="M173.43,312.79c2.36-6.15,8.1-10.42,14.15-13.03c6.05-2.61,12.58-3.89,18.78-6.1
						c6.2-2.21,13.85-6.06,17.36-11.63c-0.1-0.08-0.19-0.16-0.29-0.24c-3.29-2.79-4.26-7.47-2.34-11.34
						c0.82-1.66,1.25-3.56,1.3-5.42c0.1-3.48-0.91-6.88-1.92-10.21c-2.43-8.1-4.87-16.21-7.3-24.31
						c-13.95-6.62-21.68-5.55-30.37-4.47c-8.69,1.08-18.68,6.24-22.27,23.38C156.95,266.57,153.69,306.8,173.43,312.79z"/>
				</g>
				<g>
					<path style="fill:#FFA8A7;" d="M205.35,230.32c-0.26,1.97-0.52,3.93-0.78,5.9c-2.73,1.46-6.09,1.91-9,0.85
						c-2.91-1.06-5.32-3.41-6.47-6.29c0.92-1.72,1.64-3.54,2.07-5.44C195.47,227.28,200.71,229.41,205.35,230.32z"/>
					<path style="opacity:0.2;" d="M205.35,230.32c-0.26,1.97-0.52,3.93-0.78,5.9c-10.04-1.55-14.6-4.85-13.79-9.41c0,0,0,0,0-0.01
						c0.15-0.48,0.28-0.97,0.39-1.46C195.47,227.28,200.71,229.41,205.35,230.32z"/>
				</g>
				<g>
					<g>
						<path style="fill:#F5F5F5;" d="M185.36,193.34c-2.01-1.68-4.99-1.98-7.4-0.97c-2.41,1.01-4.23,3.23-4.99,5.73
							c-0.58,1.88-0.59,3.97,0.11,5.81c0.71,1.84,2.16,3.41,4,4.12c2.3,0.88,5.02,0.31,6.97-1.19
							C187.75,203.97,189.34,196.66,185.36,193.34z"/>
						<path style="opacity:0.1;" d="M182.54,203.06c-0.18-1.71,0.28-3.48,1.28-4.89c0.8-1.14,1.95-2.02,3.25-2.53
							c1.59,3.67-0.02,8.88-3.01,11.2c-1.83,1.42-4.34,1.98-6.55,1.32C178.57,206,180.42,204.16,182.54,203.06z"/>
					</g>
					<path style="fill:#F5F5F5;" d="M216.96,214.83c1.71-0.48,2.86-2.25,2.97-4.03c0.11-1.78-0.67-3.51-1.76-4.92
						c1.39-1.46,1.91-3.76,1.26-5.66c-0.65-1.9-2.14-3.44-3.87-4.47c-1.72-1.04-3.68-1.62-5.64-2.09
						c-5.16-1.23-10.67-1.69-15.7-0.03c-5.04,1.66-9.5,5.76-10.45,10.97c-2.62,1.33-4.43,4-4.96,6.89c-0.53,2.89-0.05,5.87,0.75,8.7
						c0.75,2.65,1.85,5.32,3.93,7.13c2.08,1.81,5.34,2.49,7.62,0.94c1.24-0.84,2.04-2.23,2.46-3.67c0.42-1.44,0.51-2.96,0.6-4.46
						C200.58,215.75,209.49,216.92,216.96,214.83z"/>
					<g>
						<path style="fill:#FFA8A7;" d="M189.93,225.81c-0.16,1.85,0.92,3.62,2.36,4.78c1.44,1.16,3.21,1.82,4.95,2.46
							c2.36,0.87,4.73,1.74,7.22,2.09c2.49,0.35,5.12,0.13,7.32-1.08c2.76-1.52,4.53-4.46,5.33-7.51c0.81-3.05,0.78-6.25,0.75-9.4
							c-0.02-2.13-0.04-4.28-0.47-6.37c-0.43-2.09-1.3-4.14-2.81-5.65c-0.16,1.44-2.05,2.27-3.49,2.44
							c-1.44,0.17-2.87-0.33-4.21-0.88c-1.34-0.55-2.7-1.16-4.15-1.24c-2.68-0.15-5.18,1.63-6.62,3.89
							c-1.44,2.26-2.02,4.96-2.51,7.6c-0.12,0.65-0.24,1.33-0.64,1.86c-0.4,0.53-1.15,0.86-1.74,0.55
							c-0.47-0.24-0.69-0.79-0.97-1.24c-1.19-1.91-4.18-2.24-5.91-0.79c-1.73,1.45-2.01,4.23-0.82,6.14
							C184.72,225.38,187.7,226.12,189.93,225.81z"/>
						<g>
							<polygon style="fill:#F28F8F;" points="207.53,217.47 212.7,223.19 208.27,224.98 							"/>
							<path style="fill:#F28F8F;" d="M204.29,228.11c1.28,0.33,2.56,0.66,3.84,0.99c-0.35,0.9-1.56,1.5-2.5,1.29
								C204.69,230.18,204.21,229.07,204.29,228.11z"/>
							<path style="opacity:0.3;" d="M204.29,228.11c1.28,0.33,2.56,0.66,3.84,0.99c-0.35,0.9-1.56,1.5-2.5,1.29
								C204.69,230.18,204.21,229.07,204.29,228.11z"/>
							<path style="fill:#F28F8F;" d="M206.86,230.27c-0.41,0.16-0.84,0.22-1.24,0.13c-0.74-0.17-1.18-0.89-1.31-1.65
								c0.5-0.1,1.03-0.04,1.47,0.2C206.31,229.22,206.69,229.71,206.86,230.27z"/>
							<path style="fill:#263238;" d="M200.91,219.07c0.07,0.74,0.73,1.28,1.47,1.21c0.74-0.07,1.28-0.73,1.21-1.47
								c-0.07-0.74-0.73-1.28-1.47-1.21C201.38,217.67,200.84,218.33,200.91,219.07z"/>
							<path style="fill:#263238;" d="M212.14,217.52c0.07,0.74,0.73,1.28,1.47,1.21c0.74-0.07,1.28-0.73,1.21-1.47
								c-0.07-0.74-0.73-1.28-1.47-1.21C212.6,216.12,212.06,216.78,212.14,217.52z"/>
							<path style="fill:#263238;" d="M212.91,212.05c1.06,0.59,2.12,1.18,3.18,1.76c0.22-0.73-0.15-1.62-0.79-2.05
								C214.66,211.34,213.5,211.56,212.91,212.05z"/>
							<path style="fill:#263238;" d="M201.41,213.03c-0.92,0.78-1.85,1.57-2.77,2.35c-0.36-0.68-0.17-1.62,0.37-2.16
								C199.55,212.67,200.73,212.66,201.41,213.03z"/>
						</g>
					</g>
					<g>
						<path style="fill:#37474F;" d="M196.16,216.49l0.17,1.09h0.85c0,0-0.04,1.88,0.87,4.31c0.64,1.72,2.36,2.82,4.19,2.65
							l1.12-0.1c1.45-0.13,2.71-1.03,3.32-2.35c0.51-1.08,1.01-2.5,1.16-4.05c0.03-0.29,0.25-0.52,0.54-0.55l0.63-0.06
							c0.31-0.03,0.58,0.19,0.64,0.49c0.2,0.89,0.62,1.79,1.28,2.77c1.08,1.61,3.16,2.21,4.96,1.48l1.06-0.43
							c1.17-0.48,1.96-1.57,2.06-2.83l0.3-3.89l0.79-0.46l-0.25-1.48c-3.62-0.63-7.53,0.51-10.37,2.84
							c-0.54,0.01-1.22,0.12-1.76,0.13C205.31,214.57,198.91,215.03,196.16,216.49z M210.46,216.53c2.14-1.75,4.64-2.52,7.37-2.52
							c0.16,0,0.33,0,0.49,0.01c-0.03,0.18-0.41,4.81-0.41,4.81c-0.07,0.85-0.6,1.58-1.39,1.9l-1.06,0.43
							c-0.37,0.15-0.76,0.23-1.15,0.23c-1.01,0-1.94-0.49-2.49-1.31c-0.58-0.87-0.95-1.65-1.12-2.4
							C210.63,217.31,210.46,216.82,210.46,216.53z M198.27,217.6l0.01-0.76c1.37-0.38,3.11-0.61,4.79-0.61
							c1.63,0,2.99,0.22,3.82,0.61c-0.02,0.47-0.09,0.74-0.13,1.1c-0.11,1.19-0.47,2.43-1.06,3.69c-0.45,0.97-1.39,1.63-2.44,1.72
							l-1.12,0.1c-0.09,0.01-0.18,0.01-0.27,0.01c-1.24,0-2.36-0.79-2.8-1.96C198.25,219.33,198.27,217.62,198.27,217.6z"/>
						<path style="fill:#37474F;" d="M196.16,216.49l-6.31,1.1c0.41,0.52,0.61,0.87,0.61,0.87l5.87-0.88L196.16,216.49z"/>
					</g>
				</g>
			</g>
			<g>
				<g>
					<polygon style="fill:#BA68C8;" points="264.15,285.02 232.15,266.38 195.09,288.3 226.86,303.21 					"/>
					<polygon style="opacity:0.2;fill:#FFFFFF;" points="264.15,285.02 232.15,266.38 195.09,288.3 226.86,303.21 					"/>
					<g style="opacity:0.4;">
						<path style="fill:#FFFFFF;" d="M224.81,299.88l-22.48-10.55l0.32-0.19c0.44-0.26,0.69-0.73,0.67-1.24
							c-0.02-0.51-0.32-0.95-0.78-1.17l-0.33-0.16l27.59-16.32l0.1,0.06c1.4,0.82,3.14,0.81,4.54-0.01l0.1-0.06l0.1,0.06
							l22.45,13.08l-0.33,0.16c-0.46,0.22-0.75,0.66-0.76,1.18c-0.02,0.51,0.23,0.97,0.68,1.23l0.32,0.18l-28.13,13.72l-0.08-0.04
							c-1.23-0.58-2.64-0.57-3.87,0.03L224.81,299.88z M203.13,289.28l21.68,10.18c1.28-0.6,2.75-0.61,4.04-0.03l27.34-13.34
							c-0.39-0.34-0.61-0.84-0.59-1.38c0.02-0.54,0.27-1.02,0.69-1.33l-21.76-12.67c-1.47,0.82-3.26,0.83-4.73,0.02L203,286.56
							c0.42,0.31,0.68,0.78,0.71,1.33C203.74,288.43,203.52,288.93,203.13,289.28z"/>
					</g>
					<polygon style="fill:#BA68C8;" points="232.15,264.63 195.59,286.32 195.09,288.3 232.15,266.38 					"/>
					<polygon style="fill:#BA68C8;" points="264.15,285.02 232.15,266.38 232.15,264.63 264.15,283.27 					"/>
					<polygon style="opacity:0.3;fill:#FFFFFF;" points="232.15,264.63 195.59,286.32 195.09,288.3 232.15,266.38 					"/>
					<polygon style="opacity:0.4;fill:#FFFFFF;" points="264.15,285.02 232.15,266.38 232.15,264.63 264.15,283.27 					"/>
					<polygon style="fill:#BA68C8;" points="264.15,283.27 287.3,265.46 288.2,266.54 264.15,285.02 					"/>
					<polygon style="opacity:0.4;fill:#FFFFFF;" points="264.15,283.27 287.3,265.46 288.2,266.54 264.15,285.02 					"/>
					<polygon style="fill:#BA68C8;" points="287.3,265.46 255.25,278.08 264.15,283.27 					"/>
					<polygon style="opacity:0.1;" points="287.3,265.46 255.25,278.08 264.15,283.27 					"/>
					<g>
						<path style="fill:#455A64;" d="M231.65,302.75c0,0.05-0.01,0.1-0.02,0.15c0.21,0.05,0.44,0.08,0.67,0.08
							c0.03,0,0.07-0.01,0.1-0.01c0.01-0.08,0.03-0.15,0.03-0.23c0-0.67-0.43-1.39-0.9-1.82l-0.73,0.35
							c0.02,0.05,0.06,0.1,0.11,0.14C231.33,301.74,231.65,302.33,231.65,302.75z"/>
						<path style="fill:#455A64;" d="M231.31,303.62c-0.39,0.48-1.1,0.8-1.9,0.8c-1.1,0-2.01-0.6-2.2-1.38
							c-0.02-0.1-0.04-0.19-0.04-0.29c0-0.13,0.02-0.25,0.06-0.37c0.06-0.21-0.05-0.42-0.26-0.49c-0.21-0.06-0.42,0.05-0.49,0.26
							c-0.06,0.2-0.09,0.4-0.09,0.6c0,0.22,0.05,0.43,0.12,0.63c0.35,1.04,1.51,1.81,2.9,1.81c1.22,0,2.27-0.59,2.74-1.44
							C231.86,303.74,231.58,303.69,231.31,303.62z"/>
						<path style="fill:#37474F;" d="M234.54,301.32c0,0.05-0.01,0.1-0.02,0.15c0.21,0.05,0.44,0.08,0.67,0.08
							c0.03,0,0.07-0.01,0.1-0.01c0.01-0.08,0.03-0.15,0.03-0.23c0-0.67-0.45-1.36-0.92-1.79l-0.73,0.35
							c0.03,0.05,0.06,0.1,0.11,0.14C234.21,300.36,234.54,300.92,234.54,301.32z"/>
						<path style="fill:#37474F;" d="M234.2,302.19c-0.38,0.45-1.04,0.76-1.8,0.79c-0.03,0-0.07,0.01-0.1,0.01
							c-0.24,0-0.46-0.03-0.67-0.08c-0.78-0.18-1.37-0.67-1.53-1.27c-0.03-0.1-0.04-0.2-0.04-0.31c0-0.13,0.02-0.25,0.06-0.37
							c0.06-0.21-0.05-0.42-0.26-0.49c-0.21-0.07-0.42,0.05-0.49,0.26c-0.06,0.19-0.09,0.4-0.09,0.6c0,0.23,0.05,0.44,0.12,0.65
							c0.27,0.77,0.98,1.39,1.91,1.65c0.27,0.08,0.55,0.12,0.84,0.13c0.05,0,0.1,0.01,0.14,0.01c1.22,0,2.27-0.59,2.74-1.44
							C234.75,302.31,234.47,302.27,234.2,302.19z"/>
						<path style="fill:#455A64;" d="M237.43,299.89c0,0.05-0.01,0.1-0.02,0.15c0.21,0.05,0.44,0.08,0.67,0.08
							c0.03,0,0.07-0.01,0.1-0.01c0.01-0.08,0.03-0.15,0.03-0.23c0-0.61-0.36-1.31-0.88-1.78l-0.72,0.35
							c0.03,0.05,0.06,0.1,0.11,0.14C237.12,298.91,237.43,299.47,237.43,299.89z"/>
						<path style="fill:#455A64;" d="M237.09,300.76c-0.38,0.45-1.04,0.76-1.8,0.79c-0.03,0-0.07,0.01-0.1,0.01
							c-0.23,0-0.46-0.03-0.67-0.08c-0.77-0.18-1.36-0.66-1.52-1.25c-0.03-0.11-0.04-0.22-0.04-0.33c0-0.13,0.02-0.25,0.06-0.37
							c0.06-0.21-0.05-0.42-0.26-0.49c-0.21-0.07-0.42,0.05-0.49,0.26c-0.06,0.19-0.09,0.4-0.09,0.6c0,0.23,0.05,0.45,0.13,0.67
							c0.27,0.76,0.98,1.37,1.9,1.63c0.27,0.08,0.55,0.12,0.84,0.13c0.05,0,0.09,0.01,0.14,0.01c1.22,0,2.27-0.59,2.74-1.44
							C237.64,300.88,237.36,300.84,237.09,300.76z"/>
						<path style="fill:#37474F;" d="M240.32,298.46c0,0.05-0.01,0.1-0.02,0.15c0.21,0.05,0.44,0.08,0.67,0.08
							c0.03,0,0.07-0.01,0.1-0.01c0.01-0.08,0.03-0.15,0.03-0.23c0-0.62-0.35-1.3-0.86-1.77l-0.72,0.35
							c0.03,0.05,0.06,0.1,0.11,0.14C240.03,297.49,240.32,298.03,240.32,298.46z"/>
						<path style="fill:#37474F;" d="M239.98,299.33c-0.38,0.45-1.04,0.76-1.8,0.79c-0.03,0-0.07,0.01-0.1,0.01
							c-0.23,0-0.46-0.03-0.67-0.08c-0.76-0.18-1.35-0.65-1.52-1.24c-0.03-0.11-0.05-0.23-0.05-0.35c0-0.13,0.02-0.25,0.06-0.37
							c0.06-0.21-0.05-0.42-0.26-0.49c-0.21-0.07-0.42,0.05-0.49,0.26c-0.06,0.19-0.09,0.4-0.09,0.6c0,0.24,0.06,0.47,0.14,0.69
							c0.27,0.76,0.98,1.36,1.89,1.62c0.27,0.08,0.55,0.12,0.84,0.13c0.05,0,0.09,0.01,0.14,0.01c1.22,0,2.27-0.59,2.74-1.44
							C240.53,299.46,240.24,299.41,239.98,299.33z"/>
						<path style="fill:#455A64;" d="M243.2,297.03c0,0.05-0.01,0.1-0.02,0.15c0.21,0.05,0.44,0.08,0.67,0.08
							c0.03,0,0.07-0.01,0.1-0.01c0.01-0.08,0.03-0.15,0.03-0.23c0-0.62-0.34-1.3-0.85-1.76l-0.72,0.35
							c0.03,0.05,0.06,0.1,0.11,0.14C242.92,296.06,243.2,296.6,243.2,297.03z"/>
						<path style="fill:#455A64;" d="M242.86,297.9c-0.38,0.45-1.04,0.76-1.8,0.79c-0.03,0-0.07,0.01-0.1,0.01
							c-0.24,0-0.46-0.03-0.67-0.08c-0.75-0.18-1.34-0.64-1.51-1.22c-0.04-0.12-0.06-0.24-0.06-0.36c0-0.13,0.02-0.25,0.06-0.37
							c0.06-0.21-0.05-0.42-0.26-0.49c-0.21-0.07-0.42,0.05-0.49,0.26c-0.06,0.2-0.09,0.4-0.09,0.6c0,0.25,0.06,0.48,0.14,0.7
							c0.28,0.75,0.98,1.34,1.89,1.6c0.27,0.08,0.55,0.12,0.84,0.13c0.05,0,0.1,0.01,0.14,0.01c1.22,0,2.27-0.59,2.74-1.44
							C243.41,298.03,243.13,297.98,242.86,297.9z"/>
						<path style="fill:#37474F;" d="M246.09,295.6c0,0.05-0.01,0.1-0.02,0.15c0.21,0.05,0.44,0.08,0.67,0.08
							c0.03,0,0.07-0.01,0.1-0.01c0.01-0.08,0.03-0.15,0.03-0.23c0-0.59-0.35-1.24-0.89-1.72l-0.72,0.35
							c0.03,0.05,0.06,0.1,0.11,0.14C245.8,294.71,246.09,295.2,246.09,295.6z"/>
						<path style="fill:#37474F;" d="M245.75,296.48c-0.38,0.45-1.04,0.76-1.8,0.79c-0.03,0-0.07,0.01-0.1,0.01
							c-0.24,0-0.46-0.03-0.67-0.08c-0.75-0.18-1.32-0.63-1.5-1.2c-0.04-0.12-0.06-0.25-0.06-0.38c0-0.13,0.02-0.25,0.06-0.37
							c0.06-0.21-0.05-0.42-0.26-0.49c-0.21-0.06-0.42,0.05-0.49,0.26c-0.06,0.19-0.09,0.4-0.09,0.6c0,0.25,0.06,0.49,0.15,0.72
							c0.28,0.74,0.98,1.33,1.88,1.58c0.27,0.08,0.55,0.12,0.84,0.13c0.05,0,0.1,0.01,0.14,0.01c1.22,0,2.27-0.59,2.74-1.44
							C246.3,296.6,246.02,296.55,245.75,296.48z"/>
						<path style="fill:#455A64;" d="M248.98,294.17c0,0.05-0.01,0.1-0.02,0.16c0.21,0.05,0.44,0.08,0.67,0.08
							c0.03,0,0.07-0.01,0.1-0.01c0.01-0.08,0.03-0.15,0.03-0.23c0-0.63-0.32-1.28-0.82-1.74l-0.72,0.35
							c0.03,0.05,0.06,0.1,0.11,0.14C248.72,293.23,248.98,293.73,248.98,294.17z"/>
						<path style="fill:#455A64;" d="M248.64,295.05c-0.38,0.45-1.04,0.76-1.8,0.79c-0.03,0-0.07,0.01-0.1,0.01
							c-0.23,0-0.46-0.03-0.67-0.08c-0.74-0.17-1.31-0.62-1.5-1.19c-0.04-0.13-0.07-0.26-0.07-0.4c0-0.13,0.02-0.25,0.06-0.37
							c0.06-0.21-0.05-0.42-0.26-0.49c-0.2-0.06-0.42,0.05-0.49,0.26c-0.06,0.19-0.09,0.4-0.09,0.6c0,0.26,0.06,0.5,0.15,0.74
							c0.29,0.73,0.98,1.31,1.87,1.57c0.27,0.08,0.55,0.12,0.84,0.13c0.05,0,0.09,0.01,0.14,0.01c1.22,0,2.27-0.59,2.74-1.44
							C249.19,295.17,248.91,295.12,248.64,295.05z"/>
						<path style="fill:#37474F;" d="M251.87,292.74c0,0.05-0.01,0.1-0.02,0.15c0.21,0.05,0.43,0.08,0.67,0.08
							c0.03,0,0.07-0.01,0.1-0.01c0.01-0.08,0.03-0.15,0.03-0.23c0-0.61-0.32-1.25-0.83-1.71l-0.72,0.35
							c0.03,0.05,0.06,0.1,0.11,0.14C251.61,291.84,251.87,292.32,251.87,292.74z"/>
						<path style="fill:#37474F;" d="M251.53,293.62c-0.38,0.45-1.04,0.76-1.8,0.79c-0.03,0-0.07,0.01-0.1,0.01
							c-0.24,0-0.46-0.03-0.67-0.08c-0.73-0.17-1.3-0.61-1.49-1.17c-0.05-0.13-0.08-0.27-0.08-0.41c0-0.13,0.02-0.25,0.06-0.37
							c0.06-0.21-0.05-0.42-0.26-0.49c-0.21-0.06-0.42,0.05-0.49,0.26c-0.06,0.19-0.09,0.4-0.09,0.6c0,0.26,0.07,0.51,0.16,0.75
							c0.29,0.73,0.98,1.3,1.87,1.55c0.27,0.08,0.55,0.12,0.84,0.13c0.05,0,0.1,0.01,0.14,0.01c1.22,0,2.27-0.59,2.74-1.44
							C252.08,293.74,251.8,293.69,251.53,293.62z"/>
						<path style="fill:#455A64;" d="M254.76,291.32c0,0.05-0.01,0.1-0.02,0.16c0.21,0.05,0.43,0.08,0.67,0.08
							c0.03,0,0.07-0.01,0.1-0.01c0.01-0.08,0.03-0.15,0.03-0.23c0-0.61-0.32-1.23-0.83-1.69l-0.72,0.35
							c0.03,0.05,0.06,0.1,0.11,0.14C254.5,290.43,254.76,290.89,254.76,291.32z"/>
						<path style="fill:#455A64;" d="M254.42,292.19c-0.38,0.45-1.04,0.76-1.8,0.79c-0.03,0-0.07,0.01-0.1,0.01
							c-0.23,0-0.46-0.03-0.67-0.08c-0.72-0.17-1.29-0.61-1.48-1.16c-0.05-0.14-0.08-0.28-0.08-0.43c0-0.12,0.02-0.25,0.06-0.37
							c0.06-0.21-0.05-0.42-0.26-0.49c-0.21-0.07-0.42,0.05-0.49,0.26c-0.06,0.2-0.09,0.4-0.09,0.6c0,0.27,0.07,0.53,0.17,0.77
							c0.3,0.72,0.98,1.28,1.86,1.53c0.27,0.08,0.55,0.12,0.84,0.13c0.05,0,0.09,0.01,0.14,0.01c1.22,0,2.27-0.59,2.74-1.44
							C254.96,292.31,254.68,292.27,254.42,292.19z"/>
						<path style="fill:#37474F;" d="M257.64,289.89c0,0.05-0.01,0.1-0.02,0.15c0.21,0.05,0.44,0.08,0.67,0.08
							c0.03,0,0.07-0.01,0.1-0.01c0.01-0.08,0.03-0.15,0.03-0.23c0-0.62-0.3-1.24-0.8-1.68l-0.72,0.35c0.03,0.05,0.06,0.1,0.11,0.14
							C257.4,288.99,257.64,289.45,257.64,289.89z"/>
						<path style="fill:#37474F;" d="M257.3,290.76c-0.38,0.45-1.04,0.76-1.8,0.79c-0.03,0-0.07,0.01-0.1,0.01
							c-0.23,0-0.46-0.03-0.67-0.08c-0.72-0.17-1.27-0.6-1.48-1.14c-0.05-0.14-0.09-0.29-0.09-0.44c0-0.12,0.02-0.25,0.06-0.37
							c0.06-0.21-0.05-0.42-0.26-0.49c-0.21-0.07-0.42,0.05-0.49,0.26c-0.06,0.2-0.09,0.4-0.09,0.6c0,0.28,0.07,0.54,0.17,0.78
							c0.3,0.71,0.98,1.27,1.86,1.52c0.27,0.08,0.55,0.12,0.84,0.13c0.05,0,0.1,0.01,0.14,0.01c1.22,0,2.27-0.59,2.74-1.44
							C257.85,290.88,257.57,290.84,257.3,290.76z"/>
						<path style="fill:#455A64;" d="M260.53,288.46c0,0.05-0.01,0.1-0.02,0.15c0.21,0.05,0.44,0.08,0.67,0.08
							c0.03,0,0.07-0.01,0.1-0.01c0.01-0.08,0.03-0.15,0.03-0.23c0-0.6-0.3-1.2-0.82-1.66l-0.72,0.35c0.03,0.05,0.06,0.1,0.11,0.14
							C260.29,287.61,260.53,288.04,260.53,288.46z"/>
						<path style="fill:#455A64;" d="M260.19,289.33c-0.38,0.45-1.04,0.76-1.8,0.79c-0.03,0-0.07,0.01-0.1,0.01
							c-0.24,0-0.46-0.03-0.67-0.08c-0.71-0.17-1.26-0.59-1.47-1.12c-0.06-0.15-0.1-0.3-0.1-0.46c0-0.12,0.02-0.25,0.06-0.37
							c0.06-0.21-0.05-0.42-0.26-0.49c-0.21-0.07-0.42,0.05-0.49,0.26c-0.06,0.2-0.09,0.4-0.09,0.6c0,0.28,0.07,0.55,0.18,0.8
							c0.3,0.7,0.98,1.25,1.85,1.5c0.27,0.08,0.55,0.12,0.84,0.13c0.05,0,0.09,0.01,0.14,0.01c1.22,0,2.27-0.59,2.74-1.44
							C260.74,289.45,260.46,289.41,260.19,289.33z"/>
						<path style="fill:#37474F;" d="M263.42,287.03c0,0.06-0.02,0.11-0.02,0.17c0.28,0,0.55-0.04,0.8-0.12
							c0-0.02,0.01-0.04,0.01-0.05c0-0.62-0.29-1.2-0.8-1.65l-0.71,0.35c0.03,0.06,0.06,0.11,0.11,0.15
							C263.2,286.19,263.42,286.6,263.42,287.03z"/>
						<path style="fill:#37474F;" d="M263.37,287.98c-0.11,0-0.22-0.02-0.33-0.03c-0.38,0.43-1.03,0.71-1.76,0.73
							c-0.03,0-0.07,0.01-0.1,0.01c-0.24,0-0.46-0.03-0.67-0.08c-0.7-0.17-1.25-0.58-1.46-1.11c-0.06-0.15-0.1-0.31-0.1-0.48
							c0-0.13,0.02-0.25,0.06-0.37c0.06-0.21-0.05-0.42-0.26-0.49c-0.21-0.07-0.42,0.05-0.49,0.26c-0.06,0.19-0.09,0.4-0.09,0.6
							c0,0.29,0.07,0.56,0.19,0.82c0.31,0.69,0.98,1.24,1.84,1.48c0.27,0.08,0.55,0.12,0.84,0.13c0.05,0,0.1,0.01,0.14,0.01
							c1.27,0,2.35-0.64,2.8-1.54C263.78,287.97,263.58,287.98,263.37,287.98z"/>
						<path style="fill:#455A64;" d="M265.47,283.77c-0.17-0.13-0.41-0.1-0.55,0.07c-0.13,0.17-0.1,0.41,0.07,0.55
							c0.4,0.31,0.62,0.72,0.62,1.15c0,0.7-0.59,1.3-1.42,1.55c-0.25,0.07-0.52,0.12-0.8,0.12c-0.01,0-0.02,0-0.03,0
							c-0.84,0-1.56-0.35-1.94-0.86c-0.18-0.24-0.29-0.52-0.29-0.81c0-0.12,0.02-0.25,0.06-0.37c0.06-0.21-0.05-0.42-0.26-0.49
							c-0.2-0.07-0.42,0.05-0.49,0.26c-0.06,0.2-0.09,0.4-0.09,0.6c0,0.42,0.14,0.81,0.37,1.15c0.46,0.69,1.31,1.18,2.32,1.27
							c0.11,0.01,0.22,0.03,0.33,0.03c0.21,0,0.41-0.02,0.61-0.05c1.37-0.23,2.41-1.22,2.41-2.4
							C266.39,284.86,266.06,284.24,265.47,283.77z"/>
					</g>
					<g>
						<g>
							<path style="fill:#BA68C8;" d="M229.07,279.61c-0.39-0.22-0.58-0.34-0.97-0.56c0.5-0.36,0.75-0.54,1.24-0.89
								c-0.47-0.28-0.71-0.41-1.18-0.69c-0.63,0.27-0.95,0.42-1.58,0.71c-0.35-0.2-0.53-0.31-0.89-0.51
								c3.54-1.63,5.37-2.24,8.19-3.38c0.57,0.33,0.85,0.49,1.42,0.82C233.26,276.72,231.79,277.61,229.07,279.61z M229.33,276.97
								c0.37,0.22,0.56,0.33,0.93,0.55c1.36-0.94,2.02-1.38,3.18-2.22c-0.01,0-0.01-0.01-0.02-0.01
								C231.89,275.91,231.05,276.24,229.33,276.97z"/>
							<path style="fill:#BA68C8;" d="M236.76,275.94c0.39,0.23,0.59,0.34,0.98,0.57c-2.13,1.21-3.5,1.86-6.15,3.3
								c0.63,0.37,0.95,0.56,1.59,0.93c-0.44,0.24-0.66,0.35-1.11,0.6c-1.02-0.59-1.53-0.88-2.55-1.47
								C232.63,278.11,234.29,277.34,236.76,275.94z"/>
							<path style="fill:#BA68C8;" d="M241.2,280.24c-0.1,0.05-0.15,0.08-0.25,0.13c-0.73,0.39-1.41,0.52-2.09,0.39
								c-0.01,0-0.01,0.01-0.02,0.01c0.28,0.43-0.08,0.84-0.89,1.25c-0.25,0.13-0.38,0.19-0.63,0.32c-1.19,0.61-2.34,0.65-3.3,0.09
								c-0.61-0.35-0.91-0.52-1.52-0.87c3.09-1.67,4.78-2.46,7.3-3.88c0.6,0.34,0.9,0.52,1.49,0.86
								C242.31,279.14,242.28,279.66,241.2,280.24z M239.84,278.78c-0.71,0.39-1.09,0.59-1.87,0.99c0.15,0.09,0.23,0.13,0.38,0.22
								c0.36,0.21,0.78,0.24,1.35-0.06c0.16-0.08,0.24-0.13,0.4-0.21c0.5-0.27,0.56-0.47,0.21-0.67
								C240.13,278.94,240.03,278.89,239.84,278.78z M236.92,280.32c-0.93,0.48-1.4,0.72-2.35,1.22c0.22,0.13,0.33,0.19,0.55,0.32
								c0.32,0.19,0.69,0.19,1.26-0.1c0.27-0.14,0.4-0.21,0.67-0.34c0.71-0.37,0.74-0.58,0.3-0.84
								C237.17,280.47,237.09,280.42,236.92,280.32z"/>
							<path style="fill:#BA68C8;" d="M244.39,280.34c-2.01,1.12-3.25,1.73-5.65,2.92c-0.55,0.28-0.56,0.49-0.25,0.67
								c0.31,0.18,0.7,0.19,1.25-0.08c2.39-1.18,3.64-1.79,5.67-2.92c0.37,0.21,0.56,0.32,0.93,0.54c-2.01,1.12-3.25,1.72-5.61,2.88
								c-1.24,0.61-2.44,0.66-3.38,0.12c-0.95-0.54-0.73-1.18,0.51-1.81c2.36-1.19,3.57-1.79,5.54-2.89
								C243.79,280,243.99,280.11,244.39,280.34z"/>
							<path style="fill:#BA68C8;" d="M243.81,285.73c0.01,0,0.01,0.01,0.02,0.01c2.46-0.91,3.74-1.4,5.91-2.32
								c0.54,0.31,0.81,0.47,1.35,0.77c-2.71,1.52-4.48,2.38-7.51,3.74c-0.36-0.21-0.55-0.31-0.91-0.52
								c2.18-0.99,3.38-1.56,5.5-2.67c-0.01,0-0.01-0.01-0.02-0.01c-2.38,0.95-3.7,1.44-6.15,2.29c-0.36-0.21-0.55-0.31-0.91-0.52
								c1.88-1.17,2.92-1.82,4.72-3.06c-0.01,0-0.01-0.01-0.02-0.01c-2.08,1.08-3.25,1.64-5.42,2.66c-0.34-0.19-0.5-0.29-0.84-0.48
								c3.07-1.46,4.81-2.29,7.47-3.77c0.55,0.31,0.82,0.47,1.36,0.78C246.74,283.85,245.74,284.51,243.81,285.73z"/>
						</g>
					</g>
					<g style="opacity:0.1;">
						<g>
							<path d="M229.07,279.61c-0.39-0.22-0.58-0.34-0.97-0.56c0.5-0.36,0.75-0.54,1.24-0.89c-0.47-0.28-0.71-0.41-1.18-0.69
								c-0.63,0.27-0.95,0.42-1.58,0.71c-0.35-0.2-0.53-0.31-0.89-0.51c3.54-1.63,5.37-2.24,8.19-3.38
								c0.57,0.33,0.85,0.49,1.42,0.82C233.26,276.72,231.79,277.61,229.07,279.61z M229.33,276.97c0.37,0.22,0.56,0.33,0.93,0.55
								c1.36-0.94,2.02-1.38,3.18-2.22c-0.01,0-0.01-0.01-0.02-0.01C231.89,275.91,231.05,276.24,229.33,276.97z"/>
							<path d="M236.76,275.94c0.39,0.23,0.59,0.34,0.98,0.57c-2.13,1.21-3.5,1.86-6.15,3.3c0.63,0.37,0.95,0.56,1.59,0.93
								c-0.44,0.24-0.66,0.35-1.11,0.6c-1.02-0.59-1.53-0.88-2.55-1.47C232.63,278.11,234.29,277.34,236.76,275.94z"/>
							<path d="M241.2,280.24c-0.1,0.05-0.15,0.08-0.25,0.13c-0.73,0.39-1.41,0.52-2.09,0.39c-0.01,0-0.01,0.01-0.02,0.01
								c0.28,0.43-0.08,0.84-0.89,1.25c-0.25,0.13-0.38,0.19-0.63,0.32c-1.19,0.61-2.34,0.65-3.3,0.09
								c-0.61-0.35-0.91-0.52-1.52-0.87c3.09-1.67,4.78-2.46,7.3-3.88c0.6,0.34,0.9,0.52,1.49,0.86
								C242.31,279.14,242.28,279.66,241.2,280.24z M239.84,278.78c-0.71,0.39-1.09,0.59-1.87,0.99c0.15,0.09,0.23,0.13,0.38,0.22
								c0.36,0.21,0.78,0.24,1.35-0.06c0.16-0.08,0.24-0.13,0.4-0.21c0.5-0.27,0.56-0.47,0.21-0.67
								C240.13,278.94,240.03,278.89,239.84,278.78z M236.92,280.32c-0.93,0.48-1.4,0.72-2.35,1.22c0.22,0.13,0.33,0.19,0.55,0.32
								c0.32,0.19,0.69,0.19,1.26-0.1c0.27-0.14,0.4-0.21,0.67-0.34c0.71-0.37,0.74-0.58,0.3-0.84
								C237.17,280.47,237.09,280.42,236.92,280.32z"/>
							<path d="M244.39,280.34c-2.01,1.12-3.25,1.73-5.65,2.92c-0.55,0.28-0.56,0.49-0.25,0.67c0.31,0.18,0.7,0.19,1.25-0.08
								c2.39-1.18,3.64-1.79,5.67-2.92c0.37,0.21,0.56,0.32,0.93,0.54c-2.01,1.12-3.25,1.72-5.61,2.88
								c-1.24,0.61-2.44,0.66-3.38,0.12c-0.95-0.54-0.73-1.18,0.51-1.81c2.36-1.19,3.57-1.79,5.54-2.89
								C243.79,280,243.99,280.11,244.39,280.34z"/>
							<path d="M243.81,285.73c0.01,0,0.01,0.01,0.02,0.01c2.46-0.91,3.74-1.4,5.91-2.32c0.54,0.31,0.81,0.47,1.35,0.77
								c-2.71,1.52-4.48,2.38-7.51,3.74c-0.36-0.21-0.55-0.31-0.91-0.52c2.18-0.99,3.38-1.56,5.5-2.67c-0.01,0-0.01-0.01-0.02-0.01
								c-2.38,0.95-3.7,1.44-6.15,2.29c-0.36-0.21-0.55-0.31-0.91-0.52c1.88-1.17,2.92-1.82,4.72-3.06c-0.01,0-0.01-0.01-0.02-0.01
								c-2.08,1.08-3.25,1.64-5.42,2.66c-0.34-0.19-0.5-0.29-0.84-0.48c3.07-1.46,4.81-2.29,7.47-3.77
								c0.55,0.31,0.82,0.47,1.36,0.78C246.74,283.85,245.74,284.51,243.81,285.73z"/>
						</g>
					</g>
					<polygon style="fill:#E0E0E0;" points="264.15,283.27 232.17,262.42 196.63,283.56 198.6,284.54 232.15,264.63 					"/>
					<polygon style="fill:#F0F0F0;" points="264.15,283.27 232.49,259.95 197.03,281.76 198.19,282.63 232.17,262.42 					"/>
					<polygon style="fill:#E0E0E0;" points="264.15,283.27 284.57,265.02 255.27,276.73 					"/>
					<polygon style="fill:#F0F0F0;" points="264.15,283.27 280.04,265.7 254.76,276.36 					"/>
				</g>
				<g>
					<g>
						<path style="fill:#BA68C8;" d="M194.52,292.97c2.21-1.46,4.72-8.81-0.97-12.94C179.32,281.38,188.29,292.42,194.52,292.97z"/>
						<path style="opacity:0.5;" d="M194.52,292.97c2.21-1.46,4.72-8.81-0.97-12.94C179.32,281.38,188.29,292.42,194.52,292.97z"/>
					</g>
					<path style="fill:#FFA8A7;" d="M179.29,236.15c2.26,8.12-6.38,27.95-9.69,42.98c12.04,1.97,19.1,2.63,22.77,2.84
						c2.04,0.12,4.03-0.7,5.38-2.24l0.8-0.91c0.88-1,1.81-1.63,2.86-2.01l7.55-2.75c0.3-0.11,0.62,0.07,0.69,0.38l0,0
						c0.26,1.21-0.22,2.46-1.22,3.18l-4.32,3.1c5.08,3.5,13.48-2.88,15.11-0.9c1.64,1.97,2.37,6.77-1.69,9.47
						c-4.06,2.71-9.53,4.51-15.11,3.27l-4.57-1.24c-19.8,0.77-29.93,0.08-36.15-0.91c-4.35-0.69-7.38-4.67-6.89-9.05
						c1.7-15.1,6.08-36.45,10.88-42.4C171.26,232.11,179.29,236.15,179.29,236.15z"/>
					<path style="fill:#BA68C8;" d="M178.61,233.41c-11.16-5.57-16.18,4.19-18.22,10.13c-2.05,5.94-7.44,27.59-7.45,39.2
						c0,10.52,12.39,10.23,20.2,10.23c7.99,0,21.37,0,21.37,0c-5.85-4.51-4.58-11.48-0.97-12.94c-6.77-1.66-22.22-1.95-22.22-1.95
						C184.98,245.44,183.1,235.65,178.61,233.41z"/>
					<path style="opacity:0.5;" d="M178.61,233.41c-11.16-5.57-16.18,4.19-18.22,10.13c-2.05,5.94-7.44,27.59-7.45,39.2
						c0,10.52,12.39,10.23,20.2,10.23c7.99,0,21.37,0,21.37,0c-5.85-4.51-4.58-11.48-0.97-12.94c-6.77-1.66-22.22-1.95-22.22-1.95
						C184.98,245.44,183.1,235.65,178.61,233.41z"/>
					<path style="opacity:0.1;fill:#FFFFFF;" d="M178.61,233.41c-11.16-5.57-16.18,4.19-18.22,10.13
						c-2.05,5.94-7.44,27.59-7.45,39.2c0,10.52,12.39,10.23,20.2,10.23c7.99,0,21.37,0,21.37,0c-5.85-4.51-4.58-11.48-0.97-12.94
						c-6.77-1.66-22.22-1.95-22.22-1.95C184.98,245.44,183.1,235.65,178.61,233.41z"/>
				</g>
			</g>
		</g>
		<g>
			<path style="fill:#455A64;" d="M201.71,312.79c-0.66-0.99-1.53-1.84-2.59-2.45l-53.39-30.65c-1.27-0.73-2.69-0.65-3.81-0.03v0
				l-0.01,0c-0.05,0.03-0.1,0.06-0.15,0.09l-13.78,8.05c-1.23,0.63-2.12,1.89-2.12,3.46v52.7c0,2.79,1.49,5.37,3.91,6.76
				l53.39,30.65c1.37,0.79,2.93,0.63,4.08-0.13l0,0.01l13.69-7.99c0.11-0.06,0.21-0.12,0.32-0.18l0.03-0.02l0,0
				c1.03-0.68,1.76-1.84,1.76-3.25v-52.7C203.03,315.54,202.55,314.05,201.71,312.79z M187.59,320.86
				C187.59,320.86,187.59,320.86,187.59,320.86C187.59,320.86,187.59,320.86,187.59,320.86
				C187.59,320.86,187.59,320.86,187.59,320.86z"/>
			<path style="opacity:0.2;" d="M189,377.99v-52.7c0-2.79-1.49-5.37-3.91-6.76l-53.39-30.65c-1.23-0.71-2.61-0.65-3.72-0.08
				c-1.23,0.63-2.12,1.89-2.12,3.46v52.7c0,2.79,1.49,5.37,3.91,6.76l53.39,30.65c1.37,0.79,2.93,0.63,4.08-0.13
				C188.27,380.56,189,379.4,189,377.99z"/>
			<path style="opacity:0.1;" d="M187.59,320.86c0.89,1.28,1.4,2.82,1.4,4.44v52.7c0,1.41-0.72,2.57-1.75,3.25l0,0.01l13.69-7.99
				c0.11-0.06,0.21-0.12,0.32-0.18l0.03-0.02l0,0c1.03-0.68,1.76-1.84,1.76-3.25v-52.7c0-1.56-0.48-3.05-1.32-4.31L187.59,320.86z"
				/>
		</g>
	</g>
</g>
</svg>
