<?xml version="1.0" encoding="UTF-8"?>
<svg version="1.1" viewBox="0 0 1472 1472" width="1280" height="1280" xmlns="http://www.w3.org/2000/svg">
<path transform="translate(425,573)" d="m0 0h25l10 5 7 8 9 19 3 9v36l-3 25v14l2 14 4 16 2 9 6-2 8-6 8-9 6-11 4-5 1-3h2v13l-7 13-7 8h-2v2l-11 7-3 1 2 4 5 5 6 3h19l13-6 14-9 4-2v-26l3-6 9-10 13-11 16-11 15-10 23-13 16-8 25-11 34-12 31-8 20-4 25-4 29-2h18l23 1 15 2 21 4 24 6 27 9 26 11 27 14 24 15 12 9 14 11 12 11 2 1v2l4 2v2l4 2v2h2v2h2l7 8 11 13 13 18 9 16 1 3v8l-3 5-6 7 1 16 2 8 2 28v27l-2 24-6 24-8 20-9 16-10 13-11 11-18 12-16 8-18 6-11 3-28 4h-16l-27-4-18-5-22-9-17-9-18-12-14-11-10-9-10-8-15-1-25-5-8-2h-75l-30-1-38-3-25-3-26-4-29-6-25-7-22-7-20-4-10 4-19 5-24 3-17-1-12-3-12-5-8-6-6-5-9-13-5-11-3-12-2-18 1-23 2-15 1-3v-7l-8-28-3-14-3-19v-36l4-23 5-15 8-16 4-5h2l1-3 6-5 6-10 9-7 7-5 7-8 10-7 10-4zm11 36-5 3-2 3 1 5 6 13 4-1 3-10-1-12-1-1zm-76 185v12l-1 14v10l2 15 5 16 9 13 9 8 14 7 11 3 7 1h13l21-3 14-3-1-2-16-6-19-9-18-12-12-11-8-8-13-18-10-17-5-10z" fill="#FDE393"/>
<path transform="translate(425,573)" d="m0 0h25l10 5 7 8 9 19 3 9v36l-3 25v14l2 14 4 16 2 9 6-2 8-6 8-9 6-11 4-5 1-3h2v13l-7 13-7 8h-2v2l-11 7-3 1 2 4 5 5 6 3h19l13-6 14-9 4-2v-26l3-6 9-10 13-11 10-7h5l2 4 8 7 11 11 10 13 9 14 9 19 7 20 3 26 6 25 10 25 5 10v2h2l3 5v2h2l8 11 3 4v2l3 1 7 8 8 7v2l6 2 5 5 4 3v2l5 2 16 9 15 7 7 2v2l-38 1h-35l-30-1-38-3-25-3-26-4-29-6-25-7-22-7-20-4-10 4-19 5-24 3-17-1-12-3-12-5-8-6-6-5-9-13-5-11-3-12-2-18 1-23 2-15 1-3v-7l-8-28-3-14-3-19v-36l4-23 5-15 8-16 4-5h2l1-3 6-5 6-10 9-7 7-5 7-8 10-7 10-4zm11 36-5 3-2 3 1 5 6 13 4-1 3-10-1-12-1-1zm-76 185v12l-1 14v10l2 15 5 16 9 13 9 8 14 7 11 3 7 1h13l21-3 14-3-1-2-16-6-19-9-18-12-12-11-8-8-13-18-10-17-5-10z" fill="#FCD4BB"/>
<path transform="translate(776,683)" d="m0 0h18l17 6 11 8 4 4v2h2l6 8 7 12 12 27 10 24 8 16 9 15 11 14 9 10 8 8 14 10 10 6 13 5h15l6-6 1-8-2-9-11-22v-5l18-10 16-8 21-9 25-9 33-10h7l-3 5-1 5 1 3v7l2 9v6l2 1 2 18 1 15 1 7v11l1 5v11l-1 5v7l-2 9-4 15-2 3-3 10h-2l-1 4-2 4-2 1-3 6-8 10-12 13-3 1v2l-6 5-2 1-3 2-5 2v3l-6 4-18 6h-6l-3 2h-5l-2 1-9-2-12 1h-18l-17-3-9-2-16-5-14-5-28-14-24-15-9-7-8-5-7-8-7-6-10-13-10-15-8-14-6-13-2-7-2 1-8-6-8-9-4-10v-12l5-12 8-10 8-4 9-3h14v-2l-16 2-11 4-4 2-1-1v-18l4-8 9-10 13-5h15l1-6 2-7-1-8-7-8-14-8-12-6-2-4v-9l5-5z" fill="#FCD4BB"/>
<path transform="translate(803,360)" d="m0 0h24l12 2 15 5 17 9 14 11 11 13 9 16v5l-4 2-4-2 4 6 6 1 6-3 5-1h13l10 4 5 4 6 10 2 6v10l-3 9-7 9-10 6-16 2-3 22-6 16-7 13-8 10-8 9-13 10-16 8-15 5-9 2h-28l-19-5-17-8-14-10-12-12-9-13-2-3h-21l-10-5-7-9-3-11 2-13 5-8 7-6 6-3h9l3-14 1-5-7 1-1-3 1-13 5-18 8-16 8-10 9-10 12-9 12-7 17-6 6-2z" fill="#FCD4BB"/>
<path transform="translate(775,681)" d="m0 0h21l16 6 10 7 11 9 15 5 16 8 11 8 10 9 8 9 9 17 4 13 2 12v25l-3 17 1 6 10 8 10 7 17 8 4 1h11l5-4 1-2v-10l-4-8-10-2v-1h9l-3-5-10-3-2-4 6-9 16-10 15-8 27-12 31-11 25-7 14-3h19l3 2-1 7-3 3 1 7 2 3 3 20 2 16 1 16v27l-2 24-6 24-8 20-9 16-10 13-11 11-18 12-16 8-18 6-11 3-28 4h-16l-27-4-18-5-22-9-17-9-18-12-14-11-10-9-10-8-2-2-2-4-1-3-3-1-9-11-8-10-10-14-11-19-8-16-10-8-6-7-5-10-1-9 2-10 4-9 6-10 1-21 6-10 5-6v-11l-3-7 1-9 4-11-16 8-13 9-10 9-10 13-5 5h-3l2-3v-8l10-13 8-8 14-10 16-8 5-1v-3l-3-1-1-3v-8l4-6 7-4zm1 2-10 4-3 4v9l3 5 19 9 8 6 5 6 1 8-3 9v4h-15l-13 5-7 7-5 8-1 3v18h3l9-4 9-2 11-1v2h-14l-14 5-5 5-7 9-4 10v12l4 10 11 12 6 3 1-1 4 12 10 19 8 12 10 14 7 8 8 7 5 5 10 7 13 9 13 8 10 6 9 4 15 7 20 7 10 3 9 2 17 2h15l12-1 10 2 1-1 7-1 4-1 8-1 10-4 9-5v-3l5-2 3-2 4-2 4-4v-2l4-2 7-7 9-11 5-7 1-3 3-2 2-4v-3h2l4-12 2-4 3-12 2-11v-7l1-9v-7l-1-5v-14l-1-2-2-26-1-8h-2l-1-11-1-8v-5-2l1-7 2-2h-7l-36 11-25 9-27 12-20 11-5 3 1 7 8 15 3 8 1 7-1 7-4 5-2 1h-15l-15-6-11-7-13-10-13-13-13-17-9-15-8-16-11-26-9-21-10-18-5-6h-2l-2-4-10-8-8-4-12-4z" fill="#EDB8A1"/>
<path transform="translate(587,671)" d="m0 0h5l2 4 8 7 11 11 10 13 9 14 9 19 7 20 3 26 6 25 10 25 5 10v2h2l3 5v2h2l8 11 3 4v2l3 1 7 8 8 7v2l6 2 5 5 4 3v2l5 2 16 9 15 7 7 2v2l-38 1h-35l-30-1-38-3-25-3-26-4-29-6-25-7-24-8 4-1 22-1 27-4 21-5 27-10 20-10 18-11 4-3h5l3 3 3-6v-8l-6-15-7-16-12-22-10-17-10-15-10-14-7-9-9-10-9-8-5-2h-4l-1 5 1 10-4 4h-4l-1-6v-16l3-6 9-10 13-11z" fill="#C7C1FB"/>
<path transform="translate(425,573)" d="m0 0h25l10 5 7 8 9 19 3 9v36l-3 25v14l2 14 4 16 2 9 6-2 8-6 8-9 6-11 4-5 1-3h2v13l-7 13-7 8h-2v2l-11 7-3 1 2 4 5 5 6 3h19l13-6 14-9 4-2 1-4 5-2 2-2-1-12 2-4 7 1 8 6 11 11 10 13 7 10 10 15 13 22 8 14 12 26 4 11v8l-3 6h-3l-1-3-6 2-16 10-25 13-21 8-21 6-24 4-9 1-29 1-15-3-10 4-19 5-24 3-17-1-12-3-12-5-8-6-6-5-9-13-5-11-3-12-2-18 1-23 2-15 1-3v-7l-4-13 1-4 3 9 8 20 8 17 11 18 12 15-1 2-8-9-9-13-10-17-4-8-1-1v11l-1 14v10l2 15 5 16 9 13 8 7 14 7 11 3 7 1h13l21-3 13-3-16-6-19-9-18-12-12-11-3-4 4 2 7 7 14 10 15 9 23 9 14 4 18 3 23 1 22-2 25-5 30-10 15-7 19-10 22-14 2-3-8-20-13-26-10-17-10-16-13-18-10-13-11-12-3 1-7 8-10 8-13 9-9 5-8 4-15 1-9-1-9-7-4-6-15-3-10-5-6-7-5-13-1-5v-15l6-32 1-9v-24l-3-14-1-6-7 1-1 6 1 4v8l-3 9-5 3-2 18-4 7-4 2-4-1-2-2h7l3-3 1-7-4-1-1-4h-6l-6-2 1 12 1 3-4 13-5 6-2-1 6-8 1-4v-11l-2-13-5-12-6-9-4-3-11-2-9 1-2-1-1 3-4 3-2-1 5-6 6-9 11-8 12-12 11-7zm11 36-5 3-2 3 1 5 6 13 4-1 3-10-1-12-1-1z" fill="#0C2A45"/>
<path transform="translate(803,360)" d="m0 0h24l12 2 15 5 17 9 14 11 11 13 9 16v5l-4 2-4-2-1 2-10-5-24-5-5-1h-29l-30 5-17 4h-4l-1-7v-11l-3 4-4 18-22 11-12 8-6 5-5 13-1-3 1-5-7 1-1-3 1-13 5-18 8-16 8-10 9-10 12-9 12-7 17-6 6-2z" fill="#F9A854"/>
<path transform="translate(775,681)" d="m0 0h21l16 6 10 7 11 9 15 5 16 8 11 8 10 9 8 9 9 17 4 13 2 12v25l-3 17 1 6 10 8 10 7 17 8 4 1h11l5-4 1-2v-10l-4-8-10-2v-1h9l-3-5-10-3-2-4 6-9 16-10 15-8 27-12 31-11 25-7 14-3h19l3 2-1 7-3 3 1 7 2 3 3 20 2 16v15l-2-4-1-17-5-27-3-9-4-13-13 1-23 6-36 12-20 8-18 8-20 11-5 2 3 9 8 16 2 5 1 7-1 7-5 6-2 1h-15l-15-6-11-7-13-10-14-14-13-17-9-15-8-16-11-26-9-21-10-18-4-4v-2h-2l-5-6-10-7-17-6h-18l-10 4-2 3v9l2 4 19 9 8 6 6 7 1 8-4 13-15 1-13 5-9 10-3 7v18l11-5 9-2h11v2l-14 1-14 5-3 1-2 4-6 8-4 10v12l4 10 10 11 5 3 2-2 6 16 9 17 8 12 10 14 12 14 2 4h2l6 8 6 5 7 8 2 3-4-2-7-7-8-6-2-2-2-4-1-3-3-1-9-11-8-10-10-14-11-19-8-16-10-8-6-7-5-10-1-9 2-10 4-9 6-10 1-21 6-10 5-6v-11l-3-7 1-9 4-11-16 8-13 9-10 9-10 13-5 5h-3l2-3v-8l10-13 8-8 14-10 16-8 5-1v-3l-3-1-1-3v-8l4-6 7-4z" fill="#072743"/>
<path transform="translate(1067,726)" d="m0 0h18l10 8 11 18 3 7v8l-3 5-6 7-3-1-2-4v-5l4-5v-5l-2-1h-19l-25 6-29 9-28 11-27 13-16 10-5 5-3 5 1 3 10 3 3 3v3l-11-1-8-4-7-10-10-16 1-4 9-10 12-12 15-11 17-10 22-10 23-7 28-6z" fill="#FCFBFB"/>
<path transform="translate(362,623)" d="m0 0 2 1-7 11-5 12-2 7-2 4v13l-2 9-1 18 1 18 2 7 1 16h2l2 7 1 8 3 1 2 6 3 5 4 11v5h2l5 8 1 5h2l1 6 4 1 2 4 7 8 5 6v2h2l8 10 13 10 16 11v2l6 2 15 7 5 1 9 3 17 4h23l9-1 9-2 14-2 27-9 9-4 7-2 4-3 5-2h3l1-2 9-6h2v-2l10-5 4-3 5-2 7-5h2l2-4 2-2 8 19 1 4-7 6-15 9-14 8-16 8-21 8-20 6-21 4-22 2-23-1-22-4-18-6-15-6-20-12-13-11-5-5-3-1-3-5-9-12-9-14-9-17-10-25-2-9h-2l-5-19-4-25v-36l4-23 5-15 8-16z" fill="#F7BEA5"/>
<path transform="translate(587,671)" d="m0 0h5l2 4 8 7 11 11 10 13 9 14 9 19 7 20 3 26 6 25 10 25 4 8-1 4-14 7-7 2h-6l-6-4 2-5h5l3 3 3-6v-8l-6-15-7-16-12-22-10-17-10-15-10-14-7-9-9-10-9-8-5-2h-4l-1 5 1 10-4 4h-4l-1-6v-16l3-6 9-10 13-11z" fill="#FAF9F9"/>
<path transform="translate(811,595)" d="m0 0h18l23 1 15 2 21 4 24 6 27 9 26 11 27 14 24 15 12 9 14 11 12 11 2 1v2l4 2v2l4 2v2h2v2h2l7 8 11 13 6 8-1 2-6-5-22-1-6-10-24-26-14-14-4-3v-2l-4-2-5-4-8-6-15-9-12-7-23-11-16-7-12-5-16-5-19-5-17-4h-9l1 1v6l-8 6-7 3-11 2h-15l-17-3-9-4-7-6 1-6 4-5 4-2 1-2z" fill="#FCD877"/>
<path transform="translate(425,573)" d="m0 0h25l10 5 7 8-1 7-5 5-5 3-11 4-8 4-4 3h-2l-1 7 5 10v18h-2l-3-7-3-1v-2l-4-2-3-3h-2l-2 3-4 1-9-16-2-4-9-3-19-1 4-7 9-7 7-5 7-8 10-7 10-4z" fill="#F7D0B9"/>
<path transform="translate(561,707)" d="m0 0 7 1 8 6 11 11 10 13 7 10 10 15 13 22 8 14 12 26 4 11v8l-3 6h-3l-1-3-6 2-16 10-25 13-21 8-21 6-24 4-9 1-29 1-15-3-10 4-19 5-24 3-17-1-12-3-12-5-8-6-6-5-9-13-5-11-3-12-2-18 1-23 2-15 1-3v-7l-4-13 1-4 3 9 8 20 8 17 11 18 12 15-1 2-8-9-9-13-10-17-4-8-1-1v11l-1 14v10l2 15 5 16 9 13 8 7 14 7 11 3 7 1h13l21-3 13-3-16-6-19-9-18-12-12-11-3-4 4 2 7 7 14 10 15 9 23 9 14 4 18 3 23 1 22-2 25-5 30-10 15-7 19-10 22-14 2-3-8-20-13-26-10-17-10-16-13-18-10-13-11-12-3 1-7 8-10 8-13 9-9 5-8 4h-9l1-2 9-2 14-7 11-8 3-1 1-4 5-2 2-2-1-12z" fill="#102C46"/>
<path transform="translate(838,713)" d="m0 0 9 3 12 6 14 10 10 10 9 14 5 11 3 12 1 16-1 20-1 7h-3l-11-13-10-15-12-23-13-32-7-16-5-8z" fill="#FEE294"/>
<path transform="translate(767,684)" d="m0 0m-1 1m-2 1h2l-2 5v9l2 4 19 9 8 6 6 7 1 8-4 13-15 1-13 5-9 10-3 7v18l11-5 9-2h11v2l-14 1-14 5-3 1-2 4-6 8-4 10v12l4 10 10 11 5 3 2-2 6 16 9 17 8 12 10 14 12 14 2 4h2l6 8 6 5 7 8 2 3-4-2-7-7-8-6-2-2-2-4-1-3-3-1-9-11-8-10-10-14-11-19-8-16-10-8-6-7-5-10-1-9 2-10 4-9 6-10 1-21 6-10 5-6v-11l-3-7 1-9 4-11-16 8-13 9-10 9-10 13-5 5h-3l2-3v-8l10-13 8-8 14-10 16-8 5-1v-3l-3-1-1-3v-8z" fill="#072743"/>
<path transform="translate(918,424)" d="m0 0h13l10 4 5 4 6 10 2 6v10l-3 9-7 9-10 6-16 2-3 22-6 16-7 13-8 10-8 9-13 10-16 8-15 5-9 2h-28l-19-5-17-8-4-4 6 2 14 7 16 3 30 1 6-2 2-2 8-2 5-4 11-6h2l1-3 5-1 1-3 8-7 5-7 1-4h2l2-6 5-10 3-9 1-5 2-9-2-1 1-4-1-4 2-1 1-4-2-9 5 1 8 4 7-2 10-4 7-4 4-4h2l2-11 1-2v-8l-3-5v-2l-4-1v-2l-3-1-1-2-14-2-3 1h-7l-8 6-7 13-2 6h-1v-6l9-18 6-2z" fill="#E1B09C"/>
<path transform="translate(467,594)" d="m0 0h2l3 7 5 15v28l-2 15-1 7v34l3 7 1 11 3 4v6h-9l-6-4-5-6-4-10-1-12 2-15 4-20 1-8v-31l-4-17 1-5z" fill="#FBD3BC"/>
<path transform="translate(811,595)" d="m0 0h18l18 1 3 3 8 5 2 3v6l-8 6-7 3-11 2h-15l-17-3-9-4-7-6 1-6 4-5 4-2 1-2z" fill="#072743"/>
<path transform="translate(693,872)" d="m0 0 5 2 9 8 21 11 10 5 14 4 22 4 13 2h9l5 4 8 10 5 5v4h-13l-25-5-10-3v-2l-10-2-16-8-17-10v-2l-4-2-5-4v-2l-4-1-2-1v-2l-4-2-11-11z" fill="#F0CF74"/>
<path transform="translate(386,598)" d="m0 0h14l10 3 11 8 10 11 4 10v17h-2l-3-7-3-1v-2l-4-2-3-3h-2l-2 3-4 1-9-16-2-4-9-3-19-1 4-7z" fill="#FAD1B9"/>
<path transform="translate(513,565)" d="m0 0h2v29l-1 7 20-7 5-1-4 16-10 42-2 4h-2v-25l1-15 1-2-19 7h-4l1-9 10-43z" fill="#E2CB8F"/>
<path transform="translate(716,473)" d="m0 0h3l2 5-1 6-10 5-6 5 5-2 8-6h3l3 13 4 15v6l-4-1-8-6h-2l-3 8-7-1-5-5-3-4v-15l3-9 5-5 4-5z" fill="#FCD3BB"/>
<path transform="translate(561,707)" d="m0 0 7 1 8 6 11 11 10 13 7 10 10 15 13 22 8 14 12 26 4 11v8l-3 6h-3l-1-3-6 2-16 10-25 13-21 8-21 6-24 4-9 1h-14v-1l5-1 22-2 25-5 30-10 15-7 19-10 22-14 2-3-8-20-13-26-10-17-10-16-13-18-10-13-11-12-3 1-7 8-10 8-13 9-9 5-8 4h-9l1-2 9-2 14-7 11-8 3-1 1-4 5-2 2-2-1-12z" fill="#082743"/>
<path transform="translate(771,711)" d="m0 0 9 2 11 7 5 6 1 2v10l-3 5-4 2-11 1-10 4h-2l-2-10-2-4v-8l6-16z" fill="#FCD3BA"/>
<path transform="translate(467,594)" d="m0 0h2l3 7 5 15v28l-2 15-2 13-2 2v-8h-4v-3l-5 2 1-12v-31l-4-17 1-5z" fill="#F8BFA6"/>
<path transform="translate(939,823)" d="m0 0 9 4 7 1 3 2 4 4 3 6v10l-5 6-2 1h-11l-11-4-4-2-1-4 4-8 4-6 1-6z" fill="#FCD777"/>
<path transform="translate(918,424)" d="m0 0h13l10 4 5 4 6 10 2 6v10l-3 9-7 9-10 6-16 2h-2l-3-3-4-3h5l7-4 9-3 7-4 4-4h2l2-11 1-2v-8l-3-5v-2l-4-1v-2l-3-1-1-2-14-2-3 1h-7l-8 6-7 13-2 6h-1v-6l9-18 6-2z" fill="#E0B09C"/>
<path transform="translate(795,480)" d="m0 0h11l9 6 4 4 1 6-4 3-9 2-8 2-12 2-3-2v-8l3-8 5-5z" fill="#072743"/>
<path transform="translate(721,467)" d="m0 0h1l1 19 3 17 6 20 3 5-1 3-2-3h-21l-10-5-7-9-3-11 2-13 5-8 7-6 6-3h5l-4 3-6 3-4 5h-2l-2 5-2 7v15l5 6v2l9 2 2-8 3-1 9 7 3 1-6-27-1-7-8 4-6 5-3-1 7-6 8-4h2l-1-11z" fill="#F4BCA4"/>
<path transform="translate(776,395)" d="m0 0h2l1 24 19-5 30-5h29l27 5 17 5 2 4-6-2-1 2-10-5-24-5-5-1h-29l-30 5-17 4h-4l-1-7v-11l-3 4-4 18-22 11-12 8-6 5-5 13-1-3 1-5-3-1 6-7 10-7 16-9 13-7 2-5 3-13 3-7z" fill="#072743"/>
<path transform="translate(584,623)" d="m0 0 1 3-15 11 5 5 5 3-1 3-30 13-5 1 5-6 13-8v-3l-10-6 2-3 23-10z" fill="#BEAA98"/>
<path transform="translate(467,594)" d="m0 0h2l3 7 5 15v28l-2 15-3-1-3-6v-7l2-4 1-22v-3l-7-2-1-8-2 1-1 3-2-5 1-5z" fill="#FBD1BA"/>
<path transform="translate(373,612)" d="m0 0h19l7 3 5 5 6 10 2 5 4-1 2-3 4 2 5 4v2l4 1 3 7v5l-4-2-3-3v-2h-6l-6-2 1 12 1 3-4 13-5 6-2-1 6-8 1-4v-11l-2-13-5-12-6-9-4-3-11-2-9 1-2-1-1 3-4 3-2-1z" fill="#F8BFA6"/>
<path transform="translate(915,612)" d="m0 0 6 1 15 5 20 8 15 7 10 5 18 10 15 10 4 4-5 1-1-2-6-2 1-2 1-1h-6l-6-4-3-1v-2l-4-1-9-5-1-2-7-3-3-2-4-1-3-3-5-1v-3h-8l-4-2v-1l-9-2v-2l-3-1-7-1-3-1v-2l-7-1z" fill="#FFAB53"/>
<path transform="translate(867,414)" d="m0 0 11 1 13 4 9 6 3 4-6 12h-3l-3-1-8-11-7-9-9-5z" fill="#F3BCA4"/>
<path transform="translate(905,607)" d="m0 0 10 2 24 8 26 11 27 14 24 15 12 9 14 11 12 11 2 1v2l4 2v2l4 2v2h2v2h2v2l-5-2-3-3v-2l-4-2-7-7v-2l-4-2-13-11-18-13-15-10-14-8-14-7-15-7-20-8-15-5-13-4z" fill="#E7B49F"/>
<path transform="translate(823,424)" d="m0 0h12l6 4 2 3-1 5-5 4-8 1-9-3-3-3-1-4 3-5z" fill="#072743"/>
<path transform="translate(750,443)" d="m0 0 7 1 3 3-1 7-5 6-5 3h-8l-5-5 1-5 7-8z" fill="#072743"/>
<path transform="translate(466,587)" d="m0 0 4 5 6 13 3 9v36l-3 25v14l2 14 1 5-3-1-3-7v-34l2-11 1-11v-28l-2-6-5-13v-3l-5 2z" fill="#0F2C46"/>
<path transform="translate(754,493)" d="m0 0h10l8 3-2 9-3 3-9 1-9-4-1-7z" fill="#F8BFA6"/>
<path transform="translate(845,473)" d="m0 0h9l2 4-2 7-8 5h-7l-5-3-1-5 2-3z" fill="#F8BFA6"/>
<path transform="translate(362,623)" d="m0 0 2 1-7 11-5 12-2 7-2 4-2 15-2 9v36l1 7 1 1 1 19-2-2-4-25v-36l4-23 5-15 8-16z" fill="#0B2A44"/>
<path transform="translate(415,643)" d="m0 0h5l7 2 1 4h5v6l-3 5-5 1-9-2-1-4z" fill="#FAD0B8"/>
<path transform="translate(567,639)" d="m0 0 8 3 5 3-1 3-30 13-5 1 5-6 12-7 6-2-1-7z" fill="#F5DAA9"/>
<path transform="translate(776,395)" d="m0 0h2v9h-3l-2 3-4 18-22 11-12 8-6 5-5 13-1-3 1-5-3-1 6-7 10-7 16-9 13-7 2-5 3-13 3-7z" fill="#072743"/>
<path transform="translate(721,467)" d="m0 0h1l1 19 3 17 6 20 3 5-1 3-2-3h-21l-2-1v-2h20l-2-9-4-13-3-17-8 4-6 5-3-1 7-6 8-4h2l-1-11z" fill="#112D47"/>
<path transform="translate(435,585)" d="m0 0h10l4 3-2 5h-2v2l-3 1h-10l-5-3 2-5z" fill="#F8BFA6"/>
<path transform="translate(776,367)" d="m0 0 2 1-4 3-12 6-11 8-4 2-2 4h-2l-2 4-7 8-6 11-5 13-3 10-2 18-2-3 1-13 5-18 8-16 8-10 9-10 12-9 12-7z" fill="#273B50"/>
<path transform="translate(447,605)" d="m0 0h5l4 13v6l-2-2-5 2h-4l-2-14 2-4z" fill="#F8C1A8"/>
<path transform="translate(373,612)" d="m0 0h19l7 3 5 5 6 10 4 12 2 13 1 3-4 13-5 6-2-1 6-8 1-4v-11l-2-13-5-12-6-9-4-3-11-2-9 1-2-1-1 3-4 3-2-1z" fill="#072743"/>
<path transform="translate(1e3 650)" d="m0 0 12 7 12 9 14 11 12 11 2 1v2l4 2v2l4 2v2h2v2h2v2l-5-2-3-3v-2l-4-2-7-7v-2l-4-2-13-11-18-13-10-7z" fill="#EDB8A1"/>
<path transform="translate(825,452)" d="m0 0 6 1 3 7-1 6-4 3-5-1-3-5 1-7z" fill="#072743"/>
<path transform="translate(762,468)" d="m0 0 5 3 3 4v6l-3 3h-5l-5-5-1-5 3-5z" fill="#072743"/>
<path transform="translate(460,671)" d="m0 0h3v9l-1 4-1 18-2 4-2 2-1-12 2-15z" fill="#F8BFA6"/>
<path transform="translate(711,473)" d="m0 0h5l-4 3-6 3-4 5h-2l-2 5-2 7-2 14-2-2-1-8 2-10 5-8 7-6z" fill="#CAA396"/>
<path transform="translate(342,682)" d="m0 0h1l1 36 1 7 1 1 1 19-2-2-4-25v-35z" fill="#122E47"/>
<path transform="translate(442,612)" d="m0 0h2l1 4v8l-3 9-5 3-2 18-4 7-4 2-4-1-2-2h7l3-3 3-10v-17l2 1v2l3-1 3-10z" fill="#0D2B45"/>
<path transform="translate(775,402)" d="m0 0 2 2-1 19-7 4-3-1 3-1 2-12 2-8z" fill="#F4EBF1"/>
<path transform="translate(461,730)" d="m0 0 5 2 8 3 12 2 7 9 6 4 15 1h9v1l-10 2-4 1-1-1-10-2-8-6-6-7-14-3-8-4z" fill="#F8BFA6"/>
<path transform="translate(436,636)" d="m0 0 2 4 4 2v8l-3 8h-4l-1-4z" fill="#F8BFA6"/>
<path transform="translate(782,597)" d="m0 0h10l-3 2-15 2-5 2-18 1v2l-7 1v-3l13-3z" fill="#CAA698"/>
<path transform="translate(501,665)" d="m0 0 4 2 4 6v2l10 2 1 2h-6l-5-2-1 1-2 12-5 4-2 1h-6l2-2 7-3 2-3 1-12z" fill="#2F4053"/>
<path transform="translate(1094,774)" d="m0 0h2l3 5 3 20 2 16v15l-2-4-1-17-5-27-2-5z" fill="#0A2944"/>
<path transform="translate(718,773)" d="m0 0h16l-3 2-14 1-3 8 1 10-4-1-3-7 1-3h2l2-7z" fill="#595B65"/>
<path transform="translate(522,615)" d="m0 0h1v27h2l2-4-1 10-3 7h-2v-25z" fill="#787783"/>
<path transform="translate(561,649)" d="m0 0 1 2 5 1-4 3-16 7-3-1 7-6z" fill="#D3BBB1"/>
<path transform="translate(793,573)" d="m0 0 8 1 25 1 5 1-2 2h-22l-14-4z" fill="#F8BFA6"/>
<path transform="translate(693,872)" d="m0 0 5 2 4 5 3 4 5 3 10 8 3 5-4-2-5-4v-2l-4-1-2-1v-2l-4-2-11-11z" fill="#7E6D53"/>
<path transform="translate(391,595)" d="m0 0 13 2 9 4 10 8 6 5-1 4-9-10-11-7-8-2h-11v-3z" fill="#092845"/>
<path transform="translate(735,528)" d="m0 0 2 1v2h2l8 12 5 7-1 2-8-8-8-11z" fill="#BA988C"/>
<path transform="translate(376,643)" d="m0 0h2l5 15 5 9 7 7 4 2 6 1-2 2-5-1-6-4-5-5-6-9-5-15z" fill="#072743"/>
<path transform="translate(513,565)" d="m0 0h1v26h-1l-1-8h-3v-7l3-10z" fill="#E6C4BC"/>
<path transform="translate(921,437)" d="m0 0h6l8 4 1 2-5-1-4-2h-7l-7 5-7 13-1-3 5-10 5-5z" fill="#072743"/>
<path transform="translate(368,806)" d="m0 0h2l10 17 10 13 4 5-1 2-8-9-9-13-8-13z" fill="#20374D"/>
<path transform="translate(470,715)" d="m0 0 6 1v2l3 1v2h-2l-1 4-4 1-3-4v-6z" fill="#FEE394"/>
<path transform="translate(1045,681)" d="m0 0 4 2 7 6v2l4 2v2l4 2v2h2v2h2v2l-5-2-3-3v-2l-4-2-7-7v-2l-4-2z" fill="#9C8580"/>
<path transform="translate(584,623)" d="m0 0 1 3-9 7-7 1 4-2h-3-3v-2z" fill="#A79AB0"/>
<path transform="translate(395,844)" d="m0 0 4 2 7 7 14 10 11 7-1 2-16-10-11-9-8-8z" fill="#22384E"/>
<path transform="translate(462,718)" d="m0 0 6 4 4 3h4l1-4 3-1 1 2v6h-9l-6-4-4-4z" fill="#FBD0B7"/>
<path transform="translate(1068,703)" d="m0 0 7 6 11 13 6 8-1 2-6-5-5-8-4-4-3-5-5-5z" fill="#927D76"/>
<path transform="translate(737,439)" d="m0 0m-1 1m-2 1h2l-2 4-5 4-5 13-1-3 1-5-3-1 6-7z" fill="#19324A"/>
<path transform="translate(910,426)" d="m0 0 2 1-9 7-7 13-2 6h-1v-6l9-18 6-2z" fill="#072743"/>
<path transform="translate(918,424)" d="m0 0h13l6 2-2 2-14-1-3 1-6-1 1-2z" fill="#AC8F87"/>
<path transform="translate(772,922)" d="m0 0 10 2 16 4 9 1-4 2-27-5-2-1v-2z" fill="#EEBAA5"/>
<path transform="translate(530,685)" d="m0 0h22v2l-14 2-5 2-1-2 1-2-3-1z" fill="#2D3F52"/>
<path transform="translate(572,630)" d="m0 0 1 2-1 1 2 1-4 4 2 3-5-2-1-4h-7l4-3z" fill="#8E7E7C"/>
<path transform="translate(362,623)" d="m0 0 2 1-7 11-5 12-3 1 3-9 6-11z" fill="#102C46"/>
<path transform="translate(754,551)" d="m0 0 9 6 8 6-2 1-9-4-8-7z" fill="#CAA293"/>
<path transform="translate(883,603)" d="m0 0h10l6 2v2l-2 1h-7l-7-4z" fill="#C38E5A"/>
<path transform="translate(764,600)" d="m0 0h6l-4 2-10 2h-5v2l-7 1v-3l13-3z" fill="#A48E80"/>
<path transform="translate(849,597)" d="m0 0h7l13 3 6 3-3 1-7-2-9-2-5-1z" fill="#DB9850"/>
<path transform="translate(514,565)" d="m0 0h1v29l-1 7 4 1-6 1 1-12z" fill="#102D47"/>
<path transform="translate(435,636)" d="m0 0h1v13l-3 9-4 4-5 1-3-3h7l3-3 3-10z" fill="#072743"/>
<path transform="translate(670,743)" d="m0 0 5 2 12 6-1 3 2 4-3-1-2-4-12-8z" fill="#072743"/>
<path transform="translate(752,920)" d="m0 0h11l3 1v2h-19v-1l5-1z" fill="#EBE7F9"/>
<path transform="translate(373,612)" d="m0 0h14l-2 2-9 1-2-1-1 3-4 3-2-1z" fill="#0C2A45"/>
<path transform="translate(527,666)" d="m0 0 1 2-1 4v11h-2l-3-9z" fill="#434D5B"/>
<path transform="translate(378,606)" d="m0 0 3 1 1 2 4 2-13 1 3-5z" fill="#FDFAF8"/>
<path transform="translate(637,853)" d="m0 0 6 2h6l10-2-4 3-7 2-6-1-5-3z" fill="#AD9087"/>
<path transform="translate(343,725)" d="m0 0 3 1 1 19-2-2z" fill="#0D2A45"/>
<path transform="translate(796,728)" d="m0 0h1v10l-3 5h-3l1-2-2-1 5-5z" fill="#F8BFA6"/>
<path transform="translate(407,622)" d="m0 0 5 4 3 3h-2l-1 3-2 1-4-8z" fill="#F8C1A8"/>
<path transform="translate(380,826)" d="m0 0 4 2 9 12v3l-8-9z" fill="#384657"/>
<path transform="translate(732,768)" d="m0 0 5 3 7 2v2l-3 1-7-3z" fill="#072743"/>
<path transform="translate(687,766)" d="m0 0 1 3-2 5-3 1h-7l1-2 7-3z" fill="#072743"/>
<path transform="translate(455,576)" d="m0 0 5 2 7 8-2 4-3-6-6-5z" fill="#DAAD9C"/>
<path transform="translate(449,603)" d="m0 0m-4 1 4 1-4 1-2 6-2-2-4-2z" fill="#072743"/>
<path transform="translate(728,517)" d="m0 0h2l4 9 1 5-3-3-5-1 2-4z" fill="#0E2B46"/>
<path transform="translate(1094,774)" d="m0 0h2l3 5 1 9h-2l-4-11z" fill="#0E2B46"/>
<path transform="translate(797,741)" d="m0 0h1l1 5 4 2 1 4-10-4 2-1z" fill="#B4948A"/>
<path transform="translate(530,692)" d="m0 0 1 3 1 6 5 8-4-2-4-6-1-6z" fill="#525661"/>
<path transform="translate(574,627)" d="m0 0 3 1-3 5-5 1 4-2h-3-3v-2z" fill="#F4DEDC"/>
<path transform="translate(902,608)" d="m0 0h5l8 3v1h-11l-2-1z" fill="#FEAC58"/>
<path transform="translate(813,491)" d="m0 0 4 1-1 4-5 1-1-3z" fill="#FAD4C1"/>
<path transform="translate(462,718)" d="m0 0 6 4 5 4 3 2-6-1-8-7z" fill="#F8C0A7"/>
<path transform="translate(551,655)" d="m0 0 4 2-4 3-4 2-3-1z" fill="#B49CA3"/>
<path transform="translate(576,644)" d="m0 0 4 1-1 3-9 3 1-3 4-2z" fill="#B1A7B1"/>
<path transform="translate(725,458)" d="m0 0 1 4-2 5-1 12h-1v-17h2z" fill="#F8BFA6"/>
<path transform="translate(690,757)" d="m0 0h1v7l-3 2-2-8z" fill="#C29D90"/>
<path transform="translate(711,473)" d="m0 0h5l-4 3-6 3-3 1 2-4z" fill="#21374E"/>
<path transform="translate(557,651)" d="m0 0 4 1-4 3 3 1-5 2-3-2z" fill="#E8CEC2"/>
<path transform="translate(350,647)" d="m0 0h1v6l-4 6-1-3z" fill="#072743"/>
<path transform="translate(721,467)" d="m0 0h1l1 13-2 2-2-9z" fill="#102C46"/>
<path transform="translate(527,683)" d="m0 0 3 1h-3z" fill="#BB998D"/>
</svg>
