<?xml version="1.0" encoding="UTF-8"?>
<!DOCTYPE svg PUBLIC "-//W3C//DTD SVG 1.1//EN" "http://www.w3.org/Graphics/SVG/1.1/DTD/svg11.dtd">
<svg xmlns="http://www.w3.org/2000/svg" version="1.1" width="368px" height="319px" style="shape-rendering:geometricPrecision; text-rendering:geometricPrecision; image-rendering:optimizeQuality; fill-rule:evenodd; clip-rule:evenodd" xmlns:xlink="http://www.w3.org/1999/xlink">
<g><path style="opacity:0.69" fill="#657583" d="M 225.5,53.5 C 221.923,52.421 218.256,51.7543 214.5,51.5C 210.76,51.8759 207.094,52.5426 203.5,53.5C 206.68,51.1327 210.347,50.1327 214.5,50.5C 218.653,50.1327 222.32,51.1327 225.5,53.5 Z"/></g>
<g><path style="opacity:1" fill="#fafbfb" d="M 225.5,53.5 C 225.973,54.9063 226.973,55.573 228.5,55.5C 229.833,57.5 231.5,59.1667 233.5,60.5C 233.427,62.0269 234.094,63.0269 235.5,63.5C 235.595,65.7857 236.262,67.7857 237.5,69.5C 237.57,74.6091 236.903,79.6091 235.5,84.5C 235.672,85.4916 235.338,86.1583 234.5,86.5C 231.833,88.5 229.5,90.8333 227.5,93.5C 220.596,96.5618 213.429,97.2285 206,95.5C 202.865,96.6537 199.698,97.6537 196.5,98.5C 196.5,96.8333 196.5,95.1667 196.5,93.5C 198.115,90.5983 197.449,88.265 194.5,86.5C 193.662,86.1583 193.328,85.4916 193.5,84.5C 192.758,81.0272 192.091,77.5272 191.5,74C 191.986,69.2185 193.319,64.7185 195.5,60.5C 197.5,59.1667 199.167,57.5 200.5,55.5C 202.027,55.573 203.027,54.9063 203.5,53.5C 207.094,52.5426 210.76,51.8759 214.5,51.5C 218.256,51.7543 221.923,52.421 225.5,53.5 Z"/></g>
<g><path style="opacity:0.867" fill="#637482" d="M 203.5,53.5 C 203.027,54.9063 202.027,55.573 200.5,55.5C 200.973,54.0937 201.973,53.427 203.5,53.5 Z"/></g>
<g><path style="opacity:0.498" fill="#586a7a" d="M 225.5,53.5 C 227.027,53.427 228.027,54.0937 228.5,55.5C 226.973,55.573 225.973,54.9063 225.5,53.5 Z"/></g>
<g><path style="opacity:0.043" fill="#3f5064" d="M 228.5,55.5 C 231.167,56.1667 232.833,57.8333 233.5,60.5C 231.5,59.1667 229.833,57.5 228.5,55.5 Z"/></g>
<g><path style="opacity:0.745" fill="#405966" d="M 200.5,55.5 C 199.167,57.5 197.5,59.1667 195.5,60.5C 196.167,57.8333 197.833,56.1667 200.5,55.5 Z"/></g>
<g><path style="opacity:0.643" fill="#546677" d="M 233.5,60.5 C 234.906,60.9731 235.573,61.9731 235.5,63.5C 234.094,63.0269 233.427,62.0269 233.5,60.5 Z"/></g>
<g><path style="opacity:1" fill="#a4a58a" d="M 217.5,64.5 C 214.763,64.4013 212.096,64.7347 209.5,65.5C 211.279,64.3303 212.279,62.6636 212.5,60.5C 213.5,60.5 214.5,60.5 215.5,60.5C 215.527,62.1993 216.194,63.5326 217.5,64.5 Z"/></g>
<g><path style="opacity:1" fill="#fde792" d="M 217.5,64.5 C 219.888,67.6803 221.222,71.3469 221.5,75.5C 217.03,76.4861 212.363,76.8195 207.5,76.5C 207.5,75.5 207.5,74.5 207.5,73.5C 208.371,70.997 209.037,68.3303 209.5,65.5C 212.096,64.7347 214.763,64.4013 217.5,64.5 Z"/></g>
<g><path style="opacity:0.373" fill="#485b6f" d="M 235.5,63.5 C 237.074,65.1016 237.741,67.1016 237.5,69.5C 236.262,67.7857 235.595,65.7857 235.5,63.5 Z"/></g>
<g><path style="opacity:0.461" fill="#45596a" d="M 195.5,60.5 C 193.319,64.7185 191.986,69.2185 191.5,74C 192.091,77.5272 192.758,81.0272 193.5,84.5C 190.192,78.5238 189.692,72.1905 192,65.5C 192.697,63.4156 193.864,61.7489 195.5,60.5 Z"/></g>
<g><path style="opacity:1" fill="#f9a850" d="M 96.5,73.5 C 108.284,73.2273 117.951,77.5606 125.5,86.5C 129.38,91.9129 131.213,97.9129 131,104.5C 129.871,102.859 128.371,101.859 126.5,101.5C 124.244,98.5947 121.244,96.928 117.5,96.5C 117.158,95.6618 116.492,95.3284 115.5,95.5C 114.026,91.7441 112.359,88.0775 110.5,84.5C 109.52,87.0865 109.187,89.7531 109.5,92.5C 108.167,92.5 106.833,92.5 105.5,92.5C 100.587,90.9925 95.4207,90.3258 90,90.5C 86.0848,90.5335 82.2514,90.8668 78.5,91.5C 76.8333,91.5 75.1667,91.5 73.5,91.5C 78.2184,81.7867 85.8851,75.7867 96.5,73.5 Z"/></g>
<g><path style="opacity:0.808" fill="#4c473e" d="M 125.5,85.5 C 125.5,85.8333 125.5,86.1667 125.5,86.5C 117.951,77.5606 108.284,73.2273 96.5,73.5C 82.2134,74.3127 71.8801,81.146 65.5,94C 67.1075,93.9813 68.7741,93.8146 70.5,93.5C 69.8333,94.1667 69.1667,94.8333 68.5,95.5C 67.8333,95.5 67.1667,95.5 66.5,95.5C 65.5028,95.5299 64.8361,95.0299 64.5,94C 71.0896,79.7524 82.2562,72.2524 98,71.5C 109.318,72.0752 118.485,76.7419 125.5,85.5 Z"/></g>
<g><path style="opacity:1" fill="#f89325" d="M 96.5,73.5 C 85.8851,75.7867 78.2184,81.7867 73.5,91.5C 72.5,92.1667 71.5,92.8333 70.5,93.5C 68.7741,93.8146 67.1075,93.9813 65.5,94C 71.8801,81.146 82.2134,74.3127 96.5,73.5 Z"/></g>
<g><path style="opacity:1" fill="#949677" d="M 207.5,73.5 C 207.5,74.5 207.5,75.5 207.5,76.5C 212.363,76.8195 217.03,76.4861 221.5,75.5C 222.5,75.8333 223.167,76.5 223.5,77.5C 217.167,77.5 210.833,77.5 204.5,77.5C 205.659,76.2597 206.659,74.9264 207.5,73.5 Z"/></g>
<g><path style="opacity:1" fill="#f5e190" d="M 204.5,77.5 C 210.833,77.5 217.167,77.5 223.5,77.5C 224.833,78.5 224.833,79.5 223.5,80.5C 219.5,80.5 215.5,80.5 211.5,80.5C 209.473,80.6621 207.473,80.4955 205.5,80C 204.748,79.3292 204.414,78.4959 204.5,77.5 Z"/></g>
<g><path style="opacity:1" fill="#a2a695" d="M 211.5,80.5 C 215.5,80.5 219.5,80.5 223.5,80.5C 221.026,81.1047 218.693,82.1047 216.5,83.5C 216.38,82.4138 215.713,81.7472 214.5,81.5C 212.197,81.8763 211.863,82.8763 213.5,84.5C 211.824,83.8166 211.157,82.4832 211.5,80.5 Z"/></g>
<g><path style="opacity:0.49" fill="#4d6070" d="M 237.5,69.5 C 238.638,72.3035 238.805,75.3035 238,78.5C 237.76,80.8516 236.927,82.8516 235.5,84.5C 236.903,79.6091 237.57,74.6091 237.5,69.5 Z"/></g>
<g><path style="opacity:1" fill="#f6e290" d="M 216.5,83.5 C 215.609,84.1098 214.609,84.4431 213.5,84.5C 211.863,82.8763 212.197,81.8763 214.5,81.5C 215.713,81.7472 216.38,82.4138 216.5,83.5 Z"/></g>
<g><path style="opacity:1" fill="#847465" d="M 115.5,95.5 C 114.504,95.5858 113.671,95.2524 113,94.5C 112.781,93.062 112.281,91.7287 111.5,90.5C 110.614,91.325 110.281,92.325 110.5,93.5C 108.585,93.7845 106.919,93.4511 105.5,92.5C 106.833,92.5 108.167,92.5 109.5,92.5C 109.187,89.7531 109.52,87.0865 110.5,84.5C 112.359,88.0775 114.026,91.7441 115.5,95.5 Z"/></g>
<g><path style="opacity:0.608" fill="#5b6d7d" d="M 194.5,86.5 C 197.449,88.265 198.115,90.5983 196.5,93.5C 196.6,90.8915 195.933,88.5582 194.5,86.5 Z"/></g>
<g><path style="opacity:1" fill="#fad2bd" d="M 105.5,92.5 C 106.919,93.4511 108.585,93.7845 110.5,93.5C 110.281,92.325 110.614,91.325 111.5,90.5C 112.281,91.7287 112.781,93.062 113,94.5C 113.671,95.2524 114.504,95.5858 115.5,95.5C 116.492,95.3284 117.158,95.6618 117.5,96.5C 118.6,97.5585 119.934,98.3918 121.5,99C 120.584,99.2784 119.918,99.7784 119.5,100.5C 118.522,100.811 117.855,101.478 117.5,102.5C 119.096,106 121.596,107.333 125,106.5C 125.64,104.735 125.473,103.068 124.5,101.5C 125.167,101.5 125.833,101.5 126.5,101.5C 128.414,104.572 129.748,107.905 130.5,111.5C 129.903,115.832 129.737,120.165 130,124.5C 130.526,121.728 131.359,119.062 132.5,116.5C 133.451,117.326 134.451,117.492 135.5,117C 134.437,115.812 133.103,115.312 131.5,115.5C 131.285,113.821 131.952,112.821 133.5,112.5C 138.26,113.596 140.927,116.596 141.5,121.5C 140.533,123.762 139.866,126.095 139.5,128.5C 136.844,129.158 134.178,129.825 131.5,130.5C 130.006,130.291 128.839,129.624 128,128.5C 119.886,144.638 107.053,151.305 89.5,148.5C 74.4269,142.746 66.7602,131.746 66.5,115.5C 66.631,114.761 66.4643,114.094 66,113.5C 57.3188,118.901 51.8188,116.734 49.5,107C 50.3816,98.5418 55.0482,95.5418 63.5,98C 64.7051,99.3756 66.0384,100.542 67.5,101.5C 67.8923,103.179 68.3923,104.846 69,106.5C 69.4379,103.624 70.4379,100.957 72,98.5C 74.3722,96.2968 76.5389,93.9635 78.5,91.5C 82.2514,90.8668 86.0848,90.5335 90,90.5C 95.4207,90.3258 100.587,90.9925 105.5,92.5 Z"/></g>
<g><path style="opacity:0.957" fill="#263f56" d="M 180.5,89.5 C 180.167,90.1667 179.833,90.8333 179.5,91.5C 177.5,91.8333 175.5,92.1667 173.5,92.5C 175.426,90.7073 177.759,89.7073 180.5,89.5 Z"/></g>
<g><path style="opacity:1" fill="#888bdd" d="M 180.5,89.5 C 183.325,89.0807 185.491,90.0807 187,92.5C 189.275,98.0447 191.775,103.378 194.5,108.5C 196.373,115.236 199.039,121.57 202.5,127.5C 202.707,130.241 203.707,132.574 205.5,134.5C 206.303,138.169 205.136,140.836 202,142.5C 201.802,140.618 201.302,138.952 200.5,137.5C 194.538,124.805 189.038,111.805 184,98.5C 182.988,95.7982 181.488,93.4649 179.5,91.5C 179.833,90.8333 180.167,90.1667 180.5,89.5 Z"/></g>
<g><path style="opacity:0.29" fill="#4c5e70" d="M 234.5,86.5 C 233.167,89.8333 230.833,92.1667 227.5,93.5C 229.5,90.8333 231.833,88.5 234.5,86.5 Z"/></g>
<g><path style="opacity:1" fill="#f9f9fc" d="M 179.5,91.5 C 181.488,93.4649 182.988,95.7982 184,98.5C 189.038,111.805 194.538,124.805 200.5,137.5C 200.946,140.01 200.28,142.01 198.5,143.5C 192.648,145.928 186.981,148.594 181.5,151.5C 180.07,151.579 178.736,151.246 177.5,150.5C 176.865,146.932 175.865,143.599 174.5,140.5C 173.326,139.486 172.66,138.153 172.5,136.5C 172.5,135.833 172.5,135.167 172.5,134.5C 179.144,131.845 185.478,128.678 191.5,125C 189.131,118.431 186.131,112.264 182.5,106.5C 176.5,109.167 170.5,111.833 164.5,114.5C 163.614,115.325 163.281,116.325 163.5,117.5C 160.344,113.273 158.01,108.44 156.5,103C 157.664,99.6672 159.998,98.1672 163.5,98.5C 166.38,99.3299 169.046,98.6632 171.5,96.5C 173.176,95.8166 173.843,94.4832 173.5,92.5C 175.5,92.1667 177.5,91.8333 179.5,91.5 Z"/></g>
<g><path style="opacity:0.596" fill="#293d62" d="M 180.5,89.5 C 183.43,87.9257 185.93,88.5924 188,91.5C 190.742,96.9773 192.908,102.644 194.5,108.5C 191.775,103.378 189.275,98.0447 187,92.5C 185.491,90.0807 183.325,89.0807 180.5,89.5 Z"/></g>
<g><path style="opacity:1" fill="#d6a69b" d="M 73.5,91.5 C 75.1667,91.5 76.8333,91.5 78.5,91.5C 76.5389,93.9635 74.3722,96.2968 72,98.5C 70.4379,100.957 69.4379,103.624 69,106.5C 68.3923,104.846 67.8923,103.179 67.5,101.5C 67.4606,100.417 67.1272,99.4168 66.5,98.5C 67.1925,97.4822 67.8592,96.4822 68.5,95.5C 69.1667,94.8333 69.8333,94.1667 70.5,93.5C 71.5,92.8333 72.5,92.1667 73.5,91.5 Z"/></g>
<g><path style="opacity:1" fill="#2b3c4d" d="M 90.5,92.5 C 94.7301,91.8313 96.5634,93.498 96,97.5C 92.4111,100.557 89.5778,100.057 87.5,96C 88.5442,94.8261 89.5442,93.6594 90.5,92.5 Z"/></g>
<g><path style="opacity:1" fill="#8589d8" d="M 171.5,96.5 C 169.046,98.6632 166.38,99.3299 163.5,98.5C 165.972,96.3804 168.806,94.7137 172,93.5C 172.47,94.5768 172.303,95.5768 171.5,96.5 Z"/></g>
<g><path style="opacity:0.741" fill="#546776" d="M 196.5,93.5 C 196.5,95.1667 196.5,96.8333 196.5,98.5C 199.698,97.6537 202.865,96.6537 206,95.5C 213.429,97.2285 220.596,96.5618 227.5,93.5C 226.025,95.4095 224.025,96.5762 221.5,97C 216.293,97.7586 211.126,97.5919 206,96.5C 202.985,97.8418 199.985,99.1752 197,100.5C 195.272,98.1806 195.105,95.8473 196.5,93.5 Z"/></g>
<g><path style="opacity:1" fill="#203548" d="M 119.5,100.5 C 121.292,100.366 122.958,100.699 124.5,101.5C 125.473,103.068 125.64,104.735 125,106.5C 121.596,107.333 119.096,106 117.5,102.5C 117.855,101.478 118.522,100.811 119.5,100.5 Z"/></g>
<g><path style="opacity:1" fill="#a18f83" d="M 117.5,96.5 C 121.244,96.928 124.244,98.5947 126.5,101.5C 125.833,101.5 125.167,101.5 124.5,101.5C 122.958,100.699 121.292,100.366 119.5,100.5C 119.918,99.7784 120.584,99.2784 121.5,99C 119.934,98.3918 118.6,97.5585 117.5,96.5 Z"/></g>
<g><path style="opacity:0.688" fill="#2e3a48" d="M 125.5,85.5 C 131.601,92.2343 133.434,99.901 131,108.5C 133.205,110.361 135.705,111.861 138.5,113C 143.307,117.967 143.64,123.134 139.5,128.5C 139.866,126.095 140.533,123.762 141.5,121.5C 140.927,116.596 138.26,113.596 133.5,112.5C 132.791,111.596 131.791,111.263 130.5,111.5C 129.748,107.905 128.414,104.572 126.5,101.5C 128.371,101.859 129.871,102.859 131,104.5C 131.213,97.9129 129.38,91.9129 125.5,86.5C 125.5,86.1667 125.5,85.8333 125.5,85.5 Z"/></g>
<g><path style="opacity:1" fill="#334151" d="M 91.5,105.5 C 96.1608,106.324 96.6608,108.324 93,111.5C 90.3266,110.142 89.8266,108.142 91.5,105.5 Z"/></g>
<g><path style="opacity:1" fill="#b9daeb" d="M 172.5,134.5 C 172.993,130.498 172.326,126.498 170.5,122.5C 169.002,119.669 166.669,118.002 163.5,117.5C 163.281,116.325 163.614,115.325 164.5,114.5C 170.5,111.833 176.5,109.167 182.5,106.5C 186.131,112.264 189.131,118.431 191.5,125C 185.478,128.678 179.144,131.845 172.5,134.5 Z"/></g>
<g><path style="opacity:1" fill="#304050" d="M 114.5,110.5 C 119.394,111.54 119.727,113.54 115.5,116.5C 113.261,114.867 112.928,112.867 114.5,110.5 Z"/></g>
<g><path style="opacity:1" fill="#ffadd9" d="M 83.5,113.5 C 85.6547,113.372 87.6547,113.872 89.5,115C 90.9948,118.841 89.6615,120.174 85.5,119C 82.9177,117.662 82.2511,115.829 83.5,113.5 Z"/></g>
<g><path style="opacity:1" fill="#878080" d="M 130.5,111.5 C 131.791,111.263 132.791,111.596 133.5,112.5C 131.952,112.821 131.285,113.821 131.5,115.5C 133.103,115.312 134.437,115.812 135.5,117C 134.451,117.492 133.451,117.326 132.5,116.5C 131.359,119.062 130.526,121.728 130,124.5C 129.737,120.165 129.903,115.832 130.5,111.5 Z"/></g>
<g><path style="opacity:1" fill="#eeb5a8" d="M 66.5,115.5 C 66.7602,131.746 74.4269,142.746 89.5,148.5C 72.245,144.596 63.5784,133.929 63.5,116.5C 64.4168,115.873 65.4168,115.539 66.5,115.5 Z"/></g>
<g><path style="opacity:1" fill="#23364a" d="M 104.5,123.5 C 103.335,121.584 101.668,120.751 99.5,121C 100.381,121.708 101.047,122.542 101.5,123.5C 99.5891,123.426 98.4224,122.426 98,120.5C 97.3333,118.5 97.3333,116.5 98,114.5C 102.184,115.538 106.35,116.705 110.5,118C 109.26,120.744 107.26,122.577 104.5,123.5 Z"/></g>
<g><path style="opacity:1" fill="#fcd4be" d="M 163.5,117.5 C 166.669,118.002 169.002,119.669 170.5,122.5C 171.35,126.201 171.35,129.868 170.5,133.5C 170.453,135.038 171.12,136.038 172.5,136.5C 172.66,138.153 173.326,139.486 174.5,140.5C 174.858,144.509 175.358,148.509 176,152.5C 177.843,152.561 179.677,152.227 181.5,151.5C 186.981,148.594 192.648,145.928 198.5,143.5C 199.329,150.021 198.663,156.355 196.5,162.5C 190.284,179.257 179.951,192.924 165.5,203.5C 161.5,202.5 157.5,201.5 153.5,200.5C 152.22,199.069 150.553,198.402 148.5,198.5C 147.833,197.833 147.167,197.167 146.5,196.5C 146.938,193.107 146.105,190.107 144,187.5C 140.628,184.29 137.128,181.29 133.5,178.5C 132.5,178.167 131.833,177.5 131.5,176.5C 131.414,175.504 131.748,174.671 132.5,174C 150.162,161.523 159.662,144.356 161,122.5C 161.366,120.548 162.199,118.882 163.5,117.5 Z"/></g>
<g><path style="opacity:0.49" fill="#253b5a" d="M 194.5,108.5 C 197.961,114.43 200.627,120.764 202.5,127.5C 199.039,121.57 196.373,115.236 194.5,108.5 Z"/></g>
<g><path style="opacity:0.759" fill="#404b57" d="M 66.5,95.5 C 67.1667,95.5 67.8333,95.5 68.5,95.5C 67.8592,96.4822 67.1925,97.4822 66.5,98.5C 67.1272,99.4168 67.4606,100.417 67.5,101.5C 66.0384,100.542 64.7051,99.3756 63.5,98C 55.0482,95.5418 50.3816,98.5418 49.5,107C 51.8188,116.734 57.3188,118.901 66,113.5C 66.4643,114.094 66.631,114.761 66.5,115.5C 65.4168,115.539 64.4168,115.873 63.5,116.5C 63.5784,133.929 72.245,144.596 89.5,148.5C 107.053,151.305 119.886,144.638 128,128.5C 128.839,129.624 130.006,130.291 131.5,130.5C 134.178,129.825 136.844,129.158 139.5,128.5C 138.4,129.558 137.066,130.392 135.5,131C 132.774,131.182 130.107,131.682 127.5,132.5C 117.231,148.316 102.898,153.816 84.5,149C 70.7733,143.382 62.9399,133.216 61,118.5C 47.7954,116.202 44.6287,109.368 51.5,98C 55.953,95.0349 60.453,94.8682 65,97.5C 65.7172,96.9558 66.2172,96.2891 66.5,95.5 Z"/></g>
<g><path style="opacity:1" fill="#ffabda" d="M 114.5,120.5 C 116.527,120.338 118.527,120.505 120.5,121C 121.727,122.587 121.394,123.921 119.5,125C 114.991,126.126 113.325,124.626 114.5,120.5 Z"/></g>
<g><path style="opacity:1" fill="#947792" d="M 104.5,123.5 C 103.5,124.833 102.5,124.833 101.5,123.5C 101.047,122.542 100.381,121.708 99.5,121C 101.668,120.751 103.335,121.584 104.5,123.5 Z"/></g>
<g><path style="opacity:1" fill="#8a9299" d="M 170.5,122.5 C 172.326,126.498 172.993,130.498 172.5,134.5C 172.5,135.167 172.5,135.833 172.5,136.5C 171.12,136.038 170.453,135.038 170.5,133.5C 171.35,129.868 171.35,126.201 170.5,122.5 Z"/></g>
<g><path style="opacity:0.557" fill="#243d5c" d="M 202.5,127.5 C 204.293,129.426 205.293,131.759 205.5,134.5C 203.707,132.574 202.707,130.241 202.5,127.5 Z"/></g>
<g><path style="opacity:1" fill="#87878a" d="M 174.5,140.5 C 175.865,143.599 176.865,146.932 177.5,150.5C 178.736,151.246 180.07,151.579 181.5,151.5C 179.677,152.227 177.843,152.561 176,152.5C 175.358,148.509 174.858,144.509 174.5,140.5 Z"/></g>
<g><path style="opacity:1" fill="#fee892" d="M 131.5,176.5 C 131.833,177.5 132.5,178.167 133.5,178.5C 112.718,190.396 97.7182,207.396 88.5,229.5C 84.2093,226.222 79.876,222.888 75.5,219.5C 75.1667,220 74.8333,220.5 74.5,221C 75.741,222.731 76.741,224.564 77.5,226.5C 78.0798,228.749 79.4131,230.415 81.5,231.5C 83.4559,233.114 85.4559,234.781 87.5,236.5C 87.8588,238.371 88.8588,239.871 90.5,241C 93.328,243.248 96.328,245.248 99.5,247C 104.628,248.332 108.961,247.165 112.5,243.5C 114.746,244.455 117.079,245.122 119.5,245.5C 119.5,245.833 119.5,246.167 119.5,246.5C 100.07,259.157 79.4032,261.657 57.5,254C 35.9713,242.802 24.6379,224.969 23.5,200.5C 29.2357,176.93 43.9024,162.097 67.5,156C 84.3449,153.724 100.012,157.058 114.5,166C 120.195,169.511 125.861,173.011 131.5,176.5 Z"/></g>
<g><path style="opacity:0.867" fill="#33434e" d="M 173.5,92.5 C 173.843,94.4832 173.176,95.8166 171.5,96.5C 172.303,95.5768 172.47,94.5768 172,93.5C 168.806,94.7137 165.972,96.3804 163.5,98.5C 159.998,98.1672 157.664,99.6672 156.5,103C 158.01,108.44 160.344,113.273 163.5,117.5C 162.199,118.882 161.366,120.548 161,122.5C 159.662,144.356 150.162,161.523 132.5,174C 131.748,174.671 131.414,175.504 131.5,176.5C 125.861,173.011 120.195,169.511 114.5,166C 100.012,157.058 84.3449,153.724 67.5,156C 43.9024,162.097 29.2357,176.93 23.5,200.5C 22.3448,207.655 22.1782,214.988 23,222.5C 24.8751,228.627 27.0418,234.627 29.5,240.5C 17.1653,218.873 17.9987,197.54 32,176.5C 50.7102,155.114 73.5436,148.947 100.5,158C 111.08,162.265 120.913,167.765 130,174.5C 149.27,160.97 159.437,142.304 160.5,118.5C 159.303,114.077 157.803,109.743 156,105.5C 154.959,102.364 155.793,99.8637 158.5,98C 163.343,95.6641 168.343,93.8308 173.5,92.5 Z"/></g>
<g><path style="opacity:1" fill="#f3a550" d="M 223.5,163.5 C 225.336,165.588 227.669,166.921 230.5,167.5C 231.914,169.054 233.581,170.388 235.5,171.5C 234.23,172.288 233.23,173.288 232.5,174.5C 231.504,174.414 230.671,174.748 230,175.5C 224.881,172.696 220.047,169.529 215.5,166C 216.289,164.374 217.289,162.874 218.5,161.5C 220.075,162.456 221.742,163.123 223.5,163.5 Z"/></g>
<g><path style="opacity:0.675" fill="#384143" d="M 223.5,163.5 C 226.331,164.079 228.664,165.412 230.5,167.5C 227.669,166.921 225.336,165.588 223.5,163.5 Z"/></g>
<g><path style="opacity:1" fill="#f1b7aa" d="M 196.5,162.5 C 193.037,179.262 185.037,193.429 172.5,205C 170.249,204.793 167.915,204.627 165.5,204.5C 165.5,204.167 165.5,203.833 165.5,203.5C 179.951,192.924 190.284,179.257 196.5,162.5 Z"/></g>
<g><path style="opacity:1" fill="#fdd5bf" d="M 252.5,186.5 C 253.492,186.328 254.158,186.662 254.5,187.5C 255.5,189.167 256.833,190.5 258.5,191.5C 258.723,193.342 259.057,195.175 259.5,197C 259.245,198.326 258.578,199.326 257.5,200C 258.636,201.145 259.636,202.312 260.5,203.5C 261.283,209.924 259.283,215.258 254.5,219.5C 252.847,219.66 251.514,220.326 250.5,221.5C 246.988,220.945 243.988,221.612 241.5,223.5C 235.833,228.5 230.5,233.833 225.5,239.5C 195.548,253.153 165.215,253.986 134.5,242C 126.919,238.876 119.586,235.209 112.5,231C 110.937,230.241 109.937,229.074 109.5,227.5C 110.11,226.609 110.443,225.609 110.5,224.5C 112.326,222.853 113.66,220.853 114.5,218.5C 116.262,217.738 117.262,216.404 117.5,214.5C 119.587,213.415 120.92,211.749 121.5,209.5C 124.573,207.431 126.906,204.764 128.5,201.5C 131.781,199.394 134.948,197.061 138,194.5C 141.366,196.27 144.866,197.603 148.5,198.5C 149.78,199.931 151.447,200.598 153.5,200.5C 157.085,202.806 161.085,204.139 165.5,204.5C 174.742,207.227 184.075,207.06 193.5,204C 199.66,201.423 205.327,198.09 210.5,194C 217.73,187.263 225.063,180.763 232.5,174.5C 234.593,173.955 236.593,173.122 238.5,172C 243.437,170.631 247.604,171.797 251,175.5C 251.49,176.793 251.657,178.127 251.5,179.5C 247.194,179.303 245.194,181.303 245.5,185.5C 247.806,185.993 250.139,186.326 252.5,186.5 Z"/></g>
<g><path style="opacity:0.453" fill="#1b3345" d="M 230.5,167.5 C 233.271,168.633 236.104,169.633 239,170.5C 244.48,168.996 248.98,170.496 252.5,175C 253.448,175.483 254.448,175.649 255.5,175.5C 256.44,171.029 259.106,169.696 263.5,171.5C 264.415,172.328 265.081,173.328 265.5,174.5C 268.768,175.487 272.102,175.82 275.5,175.5C 276.44,171.029 279.106,169.696 283.5,171.5C 284.415,172.328 285.081,173.328 285.5,174.5C 288.768,175.487 292.102,175.82 295.5,175.5C 296.82,170.571 299.82,169.404 304.5,172C 305.337,173.011 305.67,174.178 305.5,175.5C 308.833,175.5 312.167,175.5 315.5,175.5C 316.82,170.571 319.82,169.404 324.5,172C 325.337,173.011 325.67,174.178 325.5,175.5C 327.415,175.216 329.081,175.549 330.5,176.5C 325.968,176.182 321.634,176.515 317.5,177.5C 318.058,178.79 319.058,179.623 320.5,180C 318.094,180.779 316.427,179.946 315.5,177.5C 309.5,176.167 303.5,176.167 297.5,177.5C 298.09,178.799 299.09,179.632 300.5,180C 298.094,180.779 296.427,179.946 295.5,177.5C 289.5,176.167 283.5,176.167 277.5,177.5C 278.09,178.799 279.09,179.632 280.5,180C 278.094,180.779 276.427,179.946 275.5,177.5C 269.5,176.167 263.5,176.167 257.5,177.5C 258.09,178.799 259.09,179.632 260.5,180C 260,180.167 259.5,180.333 259,180.5C 257.005,178.77 254.838,177.437 252.5,176.5C 252.5,177.833 252.5,179.167 252.5,180.5C 250.064,180.749 248.064,181.749 246.5,183.5C 248.745,184.208 250.745,185.208 252.5,186.5C 250.139,186.326 247.806,185.993 245.5,185.5C 245.194,181.303 247.194,179.303 251.5,179.5C 251.657,178.127 251.49,176.793 251,175.5C 247.604,171.797 243.437,170.631 238.5,172C 236.593,173.122 234.593,173.955 232.5,174.5C 233.23,173.288 234.23,172.288 235.5,171.5C 233.581,170.388 231.914,169.054 230.5,167.5 Z M 318.5,173.5 C 320.429,173.231 322.095,173.731 323.5,175C 321.5,175.667 319.5,175.667 317.5,175C 318.056,174.617 318.389,174.117 318.5,173.5 Z M 298.5,173.5 C 299.978,173.238 301.311,173.571 302.5,174.5C 300.926,175.631 299.259,175.798 297.5,175C 298.056,174.617 298.389,174.117 298.5,173.5 Z M 278.5,173.5 C 279.978,173.238 281.311,173.571 282.5,174.5C 280.926,175.631 279.259,175.798 277.5,175C 278.056,174.617 278.389,174.117 278.5,173.5 Z M 258.5,173.5 C 259.978,173.238 261.311,173.571 262.5,174.5C 260.926,175.631 259.259,175.798 257.5,175C 258.056,174.617 258.389,174.117 258.5,173.5 Z"/></g>
<g><path style="opacity:1" fill="#fafafb" d="M 317.5,177.5 C 321.846,177.334 326.179,177.501 330.5,178C 330.986,180.027 330.986,182.193 330.5,184.5C 327.72,195.048 325.053,205.714 322.5,216.5C 321.34,222.14 320.34,227.807 319.5,233.5C 318.175,237.748 316.842,242.081 315.5,246.5C 282.662,246.832 249.996,246.498 217.5,245.5C 220.891,244.471 223.557,242.471 225.5,239.5C 227.411,238.925 229.078,237.925 230.5,236.5C 234.182,236.665 237.848,236.499 241.5,236C 242.551,233.631 243.218,231.131 243.5,228.5C 243.36,226.97 242.693,225.97 241.5,225.5C 241.5,224.833 241.5,224.167 241.5,223.5C 244.61,222.912 247.61,222.245 250.5,221.5C 252.38,221.771 253.713,221.104 254.5,219.5C 256.062,219.267 257.395,218.6 258.5,217.5C 268.717,219.781 272.717,215.948 270.5,206C 267.518,205.502 264.518,205.335 261.5,205.5C 261.672,204.508 261.338,203.842 260.5,203.5C 259.945,199.988 260.612,196.988 262.5,194.5C 265.004,195.584 267.337,196.917 269.5,198.5C 269.973,199.906 270.973,200.573 272.5,200.5C 273.492,200.328 274.158,200.662 274.5,201.5C 276.265,202.461 278.265,202.795 280.5,202.5C 280.5,202.833 280.5,203.167 280.5,203.5C 275.513,207.543 274.347,212.543 277,218.5C 284.059,223.015 290.059,221.682 295,214.5C 297.674,204.343 293.841,200.01 283.5,201.5C 283.167,200.5 282.5,199.833 281.5,199.5C 281.5,199.167 281.5,198.833 281.5,198.5C 286.511,198.666 291.511,198.499 296.5,198C 299.094,194.949 299.927,191.449 299,187.5C 293.918,186.363 288.751,186.196 283.5,187C 281.206,189.718 280.206,192.885 280.5,196.5C 279.833,196.167 279.167,195.833 278.5,195.5C 277.508,195.672 276.842,195.338 276.5,194.5C 276.063,191.998 275.73,189.498 275.5,187C 271.179,186.501 266.846,186.334 262.5,186.5C 258.827,185 255.494,183 252.5,180.5C 252.5,179.167 252.5,177.833 252.5,176.5C 254.838,177.437 257.005,178.77 259,180.5C 259.5,180.333 260,180.167 260.5,180C 259.09,179.632 258.09,178.799 257.5,177.5C 263.5,176.167 269.5,176.167 275.5,177.5C 276.427,179.946 278.094,180.779 280.5,180C 279.09,179.632 278.09,178.799 277.5,177.5C 283.5,176.167 289.5,176.167 295.5,177.5C 296.427,179.946 298.094,180.779 300.5,180C 299.09,179.632 298.09,178.799 297.5,177.5C 303.5,176.167 309.5,176.167 315.5,177.5C 316.427,179.946 318.094,180.779 320.5,180C 319.058,179.623 318.058,178.79 317.5,177.5 Z"/></g>
<g><path style="opacity:1" fill="#fafaf9" d="M 133.5,178.5 C 137.128,181.29 140.628,184.29 144,187.5C 146.105,190.107 146.938,193.107 146.5,196.5C 143.916,195.952 142.916,194.285 143.5,191.5C 136.924,192.399 131.924,195.732 128.5,201.5C 125.427,203.569 123.094,206.236 121.5,209.5C 119.413,210.585 118.08,212.251 117.5,214.5C 115.738,215.262 114.738,216.596 114.5,218.5C 112.178,219.802 110.845,221.802 110.5,224.5C 109.094,224.973 108.427,225.973 108.5,227.5C 106.412,229.336 105.079,231.669 104.5,234.5C 102.882,237.171 102.215,240.171 102.5,243.5C 105.327,243.416 107.994,242.75 110.5,241.5C 111.167,242.167 111.833,242.833 112.5,243.5C 108.961,247.165 104.628,248.332 99.5,247C 96.328,245.248 93.328,243.248 90.5,241C 88.8588,239.871 87.8588,238.371 87.5,236.5C 87.6741,234.139 88.0074,231.806 88.5,229.5C 97.7182,207.396 112.718,190.396 133.5,178.5 Z"/></g>
<g><path style="opacity:1" fill="#f5a650" d="M 252.5,180.5 C 255.494,183 258.827,185 262.5,186.5C 266.833,189.669 271.5,192.336 276.5,194.5C 276.842,195.338 277.508,195.672 278.5,195.5C 278.625,198.608 277.292,200.608 274.5,201.5C 274.158,200.662 273.492,200.328 272.5,200.5C 272.027,199.094 271.027,198.427 269.5,198.5C 267.337,196.917 265.004,195.584 262.5,194.5C 261.205,193.512 259.872,192.512 258.5,191.5C 258.167,189.167 256.833,187.833 254.5,187.5C 254.158,186.662 253.492,186.328 252.5,186.5C 250.745,185.208 248.745,184.208 246.5,183.5C 248.064,181.749 250.064,180.749 252.5,180.5 Z"/></g>
<g><path style="opacity:1" fill="#d7d9f7" d="M 342.5,227.5 C 342.42,230.781 343.087,233.781 344.5,236.5C 345.138,239.763 345.138,242.929 344.5,246C 334.839,246.5 325.172,246.666 315.5,246.5C 316.842,242.081 318.175,237.748 319.5,233.5C 321.942,227.971 322.942,222.305 322.5,216.5C 325.053,205.714 327.72,195.048 330.5,184.5C 331.117,184.389 331.617,184.056 332,183.5C 335.218,198.366 338.718,213.032 342.5,227.5 Z"/></g>
<g><path style="opacity:1" fill="#c5c5dc" d="M 262.5,186.5 C 266.846,186.334 271.179,186.501 275.5,187C 275.73,189.498 276.063,191.998 276.5,194.5C 271.5,192.336 266.833,189.669 262.5,186.5 Z"/></g>
<g><path style="opacity:1" fill="#cdcaff" d="M 281.5,198.5 C 281.167,197.833 280.833,197.167 280.5,196.5C 280.206,192.885 281.206,189.718 283.5,187C 288.751,186.196 293.918,186.363 299,187.5C 299.927,191.449 299.094,194.949 296.5,198C 291.511,198.499 286.511,198.666 281.5,198.5 Z"/></g>
<g><path style="opacity:1" fill="#dfe0fe" d="M 307.5,186.5 C 312.511,186.334 317.511,186.501 322.5,187C 323.994,191.032 323.328,194.699 320.5,198C 315.5,198.667 310.5,198.667 305.5,198C 303.891,193.765 304.557,189.932 307.5,186.5 Z"/></g>
<g><path style="opacity:1" fill="#605b54" d="M 254.5,187.5 C 256.833,187.833 258.167,189.167 258.5,191.5C 256.833,190.5 255.5,189.167 254.5,187.5 Z"/></g>
<g><path style="opacity:1" fill="#414e5c" d="M 146.5,196.5 C 147.167,197.167 147.833,197.833 148.5,198.5C 144.866,197.603 141.366,196.27 138,194.5C 134.948,197.061 131.781,199.394 128.5,201.5C 131.924,195.732 136.924,192.399 143.5,191.5C 142.916,194.285 143.916,195.952 146.5,196.5 Z"/></g>
<g><path style="opacity:0.941" fill="#324051" d="M 205.5,134.5 C 206.629,136.628 206.796,138.961 206,141.5C 203.929,142.364 202.262,143.697 201,145.5C 199.619,168.753 190.786,188.586 174.5,205C 184.663,206.126 193.997,203.793 202.5,198C 211.753,191.418 220.42,184.084 228.5,176C 221.962,171.967 215.296,168.134 208.5,164.5C 207.203,161.812 207.536,159.312 209.5,157C 215.036,157.268 219.702,159.434 223.5,163.5C 221.742,163.123 220.075,162.456 218.5,161.5C 217.289,162.874 216.289,164.374 215.5,166C 220.047,169.529 224.881,172.696 230,175.5C 230.671,174.748 231.504,174.414 232.5,174.5C 225.063,180.763 217.73,187.263 210.5,194C 205.327,198.09 199.66,201.423 193.5,204C 184.075,207.06 174.742,207.227 165.5,204.5C 167.915,204.627 170.249,204.793 172.5,205C 185.037,193.429 193.037,179.262 196.5,162.5C 198.663,156.355 199.329,150.021 198.5,143.5C 200.28,142.01 200.946,140.01 200.5,137.5C 201.302,138.952 201.802,140.618 202,142.5C 205.136,140.836 206.303,138.169 205.5,134.5 Z"/></g>
<g><path style="opacity:1" fill="#f7a5d7" d="M 210.5,157.5 C 216.625,158.561 217.125,160.895 212,164.5C 207.927,163.098 207.427,160.764 210.5,157.5 Z"/></g>
<g><path style="opacity:1" fill="#4f5c69" d="M 258.5,191.5 C 259.872,192.512 261.205,193.512 262.5,194.5C 260.612,196.988 259.945,199.988 260.5,203.5C 259.636,202.312 258.636,201.145 257.5,200C 258.578,199.326 259.245,198.326 259.5,197C 259.057,195.175 258.723,193.342 258.5,191.5 Z"/></g>
<g><path style="opacity:1" fill="#af9e88" d="M 278.5,195.5 C 279.167,195.833 279.833,196.167 280.5,196.5C 280.833,197.167 281.167,197.833 281.5,198.5C 281.5,198.833 281.5,199.167 281.5,199.5C 281.443,200.609 281.11,201.609 280.5,202.5C 278.265,202.795 276.265,202.461 274.5,201.5C 277.292,200.608 278.625,198.608 278.5,195.5 Z"/></g>
<g><path style="opacity:0.769" fill="#3c5167" d="M 317.5,177.5 C 321.634,176.515 325.968,176.182 330.5,176.5C 332.067,177.681 332.901,179.347 333,181.5C 336.49,196.784 339.657,212.117 342.5,227.5C 338.718,213.032 335.218,198.366 332,183.5C 331.617,184.056 331.117,184.389 330.5,184.5C 330.986,182.193 330.986,180.027 330.5,178C 326.179,177.501 321.846,177.334 317.5,177.5 Z"/></g>
<g><path style="opacity:1" fill="#61646b" d="M 148.5,198.5 C 150.553,198.402 152.22,199.069 153.5,200.5C 151.447,200.598 149.78,199.931 148.5,198.5 Z"/></g>
<g><path style="opacity:1" fill="#817a6f" d="M 269.5,198.5 C 271.027,198.427 272.027,199.094 272.5,200.5C 270.973,200.573 269.973,199.906 269.5,198.5 Z"/></g>
<g><path style="opacity:1" fill="#5e6269" d="M 153.5,200.5 C 157.5,201.5 161.5,202.5 165.5,203.5C 165.5,203.833 165.5,204.167 165.5,204.5C 161.085,204.139 157.085,202.806 153.5,200.5 Z"/></g>
<g><path style="opacity:1" fill="#796685" d="M 281.5,199.5 C 282.5,199.833 283.167,200.5 283.5,201.5C 283.5,202.167 283.5,202.833 283.5,203.5C 283.167,203.5 282.833,203.5 282.5,203.5C 281.833,203.5 281.167,203.5 280.5,203.5C 280.5,203.167 280.5,202.833 280.5,202.5C 281.11,201.609 281.443,200.609 281.5,199.5 Z"/></g>
<g><path style="opacity:1" fill="#65686f" d="M 128.5,201.5 C 126.906,204.764 124.573,207.431 121.5,209.5C 123.094,206.236 125.427,203.569 128.5,201.5 Z"/></g>
<g><path style="opacity:1" fill="#fbcf69" d="M 23.5,200.5 C 24.6379,224.969 35.9713,242.802 57.5,254C 79.4032,261.657 100.07,259.157 119.5,246.5C 120.167,246.5 120.833,246.5 121.5,246.5C 108.284,262.412 91.2842,269.246 70.5,267C 63.9254,265.862 57.592,264.029 51.5,261.5C 50.3406,259.75 48.674,258.75 46.5,258.5C 45.7377,256.738 44.4044,255.738 42.5,255.5C 37.7641,250.77 33.4307,245.77 29.5,240.5C 27.0418,234.627 24.8751,228.627 23,222.5C 22.1782,214.988 22.3448,207.655 23.5,200.5 Z"/></g>
<g><path style="opacity:1" fill="#cdcafe" d="M 261.5,205.5 C 264.518,205.335 267.518,205.502 270.5,206C 272.717,215.948 268.717,219.781 258.5,217.5C 260.97,213.905 261.97,209.905 261.5,205.5 Z"/></g>
<g><path style="opacity:1" fill="#ccc9ff" d="M 302.5,206.5 C 308.167,206.5 313.833,206.5 319.5,206.5C 320.343,215.158 316.51,218.825 308,217.5C 305.245,217.475 302.578,217.141 300,216.5C 299.585,212.828 300.418,209.495 302.5,206.5 Z"/></g>
<g><path style="opacity:1" fill="#555f68" d="M 121.5,209.5 C 120.92,211.749 119.587,213.415 117.5,214.5C 118.08,212.251 119.413,210.585 121.5,209.5 Z"/></g>
<g><path style="opacity:1" fill="#536074" d="M 260.5,203.5 C 261.338,203.842 261.672,204.508 261.5,205.5C 261.97,209.905 260.97,213.905 258.5,217.5C 257.395,218.6 256.062,219.267 254.5,219.5C 259.283,215.258 261.283,209.924 260.5,203.5 Z"/></g>
<g><path style="opacity:1" fill="#fda5df" d="M 280.5,203.5 C 281.167,203.5 281.833,203.5 282.5,203.5C 277.627,207.039 276.294,211.706 278.5,217.5C 287.226,221.302 292.559,218.469 294.5,209C 293.28,202.674 289.614,200.84 283.5,203.5C 283.5,202.833 283.5,202.167 283.5,201.5C 293.841,200.01 297.674,204.343 295,214.5C 290.059,221.682 284.059,223.015 277,218.5C 274.347,212.543 275.513,207.543 280.5,203.5 Z"/></g>
<g><path style="opacity:1" fill="#e5e4fd" d="M 282.5,203.5 C 282.833,203.5 283.167,203.5 283.5,203.5C 289.614,200.84 293.28,202.674 294.5,209C 292.559,218.469 287.226,221.302 278.5,217.5C 276.294,211.706 277.627,207.039 282.5,203.5 Z"/></g>
<g><path style="opacity:1" fill="#555e68" d="M 117.5,214.5 C 117.262,216.404 116.262,217.738 114.5,218.5C 114.738,216.596 115.738,215.262 117.5,214.5 Z"/></g>
<g><path style="opacity:1" fill="#fcd06a" d="M 88.5,229.5 C 88.0074,231.806 87.6741,234.139 87.5,236.5C 85.4559,234.781 83.4559,233.114 81.5,231.5C 80.9202,229.251 79.5869,227.585 77.5,226.5C 76.741,224.564 75.741,222.731 74.5,221C 74.8333,220.5 75.1667,220 75.5,219.5C 79.876,222.888 84.2093,226.222 88.5,229.5 Z"/></g>
<g><path style="opacity:1" fill="#8794a7" d="M 322.5,216.5 C 322.942,222.305 321.942,227.971 319.5,233.5C 320.34,227.807 321.34,222.14 322.5,216.5 Z"/></g>
<g><path style="opacity:1" fill="#565f6a" d="M 114.5,218.5 C 113.66,220.853 112.326,222.853 110.5,224.5C 110.845,221.802 112.178,219.802 114.5,218.5 Z"/></g>
<g><path style="opacity:1" fill="#5e6b77" d="M 254.5,219.5 C 253.713,221.104 252.38,221.771 250.5,221.5C 251.514,220.326 252.847,219.66 254.5,219.5 Z"/></g>
<g><path style="opacity:1" fill="#4a5864" d="M 250.5,221.5 C 247.61,222.245 244.61,222.912 241.5,223.5C 243.988,221.612 246.988,220.945 250.5,221.5 Z"/></g>
<g><path style="opacity:1" fill="#cbc8fe" d="M 241.5,225.5 C 242.693,225.97 243.36,226.97 243.5,228.5C 243.218,231.131 242.551,233.631 241.5,236C 237.848,236.499 234.182,236.665 230.5,236.5C 233.833,232.5 237.5,228.833 241.5,225.5 Z"/></g>
<g><path style="opacity:1" fill="#dedffe" d="M 250.5,225.5 C 255.844,225.334 261.177,225.501 266.5,226C 267.595,229.629 266.929,232.962 264.5,236C 259.177,236.499 253.844,236.666 248.5,236.5C 248.111,232.586 248.778,228.92 250.5,225.5 Z"/></g>
<g><path style="opacity:1" fill="#ccc9ff" d="M 274.5,225.5 C 279.844,225.334 285.177,225.501 290.5,226C 291.022,226.561 291.355,227.228 291.5,228C 291.117,230.964 290.117,233.63 288.5,236C 283.167,236.667 277.833,236.667 272.5,236C 271.483,232.224 272.15,228.724 274.5,225.5 Z"/></g>
<g><path style="opacity:1" fill="#dedffe" d="M 298.5,225.5 C 303.844,225.334 309.177,225.501 314.5,226C 315.022,226.561 315.355,227.228 315.5,228C 314.667,230.5 313.833,233 313,235.5C 307.584,236.639 302.084,236.806 296.5,236C 295.169,232.153 295.836,228.653 298.5,225.5 Z"/></g>
<g><path style="opacity:1" fill="#4a5561" d="M 110.5,224.5 C 110.443,225.609 110.11,226.609 109.5,227.5C 109.167,227.5 108.833,227.5 108.5,227.5C 108.427,225.973 109.094,224.973 110.5,224.5 Z"/></g>
<g><path style="opacity:1" fill="#a09868" d="M 77.5,226.5 C 79.5869,227.585 80.9202,229.251 81.5,231.5C 79.4131,230.415 78.0798,228.749 77.5,226.5 Z"/></g>
<g><path style="opacity:1" fill="#efb6a8" d="M 108.5,227.5 C 108.833,227.5 109.167,227.5 109.5,227.5C 109.937,229.074 110.937,230.241 112.5,231C 119.586,235.209 126.919,238.876 134.5,242C 165.215,253.986 195.548,253.153 225.5,239.5C 223.557,242.471 220.891,244.471 217.5,245.5C 215.973,245.427 214.973,246.094 214.5,247.5C 195.061,256.472 174.727,259.305 153.5,256C 145.11,253.986 136.776,251.819 128.5,249.5C 126.491,247.935 124.157,246.935 121.5,246.5C 120.833,246.5 120.167,246.5 119.5,246.5C 119.5,246.167 119.5,245.833 119.5,245.5C 116.918,243.258 113.918,241.924 110.5,241.5C 108.849,240.03 107.015,238.697 105,237.5C 104.517,236.552 104.351,235.552 104.5,234.5C 105.079,231.669 106.412,229.336 108.5,227.5 Z"/></g>
<g><path style="opacity:0.792" fill="#354b61" d="M 342.5,227.5 C 343.913,230.219 344.58,233.219 344.5,236.5C 343.087,233.781 342.42,230.781 342.5,227.5 Z"/></g>
<g><path style="opacity:1" fill="#616a7b" d="M 241.5,223.5 C 241.5,224.167 241.5,224.833 241.5,225.5C 237.5,228.833 233.833,232.5 230.5,236.5C 229.078,237.925 227.411,238.925 225.5,239.5C 230.5,233.833 235.833,228.5 241.5,223.5 Z"/></g>
<g><path style="opacity:1" fill="#25394c" d="M 104.5,234.5 C 104.351,235.552 104.517,236.552 105,237.5C 107.015,238.697 108.849,240.03 110.5,241.5C 107.994,242.75 105.327,243.416 102.5,243.5C 102.215,240.171 102.882,237.171 104.5,234.5 Z"/></g>
<g><path style="opacity:1" fill="#827873" d="M 110.5,241.5 C 113.918,241.924 116.918,243.258 119.5,245.5C 117.079,245.122 114.746,244.455 112.5,243.5C 111.833,242.833 111.167,242.167 110.5,241.5 Z"/></g>
<g><path style="opacity:0.913" fill="#32485c" d="M 344.5,236.5 C 346.408,239.802 346.742,243.302 345.5,247C 301.835,247.5 258.168,247.667 214.5,247.5C 214.973,246.094 215.973,245.427 217.5,245.5C 249.996,246.498 282.662,246.832 315.5,246.5C 325.172,246.666 334.839,246.5 344.5,246C 345.138,242.929 345.138,239.763 344.5,236.5 Z"/></g>
<g><path style="opacity:0.949" fill="#344349" d="M 29.5,240.5 C 33.4307,245.77 37.7641,250.77 42.5,255.5C 36.387,252.053 32.0536,247.053 29.5,240.5 Z"/></g>
<g><path style="opacity:0.643" fill="#3a4454" d="M 214.5,247.5 C 209.859,251.226 204.526,253.726 198.5,255C 174.407,261.046 151.073,259.212 128.5,249.5C 136.776,251.819 145.11,253.986 153.5,256C 174.727,259.305 195.061,256.472 214.5,247.5 Z"/></g>
<g><path style="opacity:0.973" fill="#3e4b4b" d="M 42.5,255.5 C 44.4044,255.738 45.7377,256.738 46.5,258.5C 44.5956,258.262 43.2623,257.262 42.5,255.5 Z"/></g>
<g><path style="opacity:0.835" fill="#3e4c47" d="M 46.5,258.5 C 48.674,258.75 50.3406,259.75 51.5,261.5C 49.326,261.25 47.6594,260.25 46.5,258.5 Z"/></g>
<g><path style="opacity:0.933" fill="#3d484a" d="M 121.5,246.5 C 124.157,246.935 126.491,247.935 128.5,249.5C 126.181,248.833 123.847,248.666 121.5,249C 103.629,267.778 82.2954,273.112 57.5,265C 55.2726,264.059 53.2726,262.892 51.5,261.5C 57.592,264.029 63.9254,265.862 70.5,267C 91.2842,269.246 108.284,262.412 121.5,246.5 Z"/></g>
</svg>
