<?xml version="1.0" encoding="utf-8"?>
<!-- Generator: Adobe Illustrator 24.2.1, SVG Export Plug-In . SVG Version: 6.00 Build 0)  -->
<svg version="1.1" id="Layer_1" xmlns="http://www.w3.org/2000/svg" xmlns:xlink="http://www.w3.org/1999/xlink" x="0px" y="0px"
	 viewBox="0 0 851.5 851.5" style="enable-background:new 0 0 851.5 851.5;" xml:space="preserve">
<style type="text/css">
	.st0{opacity:0.32;fill:#ADACAF;}
	.st1{fill:#FFFFFF;}
	.st2{opacity:0.2;fill:#706F6F;}
	.st3{opacity:0.37;fill:#FFFFFF;}
	.st4{opacity:0.37;fill:#674C93;}
	.st5{opacity:0.37;fill:#030404;}
	.st6{opacity:0.37;fill:#020304;}
	.st7{opacity:0.37;fill:#040606;}
	.st8{opacity:0.37;fill:#0D9243;}
</style>
<g>
	<path class="st0" d="M661,350.1c-1.9-1.1-3.6-2.1-5.3-3.1c-1-0.6-1.9-0.4-2.5,0.6c-2.5,4.4-4.9,8.8-7.4,13.2
		c-0.5,0.9-0.6,1.9-0.2,2.9c1.8,4.6,2.2,9.6,3.3,14.4c1.1,4.8,3,9,6.2,12.7c5.5,6.3,6.7,14,4.7,21.8c-1.4,5.7-0.6,10.6,1.5,15.7
		c1.8,4.2,3.5,8.4,5.2,12.6c4.1,10.6,3.3,20.9-2.2,30.9c-3.7,6.7-5.7,13.8-5.5,21.5c0.2,5.5,0.5,11.1-0.6,16.6
		c-1,4.6-2.6,9-5.3,12.9c-0.8,1.1-1.5,2.2-2.3,3.4c-2.7,4.1-4.5,8.4-4.3,13.5c0.4,8.6-2,16.8-4.6,24.9c-4.1,12.6-8.2,25.3-13.2,37.6
		c-1.8,4.6-4.1,8.9-7,13c-4.2,5.8-6.7,12.1-7.3,19.4c-0.8,10-5.4,18.3-13.3,24.6c-1,0.8-1.9,1.6-2.9,2.2c-2.9,1.9-4.8,4.7-5.5,8
		c-1,4.1-2.7,7.4-5.8,10.5c-3.2,3.2-5.3,7.4-7.4,11.4c-2.4,4.7-4.6,9.5-7.4,14.1c-3.2,5.4-7.2,9.9-12.7,13.1
		c-1.3,0.8-2.4,1.7-3.3,2.9c-3.3,4.3-7,8.3-10.8,12.1c-1.8,1.8-3.8,3-5.9,4.4c-6.8,4.3-13.8,8-21.1,11.4c-4.9,2.3-10,2.6-15.1,1.9
		c-3.9-0.5-7.6-0.2-11.4,0.4c-1.6,0.2-3,1-4.2,2.1c-12.8,11.1-35.9,9-47-6.9c-3.5-5.1-8-9.3-12.1-13.9c-1.5-1.7-1.7-1.7-4,0.1
		c-7.1,5.7-14.3,11.3-21.3,17c-2.2,1.8-4.5,2.7-7.3,3.1c-7.8,1.1-15.5,2.5-23.4,3.3c-11.3,1.2-21.2-1.8-29.5-9.6
		c-2-1.9-4.1-3.9-5.9-6.1c-2.4-2.9-5.2-4-9.1-3.1c-9.2,2.1-18.1,1.2-26.3-4c-3.8-2.4-6.8-5.7-9.7-9c-4.6-5.2-9.7-9.8-14.5-14.8
		c-0.9-0.9-1.9-1.5-3.2-1.6c-8.2-0.8-13.3-5.7-17-12.6c-1.5-2.8-2.9-5.7-4.2-8.6c-2.6-5.8-6-10.9-11.1-15
		c-10.1-8.1-15.9-18.9-18.2-31.6c-1-5.7-2.5-11.3-5.2-16.5c-2.1-4.1-4.9-7.7-8.6-10.4c-9.1-6.7-14.8-15.6-17.2-26.7
		c-0.8-3.6-2.8-6.6-5.3-9.1c-2.2-2.2-3.5-4.6-4.1-7.6c-1.8-8.4-6.1-15.8-10-23.3c-4.2-8-7.7-16.1-9.6-25
		c-2.2-10.8-7.8-19.9-15.3-27.7c-5.9-6.1-8.1-13.6-8.6-21.8c-0.5-7.6,0.7-15,4.9-21.6c1-1.6,1.3-3.5,1.4-5.3
		c0.2-4.3,0.3-8.6-0.2-12.9c-0.4-3.4-0.3-6.9-0.5-10.3c-0.3-4.6-1-9-4-12.8c-1.8-2.3-2.3-2.5-5-1.7c-2.3,0.6-4.2,2-6.1,3.4
		c-18,13.7-36,27.4-54,41.2c-12.3,9.4-24.8,18.6-36.7,28.5c-2.9,2.4-6,4.8-9.5,6.3c-8.8,3.8-19.1,1.3-25-6.1
		c-6.2-7.8-6.7-18.2-1.1-26c2-2.8,4.7-5,7.3-7.2c8.7-7.4,17.4-14.9,26.2-22.2c4-3.3,4.9-7.7,5.2-12.5c1.2-21.5,6.7-41.9,15.7-61.4
		c8.3-18.1,19.9-34.2,32-49.9c7.7-9.9,15.9-19.4,24.7-28.3c11.7-11.9,24.8-22.1,38.8-31.1c24.9-16,50.8-30.5,76.4-45.5
		c6.6-3.9,13.1-7.8,19.7-11.7c1.3-0.8,2.5-1.6,3.4-2.8c4.2-5.1,8.3-10.3,11.4-16.3c2.2-4.4,2.9-9.1,2.2-14c-0.5-3.2-0.5-6.4-0.2-9.6
		c1.5-14.1,14.5-24.6,28.4-23c2.2,0.3,4.3,0.9,6.4,1.7c4.6,1.8,9.1,1.7,13.6-0.4c2.2-1.1,4.5-1.9,7-2.4c7.5-1.5,14.3,4,14.8,11.6
		c0.5,6.4-2.8,11-6.7,15.4c-1.1,1.2-2.3,2.2-3.4,3.4c-4.9,5.3-3.5,11.6,3.3,14.1c9.7,3.5,19.6,6.7,28.9,11.1c2.2,1,4.1,0.8,5.8-0.7
		c6.2-5,12.4-10.1,18.6-15.2c1.6-1.4,1.6-1.7-0.5-3.4c-6.2-5.2-12.6-10.2-18.6-15.7c-7-6.5-14.2-12.9-21.2-19.5
		c-4.2-3.9-8.2-8.1-12.5-12.1c-2.4-2.3-3.1-5.2-3.6-8.3c-0.2-1.2,0.3-1.8,1.4-2.1c3.5-1,6.8-1.3,10.4,0.1
		c24.1,9.6,48.2,19.2,71.9,29.8c1,0.5,2.1,0.8,3.1,1.2c6.3,2.6,12.1,1.6,17.4-2.4c10.1-7.5,21.1-13.5,32-19.7
		c4.4-2.5,8.8-2.5,13.5-2.2c1.5,0.1,1.8,0.9,1.7,2.2c-0.2,4.3-1,8.3-3.8,11.7c-3.3,4.1-6.5,8.3-9.7,12.5c-1.7,2.2-1.8,2.3,0,4.3
		c5.2,5.7,10.5,11.4,15.6,17.2c1.7,1.9,3.2,2.4,5.7,1.8c7.3-1.8,14.8-2.1,22.4-1.7c9.6,0.5,19,2.6,28.1,5.5
		c12.9,4.1,25.2,9.7,37.7,15.1c19,8.1,38,16.2,56.5,25.4c18.8,9.4,36,21.2,51.7,35.3c24.4,21.9,44.5,47.2,60.6,75.7
		c9.7,17.1,17.1,35.2,22,54.2c1.1,4.5,3.5,7.7,7.3,10.2c14.1,9.1,28.1,18.2,42.1,27.3c8.4,5.4,16.8,10.8,25.1,16.2
		c3.2,2.1,6.1,4.6,8.3,7.7c3.8,5.3,4.2,10.9,1.7,16.8c-1.7,4.2-4.5,7.6-7.5,10.9c-4.2,4.6-9.7,5.4-15,2.2c-6.7-4-13.3-8-19.8-12.1
		C758.8,411.3,710,380.8,661,350.1z"/>
	<path class="st1" d="M369.1,482.3c-2.6,0.2-4.8,1.3-6.8,2.3c-9,4.5-17.4,1.5-21.7-7.1c-4.2-8.4-8.5-16.7-11.8-25.4
		c-0.4-1-0.7-2.1-1-3.2c-1.5-5.4-0.6-8.3,3.9-11.5c3.7-2.6,7.7-4.9,11.9-6.7c3.7-1.6,5.3-0.8,6.8,3.1c0.9,2.5,1.6,5.2,2.6,7.7
		c0.4,0.9,0.6,2.4,2,2.2c1.2-0.2,0.9-1.6,1.1-2.5c0.9-4.8-0.2-9.3-2.8-13.4c-2.4-3.7-5-7.3-7.3-11.1c-1.9-3-3.7-6.2-3.7-9.9
		c0-1.2,0-2.5,0.3-3.7c2.2-7.2,12.5-11.9,19.3-8.8c1.5,0.6,2.8,1.6,4.2,2.3c9.9,4.9,20,5.7,30.2,1c0.8-0.4,1.5-0.9,2.2-1.3
		c0.4-0.3,0.8-0.6,0.8-1.4c-4.5-0.5-8.9,0.2-13.3,0.8c-8.8,1.3-16.3-1.1-21.9-8.3c-4.3-5.6-4.6-11-0.3-16.6
		c5.2-6.9,10.1-13.9,14.4-21.4c2-3.5,4.9-5.3,9.1-5.1c6.4,0.3,12.8-0.4,19.1-1.1c0.2,0,0.5,0,0.7,0c7.3-0.5,10,2.2,9.2,9.2
		c-0.7,6.3-0.6,12.7-1.5,19.1c-0.5,3.9-1.9,7.3-5,9.9c-2.2,1.8-4.6,2.1-7.2,0.9c-3.1-1.4-5.5-3.7-7.6-6.3c-2.7-3.2-5.2-6.5-7.8-9.8
		c-1.3-1.7-2.9-2.6-5.1-2.4c-0.9,0.1-1.3,0.5-1.2,1.4c0.1,1.5,0.8,2.9,1.7,4c4.1,5.1,8.3,10.1,12.4,15.1c3.5,4.2,8.1,5.3,13.3,4.4
		c6.7-1.1,8.2,0.6,7.5,7.6c-0.9,8.4-2,16.8-4.4,25c-3.5,11.7-12.2,15.2-22.8,9c-1.8-1.1-3.4-2.4-4.9-3.9c-2.9-2.8-5.8-5.7-8.8-8.4
		c-2.9-2.7-6.3-4.7-10.3-5.5c-1.2-0.2-2.7-0.7-3.4,0.5c-0.9,1.4,0.2,2.5,1.3,3.4c7.1,5.7,14.1,11.5,21.4,17
		c5.4,4.1,11.7,5.4,18.5,4.4c0.6-0.1,1.2-0.1,1.8-0.1c5.3-0.6,5.3-0.6,5.6,4.9c0.1,1.2,0,2.5,0,3.7c-0.1,5.3-2.5,9-7.5,10.6
		c-7.7,2.5-14.8,1.9-20.7-4.4c-2-2.1-4.3-4.1-7-5.3c-1.1-0.5-2.2-1-4-0.5c1.5,4.8,3.9,9.5,1.9,14.8c-1.9,5.2-6.2,8-10.4,11.3
		c11.3-1.9,18.9,2.9,23.8,13c2.2-2.8,2.1-5.4,1.1-8.2c-0.7-1.7-1.9-3.2-3-4.7c-3.1-4.2-4.9-8.3-5.5-12.7c0.8-0.9,1.6-0.1,2.3,0.2
		c2.6,1.1,5.3,1.8,8.1,2.3c5.5,1,10.8,0,16.1-1.1c1-0.2,1.9-0.5,2.9-0.7c4.3-1,6.1,0.3,6.2,4.7c0,4.9-0.4,9.8-0.8,14.7
		c-0.4,5.1-1,10.3-1.3,15.4c-0.3,3.7,0.8,7.3,1.2,11c0.5,5.2-1,9.4-5.5,12.4c-2.9,1.9-6.1,3.3-9.3,4.4c-6.8,2.4-13.7,4.7-20.6,7
		c-5.3,1.8-9.9,0.8-13.7-3.4c-3.2-3.6-5.5-7.9-8.7-11.5c-0.6-0.7-1-1.7-2.1-2.2c-0.8,1.7-0.4,3.3-0.1,4.8c1.4,5.8,4.1,10.8,8.6,14.7
		c2.1,1.8,4.4,3.2,7.2,3.6c1.2,0.2,2.4,0.6,3.5,1.2c2,1.2,2.7,2.6,2.2,4.9c-0.6,2.6-1.3,5.2-2,7.9c-0.2,0.7-0.4,1.4-0.5,2.2
		c-0.2,1,0.4,1.6,1.3,2c0.9,0.3,1.7,0.2,2.2-0.7c1.5-3,3.3-5.8,3.9-9.1c0.2-1.1,0.4-2.2,0.6-3.3c0.9-4.1,3.3-7.2,7.2-8.7
		c5.7-2.2,11.5-4.3,17.3-6.3c4.5-1.5,6.8-0.1,7.7,4.5c0.7,3.7,1,7.6,0.9,11.4c-0.1,7.6,1.7,15.1,2.2,22.7c0.6,8.3-1.5,16.1-5.1,23.5
		c-1.5,3-3.9,5.1-7.3,5.7c-8.3,1.5-16.2,3.9-24.2,6.5c-4.6,1.5-7.7,0.3-10.5-3.8c-2.7-3.8-5.1-7.8-7.8-11.7c-0.7-1.1-1.7-2-2.7-3.3
		c-1.5,2.5-1.5,4.6-0.3,6.9c1.4,2.8,2.9,5.4,4.6,8c1,1.5,1.7,3,2.2,4.6c1.1,3.9-0.6,6.9-4.5,7.9c-3.7,0.9-7.5,1.3-11.3,1.5
		c-6,0.2-12.1,0.3-18.1-0.1c-6.5-0.5-10.1-3.6-11.7-9.8c-1-4-1-8.1-0.8-12.1c0.3-6.5,0.9-13,1.3-19.5c0.1-2,0.1-3.9,0.1-5.9
		c0-1.2-0.5-1.8-1.7-1.9c-1.1-0.1-1.5,0.5-1.8,1.5c-0.5,1.9-0.9,3.8-1.5,5.7c-0.3,1.2-0.6,2.4-1.1,3.5c-1.5,3-3.8,4-7,2.9
		c-3.9-1.3-6.8-3.9-9.1-7.2c-9.1-13.1-8.4-30.5,1.8-42.9c3.3-4,7.2-7,11.5-9.7c1.3-0.8,2.4-1.6,3.7-2.5c1.1-0.7,1.6-1.8,1.8-3.1
		c0.2-1.4-0.2-2.1-1.7-2.2c-1.3,0-2.4,0.1-3.5,0.9c-6.3,5-13.2,9.5-18.5,15.7c-1.7,2-3.1,4.1-4.5,6.3c-0.3,0.5-0.6,1.1-0.9,1.6
		c-5.1,8.2-14.5,8.3-20,0.3c-1.5-2.3-2.4-4.8-3.2-7.4c-1.4-4.7-2.3-9.5-3.1-14.4c-0.3-2-1.6-2.8-3-1.9c-1.1,0.8-2,1.8-2,3.3
		c0,0.4,0.1,0.7,0.2,1.1c1.8,6.5,3.3,13.1,5.9,19.4c1.8,4.4,4.8,7.4,9.3,8.9c2.4,0.8,4.9,1.5,7.4,2.3c6.8,2.2,11.5,9.8,10.4,16.8
		c-0.4,2.7-2.5,3.8-4.8,4.5c-3.1,1-5.6,2.8-8.1,5.4c2.5,1,4.6,1.3,6.9,0.3c1.6-0.7,3.3-1.1,5-1.1c3.7-0.1,6.4,1.7,8.1,4.8
		c1.4,2.4,3.2,4.1,5.9,4.6c9.1,1.6,10.7,5.7,11,14.3c0.2,6.4,2.1,12.1,5.9,17.1c1,1.4,2.3,2.6,3.5,3.8c1.6,1.7,2.6,3.6,2.7,5.9
		c0.1,5,0.9,10.1-0.7,15c-0.2,0.6-0.2,1.2-0.3,1.8c-0.4,1.2,0,1.9,1.1,2.3c1.3,0.5,2.2,0,2.6-1.3c1.6-4.9,3.3-9.8,3.9-15
		c0.5-4,1.9-5.8,5.6-6.2c5.1-0.5,10.3-1.1,15.4-1c3.7,0.1,7,1.2,10.1,3.2c1.9,1.2,3.7,2.8,6.3,3.6c0.7-2,0.5-3.6-0.3-5.4
		c-2.2-4.9-1-7.8,4-9.9c8.4-3.6,17.1-6.1,26-8.1c5-1.1,9,1.4,10.4,6.4c1.2,4.2,1.1,8.5,1.5,12.8c0.8,10.5,1.6,21.1,2.3,31.6
		c0.2,2.2,0.2,4.4,0.1,6.6c-0.2,5.2-2.7,8.8-7.6,10.7c-4,1.6-8.1,1.9-12.3,1.8c-4.3,0-8.5,1-12.7,1.8c-1.3,0.3-2.4,0.6-2.2,2.3
		c0.2,1.7,1.5,1.8,2.7,1.7c4.9-0.3,9.8-0.8,14.7-1.1c4.4-0.4,8.8-0.8,13.2-1.1c2.4-0.2,2.7,0.1,3.1,2.5c0.5,3.2-0.1,6.4-0.9,9.5
		c-3.2,12.8-10.8,22.5-21.7,29.6c-5.2,3.3-10.7,6.1-16.4,8.4c-5.3,2.1-10.1,1.4-14-3.1c-1.4-1.6-2.9-3-3.8-4.9
		c-0.4-0.7-0.8-1.6-1.7-1.8c-2.2,5.5,0.8,11.6,6.6,13.8c4.9,1.9,9.9,1.2,14.9,0.3c1.6-0.3,3.1-0.8,4.6-1.2c2.1-0.5,2.2-0.4,2.5,1.8
		c0.1,1,0.1,2,0.1,2.9c0.1,0.7,0.2,1.4,0.4,2.2c0.2,0.9,0.6,1.7,1.6,1.8c1.1,0.1,1.4-0.8,1.7-1.6c1.1-3,2.3-6,2.7-9.2
		c0.3-1.9,1.1-3.4,2.8-4.5c8.4-5.3,14.7-12.6,20-20.9c0.3-0.5,0.7-1,1-1.5c2.3-3.4,3.9-3.5,6.3-0.1c1.2,1.7,1.5,3.7,1,5.6
		c-1.4,5.2-0.7,10.5-0.3,15.8c0.1,1.6,0.3,3.2,0.2,4.8c-0.2,2.9-1.4,5.4-3.8,7.3c-2.3,1.7-4.6,3.3-7.5,4.6c-0.9-2.2,0-4.6-1.4-6.6
		c-1.6,0.7-2.1,2.2-2.8,3.6c-1.5,2.7-2.8,5.5-4.2,8.2c-1.4,2.8-3.4,5.1-6.1,6.8c-2.7,1.7-5.6,1.6-8.6,1.4c-1.5-0.1-1.9-1-1.6-2.3
		c0.2-1,0.4-1.9,0.6-2.9c0.2-1,0.1-2.1-0.9-2.6c-1-0.5-1.5,0.5-2.1,1.1c-2.3,2.2-4.5,4.5-6.8,6.8c-4.4,4.3-9.5,5.3-15.3,2.9
		c-5.4-2.2-10.8-4.2-15.3-8c-0.5-0.4-1-0.8-1.4-1.2c-5.4-5.1-5.4-6,0.2-10.6c1.6-1.3,3.2-2.7,4.7-4.1c0.7-0.6,1.7-1.1,0.9-2.4
		c-0.9-1.4-1.9-1.3-3.1-0.6c-1.2,0.7-2.3,1.3-3.5,2c-8,4.9-12.3,4.3-19-2.3c-3.8-3.8-7.7-7.6-11.7-11.2c-7-6.3-8.6-12.5-5.5-21.6
		c1.4-4.1,1.4-4.1,1-7.2c-2.1,0-3.5,1.7-5.2,2.5c-1.1,0.6-2.1,1.2-3.4,0.4c-7.7-4.9-14.1-10.8-16-20.2c-0.9-4.6-0.6-9.3,0.7-13.9
		c0.4-1.3,0.7-2.5,1.1-4.2c-3.5,1.4-5.3,3.9-6.2,6.8c-1.7,5.9-1.3,11.7,1.7,17.1c3.3,6.1,0,12.9-6.9,14.2c-2,0.4-3.6-0.4-5.2-1.3
		c-3.4-2-5.8-4.9-8.1-8c-0.6-0.8-1.1-1.7-1.7-2.4c-0.5-0.7-0.9-1.6-2-1c-0.9,0.5-1.5,1.1-1.3,2.4c0.3,2.8,1.2,5.3,2.9,7.5
		c2.7,3.4,6.1,6,10.3,7.5c3.8,1.4,7.6,1,10.9-1.4c3.1-2.3,6.5-2.8,10.1-2.5c4.2,0.4,7.7,2.9,8.3,7.1c1.9,12,9.3,20.3,17.7,28.1
		c2.3,2.2,4.5,4.6,6.5,7c1.3,1.5,0.9,2.2-1,2.9c-3.2,1.1-6.4,0.7-9.5-0.2c-6.9-1.9-12.4-5.9-16.6-11.6c-0.3-0.4-0.4-0.9-0.7-1.5
		c1.5-1.1,3.4-0.8,4.9-1.3c0.8-0.3,1.7-0.3,2.5-0.4c0.7-0.1,1.1-0.6,1.1-1.3c0-0.7-0.5-1.1-1.1-1.2c-0.9-0.3-1.9-0.5-2.8-0.8
		c-4.2-1.1-8.3-2.1-12.5-3.2c-1.1-0.3-2.1-0.6-3.2-0.9c-0.7-0.2-1.4-0.5-1.5-1.4c-0.1-1,0.4-1.6,1.3-2c2.1-1.1,4.1-2.2,6.2-3.3
		c0.5-0.3,1.1-0.6,1.6-0.9c1.1-0.5,1.4-1.3,1-2.4c-0.4-1.1-1.2-1-2.1-0.9c-2.8,0.3-5.6,0.9-8.3,1.8c-2.6,0.9-5.2,1.4-7.9,1.5
		c-4.6,0.1-8-1.8-10.8-5.3c-2.9-3.7-4.8-8-6.4-12.4c-1.6-4.3-2.7-8.7-4-13c-1.1-3.7,0.5-6.7,2.1-9.8c0.5-0.9,1.3-1,2.2-0.6
		c1.7,0.6,3.5,1.3,5.2,1.8c1,0.3,1.7-0.1,1.5-1.3c-0.3-2.4-0.6-4.9-1.4-7.2c-0.8-2.3-1.1-4.7-1.3-7.2c-0.6-10,6.2-16.8,15.7-18
		c4.5-0.6,8.8-0.1,13.1,1.2c2.6,0.7,5.1,1.8,7.7,2.6c3.5,1.1,5.5,3.4,7,6.6c1.7,3.9,2.5,8,3,12.1c0.3,2.2-0.2,4.4-1.1,6.5
		c-0.7,1.7-1.2,3.5-1.9,5.2c-0.3,0.8-0.6,1.6,0.6,2.2c0.9,0.4,1.7,0.2,2.3-0.5c0.3-0.4,0.6-0.7,1-1.1c2.9-3.5,6.7-4.8,11.2-4.4
		c0.6,0.1,1.3,0,1.8,0.2c6.4,2.2,12.6,1,18.9-0.4c5.4-1.2,5.7-1,6.7,4.5c0.8,4.1,1.1,8.2,0.7,12.4c-0.4,4-1.8,5.4-5.7,5.9
		c-1.2,0.1-2.4-0.1-3.7-0.2c-7.6-1-13.7,1.6-18.6,7.5c-1.6,1.9-2,4.1-1.9,6.8c2.1-0.1,3.8-1,5.2-2.4c1.3-1.3,2.8-2.5,4.1-3.7
		c6.8-6.2,20.9-3.9,24.9,4.8c1.8,3.9,4.9,6.7,8.7,8.8c6.1,3.3,17.4,3.8,23.8-4.4c3-3.9,5.4-7.9,6.4-12.7c0.1-0.6,0.3-1.2-0.6-1.8
		c-2.7,2.2-4.7,5.2-7.1,7.7c-1.5,1.6-3,3.3-4.6,4.8c-7.2,6.2-17.1,4.3-21.5-4.1c-2.8-5.4-4.4-11.2-4.4-17.4c0-3.8,0-7.6,0-11.4
		c0-5.6,1.3-6.9,7-7c4.2-0.1,8.3-0.1,12.5-0.7c2.7-0.4,5.3-0.9,8-1.5c6.5-1.5,10.1-5.8,11.6-12c1-4.1,1.5-8.2,1.7-12.4
		c0.1-2.1,0.3-4.2,0.5-6.2c0.3-2.7,0.6-4.6-2-7.8c-2.3,2.1-3.3,4.7-3.5,7.7c-0.3,3.7-0.5,7.4-0.8,11c-0.4,4.3-1.9,8.1-4.5,11.5
		c-1.6,2.1-3.7,3.1-6.2,3.5c-4.6,0.6-9.3,0.8-14,0.8c-2.5,0-4.9,0-7.4-0.1c-5.9-0.1-8.9-2.8-9.2-8.7c-0.2-3.3,0-6.6-0.1-10
		c0-0.9,0-1.7,0-2.6c0-1-0.2-2-1.5-2.1c-1.4-0.1-2.1,0.5-2.2,1.9c-0.3,3.4-0.7,6.8-0.9,10.3c-0.1,2.3-0.3,4.7-0.6,7
		c-0.9,5.9-3.8,8.8-9.6,9.4c-9,0.9-17.7-4.4-20.4-13c-1.9-5.7-3.2-11.6-4.8-17.4c-0.7-2.5-2-4.5-4.2-5.8c-1.3-0.8-2-0.5-2.3,1.1
		c-0.3,1.7,0,3.9-1.4,4.8c-1.7,1.1-3.8-0.1-5.7-0.7c-5.8-1.7-11.5-2.5-17.4-1.1c-5.9,1.4-10.9,4.5-15.3,8.4c-1.2,1.1-2.4,2.1-3.7,3
		c-2.6,1.7-5.4,1.6-8.1,0.2c-2.4-1.3-4.6-2.8-6.9-4.2c-2.1-1.3-4.3-2.3-6.6-2.8c-0.8,1.1,0,1.8,0.4,2.4c1.9,2.9,4.5,5.1,7.4,7.1
		c3,2,6,3.9,8.7,6.2c1.6,1.3,2.7,2.8,2.9,4.9c0.5,5.2-3.9,8.6-8.9,6.8c-2.2-0.8-4.1-2.2-6-3.6c-2.2-1.7-4.2-3.7-6.9-5.3
		c-0.7,3.6,1,5.9,2.8,8.2c1.6,2,3.8,3.5,5.7,5.2c2.2,1.9,4.3,4,5.1,7.8c-9.9-6.3-15.6-14.6-18.5-25.1c1.4-0.8,2.4,0,3.4,0.3
		c2.9,0.9,5.9,1.9,8.8,2.9c1,0.4,1.9,0.5,2.4-0.7c0.5-1.2,0.4-2.1-0.8-2.8c-1.8-1-3.5-2.3-5.4-3.1c-7.5-2.9-11.7-8.7-14.2-16
		c-0.6-1.7-1-3.6-1.7-5.3c-1.2-3.1-0.7-5.7,1.8-8.2c1.9,1.2,2.8,3.3,4.1,4.9c1.7,2.1,3.2,4.3,5.4,6c6.2,4.7,12.7,5,19.4,1.4
		c4-2.1,7.1-5.2,9.3-9.4c-3.7,0.5-7,2.1-10.2,3.9c-1.8,1-3.7,1.9-5.7,2.5c-4.1,1.2-7.5-0.1-10.4-2.9c-1.8-1.7-3.1-3.8-4.2-6
		c-3-5.7-5.8-11.4-8.1-17.4c-0.1-0.3-0.3-0.7-0.4-1c-1.9-5.7-0.9-8.8,4.3-11.7c3.2-1.8,6.4-3.7,9.2-6.1c0.3-0.2,0.6-0.4,0.9-0.7
		c0.9-0.7,1.8-1.4,1-2.7c-0.9-1.6-2-0.9-3.2-0.4c-0.7,0.3-1.3,0.6-2,1c-1.9,0.9-3.7,1.9-5.6,2.8c-5.7,2.7-8.8,1.7-11.9-3.9
		c-0.9-1.6-1.6-3.3-2.3-5c-1.9-4.7-3.4-9.5-4.8-14.3c-1-3.6-0.8-7,0.9-10.4c2.7-5.3,6-10.2,10.9-13.7c4.7-3.4,9.6-1.8,11.9,3.6
		c1.1,2.7,2.2,5.5,3.5,8.1c2.2,4.5,5.3,8.3,9.8,10.7c1.6,0.8,2.3,2.1,2.8,3.7c2.8,9.8,5.6,19.6,8.4,29.4c1.9,6.7,1,8.4-5.3,11.2
		c-3.1,1.3-6.1,2.5-9.8,2c2.1,3.3,6.9,5.1,10.8,4.3c3-0.6,5.6-1.9,7.7-4.1c1.4-1.5,2.9-3,4.6-4.2c1.5-1.2,2.8-1.1,4.3,0.1
		c3.9,3.2,6.7,7.2,9.1,11.5c0.8,1.4,1.6,2.8,2.3,4.2c0.7,1.2,1.3,2.5,3.1,1.6c1.8-0.9,0.9-2.2,0.5-3.5c-1-2.7-2.1-5.3-3-7.9
		c-1.4-4-2-3.4,2.2-5.9c1.1-0.6,2.1-1.2,3.2-1.9c1-0.5,1.5-1.3,1.2-2.4c-0.4-1.4-1.4-0.9-2.4-0.8c-15.8,1.6-27-9.9-30.1-21.9
		c-1.5-5.8-0.1-10.9,4.1-15.3c0.6-0.6,1.4-1.1,1.5-2.2c-1.8-1-3.7-1.7-5.8-1.8c-7.7-0.5-12.8-4.5-15.7-11.5
		c-2.1-4.9-3.3-10-3.9-15.3c-0.7-6.2,1.6-9.8,7.5-11.9c2.2-0.8,4.5-1.4,6.6-2.2c4.6-1.7,8.1-4.9,9.4-9.7c1.1-3.8,3.4-5.7,7-6.8
		c5.9-1.9,5.9-3.8,8.1,4.6c0.6,2.2,0.3,4.4,0.4,6.6c0.1,3.6,0.8,7.1,3.1,10.1c1.4,1.8,2,1.6,3.1-0.4c1.1-2.2,0.5-4.6,0.4-6.9
		c-0.3-6-0.9-12-1.4-18c-0.3-3.2-0.8-6.3,0-9.5c1.3-5.6,4.3-8.5,10-9.4c4.6-0.7,9.1,0.4,13.6,0.8c1.4,0.1,1.7,1.2,2.1,2.3
		c0.8,2.5,0.5,5.1,0.1,7.7c-1,5.3-2,10.6-3.1,15.9c-0.5,2.7-0.5,5.4-0.2,8.1c0.1,1.2,0.7,2.1,2,2.2c1.5,0.2,1.4-1.1,1.7-1.9
		c2.2-4.8,1.9-10.1,2.6-15.2c0.6-3.9,1.5-7.7,3.1-11.4c1.8-4.3,4.9-6.9,9.4-8.1c3.5-0.9,7.1-0.8,10.6-0.7c1.6,0,2.7,1.1,3.6,2.3
		c4.2,6.4,5.3,13.4,4.1,20.8c-0.3,1.6-1.2,2.9-2.3,4.2c-4.6,5.5-5.8,11.8-4.4,18.7c0.4,2,0.7,4.1,1,6.2c0.3,3-0.9,5.2-3.7,6.6
		c-2.3,1.1-4.8,1.9-7.2,2.7c-3.6,1.2-7.1,2.9-10.4,4.7c-4.7,2.6-5.9,7.3-7.2,11.9c-0.3,1,0.2,1.7,1.1,2.1c0.9,0.4,1.6,0.2,2.3-0.6
		c2-2.4,4.1-4.6,5.9-7c3.2-4.3,7.7-5.9,12.7-6.7c3-0.4,5.5,0.7,7.7,2.8c3.6,3.6,5.3,8.2,7.1,12.8c3.1,8,3.5,16-0.1,24
		c-1.7,3.7-1.3,7.7-1.5,11.6c-0.1,1.5,0.9,1.8,2.1,2c1.2,0.2,1.5-0.6,1.7-1.5c0.7-2.6,1.2-5.2,1.6-7.9c0.9-6.4,2.6-7.6,8.9-5.8
		c6.5,1.8,13,3.8,19.5,5.7c3.1,0.9,6.2,1.3,9.5,1.3c7-0.1,11.3-3.2,13.6-9.8c1.7-4.9,1.9-10.1,2.6-15.2c0.4-2.7-1.1-5.2-3.4-7
		c-1.1-0.8-1.9-0.5-1.9,0.9c-0.1,3.1-0.3,6.2,0.1,9.2c0.3,2.9,0,5.6-0.8,8.3c-1.6,5.7-6.4,9.4-12.2,8.6c-9.8-1.4-19.3-3.7-27.4-9.9
		c-4.6-3.5-5.4-6-3.9-11.5c0.4-1.3,1-2.6,1.1-3.9c0.2-1.5,1.2-2.3,2.4-3c-1.2-1.4-2.6-1.8-4-2.3c-7.7-2.6-11.1-7.1-11.6-15.2
		c-0.3-5.6-0.7-11.3-0.7-16.9c-0.1-5.7,1.9-10.8,5.9-15c2.8-2.9,5.9-3.7,9.7-2.8c6.7,1.6,12.8,4.3,17.6,9.5c2.3,2.5,4.7,5,7.5,7.1
		c3.4,2.6,7,4.9,11.5,5.5c7.2,1,13.8-2.2,17.4-8.4c2-3.5,2.8-7.4,2.6-11.3c-0.2-3.9-0.9-7.8-1.1-11.7c-0.1-1.6-0.9-2.1-2.3-2.4
		c-1.7-0.3-1.7,1.1-1.9,2.1c-0.9,3.7-0.6,7.4-0.1,11c1.5,11.3-8.8,19.4-18.8,15c-3.3-1.5-6.2-3.5-8.5-6.3c-0.3-0.4-0.6-0.8-0.9-1.2
		c-5.4-7-5.4-7-2.4-15.3c0.1-0.3,0.2-0.7,0.4-1.3C369.3,482.6,369.3,482.4,369.1,482.3z"/>
	<path class="st1" d="M644.6,458.3c3.8,3,5.2,6.6,5.1,11.2c-0.2,11.3-0.4,22.6-1.1,33.9c-0.2,3.4-0.4,6.9-1,10.3
		c-0.9,4.8-3.4,8.6-7.1,11.7c-1.8,1.5-3.8,2.6-5.9,3.8c-4,2.3-8,2.7-12.4,1.2c-3.4-1.2-7-2.2-11.2-2.8c3.6,6.1,8.6,8.9,14.9,9.4
		c2.2,0.2,4.4,0,6.6-0.4c3-0.6,3.6-0.2,4.5,2.8c1.4,4.5,0.8,9-0.7,13.4c-0.5,1.7-1.5,1.4-2.4,0.4c-1.7-1.7-3.5-3.5-5.2-5.3
		c-1.6-1.7-3.2-3.4-4.9-5c-0.8-0.8-1.6-2-3.1-0.9c-1.5,1.1-0.6,2.1,0.1,3.2c1.3,2,2.6,3.8,4.2,5.6c1.3,1.3,2.5,2.8,3.5,4.3
		c2.8,4.2,3.7,8.7,2.3,13.7c-2.5,8.7-7.4,15-16.7,16.9c-6.2,1.3-12.3,0-18-2.3c-3.2-1.3-4.6-4-4.4-7.4c0.1-1.5,0.2-3,0.2-4.4
		c0-1.3,0.6-3.1-1.2-3.5c-2.1-0.5-2,1.7-2.6,2.9c-1.2,2.3-1.6,4.9-2.1,7.4c-0.7,3.3-1.7,6.4-3.3,9.3c-3.2,5.7-7.9,8.4-14.6,8.1
		c-11.3-0.5-22.9-9.5-25.9-20.4c-1-3.6-1.2-7.2-0.5-10.9c0.6-3.2,2.6-5.6,5.5-7c2.7-1.3,5.2-2.7,7.5-4.7c1.8-1.6,3.8-1.6,5.7-0.2
		c4.9,3.5,8.2,7.8,7.1,14.3c-0.4,2.4-0.6,4.9-0.9,7.3c-0.2,1.1-0.2,1.9,1.1,2.3c1.5,0.4,2.1-0.4,2.4-1.6c0.7-2.5,1.3-5,2.1-7.4
		c0.6-1.8,0.4-4.3,2.1-5.3c1.5-1,3.6,0.3,5.4,0.3c2.5,0.1,4.9,0.2,7.4,0.2c7.2,0.1,12.1-3.3,15.1-9.8c1.7-3.6,3.3-4.1,6.6-1.8
		c2.7,1.9,4.3,4.7,5.3,7.8c0.7,2.1,1.3,4.2,2,6.3c4.3-3.4,4.5-10.5,0.5-14.4c-0.9-0.8-1.9-1.5-3-2.2c-6.3-3.7-10.6-9.1-13.1-15.9
		c-0.9-2.5-1.8-5.1-2.6-7.7c-0.3-0.8-0.5-1.7-0.8-2.5c-0.5-1.2-1.3-2.4-2.7-2.1c-1.4,0.3-1.1,1.8-1.1,2.8c-0.2,4,1.5,7.7,2.7,11.4
		c0.9,2.6,1.6,5.2,2.1,7.8c1.4,8.1-3.5,14.7-11.7,15.6c-6.1,0.6-11.7-0.7-16.6-4.7c-2.3-1.9-4.6-3.6-6.6-5.9
		c-3.1-3.5-5.1-7.6-5.8-12.1c-1.1-7.5-3.9-14.5-7.2-21.2c-0.9-1.8-1.5-3.9-3.1-5.9c-1.1,3-1.5,5.7-0.7,8.5c0.8,2.6,1.5,5.2,2.5,7.7
		c1.8,4.6,2.9,9.4,3.6,14.3c0.5,3.5,0.1,6.9-1.7,10c-2.5,4.6-7,6.1-11.6,3.7c-3.8-2-6.7-5-8.7-8.8c-1.1-2-1.5-4.4-0.6-6.4
		c1.7-4,1.1-7.9,0.6-11.9c-0.9-7.6-1.5-15.1-2.2-22.7c-0.2-2.7-1.1-5-3.1-7.2c-2.2,2.6-2.8,5.5-2.9,8.6c-0.2,6.3,0.7,12.5,2.1,18.6
		c0.6,2.8,1.3,5.5,1,8.4c-0.5,6.3-4.9,8.2-10.1,5.6c-3.8-1.9-7.3-4.6-10.2-7.8c-3.5-3.9-5.6-8.5-4.1-13.8c1.5-5.4,0-10.6-1.7-15.5
		c-1.7-5.3-1.7-10.3-0.2-15.5c0.6-1.9,1-3.8,1.6-5.7c0.9-3.1,1-3.2,4.1-2.4c4.7,1.2,9.3,2.3,14,3.5c10.9,2.6,21.8,5.1,32.9,6.4
		c2.4,0.3,4.5,1.1,6.6,2.2c5.8,3.1,8.8,8,9.2,14.6c0.5,7.7,0.2,15.5,0.2,23.3c0,2.1,0.4,4.1,1,6.2c0.3,1.1,0.7,2.1,2.2,1.9
		c1.4-0.2,1.2-1.4,1.2-2.3c0.1-1.7,0-3.4,0-5.2c0-7.6,0-15.3,0-22.9c0-2.8,0.2-3,2.7-2.1c4.9,1.7,10,2.5,15,3.7
		c5.2,1.2,9.8,3.5,14,7c7.8,6.5,16.6,7.4,25.9,3.3c2.8-1.3,4.8-3.3,6.2-6.1c2-4,2.6-8.3,2.3-12.5c-0.3-4-0.6-8.1-0.5-12.1
		c0-1.5-0.4-2.4-2-2.4c-1.9-0.1-1.8,1.3-1.8,2.5c0,3.7-0.1,7.4,0,11.1c0,2.6-0.4,5.2-1,7.7c-1.4,6.1-5.8,9.7-11.9,9.5
		c-5.5-0.2-10.7-1.8-15-5.4c-4.2-3.5-6.2-8.1-6.6-13.5c-0.5-7.5-1.1-14.9-1.7-22.4c0-0.6-0.2-1.2-0.4-1.8c-0.3-0.8-1-1-1.8-0.9
		c-0.7,0.1-1.1,0.6-1.1,1.3c-0.1,0.6-0.1,1.2-0.1,1.8c-0.3,6.6-0.6,13.3-1,19.9c-0.1,1.2-0.3,2.5-0.7,3.6c-1,2.9-4,4.6-7,4
		c-1.8-0.3-3.6-1.1-5.1-2c-5.8-3.5-11.3-7.4-16.2-12.2c-2.4-2.4-3.5-5.2-3.5-8.6c0-2.9,0.6-5.6,1.2-8.4c0.7-3.1,1.5-6.2,2.2-9.3
		c0.2-0.8,0.3-1.7,0.4-2.5c0.1-1.2-0.7-1.7-1.7-2.1c-1.1-0.4-1.6,0.5-1.9,1.3c-1.6,3.7-3.3,7.4-3.9,11.5c-0.4,2.7-0.9,5.3-1.8,7.9
		c-1.5,4.4-3.2,5.7-7.8,5.7c-5.4,0-10.5-1.4-15.6-2.7c-6.6-1.7-12.9-4-19.3-6.2c-5.8-2-8.2-5.6-7.9-11.8c0.3-6.5,0.3-13-0.6-19.5
		c-0.2-1.6-0.5-3.1-1.1-4.8c-2.7,1-2.7,3.2-2.8,5.5c-0.3,8.1-1.1,16.2-2.3,24.2c-0.4,2.5-1.1,5.1-2,7.5c-3.6,9.2-3.6,18.5-1,27.9
		c0.9,3.2,1.7,6.4,2.2,9.7c0.6,4.1-0.2,8-3.1,11c-7,7-15.3,10.5-25.4,9.2c-5-0.7-8.6-3.3-11.3-7.5c-3.6-5.7-6.6-11.8-9.5-17.9
		c-1.4-3-2.9-6-4.5-8.9c-1.3-2.5-3.4-3.3-6.3-4c0.3,2.8,1.2,4.9,2.2,6.9c3.6,7.8,7.3,15.6,10.9,23.4c0.5,1.1,1,2.3,1.4,3.4
		c1.4,4-1.7,8.8-5.9,9.1c-3.2,0.2-6.1-0.5-8.1-3.4c-3.1-4.4-7.4-7.5-11.3-11c-0.8-0.7-1.5-1.3-2.6-0.5c-1.1,0.8-1,1.8-0.5,3
		c0.6,1.5,1.8,2.7,2.8,3.8c3.2,3.5,6.5,7.1,9.9,10.4c5.4,5.2,12.3,6.1,17.3,0.5c5.7-6.4,12.7-3.8,17.5-0.2c4,3.1,6,7.8,7.1,12.6
		c0.5,1.9-0.6,3.6-1.9,5c-1.7,1.9-3.8,3.1-5.9,4.3c-4.1,2.3-8,4.8-11.9,7.4c-2.5,1.7-4.2,4-5.8,6.8c2.5,0.8,4.6,0.5,6.6-0.7
		c6.1-3.9,12.3-7.7,18.3-11.7c5.2-3.4,7.1-8.3,5.5-14.4c-0.8-3.1-1.1-6.3-0.9-9.5c0.1-1.2,0.3-2.2,1.5-2.7c2.4-1,4.5-2.6,6.7-3.8
		c3.3-1.8,6.4-2,9.7,0.4c2.5,1.8,4.9,3.7,7,6c2.8,3.1,4,6.8,2.7,10.9c-0.4,1.4-0.9,2.8-1.6,4.1c-1.5,3.3-2.2,6.8-3,10.2
		c-0.3,1.3,0.3,2.1,1.6,2.5c1.3,0.4,1.8-0.5,2.2-1.4c1.7-4.3,3.4-8.7,5.1-13.1c2.9-7.3,6.6-8.2,12.5-3.2c2.5,2.2,4.9,4.5,6.8,7.2
		c2.5,3.4,4,7,3.7,11.3c-0.3,5.2,0.8,10.3,1.6,15.4c2.5,15.5-8.3,28.8-24.1,29.3c-5.1,0.2-9.4-1.7-12.7-5.6
		c-1.2-1.4-2.2-2.9-3.3-4.4c-1-1.4-2.1-2.8-3.1-4.1c-0.7-0.9-1.5-1.7-2.8-0.9c-1.1,0.7-0.8,1.6-0.5,2.6c0.8,1.9,1.3,4.1,2.9,5.5
		c10.4,10.1-0.3,24.4-11.1,25.5c-6.9,0.8-12.9-0.7-18.5-4.5c-1.8-1.2-3.7-2.6-5.2-4.1c-5.7-5.9-12.6-10.2-19.2-14.9
		c-1.6-1.1-3.3-1.6-5.2-1.6c-1,0-2.1-0.1-2.4,1.1c-0.4,1.3,0.7,1.7,1.6,2.1c4.5,2.3,8.6,5.3,12.7,8.2c2.4,1.7,4.5,3.8,6.4,6.1
		c9.6,11.5,21.6,15.2,36,11.1c0.6-0.2,1.2-0.4,1.8-0.6c1.4-0.4,2.3,0.1,2.8,1.5c3.2,9.5,2.1,20.9-8.8,27.4
		c-10.6,6.4-24.7,6.2-34.8-3.5c-3.7-3.5-8.1-6-12.3-8.8c-1.1-0.7-2-0.8-2.8,0.4c-0.8,1.1-0.5,2,0.4,2.9c2.3,2.5,4.9,4.5,7.6,6.4
		c2.1,1.5,4.3,2.9,6.1,4.7c0.9,0.9,1.7,1.8,2.1,3c0.9,2.2,0.6,3.8-1.4,5.2c-2.5,1.8-5,3.6-8.3,3.5c-0.7,0-1.5,0.1-2.3,1.2
		c2.6,2.2,5.3,3.6,8.9,2.7c3-0.7,5.5-2.2,7.4-4.6c2.3-3,5.1-4.4,8.9-4c3.2,0.3,6.4,0.1,9.6,0.3c2.8,0.2,3.1,0.8,3.4,3.7
		c0.3,3.5-1.3,6.2-3.4,8.7c-7.8,9.2-21.2,12.2-32.3,7.4c-2.1-0.9-4.3-1.9-6.4-2.8c-0.8-0.3-1.7-0.4-2.3,0.4
		c-0.7,0.9-0.2,1.6,0.3,2.4c0.8,1.3,1.7,2.3,3.1,3.1c10.6,5.8,21.2,6.5,32,0.4c0.1-0.1,0.2-0.1,0.3-0.2c5.2-3,7.7-2.1,9.8,3.5
		c2,5.5,0.4,10.4-4.7,13.3c-3.7,2.1-7.7,3.8-11.6,5.6c-5.9,2.7-11.9,5.3-17.9,8c-0.7,0.3-1.3,0.7-2,1c-0.9,0.5-0.7,1.3-0.1,1.8
		c1.6,1.5,3.5,2.1,5.8,1.6c2.4-0.6,4.6-1.6,6.8-2.7c5.2-2.5,10.4-5.1,15.6-7.6c1.3-0.6,2.7-1.3,4.1-1.7c2.4-0.7,4.2,0.3,5,2.6
		c1.4,4.6,1.3,8.9-2.3,12.7c-6,6.4-13.1,10.7-21.7,12.4c-1.5,0.3-3.1,0.4-4.4,1.8c3,2.9,6.4,3.2,10,2.3c5.3-1.2,9.7-4.1,13.6-7.8
		c2.4-2.3,4.9-4.5,7.8-6.2c5.1-3,10.6-4.1,16.3-2.6c4.3,1.1,8,0,11.4-2.6c3.9-3.1,7-6.8,9-12.4c-3.2,1.3-5.5,2.9-7.6,4.7
		c-2.3,1.9-4.8,3.4-7.5,4.6c-6.9,3-13.6,1-17.7-5.3c-1.8-2.8-2.8-6-3.6-9.2c-1.4-6-1.3-12.2-1.5-18.3c-0.1-4.5,0-9.1,0-13.7
		c0-7,2.9-12.3,8.7-16.1c1.7-1.1,2.7-1.1,4.1,0.4c3.8,4.2,7.7,8.3,11.6,12.4c3.4,3.7,6.9,7.4,10.3,11c0.3,0.4,0.7,0.7,0.7,1.6
		c-8-0.7-15.7-3-23.8-3.6c1.6,4.7,5.6,7.4,10.9,7.6c2.3,0.1,4.7-0.2,7-0.2c5.2,0.2,8.4,3.8,8.4,8.8c0,2.6-1.1,4.5-3.1,6
		c-1.9,1.4-4.1,2.2-6.3,2.9c-2.8,1-5.5,1.9-8.2,3.8c0.8,1,1.6,1.2,2.6,1.2c6.9,0,13.1-1.7,18.2-6.6c1.4-1.4,2.8-2.7,4.5-3.8
		c1.4-0.9,2.2-0.6,2.9,0.8c0.4,0.8,0.8,1.5,1.3,2.2c3.5,5.9,2,10.3-2.6,14.8c-2.3,2.2-5.2,3.7-8,5.3c-4.4,2.4-8.8,4.9-13.2,7.3
		c-1.3,0.7-2.4,1.3-1.5,3.1c0.9,1.8,2.1,0.7,3.2,0.4c2-0.5,4-1.1,6.3-1.8c-0.3,4.3-2.5,6.8-5.6,8.7c-3.7,2.2-7.8,1.9-11.8,1.2
		c-0.5-0.1-0.9-0.3-1.4-0.4c-4.3-1.4-4.4-1.6-2.5-5.5c0.4-0.9,0.9-1.8,1.3-2.7c0.4-0.9,0.2-1.7-0.6-2.3c-0.7-0.6-1.4-0.2-2,0.2
		c-2.2,1.6-4.4,3.1-6.2,5.2c-2.6,3.1-5.1,6.3-8.3,8.9c-11,8.8-27.8,6.7-36.2-4.6c-1.7-2.3-1.6-2.5,0.7-3.9c2.3-1.4,4.7-2.6,7.1-4
		c0.8-0.4,1.5-0.9,1.2-2c-0.3-0.9-1.1-1.3-2-1.3c-1.4-0.1-2.7,0.4-4,0.7c-2.3,0.6-4.5,1.1-6.9,0.9c-6.6-0.7-11.8-5.5-13.2-12.5
		c-1-5.1-1.7-10.2-2.4-15.3c-0.4-3.1-0.1-3.4,3.1-3c2.4,0.3,4.9,0.7,7.3,1c1.2,0.2,2.4,0.3,3.7,0.3c1,0,1.6-0.5,1.8-1.5
		c0.2-0.9-0.4-1.3-1.1-1.6c-1.3-0.5-2.5-1-3.8-1.5c-1.5-0.6-3-1.1-4.4-1.8c-5-2.2-8-5.9-8.9-11.4c-1-6.3-2.1-12.6-3.1-18.9
		c-0.5-3-0.4-3,2.7-3.1c1.4,0,2.7,0.2,4,0.3c1.7,0.2,3.4,0.1,5.1,0c0.8,0,1.3-0.7,1.5-1.5c0.2-1-0.6-1.2-1.2-1.5
		c-1.6-0.7-3.2-1.2-4.7-2c-4.4-2.4-6.8-6.2-7.3-11.2c-0.4-3.8,0.1-7.6,0.1-11.4c0-2,0.1-3.9,0-5.9c-0.2-5.1,2.9-7,7.4-4.6
		c5.7,3.1,11.3,6.5,16.9,9.9c2.2,1.3,4.4,2.8,6.6,4.1c4,2.4,8.2,3,12.7,1.2c0.1-1.3-1-1.4-1.7-1.7c-12.4-5.5-23.8-12.9-35.5-19.6
		c-6.6-3.8-9.4-9.6-10.2-16.9c-1-8.7,1.6-16.2,6.8-23c0.3-0.4,0.6-0.8,1-1.1c0.2-0.2,0.4-0.3,0.7-0.4c1,0.1,1.3,1,1.6,1.8
		c1.2,2.9,3.4,4.6,6,6.2c8.8,5.4,18.5,7.7,28.6,9.2c2.7,0.4,5.4,0.8,8,1.3c1.3,0.2,2.1,0.2,2.5-1.3c0.4-1.2,1.6-1.5,2.5-2.1
		c4.5-2.7,9.1-5.3,13.6-8.1c4.7-3,9.5-3.1,14.4-0.8c3.5,1.6,7.2,2.5,11.1,2.3c5-0.2,8.7-2.3,11.2-6.6c1-1.6,1.6-3.3,2.1-5.1
		c1.3-4.6,1.8-9.4,2.4-14.2c0.2-1.3,0.2-2.5-1.5-2.9c-1.7-0.3-2,1-2.4,2.2c-0.8,2.3-1.5,4.7-1.9,7.1c-0.7,3.7-2,7.1-4.2,10.1
		c-3,3.9-7.3,5.4-12.1,4.2c-3.9-1-7.2-3.1-10.2-5.8c-2.1-1.9-2.6-4.7-3.1-7.4c-0.5-3.2-0.9-6.3-0.7-9.5c0.1-1.8,0-3.7,0-5.5
		c0-1.1,0.2-2.4-1.3-2.6c-1.6-0.2-1.7,1-2,2.1c-1.1,3.4-1.3,7-1.4,10.6c-0.1,4.8-0.5,9.6-1.9,14.2c-1.3,4.2-4.1,6.9-8.1,8.4
		c-2.4,0.9-5,1.4-7.5,1.7c-7.4,0.8-14.9,1.5-22.4,0.5c-15.5-2.1-22.6-14.6-23.3-25.6c-0.3-4.6,1.4-6.1,5.9-5.4
		c3.1,0.5,6.2,1.3,9.5,1.2c5.8-0.1,11.2-1.7,15.7-5.4c2-1.6,4.1-3.2,6-4.9c1.8-1.6,2.5-4.3,1.6-5.2c-0.6-0.7-3.6-0.2-5.2,1
		c-1,0.7-1.9,1.6-2.7,2.5c-3.2,3.1-6.9,5.6-11.2,6.8c-6.9,2-13.3-0.2-17.6-6c-1.6-2.2-2.8-4.6-3.5-7.3c-1.1-3.7-1.7-7.4-2-11.2
		c-0.5-7.1-1-14.2-0.8-21.4c0-0.4,0-0.7,0-1.1c0.2-3.5,1.8-4.5,5.2-3.2c0.8,0.3,1.5,0.8,2.3,1.2c2.6,1.5,5.1,2.9,7.7,4.4
		c1.1,0.7,2,0.8,2.9-0.4c0.8-1.1,0.1-1.8-0.6-2.6c-2.1-2.1-4-4.4-6.9-5.4c-9.3-3-11.6-9.7-11.4-17.3c0.2-7.3,1.5-14.4,2.5-21.6
		c0.5-4,2.9-4.8,6.3-2.7c3.3,2.1,5.9,4.6,7.3,8.5c3.2,8.6,9.5,14.4,17.8,17.6c7.1,2.8,11.5,7.7,14.1,14.6c0.8,2.2,1.8,4.3,2.8,6.4
		c0.5,1.1,1.1,1.9,2.6,1.4c1.2-0.4,1.3-1.4,1.1-2.4c-0.6-3.6-0.9-7.2-2.9-10.6c-2.3-3.8-2.4-7.9-0.9-12.1c1-2.6,1.9-5.3,1.9-8.2
		c0-0.9,0-1.8-1-2.2c-1.1-0.4-1.5,0.5-2,1.1c-1.3,1.7-1.9,3.7-2.8,5.6c-1.6,3.4-4.1,4.6-7.5,3.1c-7.7-3.4-14.3-8.1-18.1-16
		c-0.6-1.2-1.2-2.5-1.5-3.8c-1.5-6.1-2.4-12.3-2.6-18.6c-0.1-4.4,1.1-8.5,3.7-12.2c0.4-0.6,0.9-1.2,1.1-1.9c0.5-1.3,0-2.5-1.1-3.2
		c-1.1-0.8-1.8,0.2-2.5,0.9c-3.2,3.3-5,7.2-5.6,11.8c-0.4,3.4-0.7,6.8-0.7,10.3c0,2.5-0.4,2.8-2.8,2.5c-6.4-0.6-10.5-5-10.6-11.5
		c-0.1-6.2,0.9-12.2,1.7-18.3c0.8-6.2,1.9-12.4,2.9-18.6c0.1-0.7,0.2-1.5,0.5-2.1c0.8-1.8,2-2.1,3.3-0.6c1.7,1.9,3.3,4,4.9,6
		c7.1,8.8,14.6,17.3,22.5,25.3c2.3,2.3,4.7,4.4,7.1,6.4c3.1,2.6,4.5,5.7,3.3,9.8c-0.9,3-0.4,6.1-0.4,9.2c0,0.9,0.1,1.7,1.3,1.9
		c1.2,0.1,1.9-0.4,2.2-1.5c0.4-1.4,0.6-2.9,0.9-4.3c0.2-0.8,0.2-1.7,0.4-2.6c1.5-7.3,3.7-9.3,11-10.2c6.6-0.8,11.8-3.9,16.1-8.9
		c1.5-1.8,2.8-3.7,4.2-5.6c5.3-7.1,13.6-7.6,19.7-1.2c1.6,1.7,2.9,3.7,3.9,5.8c1.3,2.7,3,5.1,5.3,7c3.9,3.1,4.8,6.9,3.2,11.5
		c-1,2.8-2.4,5.4-2.3,8.5c0,1.1-0.2,2.3,1.2,2.7c1.5,0.5,2-0.6,2.5-1.6c1-2,1.9-4,2.9-5.9c2.4-4.5,5.9-6.8,11.3-6.5
		c8.6,0.5,16.2-2.3,22.2-8.8c1.6-1.7,3-3.6,4.1-5.7c2.6-4.6,4.3-9.6,5.8-14.7c2.6-8.8,1.3-17.3-2.1-25.6c-1.8-4.6-3.9-9-5.9-13.5
		c-0.2-0.5-0.5-0.9-0.7-1.3c-0.3-0.7-0.7-1.4-0.1-2c0.7-0.7,1.4-0.2,2,0.2c2.9,1.9,5.8,3.8,7.9,6.5c4.6,6.1,9,12.3,12.2,19.3
		c5.2,11.2,4.5,22.1-3.2,31.6c-7.3,9.1-11.3,19.2-12.9,30.5c-0.3,2.3-1,4.6,1,6.6c1.6,1.6,2.3,1.6,3-0.6c1.2-3.8,2.1-7.6,3.2-11.4
		c1.1-3.8,2-7.6,3.2-11.4c2-5.9,6.1-8.1,12.1-6.6c5.4,1.3,10.6,3.2,15.6,5.5c4.1,1.9,6.2,4.9,6.1,9.5c-0.1,5.7-1.8,11.1-2.6,16.7
		c-0.5,3.5-1.2,7-1.7,10.5c-0.4,2.6,0,5.2,0.7,7.7c0.4,1.6,1.9,2,3,0.7c0.8-0.9,1.2-2.1,1.4-3.3c0.6-2.8,0.5-5.6,0.5-8.5
		c0-4,0.7-7.8,2.2-11.5c1.8-4.8,5.2-7.9,9.9-9.9c2.6-1.1,5.4-1.6,8.2-2.2C641.6,457.2,643.1,457.4,644.6,458.3z"/>
	<path class="st2" d="M660.3,291.1c-4.9-18.8-25.2-27.6-43.2-19.6c-3.7,1.7-7.1,4-10.1,6.8c-5.4,5-11.1,9.8-17,14.2
		c-0.8,0.6-1.6,1.2-2.3,1.9c-2.4,2.4-2.9,4.6-1.3,7.7c0.8,1.5,1.8,2.9,2.7,4.4c0.7,1,0.5,1.8-0.5,2.5c-0.6,0.4-1.2,0.9-1.9,1.2
		c-11.9,5.9-28-1.2-29.5-15.7c-0.4-3.4,0.4-6.6,2.2-9.5c3.5-5.8,7.6-11.2,11.6-16.6c3.6-4.8,7.5-9.5,10.5-14.7
		c0.4-0.7,0.8-1.5,1.2-2.3c0.3-0.7,0.1-1.2-0.4-1.6c-0.6-0.5-1.3-0.8-2-0.3c-0.5,0.4-0.9,0.9-1.3,1.3c-6.9,7.5-13.5,15.3-19.6,23.6
		c-3.5,4.7-6.1,9.8-7.1,15.7c-0.6,3.5-2.7,5.3-6.2,5.3c-1.6,0-3.2-0.3-4.7-0.8c-12.3-4-18.2-18.9-11.9-30.6
		c2.5-4.7,5.4-9.1,8.2-13.6c4.5-7.1,9-14.1,13.6-21.1c1-1.6,1.8-3.2,2.3-5c0.5-2,0.1-2.5-1.9-2.5c-1.3,0-2.7,0.1-4,0.6
		c-9.7,3.9-19.5,7.6-28.9,12.1c-5.4,2.6-6.7,7.5-8.1,12.5c-0.4,1.3,0.5,2.1,1.5,2.7c2.3,1.4,4.6,2.8,7,4c1.7,0.9,3,2.2,4.2,3.6
		c0.9,1,1,1.9-0.2,2.8c-1.3,0.9-2.6,2-4.1,2.4c-6,1.4-12.1,2.3-18.3,1.4c-10.2-1.4-16.1-7.2-17.8-17.4c-1.3-7.9-0.8-15.7,1.7-23.3
		c2.6-8,7.7-13.9,14.8-18.3c3.9-2.4,8.1-4.2,12.2-6.2c7.6-3.8,15.3-7.5,22.9-11.1c2.1-1,4.1-2.3,5.8-3.9c0.9-0.8,1.6-1.5,0.7-2.8
		c-0.8-1.1-1.7-0.7-2.6-0.2c-1.9,1.1-3.9,2.1-5.9,3.1c-3.3,1.7-6.7,3-10.3,3.9c-4.1,1-8.2,1.3-12.4,0.3c-8.9-2.1-16.8-0.1-23.8,5.7
		c-10.3,8.6-21.6,15.9-33,22.9c-2.8,1.8-5.8,3.2-9.2,3.5c-4,0.4-7.3-1-9.5-4.5c-2.1-3.4-1.2-6.6,0.8-9.7c1.3-2,2.9-3.7,4.6-5.3
		c13-12.7,26.6-24.9,40.2-37c5.9-5.2,12.9-7.1,20.4-7.2c10.9-0.1,21.6,1.8,32,4.7c16.7,4.7,32.8,11.3,48.8,18
		c22.2,9.3,43.7,19.8,64.3,32.3c24.6,14.9,46.1,33.2,63.4,56.3c5.5,7.3,11.1,14.4,16.6,21.7c11.2,14.9,20,31,26.2,48.5
		c2.7,7.5,5.5,15,8.1,22.6c0.4,1.2,1.6,2.5,0,3.6c-1.5,1.1-2.5-0.3-3.6-1c-9.9-6.4-19.8-12.9-29.7-19.4
		c-17.8-11.6-35.6-23.3-53.6-34.7C666.4,304.5,661.9,299.1,660.3,291.1z"/>
	<path class="st2" d="M249.5,331.1c-1.6-3.2-3.9-5.3-6.8-6.9c-4.8-2.7-9.5-5.7-14.4-8.3c-9.9-5.4-20.4-6.7-31.5-5.1
		c-8.5,1.2-17.1,2.3-25.7,1.2c-3.7-0.5-7.3-1.2-10.8-2.4c-1.6-0.5-3.5-1.2-4.2,0.6c-0.8,1.8,1.2,2.7,2.5,3.5c2,1.3,4.3,1.7,6.6,2.4
		c2.1,0.6,4.2,1.2,6,3.1c-2.6,1.3-5,0.8-7.3,0.5c-3.9-0.6-7.8-1.3-11.6-2c-8.9-1.5-16.3,1.5-22.2,8c-6.7,7.3-10.1,16-9.3,26
		c0.5,6.1-1.9,10.7-6.6,14.4c-13.4,10.4-26.8,20.9-40.2,31.3c-6.9,5.4-13.8,10.7-20.7,16.1c-1.7,1.4-3.6,2.6-6.1,2.9
		c0-5,0.8-9.8,1.3-14.7c2.2-19.7,8.6-38.1,18-55.5c14-25.8,31.3-49.1,52.3-69.7c13.7-13.4,28.9-24.9,45-35.2
		c27.5-17.6,55.6-34.1,84.5-49.2c2.3-1.2,4.5-2.5,6.7-3.9c3.8-2.5,6.6-5.9,8.2-10.2c1.3-3.5,3.7-6.3,6-9.1c1.8,0.5,2.9,1.8,4.1,2.8
		c4.6,3.7,9.2,7.5,13.8,11.1c1.6,1.2,2,2.6,1.7,4.5c-1,6.2-4.4,10.3-10.3,12.3c-3.8,1.3-7.7,1.6-11.6,2.3c-0.2,0-0.5,0-0.7,0.1
		c-1.4,0.4-3.8-0.4-3.7,1.8c0.1,2,2.5,1.6,4,1.8c4.7,0.5,9.3-0.3,13.9-1.1c5.6-0.9,11.2-1.2,16.8,0.2c9.3,2.3,16.3,7.8,22.1,15.1
		c4.3,5.4,8.3,11,12.1,16.8c3.9,5.8,7.7,11.8,11.4,17.7c2.6,4.1,4.1,8.6,5.4,13.3c1.3,4.9-0.5,8.9-2.5,13.1c-0.5,1-1.2,1-2.1,0.8
		c-4.5-0.8-8.3-2.4-11.3-6.2c-5.4-6.7-10.9-13.3-16.1-20.2c-7.6-10.1-17.7-14-29.9-13.4c-4.9,0.2-9.8,1-14.7,0.8
		c-5-0.2-7.1,1.8-8.8,6.8c-0.7,2.3-0.7,2.3-3,1.6c-1.3-0.4-2.6-0.9-3.9-1.3c-0.6-0.2-1.2,0.1-1.6,0.7c-0.4,0.6-0.1,1.2,0.3,1.6
		c0.5,0.5,1,1,1.6,1.6c6.7,6.9,14.1,13.1,21.5,19.1c3.7,3,7.4,6.1,11,9.3c1.5,1.3,2.9,2.7,4.1,4.2c10.5,12.2,1.1,29.7-11.5,31.7
		c-7,1.1-11.8-1.3-13.4-8.1c-1.1-4.5-3.3-7.7-6.7-10.6c-8.7-7.5-17.2-15.1-25.8-22.7c-1.7-1.5-3.5-2.7-5.5-3.8
		c-0.9-0.5-1.6-0.5-2.3,0.4c-0.5,0.7-0.3,1.4,0.2,2c0.6,0.8,1.3,1.5,1.9,2.2c8.1,9.1,16.9,17.6,25.1,26.5c3.6,3.9,7.2,7.7,10.3,12.1
		c5.3,7.5,1.8,17.2-7,19.7C253.4,336.4,252,335.8,249.5,331.1z"/>
	<path class="st1" d="M194.4,587.1c-0.5-1.5,0.4-2,1.2-2.6c1.6-1.1,3.5-1.6,5.2-3.3c-1.5-0.6-2.8-1-4-1.4c-7.7-2.9-13.1-8-15.6-16
		c-1.4-4.4-2.5-8.8-3.3-13.2c-0.2-1.2-0.3-2.4-0.3-3.7c0.1-3.9,1.5-5.1,5.4-4.3c2.8,0.5,2.8,0.5,2.2-2.4c-1.1-5.3-2.2-10.6-3.3-15.9
		c-0.2-0.7-0.3-1.4-0.4-2.2c-0.2-1.3,0.4-1.9,1.7-1.7c1.7,0.3,3.4,0.7,5.1,1c1.8,0.3,2.2-0.2,1.5-2c-1-2.8-2.2-5.5-3.3-8.2
		c-4.8-12.6,3.4-26.7,16.6-28.8c2.3-0.4,4.1,0.3,6,1.2c3.2,1.6,6.6,2.7,9.9,4c1,0.4,2.2,0.8,2.9-0.6c0.7-1.4,0.1-2.3-1.2-3
		c-1.7-1-3.4-1.9-5.1-2.9c-1.5-0.9-3-1.7-4.1-3.1c-1.8-2.2-1.8-4.5,0-6.7c1.6-1.9,3.6-3.4,5.7-4.6c3.2-1.8,6.6-3.4,9.9-5
		c2.2-1.1,4.2-1,6.2,0.6c2.4,2,5.2,2.8,8.2,2.6c2.1-0.1,4.2,0,6.3-0.3c2.5-0.3,4.9-0.3,7.3,0.2c1.3,0.3,2.4,0.1,3.3-1
		c1.3-1.4,0.7-3.2-1.2-3.5c-3.5-0.5-7-1.3-10.6-0.8c-2.1,0.2-4.2,0.2-6.2-0.2c-4-0.9-6.1-3.4-6.3-7.5c-0.3-4.7,0.9-9.3,2.1-13.8
		c1.2-4.5,2.7-8.9,4.5-13.3c2.3-5.4,6.7-8.4,12.3-8.5c14.4-0.3,26.9,3.9,35.2,16.8c0.9,1.4,1.9,2.9,3,4.2c0.8,1,1.7,2.5,3.3,1.4
		c1.7-1.1,0.6-2.4-0.1-3.5c-2.4-3.8-3.8-8-5.3-12.1c-2.2-6-1.9-7,3.4-10.8c3.1-2.2,6.6-3.8,10.1-5.3c2.1-0.9,3.8-0.6,5.4,0.9
		c3.1,2.7,6,5.5,8.5,8.7c0.7,0.9,1.3,1.8,2.1,2.6c0.8,0.8,1.6,0.4,2.3-0.1c0.9-0.6,1.2-1.3,0.6-2.2c-1.6-2.5-3.3-4.9-4.9-7.4
		c-1.3-2-2.7-4-4.4-6.7c7.4,1.1,14,1.4,20.1,4.2c2.5,1.1,4.2,3,5.4,5.3c1.5,2.8,2.4,5.9,3.2,9c0.4,1.4,0.1,2.6-0.9,3.7
		c-3.7,4.1-8.3,6.5-13.5,7.8c-2.5,0.6-4.8-0.3-7-1.6c-3.5-2.1-6.4-5-9.7-7.4c-0.8-0.6-1.5-1.4-2.6-1.1c-1.6,0.4-2.2,2.4-0.9,3.8
		c2.6,2.8,5.4,5.4,8.6,7.5c5.3,3.4,7.4,8.4,7.7,14.3c0.1,1.7,0.1,3.4,0.4,5.1c0.7,4.7-2.1,8.1-7,8.2c-2.8,0-5.6-0.4-8.4-0.7
		c-5.5-0.7-10.9-1.6-16.3-2.9c-2.9-0.7-5.2-2.1-6.8-4.7c-0.7-1.1-1.6-2.2-2.2-3.4c-3.5-7.1-9.7-10.2-17-11.5
		c-4-0.8-8.1-0.7-12.1,0.5c-1.3,0.4-2.6,0.7-3.5,1.7c0.3,1.4,1.3,1.1,2.1,1.2c4.7,0.8,9.5,1.4,14.2,2.2c2.3,0.4,4.5,1.1,6.5,2.4
		c4.2,2.6,5.9,6.4,5.1,11.2c-0.5,2.8-8,18-9.9,20c-5.2,5.6-12.1,6.4-18.6,1.8c-3-2.1-5.7-4.7-8.9-6.6c-1-0.6-1.7-0.8-2.6,0.1
		c-1.2,1.1-1,2.1,0.1,3.1c3.3,3.2,6.4,6.5,8.9,10.3c4,5.9,3.7,6-1.3,11.1c-2,2.1-4.5,3.4-7.2,4.3c-2,0.6-4,1.4-5.8,2.3
		c-3,1.4-5.1,3.8-6.1,7c-0.2,0.7-0.4,1.4-0.7,2.1c-1.8,4.5-5.9,5.3-9.3,1.9c-2.3-2.3-3.8-5.1-5.3-7.9c-1.4-2.6-3.1-5-6.2-5.9
		c-1-0.3-1.9-0.6-2.7,0.4c-0.9,1.1-0.1,1.9,0.5,2.6c1.6,2,3.4,3.9,5,5.9c4.8,6.3,4.9,11,0.2,17.5c-1.6,2.3-3.5,4.5-5,6.8
		c-3.1,4.6-4.8,9.7-4.2,15.3c0.3,3.1-0.8,5.8-2.7,8.2c-2.6,3.3-6.3,2.9-8.4-0.6c-0.8-1.4-1.3-2.9-2-4.4c-0.6-1.4-1.2-2.7-2.2-3.8
		c-0.6-0.6-1.1-0.8-2-0.5c-0.8,0.3-1.2,0.8-1.1,1.6c0.8,8.8,5.8,14.3,15.2,14.9c0.6,0,1.2-0.1,1.8-0.2c4.4-0.2,6,0.8,7.6,4.9
		c0.9,2.2,2,4.2,3.8,5.8c1.1,1,2,2.2,2.6,3.5c2.1,4.1,1.8,6.7-1.3,10.1c-2,2.2-2,2.2-0.2,4.5c1.7,2.3,3.6,4.4,4.9,6.9
		c1.7,3.1,0.8,7.5-1.8,9.8c-1.1,0.9-1.9,0-2.6-0.5c-5.7-4-10.3-9.2-13.1-15.6C195.9,592.1,195.2,589.7,194.4,587.1z"/>
	<path class="st1" d="M581.4,645.8c4.4,5.7,4.3,12.2,3.5,18.5c-0.8,6.4-4,11.8-8.4,16.5c-5.5,5.8-11.9,10.2-19,13.8
		c-4.7,2.4-9.6,4.4-13.8,7.8c-1,0.8-3.1,1.3-2.4,3.2c0.7,2.1,2.5,0.8,3.8,0.7c3.1-0.3,3.8,0.2,3.8,3.3c0,4.8-1.6,9.2-4.3,13.1
		c-4.3,6.3-10.2,10.5-17.6,12.7c-0.8,0.2-1.6,0.5-2.5,0.2c-0.6-1.1,0.4-1.5,0.9-2.1c3.1-3.8,6.2-7.6,9.3-11.4
		c1.2-1.5,2.2-3.2,3.2-4.9c3.8-6.8,0-15.5-5.2-18.4c-1-0.5-1.9-1.1-2.8-1.7c-3.1-2.1-4.3-4.4-3.6-7c0.7-2.7,4-5.6,6.9-5.9
		c2-0.2,3.9-0.2,5.8,0.7c4.9,2.2,10.1,3.2,15.4,3.4c9.9,0.4,16.3-6.6,17.8-13.5c0.7-3.3,0.3-6.6,0.2-9.9c-0.2-4.8-0.7-9.6-1-14.3
		c-0.1-1.2,0-2.5-1.9-2.6c-1.8-0.1-2.3,1.2-2.5,2.6c-0.4,2.7-0.1,5.4,0.3,8.1c0.6,4.2,0.6,8.3,0.5,12.5c-0.1,4.9-2.5,8.3-7,10.4
		c-6.1,2.8-12.1,3-18-0.4c-1.8-1-2.8-2.3-2.5-4.4c0.2-1.5,0.2-2.9,0.2-4.4c0-0.7,0.1-1.5-0.8-1.9c-0.9-0.4-1.7-0.1-2.3,0.6
		c-0.9,1.1-1.9,2.3-2.7,3.5c-1.6,2.4-3.6,4.4-6,5.9c-3.2,2-6.5,2.2-9.9,0.7c-2.9-1.2-5.3-3.1-7.4-5.4c-4-4.3-7.6-9-10.6-14.1
		c-1.4-2.5-2-5-1.5-7.8c0.9-5.5,0.4-11,1.1-16.5c0.2-1.8-0.1-3.7-0.4-5.5c-1.1-5.6,1-10.3,5.2-13.7c4.5-3.6,9.6-4.9,15.2-2.7
		c1.7,0.7,2.8,1.9,3.6,3.5c1.3,2.5,2,5.3,3,7.9c0.3,0.8,0.5,1.6,0.9,2.4c0.3,0.8,1,1,1.8,0.9c0.9-0.1,1.2-0.8,1.2-1.6
		c-0.1-2.1-0.1-4.2-0.5-6.2c-0.3-1.8-0.4-3.7-0.4-5.5c-0.1-3.3,1.1-6.1,3.5-8.2c4-3.4,7.2-7.4,10.6-11.2c0.7-0.7,1.4-1.4,2.1-2.1
		c0.8-0.8,1.6-0.9,2.6-0.5c3.1,1.3,6.2,2.4,9.3,3.6c4.2,1.6,7,4.5,8,9c0.6,2.6,2.4,4.5,3.8,6.7c0.3,0.5,0.8,1,1.5,0.7
		c0.6-0.3,0.9-0.8,1.1-1.4c0.3-0.6-0.1-1.2-0.3-1.8c-0.4-1-0.8-2.1-1-3.1c-1.1-4.6,0.3-8,4.8-9.3c3.9-1.1,6.8-2.9,9.2-6.4
		c2.3-3.3,6.2-4.5,10.5-3.9c4.7,0.6,9,2.4,13.6,3.2c1.6,0.3,1.9,1.3,1.8,2.7c-0.3,5.3-2.2,9.8-6.9,12.8c-2.3,1.4-4.7,2.7-7.2,3.8
		c-4.3,2-6.2,1.4-9.1-2.5c-0.4-0.6-0.8-1.2-1.3-1.9c-1.7,0.9-2,2.1-1.5,3.7c1,3.3,1.9,6.6,3,9.9c2.1,6.6,0.8,10.4-4.9,14.2
		c-13.4,9-29.2-0.4-31.1-13.2c-0.4-2.8-0.7-5.6-2.1-8.2c-0.3-0.6-0.6-1.2-1.2-1.3c-0.9-0.1-1.1,0.8-1.4,1.5
		c-0.8,1.8-0.5,3.6-0.2,5.4c1,5.6,2,11.1,3.8,16.5c3.5,10-2.5,19.5-8.8,22.9c-2.1,1.1-4.3,1.7-6.6,2.1c-3.4,0.5-6-1-8.2-3.4
		c-2.6-2.8-4.6-6.1-6.2-9.6c-1.2-2.6-2.3-5.2-3.5-7.7c-0.3-0.7-0.6-1.4-1-2c-0.5-0.9-1.3-1.7-2.4-1.3c-1,0.3-0.7,1.4-0.7,2.2
		c0,6.5,2.6,12.2,5.8,17.6c1.4,2.3,3,4.5,5,6.4c3.5,3.3,7.6,4.4,12.2,3.4c9.3-2,15.6-7.5,18.9-16.4c0.7-1.8,1.2-3.7,2.3-5.4
		c1.4-2,3.4-3.3,5.7-2.6c3.8,1.1,7.7,1.2,11.6,1.7C577.3,643.5,579.4,644.3,581.4,645.8z"/>
	<path class="st1" d="M617.8,386.4c-6.7-13.2-11.3-27-16.3-40.6c-2.4-6.7-4.7-13.4-6.2-20.5c-3.3-16.4,0.3-31,11.7-43.4
		c11.9-13,29.4-10.6,38.1-1.4c3.7,3.8,5.6,8.5,6.4,14.1c-1.7,0.2-3-0.5-4.3-1c-4.7-1.8-9.5-2.7-14.4-2.1
		c-9.1,1.1-15.7,8.4-16.5,18.1c-0.9,12,2.3,23.1,8.1,33.6c2.5,4.5,5.4,8.8,7.9,13.3c4.6,8.5,7.5,17.6,7.4,27.4
		c-0.1,5.6-1.9,10.6-4.2,15.5c-0.7,1.5-1.7,1.4-3,0.9c-5.3-2-9.9-4.9-12.6-10.1C619.4,388.9,618.6,387.8,617.8,386.4z"/>
	<path class="st1" d="M573.6,408.7c-0.5,9.3-3.3,17.3-8.2,24.8c-8.6,13.1-23.6,12.5-33.3,5.7c-2.9-2-5.1-4.6-6.6-7.8
		c-2.6-5.2-1.9-7.9,3.1-10.7c2.8-1.6,5.3-3.5,7.5-5.9c7-7.6,9.2-16.6,7.7-26.6c-0.4-2.4-1.3-4.5-4.4-5.1c-0.7,3.3-1.1,6.7-1.1,10.1
		c-0.1,2.8-0.2,5.6-0.8,8.4c-2.3,10.8-8.9,16.4-20,17.3c-4.7,0.4-8.8-0.4-12.5-3.9c1.4-2.7,2.9-5.2,5.9-6.5c2.3-1.1,4.6-2.3,6.6-4
		c4.2-3.5,6.3-8,6.4-13.5c0-2.7,0-5.4,0-8.1c0.1-5.1,1.4-6.8,6.3-8.2c2.1-0.6,4.4-0.9,6.4-1.6c6.7-2.4,12.9-1,18.7,2.5
		c6.6,4,11.2,9.4,12.5,17.3c0.5,3.2-0.4,6.2-1.8,8.9c-4.7,9.2-11.7,15.7-22.2,17.8c-1.9,0.4-3.8,0.6-5.3,2.1
		c4,3.6,10.9,3.3,14.5,0.8c3.7-2.6,6.8-5.6,9.8-8.9c2.8-3.1,5.4-6.4,8.1-9.5c0.4-0.5,0.6-1.1,1.5-1
		C573.7,404.4,573.3,406.4,573.6,408.7z"/>
	<path class="st1" d="M459.7,414.7c8.6,3.5,17.1-0.7,20.7-8.3c5.2-10.9,5.4-21.8-1.6-32.2c-1-1.5-2.2-2.9-2.6-4.8
		c2.1-1.2,4.4-0.9,6.5-1.1c6.5-0.7,12.9-1.4,19.5-1.2c8.4,0.2,16,7.3,16.8,15.7c0.3,3.8,0.2,7.6-0.9,11.3c-1.1,3.6-3.4,6.2-6.8,7.8
		c-3,1.4-3.8,1.2-4.9-1.9c-3.2-8.5-6.3-17-9.5-25.6c-0.3-0.8-0.6-1.6-0.9-2.4c-0.4-1.2-1.1-1.9-2.5-1.4c-1.3,0.4-2.2,0.9-1.9,2.6
		c0.6,3.3,1.4,6.4,3.2,9.3c3.5,5.5,5.8,11.4,5.8,18c0,3.3-0.1,6.6-1,9.8c-2.7,8.9-6.5,17.3-13.9,23.4c-7.7,6.3-16.8,6.9-25.4,1.9
		c-4.2-2.4-7.7-5.7-10.6-9.5c-7.3-9.9-15.7-18.9-24.1-27.9c-1.4-1.6-2.6-3.2-3.1-5.3c-0.4-1.5,0-2.3,1.5-2.8
		c5.2-1.6,9.7-0.2,13.8,2.9c1.6,1.2,2.7,2.9,3.7,4.6C445.8,405,452.4,410,459.7,414.7z"/>
	<path class="st1" d="M140.1,322c15.9-2.6,33.7,4.4,38.3,24.4c2.7,11.6,4.2,23.4,5.9,35.2c0.1,0.9,0.1,1.7,0.3,2.6
		c1.5,5.1-0.1,9.4-2.8,13.6c-1.9,2.9-3.9,5.6-6.7,7.8c-3.7,2.9-6.4,1.9-8.4-2.4c-1.1-2.5-1.1-5.3-1.5-7.9c-1.3-8-2.2-16.1-3.7-24
		c-1.6-8.3-4.9-15.9-9.8-22.8c-3.4-4.8-8.2-6.1-13.6-3.8c-4.4,1.9-8.1,5.1-12,7.8c-3,2.1-3.7,1.9-4.3-1.9c-0.3-1.8-0.4-3.7,0-5.5
		C123.9,334.4,129.5,326.3,140.1,322z"/>
	<path class="st1" d="M446.4,395.2c-2-3.4-2-4.2,0.4-6.7c6-6.3,7.7-15.9,4-23.8c-0.7-1.5-1.6-2.8-2.8-3.9c-1.1-1-2.4-1.6-3.6-0.7
		c-1.1,0.8-1.6,2.2-1.1,3.6c0.4,1.3,1,2.5,1.7,3.7c1.4,2.2,2.5,4.6,2.9,7.1c1.1,5.9-2.5,10.2-8.4,10.4c-3.7,0.1-7.3,0-11-0.9
		c-4.9-1.2-7.6-4.2-8.4-9.1c-0.4-2.4-0.4-4.9-0.2-7.4c0.4-4.8,0.9-9.5,1.6-14.3c0.4-3.1,2-4.7,5.2-4.7c5.5,0,10.4-1.4,15.2-3.9
		c2.7-1.4,4.4-1,6.1,1.4c6.1,8.4,13.4,15.7,20.3,23.3c5.9,6.6,9.9,14,10.7,23c0.2,2.4,0,4.6-1.6,6.6c-2.1,2.7-4,5.6-6.1,8.3
		c-2.9,3.7-6.7,4.2-10.5,1.3c-2.5-1.8-4.8-3.8-7-6.1C451.4,400.3,448.9,397.9,446.4,395.2z"/>
	<path class="st1" d="M328.1,170.2c5.9,1.3,11.6,2.5,17.1,4.4c1.5,0.5,3,1,4.4,1.9c1.9,1.4,2.1,2.4,0.8,4.3c-0.8,1.1-1.8,2-2.9,2.9
		c-2.2,1.7-4.4,3.5-6.6,5.3c-2.3,1.9-5,2.3-7.6,1.6c-12.5-3.6-25.6-4.8-38.1-8.7c-7-2.2-13.5-5.2-18.8-10.4
		c-5.2-5.2-7.7-11.5-8.7-18.7c-1.2-8.5,1-16.1,6.8-22.4c4.8-5.2,10.8-6.5,17.5-4.8c1.7,0.4,3.3,0.9,4.9,1.9c-0.6,1.5-2,1.8-3,2.6
		c-6.1,4.6-8.1,10-6.1,17.5c2.5,9.2,8.3,15.4,17.3,18.7c3.8,1.4,7.7,2.3,11.9,2.2C320.6,168.4,324.2,169.5,328.1,170.2z"/>
	<path class="st1" d="M645.5,421.5c-6.1,5.4-12.8,5.8-19.8,3c-6.5-2.5-12-6.7-17.4-11c-6-4.8-10.9-10.7-14.8-17.2
		c-4.3-7.2-9.8-13.5-15.1-20c-1.6-1.9-3.1-3.8-4.7-5.7c-1-1.1-1-2.1,0-3.2c2-2.3,3.6-4.9,5.4-7.5c2.7-4,6-4.4,9.5-1
		c4.4,4.2,8.2,8.8,12.1,13.4c5.9,6.8,11.4,13.8,16.1,21.5c2.4,3.9,5.4,7.3,9.5,9.6c2.3,1.3,4.7,2,7.3,2.4c2.6,0.5,4.4-0.3,5.6-2.4
		c1.9-3.3,3.8-6.6,5.7-9.9c3.2,1.9,5.9,7.3,6.3,11.9C651.7,411.6,649.7,416.8,645.5,421.5z"/>
	<path class="st1" d="M296,386c2-1.2,3.8-2.3,5.7-3.3c1-0.6,1.8-0.6,2.3,0.7c1.3,2.8,2.3,5.7,2.7,8.8c0.3,2.8-0.7,5.1-3,6.7
		c-6.2,4.4-13,7.8-20.7,8c-12,0.3-24.8-7-28.2-21.4c-0.4-1.8-0.4-3.7-0.2-5.5c0.9-6.4,0.2-12.8,0.6-19.1c0.4-5.6,0.8-11.3,1.5-16.8
		c0.4-3.1,2.1-5.5,4.3-7.5c1.8-1.7,3.9-3,6-4.3c2.2-1.4,4.5-2.3,6.8-0.6c2.5,1.8,3.8,4.3,3.2,7.4c-0.7,3.5-1.6,6.9-2.5,10.4
		c-1.1,4.7-2.3,9.3-3.4,14c-0.8,3.3-0.8,6.6-0.4,9.9c1.1,10.6,11.2,16.9,21.6,14.2C293.5,387.2,294.6,386.6,296,386z"/>
	<path class="st1" d="M207.8,387.7c-4,15.1-12.8,26.8-23.9,36.8c-8.4,7.6-14.1,16.6-17.2,27.4c-0.3,1.2-0.7,2.4-1.2,3.5
		c-0.9,2-1.6,2.2-3.3,0.7c-2.1-1.9-3.7-4.3-4.5-7.1c-2-7-0.8-13.7,1.9-20.1c3-7.1,8.2-12.5,14.5-16.7c4-2.7,7.8-5.5,10.9-9.3
		c4.6-5.7,6.8-12.2,7.1-19.4c0.1-2.7-0.5-5.4-0.9-8c-1.4-9.3,2.4-16.2,10.9-20c1.8-0.8,2.7-0.4,3.5,1.2c2,4,3.4,8.1,3.9,12.6
		C210.2,375.4,209.3,381.4,207.8,387.7z"/>
	<path class="st1" d="M331.6,346.1c-2.6-3.6-1.6-7.6-2.4-11.3c-0.2-1.1-0.2-2.2-0.3-3.3c-0.9-6.3-4.1-11-10.3-13.2
		c-3.2-1.2-6.5-2.4-9.7-3.4c-2.8-0.9-5.4-2.3-7.8-4.1c-5.6-4-3.4-9.1,1.4-11c3.4-1.4,7-2.5,10.6-2.8c11.4-1.2,20.9,2.9,29.1,10.5
		c5.6,5.2,9.7,11.4,11.5,18.9c1,4,1.4,7.9,0.5,12c-2.1,10.2-10.4,14.3-19.7,9.6C333.6,347.6,332.7,346.9,331.6,346.1z"/>
	<path class="st1" d="M424.6,216.9c1.2,3.1,3.4,4.7,6.3,5.6c2.2,0.7,4.5,1.1,6.8,1.5c1.3,0.2,2.6,0.3,4.2,1.3
		c-15.9,21.9-37.7,34.1-63.2,40.6c-0.8-1.3-0.2-2.1,0.1-2.8c2.4-6.7,4.9-13.4,7.3-20.1c0.8-2.1,2.1-3.8,4-5.1
		c9.9-7.3,19.8-14.6,29.6-22c1.1-0.8,2-1.8,3.4-2.1C424.2,214.4,424.1,215.7,424.6,216.9z"/>
	<path class="st1" d="M362.4,339.3c0.9-3,2-5.6,3.4-8c1.4-2.4,3.4-4.2,5.9-5.3c1.9-0.8,2.5-0.5,2.8,1.4c0.4,2.3,0.8,4.6,0.7,7
		c-0.5,11.7-4.3,22.2-12.9,30.4c-5.8,5.5-12.7,8.1-20.7,8.6c-11.2,0.6-19.6-4.3-26.5-12.7c-3.8-4.7-6.7-10-9.3-15.5
		c-0.4-0.9-1.1-1.9-0.6-3.5c6,1.7,12.2,2.6,17.5,6.2c7,4.7,14.7,6.6,23.1,6.1c7.5-0.4,12.4-4.1,15.1-11
		C361.5,341.9,361.9,340.7,362.4,339.3z"/>
	<path class="st1" d="M442.1,247.5c9.1,0.2,17.4-1.8,25.4-5c0.8-0.3,1.6-0.6,2.4-1c1.4-0.7,2.3-0.4,2.9,1.1c1.8,5,3.8,9.8,5.1,15
		c0.8,3.3-0.5,6.5-3.5,8.1c-7.7,4.1-15.8,6.7-24.5,7.2c-6.3,0.3-12.5-0.1-18.6-1.7c-7-1.9-9.4-5.8-7.7-12.9c0.5-2.3,1-4.5,1.9-6.7
		c1.4-3.4,3.9-4.9,7.5-4.7C435.9,246.9,438.7,247.7,442.1,247.5z"/>
	<path class="st1" d="M507.8,284.5c-1.1-4.6-2.1-8.9-3.3-13.2c-0.5-1.7-0.1-2.7,1.7-2.9c3.4-0.4,6.8-0.7,10.2-1.1
		c1.3-0.2,1.8,0.4,1.8,1.6c0,2.5-0.1,4.9,0.3,7.3c1,7.3,4.2,13.6,9.2,18.9c2.1,2.3,3,4.9,3.2,8c0.8,14.8-12.2,29.3-31.5,26
		c-5-0.9-9.6-2.7-13.7-5.9c1.8-2.2,6.2-5,10.5-6.6c2.1-0.7,4.2-1.5,6-2.7c6.2-4,9.4-9.4,8.1-17.1C509.6,293,508.8,288.9,507.8,284.5
		z"/>
	<path class="st1" d="M275,412.7c-3.6-0.3-7.2-1-10.8-1.6c-4.6-0.7-9.3-0.7-13.9,0.3c-7.1,1.5-12.1,5.6-15.5,11.9
		c-2.6,4.7-3.8,9.8-4.6,15.1c-0.1,0.9,0,2-0.7,2.8c-6-1.1-10.2-6.7-8.6-13.5c0.7-3,1.7-5.9,2.7-8.8c1-3,0.6-5.8-0.4-8.7
		c-0.4-1.1-1.1-1.6-2.2-1.5c-1.1,0.1-1.4,0.9-1.5,1.8c-0.9,5.2-1.8,10.4-2.7,15.6c-0.4,2.3-0.7,4.6-1.2,6.9
		c-0.6,3.1-1.2,3.4-4.3,2.4c-5.4-1.7-8.9-5.5-10.7-10.8c-1.1-3.4-1-6.8,0.8-10c1.2-2.2,2.4-4.3,3.5-6.5c1-2.1,2.7-2.8,4.9-2.3
		c2.4,0.5,4.9,0.5,7.3,0.7c8.4,0.8,16.4-0.7,23.7-5c3.1-1.8,5.7-4.2,8.4-6.7c2.1,1.8,4.1,3.5,6.1,5.2c4.7,4.2,9.9,7.6,15.7,10.2
		C272.4,410.9,273.7,411.7,275,412.7z"/>
	<path class="st1" d="M377.6,272.1c5.1-0.6,9.7-2,14.3-3c3.2-0.7,3.4-0.5,2.5,2.4c-3.4,12.2-6.7,24.4-10.6,36.4
		c-3.1,9.3-10.1,14.1-18.7,17.4c-1.1,0.4-1.9,0.2-2.5-0.8c-3.8-7.1-6.6-14.3-3.3-22.5c0.9-2.2,2.1-4.2,3.6-6
		c2.5-2.9,3.9-6.2,4.6-9.9c0.4-1.9,0.9-3.8,1.3-5.7C370.1,276,372.7,273.1,377.6,272.1z"/>
	<path class="st1" d="M358.2,239.1c0.2-0.8,0.4-1.2,0.4-1.7c1-5.9,4.4-10.3,9-13.9c2.8-2.2,5.5-4.6,8.1-6.9c1.1-1,1.9-0.9,2.6,0.4
		c0.6,1.2,1.2,2.4,1.7,3.7c2.4,6.4,2.6,13,1.2,19.6c-3.1,15.1-10.8,27.2-23.4,36.2c-2.1,1.5-4.3,2.8-7.1,3.7
		c-0.3-6.2-1.5-11.9-0.9-17.8c0.2-1.8,0.8-3.7,1.9-5.1c3.3-4.4,4.8-9.4,5.6-14.6C357.5,241.5,357.8,240.4,358.2,239.1z"/>
	<path class="st1" d="M500.8,346.8c-0.7-3-1.5-5.7-1.8-8.6c-0.2-1.9,0.4-2.7,2.3-2.9c4.9-0.6,9.7-1.3,14.6-2c2-0.3,3,0.4,3.4,2.3
		c0.7,3,1.7,5.9,3.2,8.6c3.1,5.7,7.4,7.6,13.8,6.2c3.4-0.7,6.4-2.4,9.4-4.1c2.4-1.3,4.8-2.4,7.4-3.4c0.7-0.3,1.3-0.7,2.3-0.3
		c0.3,1.9-0.4,3.8-1.3,5.4c-4.8,8.9-11.5,16.1-20.9,19.9c-8.1,3.3-15.7,1-22.2-4.6C505.8,359.1,502.8,353.4,500.8,346.8z"/>
	<path class="st1" d="M503.7,304.1c-3.6,4.2-7.5,7.4-12.7,8.8c-1.8,0.5-3.3,1.5-4.9,2.5c-6.2,4.2-8,9.1-5.7,16.2
		c0.9,3,2.4,5.6,4.1,8.2c0.3,0.4,0.6,0.8,0.8,1.2c0.6,1.4,2.3,2.9,1.5,4.3c-1.1,1.8-3.4,1.2-5.1,0.9c-8.7-1.5-14.8-6.2-17.7-14.7
		c-6.4-18.9,10.7-38.1,30.3-35.8c2.2,0.3,4.4,0.6,6.5,1.2C505.3,298.2,506,299.8,503.7,304.1z"/>
	<path class="st1" d="M427,275.4c4,1.4,7.9,1.8,11.9,1.9c1.1,0,2.2-0.1,3.3,0c1.9,0.2,2.1,0.5,1.5,2.4c-0.6,1.7-1.3,3.5-2.2,5.1
		c-2.7,4.9-6.5,8.9-11.6,11.5c-7.3,3.7-14.2,2.6-20.3-2.5c-7-5.7-9.8-13.6-10.2-22.5c-0.1-3.2,1.2-5.8,3.7-7.7
		c4.2-3.2,9.1-5.3,14.3-7.1c0.7,2,0.4,3.9,0.5,5.6C418.2,268.2,420.6,273,427,275.4z"/>
	<path class="st1" d="M204.7,327c-2.6-4.3-6.3-7.1-9.7-10c0.4-1,1-1.2,1.5-1.3c10.3-2.6,20.3-0.7,27.6,8.4
		c4.5,5.6,7.4,12.1,7.3,19.3c-0.2,12.1-5,22.1-15.3,29.1c-0.3,0.2-0.7,0.2-1.2,0.3c-1.4-3.4-1.6-6.9-2.3-10.4
		c-1.4-6.9-2.4-13.8-3.2-20.7C208.8,336.5,207.4,331.7,204.7,327z"/>
	<path class="st1" d="M307.3,375.6c-0.7-2.3-1.2-4.3-1.8-6.3c-1.1-3.1-0.8-6,0.6-9.2c2.9,1.6,5,4,7.4,6c3.6,3,7.1,6.1,11.2,8.4
		c5.5,3.2,11.5,4.1,17.8,3.4c3.2-0.4,6.3-0.6,9.5-1c1.5-0.2,2.2,0.5,2.6,1.9c1,3.6-0.1,7.3-3.1,9.6c-1.3,1-2.7,1.7-4.1,2.5
		c-2.4,1.3-4.6,2.9-6.2,5.1c-3.5,4.8-10.6,7.2-17.7,4.5c-6.2-2.3-10.6-6.4-12.5-13C309.9,383.6,308.6,379.8,307.3,375.6z"/>
	<path class="st1" d="M569.3,364.5c-1.9,2.6-3.7,4.9-5.4,7.3c-0.7,0.9-1.5,1.7-2.8,1.2c-5.2-2.1-10.4-4.3-15.8-6.6
		c2.4-2.8,4.4-5.3,7.3-6.8c6.3-3.1,10.3-12.6,8.2-20.4c-0.4-1.6-1.3-2.9-2.5-4c-3-2.8-6.2-5.2-9.6-7.4c-0.9-0.6-2.1-0.8-2.5-2.3
		c1.7-1.7,4-2.2,6.2-2.7c5.9-1.5,11.7-1.2,17.1,2c8.4,4.9,11.3,11.3,9.6,22.3c-0.6,3.5-2.1,6.8-4.3,9.7
		C573,359.3,571.2,361.8,569.3,364.5z"/>
	<path class="st1" d="M627.2,446.2c-2.4,1-4.4,0.6-6.3-0.3c-6.3-2.7-12.7-5.4-18.9-8.3c-6.4-3.1-6.9-4.6-4.6-11.2
		c0.8-2.2,1.9-4.3,2.8-6.4c0.6-1.4,1.5-1.6,3-1.3c2.3,0.5,4.5,1.3,6.5,2.6c3,1.9,6,3.8,9.1,5.6c5.8,3.5,12,4.9,18.7,3.2
		c3.7-0.9,7.4-1.7,11.1-2.7c1.8-0.5,2.7,0.1,3.6,1.6c2.3,4,1.9,8.5-1.4,11.9c-5.3,5.5-11.5,10-17.8,14.3c-1.9,1.3-3.9,0.8-6.1,0.2
		c0.7-2.8,2.7-4,4.6-5.4c3.1-2.3,6-4.7,8.1-7.9c0.6-0.9,1.1-1.9,1.4-3c0.5-1.4-0.4-2.1-1.3-2.8c-1-0.7-1.6,0.1-2.2,0.7
		c-1.7,1.6-3.3,3.3-4.9,5C631.1,443.7,629.5,445.2,627.2,446.2z"/>
	<path class="st1" d="M441.3,293.4c2.8-1.8,4.6-4.1,5.6-7c3.1-9.4,9.4-11.4,17.7-11.3c10,0.1,18.2,4.4,25,11.7
		c0.3,0.4,0.7,0.7,1,1.1c1.2,1.7,0.5,3.2-1.5,3.3c-1,0.1-2-0.1-2.9-0.1c-7.7-0.1-15.5-0.5-23,1.9c-8.2,2.6-15.1,7.1-21.4,12.7
		c-2.1,1.9-4.1,3.9-6.6,5.3c-1.8,1.1-3.7,1.9-5.8,2.1c-2.2,0.2-4.1-0.3-5.8-1.8c-3.2-2.9-3.2-4.7,0.5-6.9
		C429.7,300.9,435.5,297.4,441.3,293.4z"/>
	<path class="st1" d="M386.7,303.8c2.4-9,3.8-18,7-26.6c1.5,0.7,1.2,1.7,1.4,2.4c2,8.7,6.6,15.8,14.2,20.3c6,3.5,9.2,14.1,6.5,21.8
		c-2,5.8-9.1,8.3-14.2,4.8c-5.2-3.5-9.9-7.7-14.4-12.1c-1.7-1.7-2.3-3.6-1.5-6C386.2,307,386.4,305.5,386.7,303.8z"/>
	<path class="st1" d="M190.9,463.7c-1.8,10.2-6.8,17.9-15.2,23.3c-1.6,1-3.2,1.8-5,2.3c-7.8,2.4-13.3-2.4-15.8-8.9
		c-0.5-1.2,0.1-1.9,1.3-2.2c1.7-0.4,3.3-1,4.8-1.8c4.4-2.2,7.2-5.8,8.6-10.5c0.6-2.1,1.2-4.3,1.3-6.5c0.3-6.3,2.7-11.9,4.9-17.7
		c0.2-0.4,0.5-0.8,0.7-1.2c1.9,0.9,2.8,2.6,4,3.9c2.3,2.6,4.3,5.4,6.7,7.8C190.2,455.5,191.6,459.1,190.9,463.7z"/>
	<path class="st1" d="M286.8,255.7c2,7.3,6.5,12.7,12.1,17.1c4.9,3.8,8.7,8.7,12.4,13.5c0.4,0.6,0.8,1.2,1.1,1.9
		c0.7,1.7,0.4,3-1.4,3.6c-3.5,1.2-7.1,2.1-10.6,2.9c-1.7,0.4-1.9-1.2-2.4-2.3c-2.7-6.8-7-12.4-12.2-17.3c-3.6-3.4-7.4-6.4-11.4-9.3
		c-2.3-1.6-4.6-3.3-6.8-5c-1.2-0.9-2.2-1.9-3.1-3.1c-3.2-4.5-1.3-9.8,4.2-10.6c4.7-0.7,9.5-0.8,14.3-1.1c1.8-0.1,2.7,0.6,2.7,2.5
		C285.6,250.9,286.1,253.2,286.8,255.7z"/>
	<path class="st1" d="M213.5,461.4c-1.9,0.4-3.5-0.1-4.9-0.6c-10.9-4.3-19.1-11.8-25.4-21.5c-1.9-3-1.7-5.2,0.8-7.6
		c2.5-2.4,5.1-4.5,7.7-6.8c1.2-1.1,2.2-0.8,3,0.5c0.7,1.2,1.5,2.2,2.2,3.4c3.6,6.1,8.9,10,15.5,12.3c2.4,0.8,5,1.4,7.2,2.6
		c1.7,1,3.4,2,4.8,3.4c3.8,3.9,3.4,7.4-1.2,10.3C220.3,459.2,217.2,460.8,213.5,461.4z"/>
	<path class="st1" d="M451.7,313.4c-4.4,4-6.2,9-6.6,14.6c-0.2,3.3-1.1,6.3-3,9c-3.7,5.3-10.2,7.9-16.5,6.5c-3.9-0.8-6-3.4-5.9-7.2
		c0.1-3.8,0.5-7.6,1-11.3c0.3-2.5,1.5-4.2,3.9-5.3c3.2-1.5,6.5-2.9,9.8-4.2c4-1.6,7.7-3.6,11.1-6.4c5.7-4.6,11.7-8.5,19-10.1
		c1.1-0.2,2.2-0.4,3.3-0.5c0.5,0,0.9,0.1,2,0.3C464,304.2,457.6,308.3,451.7,313.4z"/>
	<path class="st1" d="M451.2,322.7c0.7-2.2,1.7-3.8,3.5-4.9c1.9-1.2,2.7-0.8,2.7,1.4c0,3.3,0.2,6.6,1,9.9c1.9,7.6,5.4,14.2,12,18.8
		c6.5,4.5,13.5,5.5,21,2.9c0.8-0.3,1.6-0.6,2.4-0.9c1.1-0.5,1.5,0.3,1.9,1.1c1.2,2.4,2.3,4.9,3.5,7.3c0.6,1.2,0.2,1.9-0.9,2.3
		c-2.2,0.7-4.4,1.6-6.6,2.2c-6.2,1.7-12.5,2.4-18.8,0.3c-11.8-4-19.1-12-21.6-24.3C450,333.5,449.8,328.2,451.2,322.7z"/>
	<path class="st1" d="M299.8,336c-10.1-3-19.4-7-28.9-10.9c1.1-1.3,2.3-1.6,3.5-2.1c5.3-2.3,10.7-4.5,15.9-6.8
		c2.6-1.2,5.1-1.4,7.8-0.3c5.3,2,10.6,3.9,16,5.6c4.8,1.6,7.1,5.4,8.8,9.8c1,2.5,0.2,3.8-2.2,5.1c-1.9,1-3.9,1.5-6,1.5
		C309.8,337.8,304.9,337.2,299.8,336z"/>
	<path class="st1" d="M444.6,182.6c0-4.9,1.5-9.4,2.2-14.2c0.7-4.5,0.9-8.8-1.1-13c-1.3-2.8-0.9-5.5,0.9-8c1.6-2.3,3.6-4.4,5.6-6.4
		c1.7-1.6,3.7-1.2,5.6-0.8c3,0.7,5.3,2.6,7.2,4.9c2,2.5,3.9,5.1,5.6,7.8c2.1,3.2,1.7,5.9-0.9,8.6c-6,6.2-12.8,11.5-19.4,17
		C448.4,179.9,446.7,181.3,444.6,182.6z"/>
	<path class="st1" d="M280.9,367.2c-0.1-8.4,4-14.6,8.8-20.6c1.7-2.2,4-4,6.2-6.2c2.7,3.5,5.2,6.8,6.4,10.8c0.7,2.2,0.2,4.4-0.8,6.5
		c-2,3.9-2.1,7.9-0.9,12.1c1.3,4.9,0.1,7.3-4.3,9.7c-1.4,0.8-2.8,1.5-4.3,2.2c-3.1,1.5-5.1,1-7-1.8
		C282.5,376.2,280.8,372.1,280.9,367.2z"/>
	<path class="st1" d="M236.1,383.9c5.1-3.7,8.5-8.7,13.3-13.1c1.4,6,0.7,11.1-1.9,15.9c-6.1,11.1-19.2,17.1-31.6,14.5
		c-1-0.2-1.9-0.4-2.8-0.9c-2-1-2.6-2.3-2-4.5c1.3-4.5,2.7-9,4.5-13.3c1-2.4,2.1-2.8,4.7-2.2c2.4,0.5,4.2,2,6.2,3.2
		C229.5,385.1,232.6,385.9,236.1,383.9z"/>
	<path class="st1" d="M235.3,332c5.4,2.9,9.9,6.9,14.2,11.4c1.5,1.6,2.1,3.6,2.1,5.7c0.1,7.7-2.6,14.4-7.6,20.2
		c-2.7,3.1-5.8,5.7-9.2,7.9c-2,1.3-4,1.8-6.2,1c-1.7-0.6-3.7-0.4-5.2-1.9c1.1-2.7,2.9-4.9,4.4-7.2c3-5,5.7-10,7.4-15.6
		c1.9-5.9,1.7-11.8,0.5-17.8C235.5,334.6,235.3,333.5,235.3,332z"/>
	<path class="st2" d="M320.5,147.2c-3.1,3.4-6,6.6-8.9,9.7c-2.6,2.7-5,2.9-8.2,0.9c-7.2-4.7-8.4-17-2.4-23.2c1-1.1,1.9-1.4,3.1-0.3
		c0.7,0.6,1.6,1.2,2.4,1.7c4.6,3,7.2,2.7,11.1-1c2.5-2.4,4.6-5.1,6.7-7.9c2.5-3.2,3.1-3.2,5.9-0.4c2.6,2.6,2.9,5.5,0.5,8.6
		C327.5,139.3,324,143.1,320.5,147.2z"/>
	<path class="st1" d="M142.4,481.3c-2.8-6.9-2.9-13.6-0.9-20.5c1-3.2,2.7-6.1,5.2-8.3c2.8-2.4,5.1-2.3,7.1,0.7
		c2.5,3.6,4.9,7.4,7.2,11.2c1.6,2.7,1.4,3.6-0.4,5.2c-2.8,2.5-5.5,3.1-7.6,1.6c-1.9-1.3-3.1-3.1-3.8-5.3c-0.4-1.3-0.8-2.6-1.2-3.9
		c-0.3-1.1-1-1.6-2.2-1.5c-1.1,0.1-1.5,0.8-1.5,1.8c-0.1,2.7-0.4,5.4,0.4,8c1.7,5.3,3.8,10.4,6,15.5c3.3,7.3,10.9,10.8,19.1,8.9
		c2.8-0.6,5.4-1.7,7.9-3c1.1-0.6,2.2-1.1,3.3-1.6c1.1-0.4,1.8,0.1,1.5,1.2c-0.5,2-1.2,4-1.8,6c-0.4,1.4-1.5,1.9-2.8,2
		c-5.8,0.1-11.5,0.2-17.2-1.1c-4.7-1.1-8.6-3.6-11.8-7.2C146.6,488,144.3,485,142.4,481.3z"/>
	<path class="st1" d="M406.4,213.3c-4.8-0.5-8.7-1.8-11.8-4.2c-1-0.8-1.1-1.3-0.4-2.2c3.8-4.6,8.3-8.8,14.8-11.7
		c0.5-0.2,1-0.5,1.5-0.7c5-1.8,6.3-2.3,8.8,2.3c1,1.7,0.6,3.5,0.2,5.3c-0.4,2.1-1,4.2-1.6,6.2C416.6,212.8,413.6,214.2,406.4,213.3z
		"/>
	<path class="st1" d="M459.3,236.9c-6,3.9-12.4,5.2-19,6.2c-1.6,0.2-2.8,0.1-3.7-1.6c-0.8-1.6,0.3-2.2,1.1-3.1
		c5.7-6.3,11.6-12.4,17.6-18.4c2.4-2.5,5-3.2,8.3-2.3c3.4,0.9,6.5,2.3,8.9,4.9c1.6,1.7,1.7,3.1,0.3,4.9c-0.9,1.2-2,2.2-3.3,3
		C466.3,232.6,462.9,234.6,459.3,236.9z"/>
	<path class="st1" d="M315.9,214.2c-3.6-3.2-6.9-6.3-10.5-9.1c-4.6-3.6-5.7-8.7-6.5-14c-0.2-1.7,0.9-2.8,2.8-2.5
		c5,0.7,9.9,1.5,14.8,3c1.8,0.5,2.9,2,3.2,3.7c1.6,7.8,3,15.6,4.1,23.5c0,0.2-0.1,0.5-0.3,1.1C320.6,218.6,318.6,216.1,315.9,214.2z
		"/>
	<path class="st1" d="M178.8,519.1c-0.9,6.6-1.7,13-3.3,19.1c-0.3,1.1-0.3,2.5-2,2.6c-1.7,0.1-2.3-0.9-2.9-2.2c-2-5-4.1-10-6.1-15
		c-0.9-2.4-0.9-2.4,1.6-3.4c0.3-0.1,0.7-0.3,1-0.4c2.5-1.1,2.6-1.1,1.4-3.7c-1.4-3.1-2.9-6.2-4.3-9.4c-1-2.3-0.7-2.6,1.6-2.7
		c3.2-0.1,6.4-0.2,9.5,0.6c4.3,1.1,5.9,3.4,5.1,7.8C180.1,514.6,179.4,516.7,178.8,519.1z"/>
	<path class="st1" d="M542.5,333.3c-0.1,4.4-1.3,8-4.4,10.8c-1.4,1.3-2.8,1.7-4.7,1.1c-8.8-2.6-11.9-13.5-5.6-20
		c1.7-1.8,3.2-3.7,4.6-5.7c2.1-2.9,2.4-2.9,4.7,0C540.3,323.4,542.2,327.9,542.5,333.3z"/>
	<path class="st1" d="M587.6,638.5c5.4-4.4,7.5-10,7.4-17.3c1.6,2.7,1.3,4.9,0.9,7c-0.6,2.9-1.7,5.6-2.6,8.4
		c-0.6,1.7-1.3,3.4-1.2,5.6c3.3-0.7,5.2-2.8,6.5-5.5c2.1-4.4,2.7-9.1,3-13.9c0.2-2.5,0.5-5,0.8-7.8c1.6,1,1.9,2.2,2.3,3.3
		c4,11.4-1.3,29.1-11,36.4c-0.5,0.4-1,0.7-1.5,1c-0.9,0.5-1.7,0.3-2.1-0.7c-1.7-4.1-3.4-8.2-4.7-12.4
		C584.9,640.8,586.1,639.6,587.6,638.5z"/>
	<path class="st1" d="M391.9,325.8c2,1.6,3.8,3.1,5.7,4.4c4,2.6,8.4,3.8,13.2,3.5c0.8-0.1,1.9-0.6,2,0.7c0.1,0.9-0.1,2-1.1,2.5
		c-0.9,0.4-1.9,0.6-2.8,0.8c-3.6,0.7-7.2,1.4-10.8,1.9c-5,0.6-9.5-0.6-13.5-3.6c-4.7-3.5-5.4-11.4-1.8-15.9c0.9-1.1,1.7-0.7,2.5,0
		C387.5,321.9,389.6,323.7,391.9,325.8z"/>
	<path class="st3" d="M500.9,290.8c-2-1-3.5-2.3-4.7-3.9c-4.7-6.6-10.7-11.5-18.6-13.8c-0.5-0.1-0.8-0.5-1.7-0.9
		c3.1-3,6.3-5.4,10.4-6.1c3.7-0.7,6.8,0.7,9.2,3.6c2.3,2.8,3.8,6,5.2,9.3c1.3,3,2.4,6.2,3.5,9.3c0.4,1.1,1.4,2.3,0.2,3.4
		C503.3,292.7,502.2,291.5,500.9,290.8z"/>
	<path class="st1" d="M345.8,303.2c-5.4-2.9-10.6-5.7-15.3-9.3c-3.8-2.9-4.4-7-5.2-11.2c1.5-0.3,2.2,0.6,3,1.1
		c3.7,2.5,7.6,3.7,12.1,3.6c6-0.1,7.8,1.4,9,7.3c0.5,2.5,0.7,5.1,1,7.6c0.1,0.8,0.2,1.7-0.3,2.6C348.5,305.1,347.3,304,345.8,303.2z
		"/>
	<path class="st1" d="M152.4,393.7c2.7,1.3,4.6,3.3,6.7,5c1.1,1,1.3,2,0.3,3.2c-2,2.5-3.9,5.1-6.4,7.1c-3,2.3-5,2.3-7.8-0.2
		c-2-1.7-3.4-3.9-4.9-5.9c-0.7-1-0.9-2,0.1-2.9c2-2,3.9-4.1,6.3-5.6C148.4,393.1,150.2,392.5,152.4,393.7z"/>
	<path class="st1" d="M579.5,321.2c0.6-1.9,1.7-3,3.2-3.7c4.6-2.4,5.8-1.9,6.9,3.1c1.4,6.3,3,12.6,4.4,18.9c0.3,1.1,1,2.3,0.4,3.6
		c-1.4,0.2-2.3-0.8-3.2-1.5c-4.5-3.5-7.9-8-10.6-13C579.5,326.4,578.9,324.1,579.5,321.2z"/>
	<path class="st1" d="M404.1,217.4c2.3,2,2.4,2.8,0.6,4c-4.9,3.4-10,6.8-15,10.1c-1.2,0.8-2,0.7-2.3-0.9c-0.9-4.7-1.7-9.4-2.7-14.1
		c-0.3-1.7,0.5-1.8,1.9-1.6C392.4,215.7,398.1,216.5,404.1,217.4z"/>
	<path class="st3" d="M625,330.8c6,2.9,11.6,6,16.3,10.3c3.4,3.1,3.6,4.7,1.2,8.7c-1.2,2-2.4,4-4.3,6c-4.9-8-9.1-16.1-13.5-24.2
		C624.7,331.2,624.7,331,625,330.8z"/>
	<path class="st1" d="M148.5,418.2c1-1.7,1.6-0.8,2.3,0c3,3.7,3.5,8,3,12.5c-0.3,3-0.9,6-1.4,9.1c-0.1,1-0.4,1.9-1,2.7
		c-0.9,1.2-2,1.3-3.2,0.4c-1.1-0.9-1.7-2.1-2.1-3.4c-1.8-4.6-2.1-9.3-0.7-14C146.2,423,147.1,420.6,148.5,418.2z"/>
	<path class="st1" d="M651,458c-1-1.7-1.8-3.2-2.7-4.7c-0.8-1.3-0.6-2.3,0.6-3.2c1.9-1.4,3.7-2.8,5.6-4.2c1.1-0.8,1.9-0.7,2.9,0.3
		c5.4,6,3.8,16.3-0.8,20.6C654.3,464.3,653,461.1,651,458z"/>
	<path class="st1" d="M543.9,317.6c-4.1-2.3-6.6-5.7-7.7-10.1c-0.2-0.7-0.3-1.4-0.3-2.2c-0.1-5,0.9-5.8,5.7-4.8
		c5.8,1.3,7.6,3.7,6.7,9.6C547.9,313.1,546.9,315.8,543.9,317.6z"/>
	<path class="st1" d="M311.9,267.7c1.7,0.2,2.8,0.8,3.3,2.2c2.2,5.7,3.9,11.6,5.6,17.5c0.2,0.6,0.2,1.2-0.3,1.7
		c-0.7,0.2-1.1-0.3-1.5-0.7c-3.9-4.4-7.6-9-11.1-13.7c-0.1-0.2-0.3-0.4-0.4-0.6c-1.8-3-0.8-5.4,2.6-6.2
		C310.6,267.7,311.1,267.7,311.9,267.7z"/>
	<path class="st1" d="M192.6,473.8c1.2-3.2,1.9-6.4,4.3-8.7c1.3-1.3,2.3-1.4,3.8-0.2c2.7,2.1,3,5,2.7,8c-0.2,2.8-2,4.4-4.6,5.2
		c-2.7,0.9-5.3,1.8-8.4,2.9C190.8,478.3,192,476.3,192.6,473.8z"/>
	<path class="st1" d="M619.8,589.9c1.1-0.4,1.9-0.7,2.8-0.5c1.2,0.3,1.9,1,1.3,2.4c-0.2,0.4-0.4,0.9-0.6,1.3
		c-3,6.2-6.1,12.3-9.1,18.5c-0.3,0.7-0.7,1.3-1,1.9c-0.4,0.7-1.1,0.9-1.9,0.6c-0.9-0.4-1.4-0.9-1.1-2c0.9-2.7,1.7-5.4,2.6-8
		c1.2-3.6,2.5-7.2,3.9-10.7C617.2,592,617.7,590.4,619.8,589.9z"/>
	<path class="st3" d="M571.9,319.6c-5.8-1.1-11.4-2.1-16.9-3.1c-1-0.2-2.1-0.3-2.2-1.6c-0.1-1.6-0.1-3.2,0.5-4.7
		c0.2-0.4,0.9-0.3,1.3-0.1c1.7,0.8,3.4,1.5,5,2.3c3.5,1.6,6.9,3.2,10.3,4.8c1.4,0.7,3,1.1,4.1,2.4
		C573.3,320,572.7,319.8,571.9,319.6z"/>
	<path class="st1" d="M565,698.7c-1.8,4.4-5,7.9-7.8,11.7c-1.1,1.4-2.4,1.1-2.9-0.6c-1.4-4.3,0.2-7.8,4.4-9.5
		C560.6,699.5,562.6,698.9,565,698.7z"/>
	<path class="st3" d="M286.3,196.1c1.6-2.8,3.1-5.3,4.7-7.8c0.3-0.5,0.8-1.1,1.5-0.8c0.4,0.2,0.7,0.7,0.8,1.1c0.4,2.7,0.8,5.3,1.1,8
		c0.2,1.4-0.6,2-1.9,2c-1.8,0-3.7,0.1-5.5,0C285,198.5,285.6,197.4,286.3,196.1z"/>
	<path class="st3" d="M342.6,249.5c-1.1-2.3-2.9-4-3.5-6.7c1.9,0.1,3,1.1,4.2,1.8c1.5,0.9,3,1.7,4.4,2.7c2.5,1.6,2.6,1.7,1.3,4.4
		c-0.6,1.3-1.1,2.7-2.3,3.9C344.9,253.8,344.1,251.6,342.6,249.5z"/>
	<path class="st3" d="M288.2,338.3c1.1,0.2,1.8,0.7,1.1,1.5c-2.3,2.7-4.7,5.2-7.2,7.8c-0.2,0.2-0.7,0.2-1,0.2
		c-0.5-0.2-0.7-0.7-0.6-1.2c0.9-2.7,1.6-5.4,2.8-7.9C284.4,336.6,286.3,338,288.2,338.3z"/>
	<path class="st3" d="M586.9,345.2c2,2.7,3.8,5.1,5.6,7.6c0.4,0.5,0.8,1,0.2,1.6c-0.5,0.5-1.1,0.3-1.7,0c-1.6-1-3.2-1.8-4.7-2.9
		c-2-1.5-2.5-4-1.5-6.3C585.4,344,586,344.1,586.9,345.2z"/>
	<path class="st3" d="M159.8,417.5c-1.3,0.8-2.4,0.9-2.1-0.6c0.7-3,1.7-6,3.4-8.8c2.6,2.8,2.8,4.3,1.1,6.8
		C161.6,415.8,160.8,416.5,159.8,417.5z"/>
	<path class="st4" d="M312.5,132.3c-1.4-0.8-3.1-1.2-3.1-2.6c0.1-1.5,2-1.6,3.2-2.1c1.4-0.6,2.7-1.5,4.7-1.5
		C316.5,128.9,316.4,131.8,312.5,132.3z"/>
	<path class="st3" d="M490,338.3c-1-1.9-2.5-3.4-2.9-5.4c4.9-0.1,6.4,2.1,5.6,8.4C491.2,341,491,339.5,490,338.3z"/>
	<path class="st5" d="M279.2,412.9c0.3,0,0.7,0,0.6,0.5c0,0-0.4-0.1-0.6-0.2C279.1,413,279.1,413,279.2,412.9z"/>
	<path class="st6" d="M239.2,331.8c-0.1-0.1-0.2-0.2-0.2-0.4c0.1,0,0.2,0,0.4,0.1C239.5,331.5,239.3,331.7,239.2,331.8z"/>
	<path class="st6" d="M448.4,182.8c-0.2,0.2-0.4,0.4-0.3-0.2C448.1,182.5,448.3,182.7,448.4,182.8z"/>
	<path class="st7" d="M569.2,698.7c0.1-0.2,0.3-0.5,0.2,0.1C569.3,698.8,569.3,698.8,569.2,698.7z"/>
	<path class="st7" d="M628.8,331.3c-0.3-0.3-0.6-0.8,0.4-0.5C629.2,331,629.1,331,628.8,331.3z"/>
	<path class="st8" d="M261.4,613.1c0,0,0.2-0.1,0.2-0.1S261.5,613.2,261.4,613.1C261.3,613.1,261.3,613.1,261.4,613.1z"/>
</g>
<path class="st8" d="M372.9,482.4c0.2-0.4,0.4-0.4,0.4,0.2C373.3,482.8,373,482.5,372.9,482.4z"/>
</svg>
