<?xml version="1.0" encoding="utf-8"?>
<!-- Generator: Adobe Illustrator 24.2.1, SVG Export Plug-In . SVG Version: 6.00 Build 0)  -->
<svg version="1.1" id="Layer_1" xmlns="http://www.w3.org/2000/svg" xmlns:xlink="http://www.w3.org/1999/xlink" x="0px" y="0px"
	 viewBox="0 0 851.5 3168" style="enable-background:new 0 0 851.5 3168;" xml:space="preserve">
<style type="text/css">
	.st0{fill:#664B92;}
	.st1{fill:#FFFFFF;}
	.st2{fill:#C39A6C;}
	.st3{fill:#C09A6B;}
	.st4{fill:#000301;}
	.st5{fill:#000201;}
	.st6{fill:#000603;}
	.st7{fill:#0B9143;}
</style>
<path d="M-1046.4,1207.3c0,232.6,0,464.8,0,697.1c-283.8,0-567.6,0-851.5,0c0-367.2,0-734.5,0-1101.8c283.8,0,567.6,0,851.5,0
	C-1046.4,937.2-1046.4,1072.1-1046.4,1207.3z"/>
<path class="st0" d="M650.5,1592.9c-1.8-1.1-3.4-2-5-2.9c-1-0.6-1.8-0.4-2.4,0.6c-2.3,4.1-4.7,8.3-7,12.4c-0.5,0.9-0.5,1.8-0.2,2.7
	c1.7,4.4,2.1,9,3.1,13.5c1,4.5,2.8,8.5,5.9,12c5.2,6,6.3,13.2,4.5,20.5c-1.3,5.3-0.6,10,1.4,14.8c1.7,3.9,3.3,7.9,4.9,11.9
	c3.9,10,3.1,19.7-2.1,29.1c-3.5,6.3-5.4,13-5.2,20.3c0.1,5.2,0.5,10.4-0.6,15.6c-0.9,4.4-2.5,8.4-5,12.1c-0.7,1-1.4,2.1-2.1,3.2
	c-2.6,3.8-4.3,8-4,12.7c0.4,8.1-1.8,15.8-4.3,23.4c-3.9,11.9-7.8,23.8-12.4,35.4c-1.7,4.3-3.8,8.4-6.6,12.2
	c-4,5.4-6.3,11.4-6.9,18.3c-0.8,9.5-5.1,17.2-12.6,23.1c-0.9,0.7-1.8,1.5-2.8,2.1c-2.8,1.8-4.5,4.4-5.2,7.5c-0.9,3.8-2.6,7-5.4,9.9
	c-3,3-5,6.9-7,10.8c-2.3,4.4-4.4,9-6.9,13.2c-3,5.1-6.8,9.4-11.9,12.4c-1.2,0.7-2.2,1.6-3.1,2.7c-3.1,4-6.6,7.8-10.2,11.4
	c-1.7,1.7-3.6,2.9-5.6,4.1c-6.4,4-13,7.5-19.9,10.7c-4.6,2.2-9.4,2.4-14.3,1.8c-3.6-0.4-7.2-0.1-10.7,0.4c-1.5,0.2-2.8,0.9-4,2
	c-12.1,10.5-33.8,8.5-44.3-6.5c-3.3-4.8-7.6-8.8-11.4-13.1c-1.4-1.6-1.6-1.6-3.7,0.1c-6.7,5.3-13.5,10.6-20.1,16.1
	c-2.1,1.7-4.3,2.5-6.9,2.9c-7.3,1-14.6,2.3-22,3.1c-10.7,1.1-19.9-1.7-27.8-9.1c-1.9-1.8-3.8-3.7-5.5-5.8c-2.2-2.7-4.9-3.8-8.6-2.9
	c-8.7,1.9-17,1.1-24.7-3.8c-3.6-2.3-6.4-5.3-9.1-8.5c-4.3-4.9-9.1-9.2-13.6-13.9c-0.8-0.9-1.8-1.4-3-1.5c-7.7-0.8-12.6-5.4-16-11.8
	c-1.4-2.6-2.7-5.4-3.9-8.1c-2.4-5.5-5.7-10.3-10.4-14.1c-9.5-7.7-15-17.8-17.1-29.7c-1-5.4-2.4-10.6-4.9-15.5
	c-2-3.9-4.6-7.2-8.1-9.8c-8.6-6.3-13.9-14.7-16.2-25.1c-0.7-3.4-2.6-6.2-5-8.6c-2.1-2-3.3-4.4-3.9-7.2c-1.7-7.9-5.7-14.9-9.4-22
	c-4-7.5-7.3-15.2-9-23.6c-2.1-10.1-7.3-18.7-14.4-26.1c-5.5-5.8-7.7-12.8-8.1-20.5c-0.4-7.2,0.7-14.1,4.6-20.3c1-1.5,1.2-3.3,1.3-5
	c0.2-4,0.3-8.1-0.1-12.1c-0.3-3.2-0.2-6.5-0.4-9.7c-0.3-4.3-1-8.5-3.8-12.1c-1.7-2.1-2.2-2.3-4.7-1.6c-2.2,0.6-4,1.9-5.7,3.2
	c-17,12.9-33.9,25.8-50.9,38.8c-11.6,8.9-23.3,17.5-34.6,26.9c-2.8,2.3-5.6,4.5-9,5.9c-8.3,3.6-18,1.2-23.6-5.7
	c-5.9-7.3-6.3-17.2-1-24.5c1.9-2.7,4.5-4.7,6.9-6.8c8.2-7,16.3-14,24.6-20.9c3.8-3.1,4.6-7.3,4.9-11.8c1.2-20.3,6.4-39.5,14.8-57.9
	c7.9-17.1,18.7-32.2,30.1-47c7.2-9.4,15-18.3,23.3-26.7c11-11.2,23.3-20.8,36.5-29.3c23.5-15.1,47.9-28.7,71.9-42.9
	c6.2-3.6,12.3-7.3,18.5-11c1.2-0.7,2.3-1.5,3.2-2.6c4-4.8,7.9-9.7,10.7-15.3c2.1-4.1,2.8-8.6,2-13.2c-0.5-3-0.5-6-0.2-9
	c1.4-13.2,13.7-23.2,26.8-21.7c2.1,0.2,4.1,0.8,6,1.6c4.4,1.7,8.6,1.6,12.8-0.4c2.1-1,4.3-1.8,6.5-2.3c7-1.4,13.5,3.8,14,10.9
	c0.4,6.1-2.6,10.4-6.3,14.5c-1,1.1-2.2,2.1-3.2,3.2c-4.6,5-3.3,10.9,3.1,13.2c9.1,3.3,18.4,6.3,27.2,10.4c2,1,3.8,0.7,5.5-0.6
	c5.9-4.7,11.7-9.5,17.5-14.3c1.5-1.3,1.5-1.6-0.4-3.2c-5.9-4.9-11.9-9.6-17.5-14.8c-6.6-6.1-13.3-12.2-19.9-18.3
	c-4-3.7-7.8-7.6-11.7-11.4c-2.3-2.2-2.9-4.9-3.4-7.8c-0.2-1.1,0.2-1.7,1.3-2c3.3-1,6.4-1.2,9.8,0.1c22.7,9,45.4,18.1,67.7,28.1
	c0.9,0.4,1.9,0.8,2.9,1.2c5.9,2.4,11.4,1.5,16.4-2.2c9.5-7.1,19.9-12.7,30.1-18.6c4.1-2.4,8.3-2.4,12.8-2c1.4,0.1,1.7,0.8,1.6,2.1
	c-0.1,4-0.9,7.8-3.6,11c-3.1,3.9-6.1,7.9-9.2,11.8c-1.6,2.1-1.7,2.1,0,4c4.9,5.4,9.9,10.7,14.7,16.2c1.6,1.8,3,2.3,5.4,1.7
	c6.9-1.7,14-2,21.1-1.6c9.1,0.5,17.9,2.4,26.5,5.2c12.2,3.9,23.8,9.2,35.5,14.2c17.9,7.7,35.8,15.3,53.2,23.9
	c17.7,8.8,33.9,20,48.7,33.2c23,20.6,41.9,44.5,57.1,71.3c9.1,16.1,16.1,33.1,20.7,51.1c1.1,4.2,3.3,7.3,6.9,9.6
	c13.3,8.5,26.5,17.1,39.7,25.7c7.9,5.1,15.8,10.2,23.7,15.3c3,2,5.7,4.3,7.9,7.3c3.6,5,3.9,10.2,1.6,15.8c-1.6,3.9-4.3,7.1-7.1,10.2
	c-3.9,4.3-9.1,5.1-14.1,2.1c-6.3-3.7-12.5-7.5-18.7-11.4C742.7,1650.6,696.7,1621.8,650.5,1592.9z"/>
<path class="st0" d="M662.6,991.4c-2.8,3.1-2.4,6.9-2.9,10.4c-0.9,6.9-0.6,13.9-0.4,20.8c0.1,5.4,0.9,10.8,1.3,16.2
	c0.2,2.3,1.7,3.8,3.5,4.9c1.9,1.2,3.2,2.6,2.8,5.1c-0.4,2.6-2.2,3.6-4.3,4.5c-3.3,1.4-6.8,1.5-10.2,1.7c-6,0.4-12,0.1-17.9-1.1
	c-1.3-0.3-2.4-0.7-3.5-1.4c-3-1.9-3.3-5.3-0.6-7.5c1.9-1.6,3.6-3.2,4-5.8c0.8-5.3,0.5-10.6,0.4-16c0-0.9-0.3-1.9-1.4-2.1
	c-1-0.2-1.8,0.2-2.4,1.1c-1.9,2.6-3.2,5.6-4.6,8.6c-2.7,5.9-5.4,11.8-8.1,17.7c-0.8,1.8-1.7,3.8-4,3.8c-2.2,0-2.9-2.1-3.8-3.7
	c-4.5-8.1-7.8-16.8-11.7-25.2c-0.4-0.9-0.8-1.9-1.5-2.7c-0.5-0.5-1-1.1-1.8-0.9c-1,0.1-1.2,1-1.4,1.8c-0.2,0.4-0.2,0.9-0.2,1.4
	c-0.1,5.1-0.2,10.2-0.2,15.3c0,3,0.8,5.4,4,6.6c2,0.8,2.7,2.3,2.6,4.4c-0.1,2.1-1.4,3.1-3,3.8c-1.4,0.6-2.8,1.1-4.3,1.3
	c-4.9,0.7-9.9,0.9-14.8,0.1c-1.5-0.3-2.9-0.7-4.3-1.4c-3.2-1.8-3.4-6,0-7.6c3.1-1.6,4.6-3.7,5-7.2c0.7-6.9,1.1-13.8,1.3-20.7
	c0.1-2.4,0.1-4.8,0.3-7.3c0.5-5-0.1-9.9-0.9-14.8c-0.4-2-1.4-3.4-3.2-4.2c-0.7-0.3-1.4-0.7-2.1-1.2c-3.1-2.2-3.3-5.5-0.5-8.2
	c1.3-1.3,2.9-1.9,4.6-2.2c6.4-1.3,12.8-1.9,19.3-0.9c2.8,0.4,4.9,1.7,6.3,4.3c4.1,7.7,8.3,15.3,12.5,22.9c0.6,1.1,1.2,2.3,2,3.3
	c1.3,1.6,3,1.6,4.3-0.1c0.7-0.9,1.3-1.9,1.8-2.9c3-5.9,6.3-11.6,8.9-17.7c2.8-6.4,7.2-9.9,14.3-10.1c4.6-0.1,9.2,0,13.8,1.2
	c1,0.3,2,0.7,2.8,1.3c3.1,2.1,3.4,6.1,0.8,8.7C664.3,990,663.5,990.6,662.6,991.4z"/>
<path class="st0" d="M199.5,1011.7c-1.3,0.9-2.6,1.6-3.6,2.5c-1.2,0.9-1.2,2,0,2.8c0.8,0.6,1.8,1,2.8,1.4c4.5,1.9,7.5,5.2,9,9.9
	c1,3.1,1.6,6.3,2,9.5c0.3,2.6,1.2,4.7,4.1,5.4c2.1,0.5,3.7,1.7,4,3.8c0.3,2.3-0.8,4.3-2.8,5.6c-2.3,1.7-4.9,2.4-7.7,2.8
	c-4.3,0.6-8.5,0.7-12.7,0c-6.2-1.1-10.2-4.6-12.6-10.3c-1.7-4-2.6-8.1-3.6-12.3c-0.5-2.1-1.2-4.2-2.2-6.2c-1-2-2.5-3.2-4.7-3.7
	c-3-0.7-4.5,0.1-4.7,3.2c-0.2,3,0,6,0.1,9c0,1,0.3,2.1,0.4,3.1c0.1,2.1,1,3.8,2.9,4.8c0.7,0.4,1.4,0.9,1.9,1.5
	c2.8,2.8,2.1,6.6-1.4,8.3c-2.9,1.4-6,1.7-9.1,1.9c-4.7,0.2-9.4,0.6-14.2,0.1c-2.9-0.3-5.7-0.6-8.5-1.5c-1.6-0.6-3.2-1.3-4.3-2.8
	c-1.8-2.2-1.6-4.6,0.4-6.5c0.1-0.1,0.2-0.2,0.3-0.2c5.1-2.7,5.5-7.4,5.8-12.4c0.6-8.8,0.2-17.6,0.4-26.4c0.1-3.1-0.2-6.2-0.5-9.3
	c-0.2-2.5-1.5-4.3-3.6-5.6c-0.5-0.3-1.1-0.5-1.5-0.8c-3.4-2.1-3.4-6-0.1-8.2c2.3-1.5,4.8-2.1,7.6-2.1c3.9-0.1,7.9,0.3,11.8,0.5
	c6,0.3,12-0.3,18-0.6c6.2-0.3,12.5-0.7,18.6,1.5c3.6,1.3,7,3.1,9.6,6C207.6,993.1,206.9,1005.9,199.5,1011.7z"/>
<path class="st0" d="M338.5,1002.9c1.7,1.4,2.5,3.1,3.5,4.6c0.7,1.2,1.5,1.3,2.5,0.4c1.2-1.1,2.4-2.2,3.6-3.2
	c5.8-4.6,12.4-6.1,19.6-4.3c5.9,1.4,9.6,6,10.6,12c0.4,2.9,0,5.7,0,8.6c-0.1,5.4,0.1,10.9-0.1,16.3c-0.1,2.8,0.8,5.2,2.4,7.4
	c2.6,3.4,1.9,6.2-1.8,8.2c-0.8,0.4-1.7,0.8-2.6,1c-7,1.6-14,1.7-20.9-0.1c-0.7-0.2-1.3-0.4-2-0.7c-4.3-1.9-5-4.3-2.4-8.1
	c1.1-1.6,1.8-3.2,2-5.1c0.7-6.2,1.1-12.4,0.1-18.6c-0.1-0.3-0.1-0.7-0.2-1c-0.8-3-2.7-4.7-5.3-4.6c-2.6,0.2-4.6,2.4-4.8,5.4
	c-0.5,5.9-0.2,11.8,0,17.7c0.1,2.2,1.1,4.2,2.2,6.1c2.3,4.1,1.4,6.7-2.9,8.5c-0.6,0.3-1.3,0.5-2,0.6c-4.9,0.8-9.7,1.6-14.8,0.9
	c-3-0.4-6-0.1-8.9-1c-2.8-0.9-3.9-2.5-3.9-5.1c0-1.5,0.8-2.4,1.8-3.2c2.4-2,3.2-4.7,3.2-7.7c0-4.2,0.1-8.3,0.2-12.5
	c0-2.1-0.3-4.1-1.2-6.1c-0.9-1.8-2.2-3-4.3-2.9c-2,0.1-3.6,1.3-4.1,3.6c-0.5,2.2-0.8,4.6-0.8,6.9c-0.1,3.9,0,7.9,0,11.8
	c0,2.3,0.7,4.3,1.7,6.3c2.2,4.6,1.1,7.3-3.9,8.5c-5.1,1.3-10.4,2.1-15.7,1.4c-2.6-0.3-5.3-0.1-7.9-1c-1-0.3-2-0.7-2.8-1.2
	c-2.2-1.6-2.5-3.9-0.9-6c0.1-0.2,0.3-0.4,0.5-0.5c3.8-2.8,4.3-6.8,4.5-11.1c0.2-4.8,0.1-9.5,0.1-14.2c0-2.7-0.8-4.8-3.1-6.6
	c-3-2.4-2.7-5.5,0.5-7.7c1.3-1,2.8-1.5,4.4-2c5.6-2,11.2-3.7,17.1-4.5c4.3-0.6,5.8,0.5,6,4.9c0,1-0.1,2.1,0.1,3.1
	c0.2,1.4,1,1.7,2.2,1c0.8-0.5,1.3-1.3,1.9-2c5.9-5.9,12.9-8.3,21.2-6.7C335,1000.6,336.8,1001.5,338.5,1002.9z"/>
<path class="st0" d="M502.9,1013.1c3.9-6.6,9.2-11,16.4-12.9c5.4-1.5,10.8-1.1,15.9,1.1c0.6,0.3,1.2,0.6,1.9,0.9
	c0.9,0.4,1.6,0.1,2-0.8c1.5-3,0.2-6.3-3-7.7c-0.1,0-0.2-0.1-0.3-0.1c-1.9-0.7-3.8-1.5-4-3.8c-0.2-2.6,1.5-4,3.5-5.1
	c0.1-0.1,0.2-0.1,0.3-0.2c7.5-2.7,15.2-5,23.2-5.2c3.3-0.1,4.4,1.4,4.4,5.2c0,16.2,0,32.4,0,48.7c0,0.8,0,1.6,0,2.4
	c0,2.5,0.7,4.5,3,5.9c1.2,0.7,2.3,1.7,2.5,3.2c0.4,2.2-0.1,4-2.1,5.5c-3,2.2-6.6,2.7-10,3.6c-3.7,1-7.6,0.8-11.3,1.3
	c-2.6,0.4-3.6-0.6-4.3-3.3c-0.7-2.8-1.3-3.1-3.7-1.5c-1.4,1-2.8,2.1-4.3,2.9c-8.5,4.3-19.1,2-25.8-5.7
	C498.6,1037.6,496.5,1025.2,502.9,1013.1z"/>
<path class="st0" d="M467.2,1024.7c-0.1-1.9-0.5-3.5-1.1-5c-1-2.5-3.1-4-5.6-3.9c-2.7,0.1-4.4,1.4-5.3,4.2c-0.3,1-0.5,2-0.6,3.1
	c-0.4,5.2-0.1,10.4-0.2,15.6c0,2.3,1,4.2,2.2,6.1c2.6,4.3,1.7,7.4-3.1,8.7c-5.6,1.6-11.4,2-17.2,1.5c-2.3-0.2-4.6-0.2-6.8-1
	c-1.1-0.4-2.2-0.8-3.1-1.4c-2.4-1.8-2.7-5.4-0.3-7.1c2.3-1.7,3.1-3.9,3.3-6.5c0.4-4.8,0.1-9.7,0.7-14.5c0.1-1.1-0.1-2.3-0.2-3.4
	c-0.2-2.6-1.2-4.4-3.5-5.5c-0.9-0.5-1.8-1.2-2.2-2.1c-0.8-1.6-0.2-4.2,1.3-5.3c1-0.8,2.1-1.4,3.3-1.9c6.2-2.5,12.6-4.7,19.2-6
	c4.5-0.9,6.3,0.5,6.5,5.1c0,0.6-0.1,1.2,0.1,1.7c0.3,1.5,1.5,2,2.9,1.1c0.7-0.4,1.2-1.1,1.7-1.7c4.4-6,10.5-7.2,17.3-6.2
	c5.2,0.8,9.5,3.1,12.2,7.7c1.9,3.3,2.2,7,2.4,10.7c0.4,6.5,0.6,12.9,0.7,19.4c0,2.2,0.6,4.3,2.4,5.9c0.7,0.6,1.2,1.4,1.7,2.1
	c1.5,2.3,0.8,5.2-1.4,6.7c-1.1,0.7-2.3,1.1-3.6,1.3c-7.1,1.2-14.2,1.5-21.4,0.6c-0.9-0.1-1.8-0.4-2.7-0.6c-4-1.2-5.2-5.5-2.3-8.1
	c2.7-2.5,2.7-5.8,2.8-9C467.4,1032.8,468.1,1028.9,467.2,1024.7z"/>
<path class="st0" d="M264.9,1004.2c4.4,3.3,7.4,7.3,8.9,12.3c0.9,2.8,1,5.7,0.1,8.5c-1.1,3.2-2.5,4.3-5.8,4.3c-7.4,0-14.8,0-22.3,0
	c-1.2,0-2.8-0.6-3.5,0.8c-0.7,1.5,0.1,2.9,1,4.1c3.1,4.2,7.1,6.4,12.5,5.7c3.1-0.4,6.1-1.4,8.7-3.1c1.7-1.1,3.5-2.1,5.4-0.5
	c1.9,1.6,2.7,3.7,2.1,6.2c-0.6,2.6-2.6,4.4-4.6,6c-9.6,7.6-25.2,9-35.7,2.7c-8.4-5-12.6-12.7-13.2-22.7
	c-0.9-13.8,9.4-26.1,23.2-28.7C249.7,998.4,257.7,999,264.9,1004.2z"/>
<path class="st0" d="M671.1,1019.4c3.9-10.7,11.3-17.3,22.1-19.4c10-1.9,19.4-0.5,26.9,7.4c2.8,3,4.8,6.5,5.7,10.6
	c0.4,2.1,0.5,4.2,0,6.2c-0.7,2.8-2.3,5.4-6.6,5.3c-7.2-0.3-14.4-0.1-21.6-0.1c-0.8,0-1.6-0.1-2.4,0.1c-1.2,0.2-1.8,0.8-1.5,2.2
	c0.4,2,1.5,3.6,3,5c3.8,3.5,8.3,4.4,13.2,3.1c2.2-0.6,4.4-1.4,6.3-2.8c1.5-1.1,3.1-1.9,4.8-0.8c2,1.3,2.9,3.3,2.7,5.7
	c-0.2,1.9-1.1,3.5-2.5,4.8c-3.9,3.9-8.5,6.4-13.8,7.6c-8,1.8-15.9,1.8-23.2-2.4c-8.8-5-13.7-12.6-14-22.8
	C670,1025.8,670,1022.7,671.1,1019.4z"/>
<path class="st0" d="M415.5,1021.8c0.1,5.2-0.1,10.1,0.2,14.9c0.2,2.7,1.2,4.8,3.3,6.6c4.4,3.7,3.6,7.8-1.8,9.9
	c-1.6,0.6-3.3,1.1-5,1.2c-7.1,0.3-14.1,0.7-21.1-0.5c-1.1-0.2-2.3-0.4-3.3-0.9c-3.7-1.6-4.7-6.1-1.5-8.4c4.2-3,4.6-7.2,4.9-11.6
	c0.3-4.4-0.6-8.8-0.6-13.2c0-2.4-1.3-3.8-3.3-4.9c-2.9-1.6-3.6-3-3-5.6c0.5-2.1,2.1-3.3,4-4c6.2-2.4,12.5-4.1,19-5.2
	c1.4-0.2,2.7-0.5,4.1-0.5c3.3-0.1,4.1,0.8,4.1,4C415.5,1009.7,415.5,1015.6,415.5,1021.8z"/>
<path class="st0" d="M387.8,984.2c5.9-3.7,12.1-5.2,18.7-4.9c1.4,0.1,2.8,0.3,4,0.9c2.2,0.9,4.2,2.1,4.5,4.8c0.4,2.8-0.4,5.3-2.9,7
	c-0.6,0.4-1.1,0.8-1.8,1.1c-5.4,2.9-11.3,3.8-17.4,3.6c-0.6,0-1.1-0.2-1.7-0.4C384.8,994.7,383.2,989.4,387.8,984.2z"/>
<path class="st1" d="M375.6,1717.4c-2.5,0.2-4.5,1.2-6.4,2.2c-8.5,4.2-16.4,1.4-20.4-6.7c-3.9-7.9-8-15.7-11.1-24c-0.4-1-0.7-2-1-3
	c-1.4-5.1-0.5-7.8,3.7-10.9c3.5-2.5,7.3-4.6,11.2-6.3c3.5-1.5,5-0.8,6.4,2.9c0.9,2.4,1.5,4.9,2.4,7.2c0.3,0.9,0.6,2.3,1.9,2.1
	c1.1-0.2,0.9-1.5,1-2.4c0.9-4.5-0.2-8.8-2.6-12.6c-2.3-3.5-4.7-6.9-6.9-10.4c-1.7-2.9-3.4-5.8-3.5-9.3c0-1.2,0-2.3,0.3-3.4
	c2.1-6.7,11.8-11.2,18.2-8.3c1.4,0.6,2.6,1.5,4,2.2c9.3,4.6,18.8,5.3,28.4,0.9c0.7-0.3,1.4-0.8,2.1-1.3c0.4-0.2,0.8-0.5,0.8-1.4
	c-4.2-0.4-8.4,0.2-12.5,0.8c-8.3,1.2-15.4-1.1-20.7-7.9c-4.1-5.2-4.3-10.4-0.3-15.6c4.9-6.5,9.5-13.1,13.5-20.2
	c1.9-3.3,4.7-5,8.6-4.8c6,0.3,12-0.4,18-1.1c0.2,0,0.5,0,0.7,0c6.9-0.4,9.4,2.1,8.7,8.6c-0.7,6-0.6,12-1.4,18
	c-0.5,3.7-1.8,6.9-4.8,9.3c-2.1,1.7-4.3,2-6.8,0.9c-2.9-1.3-5.2-3.5-7.2-5.9c-2.5-3-4.9-6.1-7.3-9.3c-1.2-1.6-2.7-2.4-4.8-2.3
	c-0.9,0.1-1.2,0.5-1.1,1.3c0.1,1.4,0.7,2.7,1.6,3.8c3.9,4.8,7.8,9.5,11.7,14.2c3.3,4,7.6,5,12.5,4.2c6.3-1,7.7,0.6,7.1,7.1
	c-0.8,8-1.9,15.9-4.2,23.6c-3.3,11-11.5,14.3-21.5,8.5c-1.7-1-3.2-2.2-4.6-3.6c-2.7-2.7-5.5-5.4-8.3-7.9c-2.8-2.5-6-4.4-9.7-5.2
	c-1.1-0.2-2.5-0.6-3.2,0.5c-0.9,1.4,0.2,2.4,1.3,3.2c6.7,5.3,13.3,10.8,20.1,16c5.1,3.9,11.1,5.1,17.4,4.1c0.6-0.1,1.2-0.1,1.7-0.1
	c5-0.5,5-0.5,5.2,4.6c0,1.2,0,2.3,0,3.5c-0.1,5-2.4,8.4-7.1,10c-7.2,2.3-13.9,1.8-19.5-4.1c-1.9-2-4-3.8-6.6-5
	c-1.1-0.5-2.1-0.9-3.8-0.5c1.4,4.6,3.6,9,1.8,13.9c-1.8,4.9-5.9,7.5-9.8,10.6c10.6-1.8,17.8,2.7,22.4,12.3c2.1-2.6,2-5.1,1-7.7
	c-0.6-1.6-1.8-3-2.8-4.4c-2.9-3.9-4.6-7.9-5.2-11.9c0.8-0.8,1.5-0.1,2.2,0.2c2.5,1,5,1.7,7.7,2.2c5.1,1,10.1,0,15.1-1
	c0.9-0.2,1.8-0.5,2.7-0.7c4-0.9,5.8,0.2,5.8,4.4c0,4.6-0.4,9.2-0.7,13.9c-0.4,4.8-0.9,9.7-1.2,14.5c-0.2,3.5,0.8,6.9,1.1,10.3
	c0.5,4.9-0.9,8.9-5.1,11.7c-2.7,1.8-5.7,3.1-8.8,4.2c-6.4,2.3-12.9,4.4-19.4,6.6c-5,1.7-9.3,0.8-12.9-3.2c-3-3.4-5.2-7.4-8.2-10.8
	c-0.6-0.7-1-1.6-2-2.1c-0.8,1.6-0.4,3.1-0.1,4.5c1.3,5.4,3.9,10.2,8.1,13.9c1.9,1.7,4.1,3,6.7,3.4c1.2,0.2,2.3,0.5,3.3,1.1
	c1.9,1.1,2.5,2.5,2.1,4.7c-0.5,2.5-1.2,4.9-1.9,7.4c-0.2,0.7-0.3,1.3-0.5,2c-0.2,1,0.3,1.5,1.2,1.9c0.9,0.3,1.6,0.2,2.1-0.7
	c1.4-2.8,3.1-5.4,3.7-8.6c0.2-1,0.4-2.1,0.6-3.1c0.9-3.9,3.1-6.7,6.8-8.2c5.4-2.1,10.8-4.1,16.3-5.9c4.2-1.4,6.4-0.1,7.3,4.3
	c0.7,3.5,0.9,7.1,0.9,10.7c-0.1,7.2,1.6,14.2,2.1,21.4c0.5,7.8-1.4,15.2-4.8,22.1c-1.4,2.9-3.7,4.8-6.9,5.4
	c-7.8,1.4-15.3,3.7-22.8,6.2c-4.3,1.4-7.3,0.3-9.9-3.6c-2.5-3.6-4.8-7.3-7.3-11c-0.7-1-1.6-1.9-2.6-3.1c-1.4,2.4-1.4,4.4-0.3,6.5
	c1.3,2.6,2.7,5.1,4.3,7.5c0.9,1.4,1.6,2.8,2.1,4.4c1,3.7-0.5,6.5-4.2,7.4c-3.5,0.9-7.1,1.3-10.7,1.4c-5.7,0.2-11.4,0.3-17-0.1
	c-6.1-0.5-9.5-3.4-11-9.3c-1-3.8-0.9-7.6-0.7-11.4c0.3-6.1,0.9-12.2,1.2-18.3c0.1-1.8,0.1-3.7,0.1-5.6c0-1.1-0.5-1.7-1.6-1.8
	c-1-0.1-1.4,0.5-1.7,1.4c-0.5,1.8-0.9,3.6-1.4,5.4c-0.3,1.1-0.6,2.3-1.1,3.3c-1.4,2.9-3.6,3.8-6.6,2.7c-3.6-1.2-6.4-3.7-8.6-6.8
	c-8.6-12.3-7.9-28.8,1.7-40.4c3.1-3.7,6.8-6.6,10.9-9.1c1.2-0.7,2.3-1.6,3.5-2.3c1-0.7,1.5-1.7,1.7-2.9c0.2-1.3-0.2-2-1.6-2
	c-1.2,0-2.3,0.1-3.3,0.9c-6,4.7-12.4,8.9-17.4,14.8c-1.6,1.9-2.9,3.9-4.2,5.9c-0.3,0.5-0.5,1-0.9,1.5c-4.8,7.7-13.7,7.8-18.8,0.3
	c-1.5-2.1-2.3-4.5-3-7c-1.3-4.5-2.2-9-3-13.6c-0.3-1.9-1.5-2.7-2.8-1.8c-1.1,0.7-1.9,1.7-1.9,3.1c0,0.3,0.1,0.7,0.2,1
	c1.7,6.1,3.1,12.3,5.6,18.3c1.7,4.2,4.5,6.9,8.7,8.4c2.3,0.8,4.6,1.4,7,2.2c6.4,2.1,10.8,9.2,9.8,15.8c-0.4,2.6-2.3,3.6-4.5,4.3
	c-2.9,0.9-5.3,2.7-7.6,5.1c2.4,0.9,4.3,1.2,6.5,0.3c1.5-0.7,3.1-1,4.7-1.1c3.5-0.1,6,1.6,7.7,4.5c1.3,2.3,3,3.9,5.6,4.3
	c8.6,1.5,10.1,5.4,10.4,13.5c0.2,6,2,11.4,5.5,16.1c1,1.3,2.1,2.5,3.3,3.6c1.5,1.6,2.5,3.4,2.5,5.6c0.1,4.7,0.8,9.5-0.6,14.1
	c-0.2,0.5-0.1,1.2-0.3,1.7c-0.4,1.1,0,1.8,1.1,2.2c1.2,0.4,2,0,2.4-1.2c1.5-4.6,3.1-9.2,3.7-14.1c0.5-3.8,1.8-5.5,5.3-5.8
	c4.8-0.5,9.7-1,14.5-0.9c3.5,0.1,6.6,1.1,9.5,3c1.8,1.2,3.5,2.6,5.9,3.4c0.6-1.9,0.4-3.4-0.3-5.1c-2.1-4.6-1-7.4,3.7-9.4
	c7.9-3.4,16.1-5.8,24.5-7.6c4.8-1,8.5,1.3,9.8,6c1.1,3.9,1.1,8,1.4,12c0.8,9.9,1.5,19.8,2.2,29.8c0.1,2.1,0.2,4.2,0.1,6.3
	c-0.2,4.9-2.5,8.3-7.2,10.1c-3.7,1.5-7.7,1.8-11.6,1.7c-4.1,0-8,0.9-12,1.7c-1.2,0.2-2.3,0.6-2.1,2.2c0.2,1.6,1.4,1.7,2.6,1.6
	c4.6-0.3,9.2-0.7,13.8-1.1c4.1-0.3,8.3-0.7,12.4-1c2.3-0.1,2.6,0.1,2.9,2.4c0.5,3-0.1,6-0.8,8.9c-3,12.1-10.1,21.2-20.5,27.9
	c-4.9,3.1-10.1,5.8-15.5,7.9c-5,2-9.5,1.4-13.2-2.9c-1.3-1.5-2.7-2.9-3.6-4.6c-0.4-0.7-0.7-1.5-1.6-1.7c-2,5.2,0.8,11,6.2,13
	c4.7,1.8,9.3,1.1,14,0.2c1.5-0.3,2.9-0.8,4.4-1.2c1.9-0.5,2.1-0.4,2.4,1.7c0.1,0.9,0.1,1.9,0.1,2.8c0.1,0.7,0.2,1.4,0.4,2
	c0.2,0.8,0.6,1.6,1.5,1.7c1.1,0.1,1.3-0.8,1.6-1.5c1-2.8,2.2-5.6,2.6-8.6c0.3-1.8,1-3.2,2.6-4.3c7.9-5,13.8-11.9,18.8-19.7
	c0.3-0.5,0.6-1,1-1.4c2.2-3.2,3.7-3.3,5.9-0.1c1.1,1.6,1.4,3.4,0.9,5.3c-1.3,4.9-0.7,9.9-0.2,14.8c0.1,1.5,0.3,3,0.2,4.5
	c-0.2,2.8-1.3,5.1-3.6,6.8c-2.1,1.6-4.3,3.1-7,4.3c-0.9-2.1,0-4.3-1.4-6.2c-1.5,0.6-1.9,2.1-2.6,3.4c-1.4,2.5-2.6,5.2-3.9,7.7
	c-1.4,2.6-3.2,4.8-5.7,6.4c-2.5,1.6-5.3,1.5-8.1,1.3c-1.4-0.1-1.7-0.9-1.5-2.2c0.2-0.9,0.4-1.8,0.5-2.7c0.2-1,0.1-2-0.8-2.5
	c-0.9-0.4-1.4,0.5-2,1c-2.1,2.1-4.2,4.3-6.4,6.4c-4.2,4-8.9,4.9-14.4,2.7c-5.1-2-10.2-3.9-14.4-7.6c-0.4-0.4-0.9-0.7-1.3-1.1
	c-5.1-4.8-5-5.7,0.2-10c1.5-1.3,3-2.5,4.5-3.9c0.6-0.6,1.6-1,0.8-2.2c-0.8-1.3-1.8-1.2-3-0.6c-1.1,0.6-2.2,1.3-3.3,1.9
	c-7.5,4.6-11.6,4.1-17.9-2.2c-3.6-3.6-7.3-7.1-11-10.6c-6.6-6-8.1-11.8-5.2-20.3c1.3-3.9,1.3-3.9,0.9-6.8c-2,0-3.3,1.6-4.9,2.4
	c-1,0.5-1.9,1.1-3.2,0.3c-7.2-4.6-13.3-10.2-15-19.1c-0.8-4.3-0.6-8.8,0.7-13.1c0.3-1.2,0.6-2.4,1-4c-3.3,1.3-5,3.7-5.8,6.5
	c-1.6,5.5-1.3,11,1.6,16.2c3.1,5.7,0,12.1-6.5,13.4c-1.8,0.4-3.4-0.4-4.9-1.2c-3.2-1.8-5.5-4.6-7.6-7.5c-0.5-0.7-1-1.6-1.6-2.3
	c-0.5-0.6-0.9-1.5-1.9-0.9c-0.9,0.5-1.4,1.1-1.2,2.2c0.3,2.6,1.1,5,2.7,7c2.6,3.2,5.8,5.7,9.7,7.1c3.6,1.3,7.2,1,10.3-1.3
	c2.9-2.2,6.1-2.6,9.5-2.3c4,0.4,7.2,2.8,7.9,6.7c1.8,11.3,8.8,19.2,16.7,26.5c2.2,2.1,4.2,4.3,6.2,6.6c1.2,1.4,0.9,2.1-0.9,2.7
	c-3,1-6,0.7-8.9-0.2c-6.5-1.8-11.7-5.6-15.7-10.9c-0.3-0.4-0.4-0.8-0.7-1.4c1.4-1.1,3.2-0.7,4.6-1.2c0.8-0.3,1.6-0.2,2.4-0.4
	c0.6-0.1,1-0.6,1-1.2c0-0.7-0.5-1-1.1-1.2c-0.9-0.3-1.8-0.5-2.7-0.7c-3.9-1-7.9-2-11.8-3c-1-0.3-2-0.5-3-0.9
	c-0.6-0.2-1.3-0.5-1.4-1.3c-0.1-0.9,0.4-1.5,1.2-1.9c1.9-1,3.9-2.1,5.8-3.1c0.5-0.3,1-0.6,1.5-0.8c1-0.5,1.3-1.2,0.9-2.3
	c-0.4-1.1-1.1-0.9-2-0.8c-2.7,0.2-5.3,0.9-7.8,1.7c-2.4,0.8-4.9,1.3-7.5,1.4c-4.3,0.1-7.6-1.7-10.2-5c-2.8-3.5-4.5-7.5-6.1-11.7
	c-1.5-4-2.6-8.2-3.8-12.3c-1-3.5,0.5-6.3,2-9.2c0.5-0.9,1.2-0.9,2.1-0.6c1.6,0.6,3.3,1.2,4.9,1.7c0.9,0.3,1.6-0.1,1.4-1.2
	c-0.3-2.3-0.5-4.6-1.3-6.8c-0.8-2.2-1.1-4.5-1.2-6.8c-0.6-9.4,5.8-15.8,14.8-17c4.2-0.5,8.3-0.1,12.4,1.1c2.5,0.7,4.8,1.7,7.2,2.4
	c3.3,1,5.2,3.2,6.5,6.2c1.6,3.7,2.4,7.5,2.8,11.4c0.3,2.1-0.2,4.1-1,6.1c-0.7,1.6-1.2,3.3-1.7,4.9c-0.3,0.8-0.5,1.5,0.5,2
	c0.9,0.4,1.6,0.2,2.2-0.5c0.3-0.4,0.6-0.7,0.9-1.1c2.7-3.3,6.3-4.5,10.5-4.2c0.6,0.1,1.2,0,1.7,0.2c6,2.1,11.9,0.9,17.8-0.4
	c5.1-1.2,5.3-1,6.3,4.3c0.7,3.9,1.1,7.8,0.6,11.7c-0.4,3.8-1.7,5.1-5.4,5.5c-1.2,0.1-2.3,0-3.5-0.2c-7.2-1-12.9,1.5-17.5,7
	c-1.5,1.8-1.8,3.9-1.8,6.4c2-0.1,3.6-0.9,4.9-2.2c1.3-1.2,2.6-2.3,3.9-3.5c6.4-5.8,19.7-3.6,23.5,4.5c1.7,3.7,4.6,6.3,8.2,8.3
	c5.7,3.1,16.4,3.6,22.4-4.1c2.8-3.6,5.1-7.4,6-12c0.1-0.6,0.3-1.1-0.6-1.7c-2.6,2-4.4,4.9-6.7,7.2c-1.5,1.5-2.8,3.1-4.4,4.5
	c-6.8,5.8-16.2,4.1-20.3-3.9c-2.6-5.1-4.1-10.6-4.1-16.4c0-3.6,0-7.2,0-10.8c0-5.3,1.2-6.5,6.6-6.6c3.9,0,7.9-0.1,11.8-0.7
	c2.5-0.4,5-0.8,7.5-1.4c6.1-1.4,9.5-5.5,10.9-11.3c0.9-3.8,1.4-7.7,1.6-11.7c0.1-2,0.2-3.9,0.5-5.9c0.3-2.6,0.6-4.4-1.9-7.3
	c-2.1,2-3.1,4.5-3.3,7.3c-0.3,3.5-0.4,6.9-0.7,10.4c-0.4,4-1.8,7.6-4.2,10.9c-1.5,2-3.4,2.9-5.9,3.3c-4.4,0.6-8.8,0.8-13.2,0.8
	c-2.3,0-4.6,0-7-0.1c-5.6-0.1-8.3-2.6-8.7-8.2c-0.2-3.1,0-6.3-0.1-9.4c0-0.8,0-1.6,0-2.4c0-1-0.2-1.8-1.5-1.9
	c-1.3-0.1-1.9,0.5-2.1,1.8c-0.3,3.2-0.7,6.4-0.8,9.7c-0.1,2.2-0.3,4.4-0.6,6.6c-0.8,5.6-3.6,8.2-9.1,8.8
	c-8.5,0.9-16.6-4.2-19.3-12.3c-1.7-5.4-3.1-10.9-4.5-16.4c-0.6-2.4-1.8-4.2-3.9-5.5c-1.2-0.7-1.9-0.5-2.2,1c-0.3,1.6,0,3.6-1.3,4.5
	c-1.6,1-3.6-0.1-5.3-0.6c-5.4-1.6-10.8-2.3-16.4-1c-5.6,1.3-10.2,4.2-14.5,8c-1.1,1-2.3,2-3.5,2.8c-2.5,1.6-5.1,1.5-7.6,0.2
	c-2.3-1.2-4.4-2.6-6.5-4c-2-1.2-4-2.2-6.3-2.6c-0.8,1.1,0,1.7,0.4,2.3c1.8,2.8,4.3,4.8,7,6.7c2.8,1.9,5.6,3.7,8.2,5.8
	c1.5,1.2,2.6,2.7,2.8,4.6c0.5,4.9-3.7,8.1-8.4,6.4c-2.1-0.8-3.9-2-5.6-3.4c-2.1-1.6-4-3.5-6.5-5c-0.6,3.3,0.9,5.6,2.7,7.7
	c1.5,1.9,3.6,3.3,5.4,4.9c2.1,1.8,4,3.7,4.8,7.3c-9.3-5.9-14.7-13.8-17.5-23.7c1.4-0.8,2.3,0,3.2,0.3c2.8,0.8,5.5,1.8,8.3,2.7
	c1,0.3,1.8,0.4,2.3-0.7c0.5-1.1,0.4-2-0.7-2.7c-1.7-1-3.3-2.2-5.1-2.9c-7.1-2.7-11-8.2-13.3-15.1c-0.6-1.6-0.9-3.4-1.6-5
	c-1.2-2.9-0.7-5.4,1.7-7.8c1.7,1.2,2.6,3.1,3.9,4.6c1.6,2,3,4.1,5.1,5.7c5.8,4.4,11.9,4.7,18.2,1.3c3.7-2,6.7-4.9,8.7-8.9
	c-3.5,0.4-6.6,2-9.6,3.7c-1.7,1-3.5,1.8-5.4,2.4c-3.9,1.2-7-0.1-9.8-2.8c-1.7-1.6-2.9-3.6-4-5.7c-2.8-5.3-5.5-10.7-7.7-16.4
	c-0.1-0.3-0.3-0.6-0.4-1c-1.8-5.4-0.8-8.3,4.1-11c3-1.7,6-3.5,8.7-5.8c0.3-0.2,0.6-0.4,0.8-0.6c0.9-0.7,1.7-1.3,1-2.6
	c-0.8-1.5-1.9-0.9-3-0.4c-0.6,0.3-1.3,0.6-1.9,0.9c-1.8,0.9-3.5,1.8-5.3,2.6c-5.4,2.5-8.3,1.6-11.2-3.7c-0.8-1.5-1.5-3.1-2.1-4.7
	c-1.8-4.4-3.2-8.9-4.5-13.5c-1-3.4-0.8-6.6,0.9-9.8c2.6-5,5.7-9.6,10.3-12.9c4.4-3.2,9.1-1.7,11.2,3.4c1.1,2.6,2.1,5.1,3.3,7.6
	c2.1,4.2,5,7.8,9.2,10.1c1.5,0.8,2.2,2,2.6,3.5c2.6,9.2,5.3,18.5,7.9,27.7c1.8,6.3,1,7.9-5,10.5c-2.9,1.3-5.8,2.4-9.2,1.9
	c2,3.1,6.5,4.8,10.2,4.1c2.8-0.5,5.2-1.8,7.3-3.9c1.4-1.4,2.8-2.8,4.3-4c1.5-1.1,2.7-1,4,0.1c3.7,3,6.3,6.8,8.6,10.8
	c0.8,1.3,1.5,2.6,2.2,4c0.6,1.2,1.2,2.4,2.9,1.5c1.7-0.9,0.9-2.1,0.4-3.3c-0.9-2.5-1.9-5-2.8-7.5c-1.4-3.8-1.9-3.2,2.1-5.5
	c1-0.6,2-1.2,3-1.7c0.9-0.5,1.4-1.2,1.2-2.3c-0.4-1.3-1.4-0.8-2.3-0.7c-14.9,1.5-25.4-9.3-28.4-20.6c-1.4-5.5-0.1-10.3,3.8-14.4
	c0.5-0.6,1.3-1,1.4-2.1c-1.7-1-3.5-1.6-5.5-1.7c-7.3-0.4-12.1-4.3-14.8-10.8c-1.9-4.6-3.1-9.5-3.7-14.4c-0.7-5.8,1.5-9.2,7.1-11.2
	c2.1-0.7,4.2-1.3,6.3-2.1c4.4-1.6,7.6-4.6,8.9-9.1c1-3.6,3.2-5.3,6.5-6.4c5.5-1.8,5.6-3.6,7.6,4.3c0.5,2.1,0.3,4.1,0.4,6.2
	c0.1,3.4,0.7,6.7,2.9,9.5c1.3,1.7,1.9,1.5,2.9-0.4c1.1-2.1,0.5-4.3,0.4-6.5c-0.3-5.7-0.8-11.3-1.3-16.9c-0.2-3-0.7-5.9,0-9
	c1.2-5.2,4-8,9.4-8.8c4.3-0.6,8.5,0.4,12.8,0.8c1.3,0.1,1.6,1.2,2,2.2c0.8,2.4,0.5,4.8,0.1,7.2c-0.9,5-1.9,10-2.9,15
	c-0.5,2.5-0.4,5.1-0.2,7.6c0.1,1.2,0.6,1.9,1.9,2.1c1.4,0.2,1.3-1,1.6-1.8c2-4.6,1.8-9.5,2.5-14.3c0.5-3.7,1.5-7.3,2.9-10.7
	c1.7-4,4.6-6.5,8.9-7.6c3.3-0.9,6.7-0.7,10-0.6c1.5,0,2.6,1,3.3,2.2c3.9,6,5,12.6,3.9,19.6c-0.2,1.5-1.2,2.7-2.1,3.9
	c-4.3,5.2-5.4,11.1-4.2,17.6c0.4,1.9,0.7,3.9,0.9,5.8c0.3,2.9-0.9,4.9-3.5,6.2c-2.2,1.1-4.5,1.8-6.8,2.6c-3.4,1.1-6.6,2.7-9.8,4.5
	c-4.4,2.5-5.6,6.9-6.8,11.2c-0.3,0.9,0.2,1.6,1,2c0.9,0.4,1.5,0.2,2.1-0.5c1.9-2.2,3.9-4.3,5.6-6.6c3-4,7.3-5.6,12-6.3
	c2.8-0.4,5.2,0.7,7.2,2.7c3.4,3.4,5,7.7,6.7,12c2.9,7.5,3.3,15-0.1,22.6c-1.6,3.5-1.2,7.3-1.4,11c-0.1,1.4,0.9,1.7,2,1.9
	c1.1,0.2,1.4-0.5,1.6-1.4c0.6-2.5,1.2-4.9,1.5-7.5c0.8-6.1,2.5-7.1,8.4-5.5c6.1,1.7,12.2,3.6,18.3,5.4c2.9,0.8,5.9,1.2,8.9,1.2
	c6.6-0.1,10.7-3,12.8-9.2c1.6-4.6,1.8-9.5,2.5-14.3c0.4-2.6-1-4.9-3.2-6.6c-1-0.8-1.8-0.5-1.8,0.9c-0.1,2.9-0.3,5.8,0.1,8.7
	c0.3,2.7,0,5.3-0.8,7.8c-1.6,5.3-6.1,8.9-11.5,8.1c-9.2-1.3-18.2-3.5-25.8-9.3c-4.3-3.3-5.1-5.6-3.7-10.8c0.3-1.2,0.9-2.4,1.1-3.7
	c0.2-1.4,1.1-2.1,2.3-2.8c-1.2-1.3-2.5-1.7-3.8-2.2c-7.3-2.5-10.5-6.7-11-14.4c-0.3-5.3-0.6-10.6-0.7-15.9
	c-0.1-5.4,1.8-10.1,5.6-14.2c2.6-2.8,5.6-3.5,9.1-2.7c6.3,1.5,12.1,4,16.6,8.9c2.2,2.4,4.5,4.7,7.1,6.7c3.2,2.5,6.6,4.6,10.8,5.2
	c6.7,0.9,13-2.1,16.4-8c1.9-3.3,2.6-6.9,2.5-10.7c-0.2-3.7-0.8-7.4-1.1-11c-0.1-1.5-0.9-2-2.1-2.2c-1.6-0.3-1.6,1-1.8,2
	c-0.8,3.4-0.6,6.9-0.1,10.4c1.4,10.7-8.3,18.2-17.7,14.1c-3.1-1.4-5.9-3.3-8-5.9c-0.3-0.4-0.6-0.7-0.8-1.1
	c-5.1-6.6-5.1-6.6-2.2-14.4c0.1-0.3,0.2-0.7,0.3-1.3C375.8,1717.7,375.8,1717.6,375.6,1717.4z"/>
<path class="st1" d="M635.2,1694.9c3.5,2.8,4.9,6.2,4.8,10.5c-0.2,10.7-0.4,21.3-1,31.9c-0.2,3.2-0.4,6.5-1,9.7
	c-0.9,4.6-3.2,8.1-6.7,11c-1.7,1.4-3.6,2.5-5.5,3.6c-3.7,2.2-7.5,2.5-11.7,1.1c-3.2-1.1-6.6-2-10.5-2.6c3.4,5.8,8.1,8.4,14.1,8.8
	c2.1,0.2,4.1,0,6.2-0.4c2.9-0.5,3.4-0.2,4.3,2.7c1.3,4.3,0.7,8.5-0.6,12.6c-0.5,1.6-1.4,1.3-2.3,0.4c-1.6-1.6-3.3-3.3-4.9-5
	c-1.5-1.6-3-3.2-4.6-4.8c-0.8-0.8-1.5-1.9-2.9-0.8c-1.4,1-0.6,2,0,3c1.2,1.9,2.5,3.6,4,5.2c1.2,1.3,2.3,2.6,3.3,4
	c2.7,3.9,3.5,8.2,2.2,12.9c-2.4,8.2-7,14.1-15.7,15.9c-5.9,1.2-11.5,0-17-2.2c-3-1.2-4.3-3.8-4.2-7c0.1-1.4,0.2-2.8,0.2-4.2
	c0-1.2,0.6-2.9-1.1-3.3c-2-0.4-1.9,1.6-2.5,2.7c-1.1,2.2-1.5,4.6-2,7c-0.7,3.1-1.6,6-3.1,8.8c-3,5.3-7.5,7.9-13.7,7.6
	c-10.6-0.5-21.5-8.9-24.4-19.2c-1-3.4-1.2-6.8-0.5-10.3c0.6-3.1,2.4-5.3,5.1-6.6c2.5-1.2,4.9-2.5,7-4.4c1.7-1.5,3.5-1.5,5.4-0.2
	c4.6,3.3,7.7,7.3,6.7,13.5c-0.4,2.3-0.5,4.6-0.9,6.9c-0.1,1-0.2,1.8,1,2.1c1.4,0.3,1.9-0.4,2.3-1.5c0.7-2.3,1.3-4.7,2-7
	c0.6-1.7,0.4-4,2-5c1.5-1,3.4,0.3,5.1,0.3c2.3,0,4.6,0.2,6.9,0.2c6.8,0,11.4-3.1,14.3-9.2c1.6-3.4,3.1-3.9,6.2-1.7
	c2.6,1.8,4,4.4,5,7.4c0.6,2,1.2,3.9,1.9,6c4.1-3.2,4.2-9.9,0.4-13.5c-0.8-0.8-1.8-1.4-2.8-2c-5.9-3.5-10-8.5-12.3-15
	c-0.9-2.4-1.7-4.8-2.5-7.2c-0.3-0.8-0.4-1.6-0.7-2.3c-0.5-1.1-1.2-2.3-2.5-2c-1.3,0.2-1,1.7-1,2.7c-0.2,3.8,1.4,7.2,2.6,10.7
	c0.8,2.4,1.5,4.9,2,7.4c1.4,7.7-3.3,13.9-11.1,14.6c-5.8,0.6-11.1-0.7-15.6-4.4c-2.2-1.8-4.4-3.4-6.2-5.5c-3-3.3-4.8-7.1-5.5-11.4
	c-1-7.1-3.6-13.6-6.8-20c-0.9-1.7-1.4-3.7-2.9-5.6c-1.1,2.9-1.5,5.4-0.7,8c0.7,2.4,1.5,4.9,2.4,7.3c1.7,4.4,2.7,8.9,3.4,13.5
	c0.4,3.3,0.1,6.5-1.6,9.4c-2.4,4.3-6.6,5.7-10.9,3.5c-3.6-1.8-6.3-4.7-8.2-8.3c-1-1.9-1.5-4.1-0.6-6c1.6-3.7,1-7.4,0.6-11.2
	c-0.8-7.1-1.4-14.3-2-21.4c-0.2-2.5-1-4.7-2.9-6.8c-2,2.5-2.7,5.2-2.8,8.1c-0.2,5.9,0.7,11.8,2,17.5c0.6,2.6,1.2,5.2,1,7.9
	c-0.5,5.9-4.6,7.7-9.6,5.2c-3.6-1.8-6.9-4.3-9.6-7.4c-3.3-3.7-5.2-8-3.9-13c1.4-5.1,0-10-1.6-14.6c-1.6-5-1.6-9.7-0.2-14.6
	c0.5-1.8,0.9-3.6,1.5-5.4c0.9-2.9,1-3,3.8-2.3c4.4,1.1,8.8,2.2,13.2,3.3c10.2,2.5,20.5,4.8,31,6.1c2.2,0.3,4.3,1,6.2,2.1
	c5.5,2.9,8.3,7.6,8.6,13.7c0.4,7.3,0.2,14.6,0.2,21.9c0,2,0.4,3.9,0.9,5.8c0.3,1.1,0.7,2,2.1,1.8c1.3-0.2,1.1-1.3,1.2-2.2
	c0.1-1.6,0-3.2,0-4.9c0-7.2,0-14.4,0-21.6c0-2.7,0.2-2.8,2.5-2c4.6,1.6,9.4,2.4,14.2,3.5c4.9,1.2,9.2,3.3,13.2,6.6
	c7.4,6.1,15.6,7,24.4,3.1c2.6-1.2,4.5-3.1,5.8-5.7c1.9-3.7,2.5-7.8,2.2-11.8c-0.2-3.8-0.5-7.6-0.5-11.4c0-1.4-0.4-2.2-1.8-2.3
	c-1.8-0.1-1.7,1.2-1.7,2.4c0,3.5-0.1,7,0,10.4c0,2.5-0.3,4.9-0.9,7.2c-1.3,5.7-5.5,9.1-11.2,8.9c-5.2-0.2-10-1.7-14.1-5.1
	c-3.9-3.3-5.9-7.6-6.2-12.7c-0.5-7-1.1-14.1-1.6-21.1c0-0.6-0.1-1.2-0.4-1.7c-0.3-0.7-1-1-1.7-0.8c-0.6,0.1-1,0.6-1.1,1.2
	c-0.1,0.6-0.1,1.2-0.1,1.7c-0.3,6.2-0.6,12.5-0.9,18.7c-0.1,1.1-0.3,2.3-0.7,3.4c-0.9,2.8-3.7,4.3-6.6,3.8c-1.7-0.3-3.3-1-4.8-1.9
	c-5.5-3.3-10.6-7-15.2-11.5c-2.3-2.2-3.3-4.9-3.3-8.1c0-2.7,0.6-5.3,1.2-7.9c0.7-2.9,1.4-5.9,2.1-8.8c0.2-0.8,0.3-1.6,0.3-2.4
	c0.1-1.2-0.7-1.6-1.6-1.9c-1.1-0.4-1.5,0.4-1.8,1.2c-1.5,3.5-3.1,7-3.7,10.8c-0.4,2.5-0.8,5-1.7,7.4c-1.4,4.2-3,5.4-7.4,5.4
	c-5,0-9.9-1.3-14.7-2.6c-6.2-1.6-12.2-3.8-18.2-5.8c-5.5-1.9-7.7-5.3-7.4-11.1c0.3-6.1,0.3-12.3-0.6-18.4c-0.2-1.5-0.5-3-1-4.5
	c-2.6,1-2.6,3-2.6,5.1c-0.2,7.6-1,15.2-2.2,22.8c-0.4,2.4-1,4.8-1.9,7c-3.4,8.6-3.4,17.4-1,26.3c0.8,3,1.6,6,2.1,9.1
	c0.6,3.9-0.2,7.6-2.9,10.3c-6.6,6.6-14.5,9.9-23.9,8.6c-4.7-0.6-8.1-3.1-10.6-7.1c-3.4-5.4-6.3-11.1-8.9-16.9
	c-1.3-2.8-2.8-5.6-4.2-8.4c-1.2-2.4-3.2-3.1-6-3.7c0.3,2.6,1.1,4.6,2.1,6.5c3.4,7.3,6.9,14.7,10.3,22c0.5,1,0.9,2.1,1.3,3.2
	c1.3,3.8-1.6,8.3-5.5,8.6c-3,0.2-5.8-0.5-7.6-3.2c-2.9-4.2-7-7.1-10.7-10.4c-0.7-0.6-1.4-1.2-2.4-0.5c-1,0.8-0.9,1.7-0.5,2.8
	c0.6,1.4,1.7,2.5,2.7,3.6c3.1,3.3,6.1,6.7,9.4,9.8c5,4.9,11.6,5.7,16.3,0.5c5.4-6,12-3.6,16.4-0.2c3.8,2.9,5.6,7.3,6.7,11.9
	c0.4,1.8-0.6,3.4-1.8,4.7c-1.6,1.8-3.6,2.9-5.6,4.1c-3.9,2.1-7.6,4.5-11.2,6.9c-2.4,1.6-3.9,3.8-5.4,6.4c2.4,0.8,4.4,0.5,6.2-0.7
	c5.8-3.6,11.6-7.3,17.3-11.1c4.9-3.2,6.7-7.8,5.2-13.6c-0.8-2.9-1.1-5.9-0.9-9c0.1-1.1,0.2-2.1,1.4-2.6c2.3-0.9,4.2-2.4,6.3-3.6
	c3.1-1.7,6.1-1.8,9.1,0.4c2.4,1.7,4.6,3.5,6.6,5.7c2.7,3,3.7,6.4,2.5,10.3c-0.4,1.3-0.9,2.6-1.5,3.9c-1.4,3.1-2.1,6.4-2.8,9.7
	c-0.3,1.3,0.3,2,1.5,2.3c1.2,0.4,1.7-0.4,2-1.3c1.6-4.1,3.2-8.2,4.8-12.3c2.8-6.9,6.3-7.8,11.8-3.1c2.4,2,4.6,4.3,6.4,6.8
	c2.3,3.2,3.7,6.6,3.5,10.7c-0.3,4.9,0.8,9.7,1.5,14.5c2.4,14.6-7.9,27.1-22.7,27.6c-4.8,0.2-8.8-1.6-12-5.3
	c-1.1-1.3-2.1-2.8-3.2-4.1c-1-1.3-1.9-2.6-2.9-3.9c-0.7-0.9-1.4-1.6-2.6-0.9c-1,0.7-0.8,1.5-0.4,2.4c0.7,1.8,1.3,3.8,2.7,5.2
	c9.8,9.5-0.3,22.9-10.5,24.1c-6.5,0.7-12.2-0.7-17.4-4.3c-1.7-1.2-3.4-2.4-4.9-3.9c-5.3-5.6-11.8-9.6-18.1-14
	c-1.5-1-3.1-1.5-4.9-1.5c-0.9,0-2-0.1-2.3,1.1c-0.3,1.2,0.7,1.6,1.5,2c4.3,2.2,8.1,5,11.9,7.7c2.3,1.6,4.2,3.6,6,5.7
	c9.1,10.9,20.4,14.3,34,10.4c0.6-0.2,1.1-0.4,1.7-0.5c1.4-0.4,2.2,0,2.7,1.4c3,9,1.9,19.7-8.3,25.8c-10,6-23.3,5.8-32.8-3.3
	c-3.5-3.3-7.6-5.7-11.6-8.3c-1-0.7-1.9-0.8-2.7,0.3c-0.8,1.1-0.4,1.9,0.4,2.8c2.1,2.3,4.6,4.3,7.2,6c2,1.4,4,2.7,5.8,4.4
	c0.8,0.8,1.6,1.7,2,2.8c0.8,2.1,0.5,3.5-1.3,4.9c-2.3,1.7-4.8,3.4-7.9,3.3c-0.7,0-1.4,0.1-2.1,1.1c2.4,2.1,5,3.4,8.4,2.6
	c2.8-0.7,5.2-2.1,6.9-4.4c2.2-2.9,4.8-4.1,8.4-3.8c3,0.3,6,0.1,9,0.3c2.7,0.2,3,0.7,3.2,3.5c0.3,3.3-1.2,5.8-3.2,8.2
	c-7.4,8.7-20,11.5-30.4,6.9c-2-0.9-4-1.8-6.1-2.6c-0.8-0.3-1.6-0.4-2.2,0.4c-0.7,0.8-0.2,1.5,0.2,2.2c0.7,1.2,1.6,2.2,2.9,2.9
	c10,5.5,20,6.1,30.1,0.3c0.1-0.1,0.2-0.1,0.3-0.2c4.9-2.8,7.3-2,9.2,3.3c1.9,5.1,0.4,9.8-4.4,12.5c-3.5,2-7.3,3.6-10.9,5.3
	c-5.6,2.5-11.2,5-16.8,7.5c-0.6,0.3-1.2,0.6-1.8,1c-0.8,0.5-0.7,1.2-0.1,1.7c1.5,1.4,3.3,2,5.4,1.5c2.3-0.6,4.4-1.6,6.4-2.6
	c4.9-2.4,9.8-4.8,14.7-7.2c1.2-0.6,2.5-1.2,3.8-1.6c2.2-0.6,4,0.2,4.7,2.4c1.4,4.3,1.2,8.4-2.2,12c-5.6,6-12.3,10.1-20.5,11.7
	c-1.4,0.3-3,0.3-4.2,1.7c2.8,2.7,6,3,9.4,2.2c5-1.2,9.2-3.8,12.8-7.4c2.3-2.2,4.6-4.2,7.3-5.8c4.8-2.8,10-3.8,15.4-2.4
	c4.1,1.1,7.6,0,10.7-2.5c3.7-2.9,6.6-6.4,8.4-11.6c-3,1.3-5.1,2.7-7.1,4.4c-2.2,1.8-4.5,3.2-7.1,4.4c-6.5,2.8-12.8,1-16.6-5
	c-1.7-2.7-2.7-5.6-3.4-8.7c-1.3-5.7-1.2-11.5-1.4-17.3c-0.1-4.3,0-8.6,0-12.9c0-6.6,2.7-11.5,8.2-15.2c1.6-1.1,2.6-1,3.8,0.3
	c3.6,3.9,7.3,7.8,10.9,11.7c3.2,3.5,6.5,6.9,9.7,10.4c0.3,0.3,0.7,0.6,0.7,1.5c-7.5-0.7-14.8-2.8-22.4-3.4c1.5,4.4,5.3,7,10.3,7.1
	c2.2,0,4.4-0.2,6.6-0.1c4.9,0.2,7.9,3.5,7.9,8.3c0,2.4-1.1,4.2-2.9,5.6c-1.8,1.4-3.9,2.1-6,2.8c-2.6,0.9-5.2,1.8-7.7,3.6
	c0.7,0.9,1.5,1.2,2.4,1.2c6.5,0,12.4-1.6,17.1-6.3c1.3-1.3,2.7-2.6,4.2-3.6c1.3-0.8,2.1-0.6,2.8,0.8c0.4,0.7,0.8,1.4,1.2,2.1
	c3.3,5.5,1.9,9.7-2.5,13.9c-2.2,2.1-4.9,3.5-7.5,5c-4.2,2.3-8.3,4.6-12.5,6.9c-1.2,0.7-2.2,1.2-1.4,2.9c0.8,1.7,2,0.6,3,0.4
	c1.9-0.5,3.7-1.1,6-1.7c-0.3,4-2.4,6.5-5.3,8.2c-3.5,2.1-7.3,1.7-11.2,1.1c-0.5-0.1-0.9-0.3-1.3-0.4c-4.1-1.3-4.1-1.5-2.3-5.2
	c0.4-0.8,0.8-1.7,1.2-2.5c0.4-0.9,0.2-1.6-0.5-2.2c-0.7-0.6-1.3-0.2-1.9,0.2c-2.1,1.5-4.1,2.9-5.8,4.9c-2.5,2.9-4.8,6-7.8,8.4
	c-10.3,8.3-26.2,6.3-34.1-4.3c-1.6-2.1-1.6-2.4,0.7-3.7c2.2-1.3,4.4-2.5,6.7-3.7c0.7-0.4,1.4-0.9,1.1-1.9c-0.3-0.9-1-1.2-1.9-1.2
	c-1.3-0.1-2.5,0.3-3.7,0.7c-2.1,0.6-4.3,1-6.5,0.8c-6.2-0.6-11.1-5.1-12.4-11.8c-0.9-4.8-1.6-9.6-2.2-14.4c-0.4-2.9-0.1-3.2,2.9-2.9
	c2.3,0.3,4.6,0.7,6.9,1c1.1,0.2,2.3,0.3,3.5,0.3c0.9,0,1.5-0.5,1.7-1.4c0.2-0.8-0.4-1.3-1.1-1.5c-1.2-0.5-2.4-1-3.5-1.4
	c-1.4-0.6-2.8-1.1-4.2-1.7c-4.7-2.1-7.5-5.6-8.4-10.7c-0.9-5.9-2-11.9-2.9-17.8c-0.5-2.8-0.4-2.9,2.6-2.9c1.3,0,2.5,0.1,3.8,0.3
	c1.6,0.2,3.2,0.1,4.8,0c0.8,0,1.2-0.7,1.4-1.4c0.2-0.9-0.5-1.1-1.2-1.4c-1.5-0.6-3.1-1.1-4.5-1.9c-4.2-2.3-6.5-5.8-6.9-10.6
	c-0.3-3.6,0-7.2,0.1-10.7c0-1.8,0.1-3.7,0-5.6c-0.2-4.8,2.7-6.6,6.9-4.3c5.4,3,10.6,6.2,15.9,9.3c2.1,1.2,4.1,2.6,6.2,3.9
	c3.8,2.2,7.8,2.8,11.9,1.1c0.1-1.3-0.9-1.4-1.6-1.6c-11.7-5.1-22.4-12.1-33.4-18.5c-6.2-3.6-8.8-9.1-9.6-16
	c-0.9-8.2,1.5-15.3,6.4-21.7c0.3-0.4,0.6-0.7,0.9-1.1c0.2-0.2,0.4-0.2,0.6-0.4c1,0.1,1.2,1,1.5,1.7c1.1,2.7,3.2,4.4,5.7,5.9
	c8.3,5.1,17.5,7.3,26.9,8.7c2.5,0.4,5,0.7,7.5,1.2c1.2,0.2,2,0.2,2.4-1.2c0.3-1.1,1.5-1.4,2.4-1.9c4.3-2.6,8.6-5,12.8-7.7
	c4.4-2.8,8.9-2.9,13.6-0.7c3.3,1.5,6.8,2.3,10.4,2.2c4.7-0.1,8.2-2.2,10.6-6.2c0.9-1.5,1.5-3.1,2-4.8c1.2-4.4,1.7-8.9,2.2-13.3
	c0.2-1.2,0.2-2.4-1.4-2.7c-1.6-0.3-1.9,0.9-2.3,2c-0.8,2.2-1.4,4.4-1.8,6.7c-0.6,3.5-1.9,6.7-4,9.5c-2.8,3.7-6.9,5-11.4,3.9
	c-3.7-0.9-6.8-2.9-9.6-5.5c-2-1.8-2.5-4.4-2.9-6.9c-0.5-3-0.8-6-0.7-9c0.1-1.7,0-3.5,0-5.2c0-1,0.2-2.3-1.2-2.5
	c-1.5-0.2-1.6,1-1.9,2c-1,3.2-1.2,6.6-1.3,10c-0.1,4.5-0.4,9-1.8,13.4c-1.2,4-3.9,6.5-7.7,8c-2.3,0.9-4.7,1.4-7.1,1.6
	c-7,0.8-14,1.4-21.1,0.4c-14.6-2-21.3-13.8-21.9-24.1c-0.3-4.3,1.3-5.8,5.6-5.1c3,0.5,5.9,1.2,8.9,1.2c5.5-0.1,10.5-1.6,14.8-5.1
	c1.9-1.5,3.8-3,5.6-4.7c1.7-1.5,2.3-4,1.5-4.9c-0.6-0.6-3.4-0.1-4.9,1c-0.9,0.7-1.7,1.5-2.6,2.3c-3,2.9-6.5,5.2-10.6,6.4
	c-6.5,1.9-12.6-0.2-16.6-5.6c-1.5-2.1-2.6-4.4-3.3-6.8c-1-3.5-1.6-7-1.9-10.6c-0.5-6.7-1-13.4-0.8-20.1c0-0.3,0-0.7,0-1
	c0.2-3.3,1.7-4.3,4.9-3c0.7,0.3,1.4,0.7,2.1,1.1c2.4,1.4,4.8,2.7,7.2,4.2c1,0.6,1.9,0.7,2.7-0.4c0.7-1,0.1-1.7-0.5-2.4
	c-2-2-3.7-4.2-6.5-5.1c-8.7-2.8-10.9-9.2-10.7-16.3c0.2-6.8,1.4-13.6,2.3-20.3c0.5-3.7,2.7-4.6,5.9-2.6c3.1,1.9,5.5,4.4,6.9,8
	c3,8.1,8.9,13.5,16.8,16.6c6.7,2.6,10.8,7.2,13.3,13.7c0.8,2.1,1.7,4,2.6,6.1c0.5,1,1.1,1.8,2.4,1.3c1.1-0.4,1.2-1.3,1.1-2.2
	c-0.6-3.4-0.9-6.8-2.8-9.9c-2.1-3.5-2.3-7.4-0.8-11.4c0.9-2.5,1.8-5,1.7-7.8c0-0.9,0-1.7-1-2c-1-0.4-1.4,0.4-1.9,1.1
	c-1.2,1.6-1.8,3.5-2.6,5.3c-1.5,3.2-3.8,4.3-7,3c-7.3-3.2-13.5-7.7-17.1-15.1c-0.5-1.1-1.1-2.3-1.4-3.5c-1.5-5.7-2.3-11.6-2.4-17.5
	c-0.1-4.1,1-8,3.5-11.5c0.4-0.6,0.8-1.1,1.1-1.8c0.5-1.3,0-2.3-1-3c-1-0.7-1.7,0.2-2.3,0.8c-3,3.1-4.7,6.8-5.3,11.1
	c-0.4,3.2-0.7,6.4-0.7,9.7c0,2.3-0.4,2.6-2.7,2.4c-6-0.6-9.9-4.7-10-10.9c-0.1-5.8,0.8-11.5,1.6-17.3c0.8-5.8,1.8-11.7,2.7-17.5
	c0.1-0.7,0.2-1.4,0.5-2c0.7-1.7,1.9-2,3.1-0.5c1.6,1.8,3.1,3.7,4.6,5.6c6.7,8.3,13.7,16.3,21.2,23.9c2.1,2.1,4.4,4.1,6.7,6
	c2.9,2.5,4.3,5.3,3.1,9.2c-0.9,2.8-0.4,5.8-0.4,8.7c0,0.8,0.1,1.6,1.2,1.8c1.1,0.1,1.8-0.4,2-1.4c0.3-1.3,0.6-2.7,0.9-4.1
	c0.2-0.8,0.2-1.6,0.4-2.4c1.5-6.8,3.5-8.7,10.4-9.6c6.2-0.8,11.1-3.7,15.1-8.3c1.4-1.7,2.7-3.5,4-5.3c5-6.6,12.8-7.1,18.5-1.2
	c1.5,1.6,2.7,3.5,3.7,5.5c1.2,2.5,2.8,4.8,5,6.6c3.6,2.9,4.5,6.5,3,10.9c-0.9,2.6-2.2,5.1-2.2,8c0,1.1-0.1,2.1,1.2,2.6
	c1.4,0.4,1.9-0.5,2.3-1.5c0.9-1.9,1.8-3.8,2.8-5.6c2.3-4.3,5.6-6.4,10.7-6.1c8.1,0.5,15.3-2.1,20.9-8.3c1.5-1.6,2.8-3.4,3.9-5.3
	c2.4-4.4,4.1-9.1,5.5-13.9c2.5-8.3,1.2-16.3-1.9-24.1c-1.7-4.3-3.7-8.5-5.5-12.7c-0.2-0.4-0.4-0.8-0.6-1.2c-0.3-0.6-0.7-1.3-0.1-1.9
	c0.6-0.7,1.3-0.2,1.8,0.2c2.7,1.8,5.5,3.5,7.5,6.2c4.4,5.7,8.5,11.6,11.5,18.2c4.9,10.5,4.2,20.8-3,29.7
	c-6.9,8.5-10.6,18.1-12.2,28.7c-0.3,2.1-1,4.4,0.9,6.2c1.5,1.5,2.2,1.5,2.8-0.5c1.1-3.5,2-7.1,3-10.7c1-3.6,1.8-7.2,3-10.7
	c1.8-5.5,5.8-7.6,11.4-6.2c5.1,1.2,10,3,14.7,5.2c3.9,1.8,5.9,4.6,5.8,9c-0.1,5.4-1.7,10.5-2.5,15.8c-0.5,3.3-1.1,6.6-1.6,9.9
	c-0.4,2.4,0,4.9,0.6,7.2c0.4,1.5,1.8,1.8,2.8,0.7c0.8-0.9,1.1-2,1.3-3.2c0.5-2.6,0.5-5.3,0.5-8c0-3.8,0.7-7.4,2-10.9
	c1.7-4.5,4.9-7.5,9.3-9.3c2.5-1,5.1-1.5,7.7-2C632.3,1693.8,633.7,1694,635.2,1694.9z"/>
<path class="st2" d="M649.9,1537.3c-4.6-17.7-23.7-26-40.7-18.5c-3.5,1.6-6.7,3.7-9.5,6.4c-5.1,4.8-10.4,9.2-16,13.4
	c-0.7,0.6-1.5,1.1-2.1,1.8c-2.3,2.3-2.7,4.4-1.2,7.2c0.7,1.4,1.7,2.8,2.6,4.1c0.6,1,0.5,1.7-0.5,2.4c-0.6,0.4-1.1,0.8-1.8,1.1
	c-11.3,5.6-26.3-1.1-27.8-14.8c-0.3-3.2,0.4-6.2,2.1-9c3.3-5.5,7.1-10.6,10.9-15.7c3.4-4.6,7.1-8.9,9.9-13.9
	c0.4-0.7,0.8-1.4,1.2-2.1c0.3-0.6,0.1-1.1-0.4-1.5c-0.6-0.5-1.2-0.8-1.9-0.2c-0.5,0.4-0.8,0.8-1.2,1.2c-6.5,7.1-12.7,14.4-18.4,22.2
	c-3.3,4.4-5.8,9.2-6.6,14.8c-0.5,3.3-2.5,5-5.9,5c-1.5,0-3-0.3-4.4-0.8c-11.6-3.8-17.1-17.9-11.2-28.8c2.4-4.4,5.1-8.6,7.7-12.8
	c4.2-6.7,8.5-13.3,12.8-19.9c1-1.5,1.7-3,2.1-4.7c0.5-1.9,0.1-2.4-1.7-2.4c-1.3,0-2.5,0.1-3.8,0.6c-9.2,3.6-18.3,7.1-27.2,11.4
	c-5.1,2.5-6.3,7-7.6,11.8c-0.3,1.3,0.5,2,1.4,2.5c2.2,1.3,4.4,2.6,6.6,3.8c1.6,0.8,2.8,2,3.9,3.4c0.8,1,1,1.8-0.2,2.6
	c-1.2,0.9-2.4,1.9-3.9,2.2c-5.7,1.3-11.4,2.1-17.2,1.3c-9.6-1.4-15.2-6.7-16.8-16.4c-1.2-7.4-0.7-14.8,1.6-22
	c2.4-7.5,7.3-13.1,13.9-17.2c3.7-2.3,7.6-4,11.4-5.9c7.2-3.5,14.4-7,21.6-10.5c2-1,3.8-2.2,5.5-3.7c0.8-0.8,1.5-1.4,0.6-2.6
	c-0.8-1-1.6-0.6-2.4-0.2c-1.8,1-3.7,2-5.5,3c-3.1,1.6-6.3,2.8-9.7,3.7c-3.9,0.9-7.7,1.2-11.7,0.3c-8.4-2-15.9-0.1-22.4,5.4
	c-9.7,8.1-20.4,14.9-31.1,21.6c-2.7,1.7-5.5,3-8.7,3.3c-3.8,0.3-6.9-0.9-8.9-4.2c-2-3.2-1.1-6.2,0.8-9.1c1.2-1.9,2.7-3.4,4.3-5
	c12.3-12,25-23.5,37.8-34.9c5.5-4.9,12.1-6.7,19.2-6.7c10.3-0.1,20.3,1.7,30.2,4.4c15.8,4.4,30.9,10.7,46,17
	c20.9,8.7,41.2,18.6,60.5,30.4c23.1,14,43.4,31.3,59.7,53c5.2,6.9,10.5,13.6,15.6,20.4c10.5,14,18.8,29.2,24.7,45.7
	c2.5,7.1,5.1,14.2,7.7,21.3c0.4,1.1,1.5,2.4,0,3.4c-1.4,1-2.4-0.3-3.4-0.9c-9.3-6.1-18.6-12.2-28-18.2
	c-16.8-10.9-33.6-21.9-50.5-32.7C655.7,1550,651.5,1544.8,649.9,1537.3z"/>
<path class="st2" d="M262.9,1575.1c-1.5-3-3.7-5-6.4-6.5c-4.6-2.5-8.9-5.4-13.5-7.9c-9.3-5-19.2-6.3-29.7-4.8
	c-8,1.1-16.1,2.2-24.2,1.1c-3.5-0.5-6.8-1.2-10.2-2.3c-1.5-0.5-3.3-1.2-4,0.5c-0.7,1.7,1.2,2.5,2.4,3.3c1.9,1.2,4.1,1.6,6.2,2.3
	c2,0.6,4,1.1,5.7,2.9c-2.4,1.2-4.7,0.8-6.9,0.4c-3.7-0.6-7.3-1.3-11-1.9c-8.4-1.4-15.4,1.4-21,7.5c-6.3,6.9-9.5,15-8.8,24.5
	c0.4,5.7-1.8,10.1-6.3,13.5c-12.6,9.8-25.2,19.7-37.8,29.5c-6.5,5.1-13,10.1-19.5,15.2c-1.6,1.3-3.4,2.4-5.8,2.7
	c0-4.7,0.7-9.3,1.2-13.8c2-18.6,8.1-35.9,17-52.3c13.2-24.3,29.5-46.3,49.3-65.7c12.9-12.6,27.3-23.4,42.4-33.1
	c25.9-16.5,52.3-32.2,79.6-46.4c2.2-1.1,4.3-2.4,6.3-3.7c3.6-2.4,6.2-5.5,7.7-9.6c1.2-3.3,3.5-6,5.7-8.6c1.7,0.5,2.7,1.7,3.9,2.6
	c4.4,3.5,8.6,7,13,10.5c1.5,1.2,1.9,2.5,1.6,4.2c-0.9,5.8-4.1,9.7-9.7,11.6c-3.5,1.2-7.2,1.5-10.9,2.1c-0.2,0-0.5,0-0.7,0.1
	c-1.3,0.4-3.6-0.4-3.5,1.7c0.1,1.9,2.3,1.5,3.7,1.7c4.4,0.5,8.8-0.3,13.1-1c5.3-0.9,10.6-1.1,15.9,0.2c8.7,2.1,15.4,7.4,20.8,14.2
	c4,5.1,7.8,10.4,11.4,15.8c3.7,5.5,7.2,11.1,10.8,16.6c2.5,3.8,3.9,8.1,5.1,12.5c1.2,4.6-0.5,8.4-2.3,12.3c-0.4,0.9-1.1,0.9-2,0.8
	c-4.2-0.8-7.8-2.3-10.7-5.8c-5.1-6.3-10.3-12.6-15.2-19c-7.1-9.5-16.7-13.2-28.2-12.6c-4.6,0.2-9.2,0.9-13.9,0.7
	c-4.7-0.2-6.7,1.7-8.3,6.4c-0.7,2.1-0.7,2.2-2.9,1.5c-1.2-0.4-2.4-0.8-3.6-1.2c-0.6-0.2-1.1,0.1-1.5,0.6c-0.4,0.6-0.1,1.1,0.3,1.5
	c0.5,0.5,1,1,1.5,1.5c6.4,6.5,13.2,12.3,20.3,18c3.5,2.8,7,5.8,10.4,8.7c1.4,1.2,2.7,2.6,3.9,4c9.9,11.5,1,28-10.9,29.9
	c-6.6,1-11.1-1.2-12.7-7.7c-1-4.2-3.2-7.3-6.3-10c-8.2-7-16.2-14.2-24.3-21.4c-1.6-1.4-3.3-2.5-5.1-3.6c-0.8-0.4-1.5-0.5-2.1,0.4
	c-0.5,0.7-0.3,1.3,0.2,1.9c0.6,0.7,1.2,1.4,1.8,2.1c7.6,8.6,15.9,16.5,23.7,25c3.4,3.7,6.8,7.3,9.7,11.4c5,7,1.7,16.2-6.6,18.6
	C266.6,1580,265.2,1579.4,262.9,1575.1z"/>
<path class="st1" d="M211,1816.2c-0.5-1.4,0.3-1.9,1.1-2.4c1.5-1,3.3-1.5,4.9-3.2c-1.4-0.5-2.6-0.9-3.7-1.4
	c-7.2-2.8-12.4-7.6-14.7-15.1c-1.3-4.1-2.3-8.2-3.1-12.5c-0.2-1.1-0.3-2.3-0.3-3.5c0.1-3.7,1.5-4.8,5-4.1c2.7,0.5,2.7,0.5,2.1-2.3
	c-1-5-2.1-10-3.1-15c-0.1-0.7-0.3-1.4-0.4-2c-0.2-1.2,0.4-1.8,1.6-1.6c1.6,0.3,3.2,0.7,4.8,0.9c1.7,0.3,2.1-0.2,1.5-1.9
	c-1-2.6-2.1-5.1-3.1-7.7c-4.5-11.8,3.2-25.1,15.6-27.2c2.1-0.4,3.9,0.3,5.6,1.2c3,1.5,6.2,2.6,9.3,3.8c1,0.4,2,0.7,2.7-0.6
	c0.7-1.3,0.1-2.2-1.1-2.8c-1.6-0.9-3.2-1.8-4.8-2.7c-1.4-0.8-2.8-1.6-3.9-2.9c-1.6-2-1.7-4.3,0-6.3c1.5-1.8,3.4-3.2,5.4-4.3
	c3-1.7,6.2-3.2,9.3-4.7c2-1,4-0.9,5.8,0.6c2.2,1.9,4.9,2.6,7.8,2.5c2-0.1,3.9,0,5.9-0.2c2.3-0.3,4.6-0.3,6.9,0.2
	c1.3,0.3,2.3,0.1,3.1-0.9c1.2-1.4,0.7-3-1.1-3.3c-3.3-0.5-6.6-1.2-10-0.8c-2,0.2-3.9,0.2-5.9-0.2c-3.7-0.8-5.7-3.2-6-7.1
	c-0.2-4.5,0.9-8.7,2-13c1.1-4.3,2.5-8.4,4.2-12.5c2.2-5.1,6.3-7.9,11.6-8.1c13.6-0.3,25.4,3.6,33.1,15.8c0.9,1.4,1.8,2.7,2.9,3.9
	c0.8,0.9,1.6,2.3,3.1,1.4c1.6-1,0.5-2.3-0.1-3.3c-2.3-3.6-3.6-7.5-5-11.4c-2.1-5.7-1.8-6.6,3.2-10.1c2.9-2.1,6.2-3.6,9.5-5
	c2-0.8,3.6-0.5,5.1,0.8c2.9,2.5,5.7,5.1,8,8.2c0.6,0.8,1.3,1.7,2,2.4c0.7,0.8,1.5,0.4,2.2-0.1c0.8-0.5,1.1-1.2,0.6-2
	c-1.5-2.3-3.1-4.6-4.6-6.9c-1.3-1.9-2.5-3.8-4.2-6.3c6.9,1,13.2,1.3,18.9,3.9c2.3,1,3.9,2.8,5.1,5c1.4,2.7,2.2,5.6,3,8.5
	c0.3,1.3,0.1,2.5-0.9,3.5c-3.4,3.9-7.8,6.1-12.7,7.4c-2.4,0.6-4.6-0.3-6.6-1.5c-3.3-2-6-4.7-9.1-7c-0.7-0.5-1.4-1.3-2.4-1
	c-1.5,0.4-2,2.2-0.8,3.6c2.4,2.6,5.1,5.1,8.1,7c5,3.2,6.9,7.9,7.3,13.5c0.1,1.6,0.1,3.2,0.4,4.8c0.7,4.4-2,7.6-6.6,7.7
	c-2.6,0-5.3-0.3-7.9-0.7c-5.2-0.6-10.3-1.5-15.4-2.7c-2.7-0.7-4.9-2-6.4-4.4c-0.7-1.1-1.5-2.1-2.1-3.2c-3.3-6.7-9.2-9.6-16-10.9
	c-3.8-0.7-7.6-0.7-11.4,0.4c-1.2,0.4-2.4,0.7-3.3,1.6c0.3,1.3,1.3,1,2,1.1c4.5,0.7,8.9,1.3,13.4,2.1c2.2,0.4,4.3,1.1,6.2,2.2
	c4,2.5,5.6,6,4.8,10.6c-0.5,2.6-7.5,16.9-9.3,18.9c-4.9,5.3-11.4,6-17.5,1.7c-2.8-2-5.3-4.4-8.3-6.2c-0.9-0.6-1.6-0.7-2.4,0.1
	c-1.1,1.1-0.9,1.9,0.1,2.9c3.1,3,6,6.1,8.4,9.7c3.8,5.6,3.5,5.6-1.2,10.4c-1.9,1.9-4.2,3.2-6.8,4c-1.9,0.6-3.7,1.3-5.5,2.1
	c-2.8,1.4-4.8,3.6-5.8,6.6c-0.2,0.7-0.3,1.4-0.6,2c-1.7,4.2-5.5,5-8.8,1.8c-2.2-2.1-3.5-4.8-5-7.5c-1.4-2.5-2.9-4.8-5.9-5.6
	c-0.9-0.3-1.8-0.6-2.5,0.4c-0.8,1-0.1,1.8,0.4,2.5c1.5,1.9,3.2,3.6,4.7,5.6c4.6,5.9,4.6,10.4,0.2,16.5c-1.6,2.2-3.3,4.2-4.7,6.4
	c-2.9,4.4-4.5,9.1-4,14.4c0.3,2.9-0.8,5.5-2.6,7.7c-2.5,3.1-6,2.8-8-0.6c-0.8-1.3-1.3-2.7-1.8-4.1c-0.5-1.3-1.1-2.5-2.1-3.6
	c-0.5-0.6-1.1-0.8-1.8-0.5c-0.7,0.3-1.1,0.7-1.1,1.6c0.7,8.3,5.4,13.4,14.3,14c0.6,0,1.2-0.1,1.7-0.1c4.2-0.2,5.7,0.7,7.2,4.6
	c0.8,2.1,1.9,3.9,3.6,5.4c1.1,0.9,1.9,2.1,2.5,3.3c2,3.9,1.7,6.3-1.2,9.5c-1.9,2-1.9,2-0.2,4.2c1.6,2.1,3.4,4.1,4.6,6.5
	c1.6,2.9,0.8,7.1-1.7,9.2c-1,0.9-1.8,0-2.4-0.4c-5.4-3.8-9.7-8.6-12.3-14.7C212.4,1820.9,211.8,1818.6,211,1816.2z"/>
<path class="st1" d="M575.6,1871.5c4.1,5.4,4.1,11.4,3.3,17.5c-0.8,6-3.7,11.1-7.9,15.5c-5.2,5.5-11.2,9.6-17.9,13
	c-4.4,2.2-9.1,4.1-13,7.4c-1,0.8-2.9,1.3-2.3,3c0.7,1.9,2.4,0.8,3.6,0.7c2.9-0.3,3.6,0.2,3.6,3.1c0,4.5-1.5,8.7-4.1,12.4
	c-4.1,5.9-9.6,9.9-16.6,11.9c-0.8,0.2-1.6,0.5-2.4,0.1c-0.5-1,0.4-1.4,0.8-2c2.9-3.6,5.8-7.2,8.8-10.8c1.2-1.4,2.1-3,3-4.7
	c3.6-6.4,0-14.6-4.9-17.3c-0.9-0.5-1.8-1-2.7-1.6c-2.9-2-4-4.1-3.4-6.6c0.6-2.6,3.7-5.3,6.5-5.6c1.8-0.2,3.7-0.1,5.5,0.6
	c4.6,2,9.5,3,14.5,3.2c9.3,0.4,15.4-6.2,16.8-12.8c0.7-3.1,0.3-6.2,0.2-9.3c-0.2-4.5-0.7-9-1-13.5c-0.1-1.2,0-2.4-1.8-2.4
	c-1.7,0-2.1,1.1-2.3,2.4c-0.4,2.5-0.1,5.1,0.2,7.6c0.5,3.9,0.6,7.9,0.5,11.8c-0.1,4.6-2.3,7.8-6.6,9.8c-5.8,2.6-11.4,2.8-17-0.4
	c-1.7-1-2.6-2.2-2.4-4.2c0.1-1.4,0.2-2.8,0.2-4.2c0-0.7,0.1-1.4-0.7-1.8c-0.8-0.3-1.6-0.1-2.2,0.5c-0.9,1.1-1.8,2.2-2.5,3.3
	c-1.5,2.2-3.4,4.1-5.7,5.5c-3,1.9-6.1,2.1-9.3,0.7c-2.7-1.2-5-3-7-5.1c-3.8-4.1-7.2-8.5-10-13.3c-1.3-2.4-1.9-4.8-1.4-7.3
	c0.9-5.2,0.4-10.4,1-15.6c0.2-1.7,0-3.4-0.4-5.2c-1.1-5.3,0.9-9.7,4.9-12.9c4.2-3.4,9-4.6,14.3-2.6c1.6,0.6,2.6,1.8,3.4,3.3
	c1.2,2.4,1.9,5,2.8,7.5c0.3,0.8,0.5,1.5,0.8,2.3c0.3,0.8,1,1,1.7,0.9c0.8-0.1,1.2-0.7,1.1-1.5c-0.1-2-0.1-3.9-0.4-5.9
	c-0.3-1.7-0.3-3.4-0.4-5.2c-0.1-3.1,1-5.8,3.3-7.7c3.7-3.2,6.8-7,10-10.6c0.6-0.7,1.3-1.3,2-2c0.7-0.8,1.5-0.9,2.5-0.5
	c2.9,1.2,5.8,2.2,8.7,3.4c3.9,1.5,6.6,4.2,7.5,8.4c0.5,2.5,2.3,4.3,3.6,6.3c0.3,0.5,0.7,1,1.4,0.7c0.6-0.3,0.8-0.8,1-1.3
	c0.2-0.6-0.1-1.1-0.3-1.7c-0.3-1-0.7-1.9-1-3c-1.1-4.3,0.3-7.6,4.5-8.8c3.7-1.1,6.4-2.7,8.7-6c2.2-3.2,5.9-4.2,9.9-3.7
	c4.4,0.6,8.5,2.3,12.8,3.1c1.5,0.3,1.8,1.2,1.7,2.5c-0.3,5-2.1,9.3-6.5,12.1c-2.1,1.4-4.4,2.5-6.7,3.6c-4.1,1.9-5.9,1.3-8.6-2.3
	c-0.4-0.5-0.8-1.1-1.3-1.8c-1.6,0.9-1.9,2-1.4,3.5c1,3.1,1.8,6.2,2.8,9.3c2,6.2,0.7,9.8-4.6,13.4c-12.6,8.5-27.5-0.3-29.3-12.4
	c-0.4-2.6-0.7-5.3-2-7.7c-0.3-0.5-0.5-1.1-1.1-1.2c-0.9-0.1-1,0.8-1.3,1.4c-0.8,1.7-0.5,3.4-0.2,5.1c0.9,5.2,1.9,10.5,3.6,15.5
	c3.3,9.5-2.3,18.4-8.3,21.5c-2,1-4.1,1.6-6.3,2c-3.2,0.4-5.6-1-7.7-3.2c-2.5-2.7-4.3-5.7-5.8-9c-1.1-2.4-2.2-4.9-3.3-7.3
	c-0.3-0.6-0.6-1.3-0.9-1.9c-0.5-0.8-1.2-1.6-2.2-1.2c-1,0.3-0.7,1.4-0.7,2.1c0,6.1,2.5,11.5,5.5,16.6c1.3,2.2,2.9,4.2,4.7,6
	c3.3,3.2,7.2,4.2,11.5,3.2c8.7-1.9,14.7-7.1,17.8-15.5c0.6-1.7,1.1-3.5,2.2-5.1c1.3-1.9,3.2-3.1,5.3-2.5c3.6,1.1,7.3,1.1,10.9,1.6
	C571.8,1869.3,573.7,1870,575.6,1871.5z"/>
<path class="st1" d="M609.9,1627.1c-6.3-12.5-10.7-25.4-15.3-38.3c-2.3-6.3-4.5-12.7-5.8-19.3c-3.1-15.5,0.3-29.2,11-40.9
	c11.2-12.2,27.7-10,35.9-1.3c3.5,3.6,5.3,8,6.1,13.2c-1.6,0.1-2.8-0.5-4.1-1c-4.4-1.7-8.9-2.6-13.6-2c-8.6,1-14.8,7.9-15.5,17
	c-0.8,11.3,2.1,21.8,7.6,31.6c2.4,4.2,5.1,8.3,7.4,12.5c4.4,8,7.1,16.5,7,25.9c-0.1,5.3-1.8,10-4,14.6c-0.7,1.4-1.6,1.3-2.8,0.9
	c-5-1.9-9.3-4.6-11.9-9.5C611.4,1629.5,610.7,1628.4,609.9,1627.1z"/>
<path class="st1" d="M568.2,1648.1c-0.4,8.7-3.2,16.3-7.8,23.4c-8.1,12.3-22.3,11.8-31.4,5.4c-2.7-1.9-4.8-4.3-6.2-7.3
	c-2.4-4.9-1.8-7.4,2.9-10.1c2.7-1.5,5-3.3,7.1-5.5c6.6-7.1,8.6-15.6,7.2-25.1c-0.3-2.3-1.3-4.2-4.1-4.8c-0.7,3.1-1,6.3-1.1,9.5
	c-0.1,2.7-0.2,5.3-0.7,7.9c-2.2,10.2-8.4,15.5-18.8,16.3c-4.4,0.3-8.3-0.4-11.8-3.7c1.3-2.5,2.8-4.9,5.6-6.1c2.2-1,4.3-2.2,6.2-3.8
	c4-3.3,6-7.6,6.1-12.7c0-2.5,0-5.1,0-7.6c0.1-4.8,1.4-6.4,5.9-7.7c2-0.6,4.1-0.8,6.1-1.6c6.3-2.3,12.2-0.9,17.6,2.4
	c6.2,3.7,10.6,8.9,11.8,16.3c0.5,3-0.4,5.8-1.7,8.4c-4.4,8.7-11,14.8-20.9,16.7c-1.8,0.4-3.6,0.6-5,2c3.8,3.4,10.2,3.1,13.7,0.7
	c3.4-2.4,6.4-5.3,9.2-8.4c2.6-2.9,5.1-6,7.7-9c0.4-0.4,0.6-1,1.4-1C568.3,1644.1,568,1646,568.2,1648.1z"/>
<path class="st1" d="M461,1653.8c8.1,3.3,16.1-0.7,19.5-7.8c4.9-10.3,5.1-20.5-1.5-30.3c-0.9-1.4-2.1-2.7-2.4-4.6
	c2-1.2,4.1-0.9,6.1-1.1c6.1-0.6,12.2-1.3,18.3-1.1c7.9,0.2,15.1,6.9,15.8,14.8c0.3,3.6,0.2,7.2-0.9,10.6c-1,3.4-3.2,5.9-6.4,7.4
	c-2.8,1.3-3.5,1.1-4.6-1.8c-3-8-6-16.1-9-24.1c-0.3-0.8-0.6-1.5-0.9-2.3c-0.4-1.1-1-1.8-2.3-1.3c-1.3,0.4-2.1,0.9-1.8,2.4
	c0.5,3.1,1.3,6.1,3.1,8.8c3.3,5.1,5.4,10.7,5.5,16.9c0,3.1-0.1,6.3-1,9.3c-2.5,8.4-6.1,16.3-13.1,22.1c-7.3,6-15.9,6.5-24,1.8
	c-4-2.3-7.3-5.3-10-9c-6.9-9.3-14.8-17.8-22.7-26.3c-1.3-1.5-2.5-3-2.9-5c-0.3-1.4,0-2.2,1.4-2.6c4.9-1.5,9.1-0.2,13,2.8
	c1.5,1.1,2.5,2.7,3.5,4.3C447.8,1644.6,454.1,1649.3,461,1653.8z"/>
<path class="st1" d="M159.9,1566.4c15-2.4,31.7,4.2,36,23c2.5,10.9,3.9,22.1,5.5,33.2c0.1,0.8,0.1,1.6,0.3,2.4
	c1.4,4.8-0.1,8.9-2.7,12.8c-1.8,2.7-3.7,5.3-6.3,7.3c-3.5,2.7-6,1.8-7.9-2.3c-1.1-2.3-1.1-5-1.5-7.5c-1.2-7.5-2.1-15.1-3.5-22.6
	c-1.5-7.9-4.6-15-9.2-21.5c-3.2-4.5-7.8-5.7-12.8-3.5c-4.2,1.8-7.6,4.8-11.3,7.4c-2.9,2-3.5,1.8-4.1-1.8c-0.3-1.7-0.4-3.5,0-5.2
	C144.6,1578.1,149.8,1570.5,159.9,1566.4z"/>
<path class="st1" d="M448.4,1635.4c-1.9-3.2-1.9-4,0.4-6.3c5.7-5.9,7.2-15,3.8-22.5c-0.6-1.4-1.5-2.6-2.6-3.6
	c-1-0.9-2.3-1.5-3.4-0.6c-1,0.8-1.5,2-1,3.4c0.4,1.2,0.9,2.4,1.6,3.5c1.3,2.1,2.3,4.3,2.7,6.7c1,5.5-2.3,9.6-7.9,9.8
	c-3.5,0.1-6.9,0-10.4-0.8c-4.6-1.1-7.1-4-7.9-8.6c-0.4-2.3-0.4-4.6-0.2-6.9c0.4-4.5,0.9-9,1.5-13.4c0.4-3,1.9-4.4,4.9-4.4
	c5.1,0,9.8-1.4,14.3-3.7c2.6-1.3,4.1-0.9,5.8,1.3c5.7,7.9,12.7,14.8,19.2,22c5.6,6.2,9.3,13.2,10.1,21.7c0.2,2.3,0,4.3-1.5,6.2
	c-2,2.6-3.7,5.3-5.7,7.9c-2.7,3.5-6.3,4-9.9,1.3c-2.3-1.7-4.5-3.6-6.5-5.7C453.1,1640.2,450.8,1637.9,448.4,1635.4z"/>
<path class="st1" d="M337,1423.5c5.6,1.2,10.9,2.4,16.1,4.1c1.4,0.5,2.9,0.9,4.1,1.8c1.8,1.3,2,2.2,0.7,4.1
	c-0.7,1.1-1.7,1.9-2.7,2.7c-2.1,1.6-4.2,3.3-6.2,5c-2.2,1.8-4.7,2.2-7.2,1.5c-11.8-3.4-24.1-4.6-35.8-8.2
	c-6.6-2.1-12.7-4.9-17.7-9.8c-4.9-4.9-7.3-10.9-8.2-17.6c-1.1-8.1,1-15.2,6.4-21.1c4.5-4.9,10.2-6.1,16.5-4.5
	c1.6,0.4,3.1,0.8,4.6,1.7c-0.6,1.4-1.9,1.7-2.8,2.5c-5.8,4.3-7.6,9.5-5.8,16.5c2.3,8.7,7.8,14.5,16.3,17.6c3.6,1.3,7.3,2.2,11.2,2.1
	C329.9,1421.7,333.3,1422.8,337,1423.5z"/>
<path class="st1" d="M636,1660.2c-5.8,5.1-12.1,5.5-18.7,2.9c-6.1-2.4-11.3-6.3-16.4-10.4c-5.7-4.5-10.2-10-14-16.2
	c-4.1-6.8-9.2-12.7-14.2-18.8c-1.5-1.8-2.9-3.6-4.4-5.4c-1-1.1-0.9-1.9,0-3c1.9-2.2,3.4-4.7,5-7.1c2.5-3.8,5.7-4.1,9-1
	c4.1,3.9,7.7,8.3,11.4,12.6c5.5,6.4,10.7,13,15.2,20.3c2.3,3.7,5.1,6.9,8.9,9.1c2.1,1.2,4.4,1.8,6.9,2.3c2.4,0.5,4.1-0.3,5.3-2.3
	c1.8-3.1,3.6-6.2,5.3-9.3c3,1.8,5.6,6.9,5.9,11.2C641.8,1650.8,639.9,1655.7,636,1660.2z"/>
<path class="st1" d="M306.7,1626.7c1.9-1.1,3.6-2.1,5.3-3.1c0.9-0.5,1.7-0.6,2.2,0.6c1.2,2.7,2.2,5.4,2.5,8.3
	c0.3,2.6-0.7,4.8-2.8,6.4c-5.9,4.1-12.2,7.4-19.5,7.5c-11.3,0.3-23.3-6.6-26.6-20.1c-0.4-1.7-0.4-3.5-0.2-5.2c0.8-6,0.2-12,0.6-18
	c0.4-5.3,0.7-10.6,1.4-15.9c0.4-2.9,2-5.2,4.1-7.1c1.7-1.6,3.6-2.9,5.6-4.1c2.1-1.3,4.2-2.2,6.5-0.5c2.3,1.7,3.5,4.1,3,6.9
	c-0.6,3.3-1.6,6.5-2.4,9.8c-1.1,4.4-2.2,8.8-3.2,13.1c-0.7,3.1-0.7,6.2-0.4,9.3c1.1,10,10.6,16,20.3,13.4
	C304.4,1627.8,305.4,1627.3,306.7,1626.7z"/>
<path class="st1" d="M223.7,1628.3c-3.8,14.2-12.1,25.3-22.6,34.7c-7.9,7.1-13.3,15.7-16.2,25.8c-0.3,1.1-0.6,2.2-1.1,3.3
	c-0.9,1.9-1.5,2-3.1,0.6c-2-1.8-3.4-4.1-4.2-6.7c-1.9-6.6-0.8-12.9,1.8-19c2.8-6.7,7.7-11.8,13.7-15.8c3.8-2.5,7.3-5.2,10.2-8.8
	c4.3-5.3,6.4-11.5,6.6-18.3c0.1-2.5-0.5-5.1-0.9-7.6c-1.3-8.7,2.2-15.2,10.2-18.8c1.7-0.8,2.6-0.4,3.3,1.1c1.9,3.8,3.2,7.7,3.7,11.9
	C225.9,1616.7,225.1,1622.4,223.7,1628.3z"/>
<path class="st1" d="M340.2,1589.2c-2.4-3.4-1.5-7.2-2.2-10.6c-0.2-1-0.1-2.1-0.3-3.1c-0.9-6-3.8-10.3-9.7-12.4
	c-3-1.1-6.1-2.2-9.2-3.2c-2.7-0.9-5.1-2.2-7.3-3.8c-5.3-3.8-3.2-8.6,1.3-10.4c3.2-1.3,6.6-2.3,10-2.7c10.7-1.1,19.7,2.7,27.4,9.9
	c5.3,4.9,9.1,10.7,10.8,17.8c0.9,3.7,1.3,7.5,0.5,11.3c-2,9.6-9.8,13.4-18.6,9.1C342.1,1590.5,341.3,1589.9,340.2,1589.2z"/>
<path class="st1" d="M427.9,1467.5c1.1,3,3.2,4.4,5.9,5.3c2.1,0.7,4.3,1.1,6.4,1.4c1.2,0.2,2.5,0.3,3.9,1.2
	c-15,20.6-35.5,32.1-59.5,38.2c-0.7-1.2-0.2-1.9,0.1-2.6c2.3-6.3,4.6-12.6,6.9-18.9c0.7-2,2-3.5,3.7-4.8
	c9.3-6.8,18.6-13.8,27.9-20.7c1-0.7,1.9-1.7,3.2-2C427.5,1465.1,427.4,1466.3,427.9,1467.5z"/>
<path class="st1" d="M369.3,1582.7c0.9-2.8,1.9-5.3,3.2-7.6c1.3-2.3,3.2-4,5.6-5c1.8-0.7,2.4-0.5,2.7,1.3c0.4,2.2,0.7,4.4,0.6,6.6
	c-0.5,11-4,20.9-12.2,28.7c-5.4,5.2-12,7.6-19.5,8.1c-10.5,0.6-18.5-4-25-11.9c-3.6-4.4-6.3-9.4-8.7-14.6c-0.4-0.9-1.1-1.8-0.6-3.3
	c5.6,1.6,11.5,2.5,16.5,5.8c6.6,4.4,13.8,6.2,21.8,5.8c7.1-0.4,11.7-3.9,14.2-10.3C368.4,1585.2,368.8,1584.1,369.3,1582.7z"/>
<path class="st1" d="M444.3,1496.2c8.6,0.2,16.4-1.7,24-4.7c0.8-0.3,1.5-0.6,2.2-0.9c1.3-0.7,2.2-0.4,2.7,1
	c1.7,4.7,3.6,9.3,4.8,14.1c0.8,3.1-0.5,6.2-3.3,7.7c-7.2,3.9-14.8,6.3-23.1,6.8c-5.9,0.3-11.7-0.1-17.5-1.6
	c-6.6-1.8-8.9-5.5-7.3-12.2c0.5-2.1,0.9-4.3,1.8-6.3c1.3-3.2,3.7-4.6,7.1-4.4C438.5,1495.7,441.2,1496.5,444.3,1496.2z"/>
<path class="st1" d="M506.2,1531.1c-1.1-4.3-2-8.4-3.1-12.4c-0.4-1.6,0-2.5,1.6-2.7c3.2-0.4,6.4-0.7,9.6-1.1
	c1.2-0.1,1.7,0.4,1.7,1.5c0,2.3-0.1,4.6,0.2,6.9c0.9,6.9,4,12.8,8.7,17.8c2,2.2,2.8,4.6,3,7.5c0.8,13.9-11.5,27.6-29.7,24.5
	c-4.7-0.8-9.1-2.6-12.9-5.6c1.7-2.1,5.9-4.7,9.9-6.2c2-0.7,3.9-1.4,5.7-2.5c5.9-3.8,8.8-8.8,7.7-16.1
	C507.9,1539.1,507.2,1535.2,506.2,1531.1z"/>
<path class="st1" d="M287,1651.9c-3.4-0.3-6.8-0.9-10.2-1.5c-4.4-0.7-8.7-0.7-13.1,0.2c-6.7,1.4-11.4,5.3-14.6,11.3
	c-2.4,4.5-3.5,9.3-4.3,14.2c-0.1,0.9,0,1.9-0.7,2.6c-5.6-1-9.6-6.3-8.1-12.7c0.7-2.8,1.6-5.6,2.6-8.3c1-2.8,0.6-5.5-0.3-8.2
	c-0.3-1-1-1.5-2.1-1.4c-1.1,0.1-1.3,0.9-1.4,1.7c-0.9,4.9-1.7,9.8-2.5,14.7c-0.4,2.2-0.7,4.3-1.1,6.5c-0.6,2.9-1.1,3.2-4,2.3
	c-5.1-1.6-8.4-5.2-10.1-10.2c-1.1-3.2-0.9-6.4,0.7-9.4c1.1-2,2.3-4.1,3.3-6.1c1-2,2.6-2.6,4.6-2.2c2.3,0.5,4.6,0.5,6.9,0.7
	c7.9,0.7,15.4-0.7,22.4-4.7c2.9-1.7,5.4-4,7.9-6.3c2,1.7,3.9,3.3,5.7,4.9c4.4,4,9.4,7.2,14.8,9.6
	C284.5,1650.2,285.7,1651,287,1651.9z"/>
<path class="st1" d="M383.6,1519.4c4.8-0.5,9.1-1.9,13.5-2.8c3-0.6,3.2-0.5,2.4,2.3c-3.2,11.5-6.3,23-10,34.3
	c-2.9,8.8-9.5,13.3-17.6,16.4c-1.1,0.4-1.8,0.2-2.3-0.8c-3.6-6.7-6.2-13.5-3.1-21.2c0.8-2.1,2-4,3.4-5.6c2.3-2.7,3.6-5.9,4.3-9.3
	c0.4-1.8,0.8-3.6,1.3-5.4C376.5,1523.1,379,1520.4,383.6,1519.4z"/>
<path class="st1" d="M365.3,1488.3c0.2-0.7,0.3-1.2,0.4-1.6c1-5.5,4.1-9.7,8.4-13.1c2.6-2.1,5.2-4.3,7.7-6.5
	c1.1-0.9,1.8-0.9,2.4,0.4c0.5,1.1,1.1,2.3,1.6,3.5c2.3,6,2.4,12.2,1.2,18.4c-2.9,14.2-10.2,25.6-22.1,34.1c-2,1.4-4,2.6-6.7,3.5
	c-0.3-5.8-1.4-11.2-0.8-16.8c0.2-1.7,0.8-3.4,1.8-4.8c3.1-4.1,4.5-8.8,5.3-13.8C364.6,1490.6,365,1489.6,365.3,1488.3z"/>
<path class="st1" d="M499.6,1589.8c-0.7-2.9-1.4-5.4-1.7-8.1c-0.2-1.7,0.4-2.5,2.2-2.7c4.6-0.5,9.2-1.2,13.7-1.9
	c1.8-0.3,2.8,0.4,3.2,2.2c0.7,2.8,1.6,5.6,3,8.1c2.9,5.4,7,7.2,13,5.9c3.2-0.7,6.1-2.3,8.9-3.8c2.2-1.2,4.6-2.3,6.9-3.2
	c0.6-0.2,1.3-0.6,2.2-0.3c0.3,1.8-0.4,3.5-1.2,5.1c-4.5,8.4-10.8,15.2-19.7,18.8c-7.7,3.1-14.8,0.9-20.9-4.3
	C504.4,1601.4,501.5,1596,499.6,1589.8z"/>
<path class="st1" d="M502.4,1549.6c-3.4,4-7.1,7-12,8.3c-1.7,0.5-3.1,1.4-4.6,2.4c-5.9,3.9-7.5,8.6-5.4,15.2
	c0.9,2.8,2.3,5.3,3.9,7.7c0.3,0.4,0.6,0.8,0.7,1.2c0.6,1.3,2.2,2.8,1.4,4.1c-1,1.7-3.2,1.1-4.8,0.9c-8.2-1.4-13.9-5.8-16.6-13.9
	c-6.1-17.8,10.1-35.9,28.6-33.7c2.1,0.2,4.1,0.6,6.1,1.1C503.9,1544,504.5,1545.5,502.4,1549.6z"/>
<path class="st1" d="M430.1,1522.5c3.8,1.3,7.5,1.7,11.2,1.8c1,0,2.1,0,3.1,0c1.8,0.1,2,0.5,1.4,2.2c-0.6,1.6-1.2,3.3-2.1,4.8
	c-2.6,4.7-6.1,8.4-10.9,10.9c-6.9,3.5-13.4,2.4-19.1-2.3c-6.6-5.4-9.3-12.8-9.6-21.2c-0.1-3,1.1-5.5,3.5-7.2c4-3,8.5-5,13.5-6.7
	c0.7,1.9,0.3,3.6,0.5,5.3C421.8,1515.8,424.1,1520.3,430.1,1522.5z"/>
<path class="st1" d="M220.7,1571.1c-2.5-4-5.9-6.7-9.2-9.5c0.4-0.9,0.9-1.1,1.5-1.2c9.7-2.4,19.1-0.6,26,7.9
	c4.3,5.3,7,11.4,6.9,18.2c-0.1,11.4-4.7,20.9-14.4,27.4c-0.3,0.2-0.7,0.2-1.1,0.3c-1.3-3.2-1.5-6.5-2.2-9.8c-1.3-6.5-2.2-13-3-19.5
	C224.6,1580.1,223.2,1575.5,220.7,1571.1z"/>
<path class="st1" d="M317.4,1617c-0.6-2.2-1.1-4.1-1.7-5.9c-1-2.9-0.7-5.6,0.5-8.6c2.8,1.5,4.7,3.8,6.9,5.7
	c3.4,2.8,6.7,5.7,10.5,7.9c5.2,3,10.9,3.8,16.8,3.2c3-0.3,6-0.6,9-1c1.4-0.2,2.1,0.4,2.5,1.8c0.9,3.4-0.1,6.9-2.9,9
	c-1.2,0.9-2.5,1.6-3.8,2.4c-2.2,1.3-4.3,2.7-5.9,4.8c-3.3,4.5-9.9,6.7-16.6,4.2c-5.9-2.2-10-6-11.8-12.3
	C319.9,1624.5,318.6,1620.9,317.4,1617z"/>
<path class="st1" d="M564.2,1606.5c-1.8,2.4-3.5,4.7-5.1,6.9c-0.7,0.9-1.4,1.6-2.6,1.1c-4.9-2-9.8-4.1-14.9-6.2
	c2.2-2.7,4.1-5,6.9-6.4c5.9-2.9,9.7-11.8,7.8-19.2c-0.4-1.5-1.3-2.7-2.4-3.8c-2.8-2.6-5.9-4.9-9.1-7c-0.8-0.6-2-0.8-2.3-2.2
	c1.6-1.6,3.8-2,5.8-2.6c5.6-1.4,11.1-1.1,16.1,1.9c7.9,4.6,10.6,10.6,9,21c-0.5,3.3-2,6.4-4,9.2
	C567.7,1601.6,566,1603.9,564.2,1606.5z"/>
<path class="st1" d="M618.7,1683.5c-2.2,1-4.1,0.5-6-0.2c-5.9-2.6-11.9-5.1-17.8-7.8c-6-2.9-6.5-4.4-4.3-10.5c0.7-2.1,1.7-4,2.6-6
	c0.6-1.3,1.4-1.5,2.8-1.2c2.2,0.5,4.2,1.2,6.1,2.4c2.8,1.8,5.7,3.6,8.5,5.3c5.5,3.3,11.3,4.6,17.6,3c3.5-0.9,7-1.6,10.4-2.6
	c1.7-0.5,2.6,0.1,3.4,1.5c2.1,3.8,1.8,8-1.3,11.2c-5,5.2-10.8,9.4-16.7,13.5c-1.8,1.2-3.7,0.8-5.7,0.2c0.7-2.6,2.6-3.8,4.3-5.1
	c2.9-2.1,5.7-4.4,7.7-7.5c0.6-0.9,1-1.8,1.4-2.8c0.4-1.3-0.3-2-1.2-2.6c-0.9-0.7-1.5,0.1-2.1,0.6c-1.6,1.5-3.1,3.1-4.6,4.7
	C622.4,1681.1,620.9,1682.5,618.7,1683.5z"/>
<path class="st1" d="M443.6,1539.5c2.6-1.7,4.3-3.8,5.3-6.6c2.9-8.8,8.9-10.8,16.7-10.7c9.4,0.1,17.2,4.2,23.6,11
	c0.3,0.3,0.7,0.6,0.9,1c1.1,1.6,0.5,3-1.4,3.1c-0.9,0.1-1.8-0.1-2.8-0.1c-7.3-0.1-14.6-0.4-21.7,1.8c-7.7,2.4-14.2,6.7-20.2,11.9
	c-2,1.7-3.9,3.6-6.2,5c-1.7,1-3.5,1.8-5.5,2c-2,0.2-3.9-0.3-5.5-1.7c-3.1-2.7-3-4.4,0.4-6.5C432.7,1546.6,438.1,1543.2,443.6,1539.5
	z"/>
<path class="st1" d="M392.2,1549.3c2.2-8.5,3.6-17,6.6-25c1.4,0.6,1.2,1.6,1.3,2.3c1.9,8.2,6.2,14.9,13.4,19.1
	c5.7,3.3,8.6,13.3,6.1,20.5c-1.9,5.5-8.5,7.8-13.4,4.6c-4.9-3.3-9.3-7.2-13.6-11.4c-1.6-1.6-2.2-3.4-1.5-5.7
	C391.7,1552.3,391.9,1550.9,392.2,1549.3z"/>
<path class="st1" d="M207.8,1700c-1.7,9.6-6.4,16.8-14.4,21.9c-1.5,0.9-3,1.7-4.7,2.2c-7.4,2.2-12.5-2.2-14.9-8.4
	c-0.4-1.1,0.1-1.8,1.2-2c1.6-0.3,3.1-0.9,4.6-1.7c4.2-2.1,6.8-5.5,8.1-9.9c0.6-2,1.1-4,1.2-6.1c0.3-5.9,2.6-11.2,4.6-16.7
	c0.1-0.4,0.5-0.7,0.7-1.1c1.8,0.8,2.6,2.4,3.8,3.7c2.2,2.4,4.1,5,6.3,7.4C207.1,1692.2,208.4,1695.6,207.8,1700z"/>
<path class="st1" d="M298.1,1504c1.9,6.9,6.1,11.9,11.4,16.1c4.6,3.6,8.2,8.2,11.7,12.7c0.4,0.5,0.8,1.2,1,1.8
	c0.7,1.6,0.3,2.8-1.3,3.4c-3.3,1.1-6.7,1.9-10,2.8c-1.6,0.4-1.8-1.1-2.2-2.1c-2.5-6.4-6.6-11.7-11.5-16.3c-3.4-3.2-7-6.1-10.8-8.7
	c-2.2-1.5-4.3-3.1-6.4-4.7c-1.1-0.8-2.1-1.8-2.9-2.9c-3-4.2-1.2-9.2,3.9-10c4.4-0.7,9-0.7,13.5-1.1c1.7-0.1,2.5,0.5,2.5,2.4
	C296.9,1499.4,297.4,1501.6,298.1,1504z"/>
<path class="st1" d="M229,1697.8c-1.8,0.4-3.3-0.1-4.7-0.6c-10.3-4-18-11.1-23.9-20.3c-1.8-2.8-1.6-4.9,0.8-7.2
	c2.3-2.3,4.9-4.3,7.3-6.4c1.2-1,2-0.8,2.8,0.5c0.7,1.1,1.4,2.1,2.1,3.2c3.4,5.8,8.3,9.5,14.6,11.6c2.3,0.8,4.7,1.3,6.8,2.5
	c1.6,0.9,3.2,1.9,4.5,3.2c3.6,3.7,3.2,7-1.1,9.7C235.4,1695.7,232.5,1697.2,229,1697.8z"/>
<path class="st1" d="M453.4,1558.4c-4.2,3.8-5.9,8.5-6.3,13.7c-0.2,3.1-1,5.9-2.8,8.4c-3.5,5-9.6,7.4-15.5,6.2
	c-3.6-0.8-5.6-3.2-5.5-6.8c0.1-3.6,0.5-7.1,1-10.7c0.3-2.4,1.4-4,3.7-5c3-1.4,6.1-2.7,9.2-4c3.8-1.5,7.3-3.4,10.5-6
	c5.3-4.3,11.1-8,17.9-9.5c1-0.2,2-0.4,3.1-0.5c0.4,0,0.9,0.1,1.9,0.3C464.9,1549.7,458.9,1553.5,453.4,1558.4z"/>
<path class="st1" d="M452.9,1567.1c0.7-2.1,1.6-3.6,3.3-4.7c1.8-1.1,2.5-0.8,2.6,1.3c0,3.1,0.2,6.2,0.9,9.3
	c1.8,7.2,5,13.4,11.3,17.7c6.1,4.3,12.7,5.2,19.7,2.7c0.8-0.3,1.5-0.5,2.3-0.9c1.1-0.5,1.5,0.3,1.8,1c1.1,2.3,2.2,4.6,3.3,6.9
	c0.5,1.1,0.2,1.8-0.9,2.1c-2.1,0.7-4.1,1.5-6.3,2c-5.9,1.6-11.8,2.3-17.8,0.3c-11.2-3.7-18-11.3-20.4-22.9
	C451.8,1577.3,451.6,1572.3,452.9,1567.1z"/>
<path class="st1" d="M310.3,1579.6c-9.5-2.8-18.3-6.6-27.2-10.3c1.1-1.2,2.2-1.5,3.3-2c5-2.1,10-4.2,15-6.4c2.5-1.1,4.8-1.3,7.4-0.3
	c5,1.9,10,3.6,15.1,5.3c4.5,1.5,6.7,5.1,8.3,9.2c0.9,2.3,0.2,3.6-2.1,4.8c-1.8,1-3.6,1.4-5.7,1.4
	C319.7,1581.3,315.1,1580.8,310.3,1579.6z"/>
<path class="st1" d="M446.7,1435.1c0-4.6,1.4-8.9,2.1-13.4c0.6-4.2,0.9-8.3-1-12.2c-1.3-2.6-0.8-5.2,0.8-7.6c1.5-2.2,3.3-4.1,5.2-6
	c1.6-1.5,3.4-1.2,5.2-0.8c2.8,0.6,5,2.4,6.8,4.6c1.9,2.3,3.7,4.8,5.3,7.3c2,3,1.6,5.5-0.9,8.1c-5.6,5.9-12,10.9-18.3,16
	C450.3,1432.6,448.7,1433.9,446.7,1435.1z"/>
<path class="st1" d="M292.5,1609c-0.1-7.9,3.8-13.8,8.3-19.4c1.6-2.1,3.7-3.8,5.9-5.9c2.6,3.3,4.9,6.4,6,10.2
	c0.6,2.1,0.2,4.2-0.7,6.1c-1.9,3.7-1.9,7.5-0.9,11.4c1.2,4.6,0.1,6.9-4,9.2c-1.3,0.7-2.7,1.4-4,2c-2.9,1.4-4.8,1-6.6-1.7
	C294,1617.5,292.5,1613.7,292.5,1609z"/>
<path class="st1" d="M250.3,1624.7c4.8-3.5,8-8.2,12.5-12.3c1.4,5.6,0.6,10.4-1.8,14.9c-5.7,10.5-18.1,16.1-29.8,13.6
	c-0.9-0.2-1.8-0.4-2.6-0.8c-1.9-0.9-2.5-2.2-1.9-4.3c1.2-4.2,2.5-8.4,4.2-12.5c0.9-2.2,2-2.6,4.4-2.1c2.2,0.5,3.9,1.9,5.8,3
	C244.1,1625.9,247,1626.7,250.3,1624.7z"/>
<path class="st1" d="M249.6,1575.8c5,2.7,9.4,6.5,13.4,10.7c1.4,1.5,2,3.4,2,5.4c0.1,7.3-2.5,13.6-7.2,19c-2.5,2.9-5.4,5.3-8.6,7.5
	c-1.9,1.3-3.7,1.7-5.9,1c-1.6-0.6-3.5-0.4-4.9-1.8c1-2.5,2.8-4.6,4.1-6.8c2.8-4.7,5.4-9.4,7-14.7c1.8-5.6,1.6-11.2,0.5-16.8
	C249.8,1578.3,249.6,1577.3,249.6,1575.8z"/>
<path class="st3" d="M329.8,1401.8c-2.9,3.2-5.6,6.2-8.4,9.1c-2.5,2.6-4.7,2.8-7.7,0.8c-6.8-4.5-7.9-16-2.2-21.9
	c1-1,1.8-1.3,2.9-0.3c0.7,0.6,1.5,1.1,2.3,1.6c4.4,2.8,6.8,2.6,10.5-0.9c2.4-2.2,4.3-4.8,6.3-7.4c2.3-3,2.9-3,5.5-0.4
	c2.5,2.5,2.8,5.1,0.4,8.1C336.4,1394.3,333.1,1397.9,329.8,1401.8z"/>
<path class="st1" d="M162.1,1716.5c-2.6-6.5-2.8-12.9-0.8-19.3c0.9-3.1,2.5-5.7,4.9-7.8c2.7-2.3,4.8-2.2,6.7,0.6
	c2.4,3.4,4.6,6.9,6.7,10.5c1.5,2.5,1.3,3.4-0.3,4.9c-2.6,2.3-5.2,2.9-7.2,1.5c-1.8-1.2-2.9-3-3.6-5c-0.4-1.2-0.8-2.4-1.1-3.7
	c-0.3-1.1-0.9-1.5-2-1.4c-1,0.1-1.4,0.8-1.5,1.6c-0.1,2.5-0.4,5.1,0.4,7.6c1.6,5,3.5,9.8,5.7,14.6c3.1,6.9,10.3,10.1,18,8.4
	c2.6-0.6,5.1-1.6,7.4-2.8c1-0.5,2.1-1.1,3.1-1.5c1-0.4,1.7,0.1,1.4,1.2c-0.5,1.9-1.1,3.8-1.7,5.6c-0.4,1.3-1.4,1.8-2.7,1.9
	c-5.4,0.1-10.9,0.2-16.2-1.1c-4.4-1.1-8.1-3.4-11.1-6.8C165.9,1722.9,163.8,1720,162.1,1716.5z"/>
<path class="st1" d="M410.8,1464c-4.5-0.5-8.2-1.7-11.1-3.9c-0.9-0.7-1-1.2-0.3-2.1c3.6-4.3,7.8-8.3,14-11.1
	c0.5-0.2,0.9-0.5,1.4-0.7c4.7-1.7,5.9-2.1,8.3,2.1c0.9,1.6,0.6,3.3,0.2,5c-0.4,2-0.9,3.9-1.5,5.9
	C420.4,1463.6,417.5,1464.9,410.8,1464z"/>
<path class="st1" d="M460.6,1486.2c-5.6,3.6-11.7,4.9-17.9,5.9c-1.5,0.2-2.7,0.1-3.5-1.5c-0.8-1.5,0.3-2.1,1-2.9
	c5.3-5.9,11-11.6,16.6-17.3c2.3-2.3,4.7-3,7.9-2.2c3.2,0.9,6.1,2.2,8.4,4.6c1.5,1.6,1.6,2.9,0.3,4.6c-0.8,1.1-1.9,2.1-3.1,2.8
	C467.1,1482.2,464,1484.1,460.6,1486.2z"/>
<path class="st1" d="M325.5,1464.9c-3.4-3-6.5-5.9-9.8-8.6c-4.3-3.4-5.4-8.2-6.1-13.1c-0.2-1.6,0.8-2.6,2.6-2.3
	c4.7,0.7,9.4,1.4,13.9,2.8c1.7,0.5,2.7,1.9,3,3.5c1.5,7.4,2.9,14.7,3.9,22.2c0,0.2-0.1,0.4-0.3,1.1
	C329.9,1469.1,328,1466.7,325.5,1464.9z"/>
<path class="st1" d="M196.3,1752.2c-0.9,6.2-1.6,12.2-3.1,18c-0.3,1.1-0.3,2.3-1.9,2.4c-1.6,0.1-2.2-0.8-2.7-2.1
	c-1.9-4.7-3.9-9.4-5.7-14.1c-0.9-2.2-0.8-2.3,1.5-3.2c0.3-0.1,0.6-0.2,1-0.4c2.4-1,2.4-1.1,1.3-3.5c-1.3-3-2.8-5.9-4-8.8
	c-0.9-2.1-0.7-2.4,1.5-2.5c3-0.1,6-0.2,9,0.5c4.1,1,5.6,3.2,4.8,7.4C197.5,1747.9,196.9,1749.9,196.3,1752.2z"/>
<path class="st1" d="M539,1577.1c-0.1,4.2-1.2,7.5-4.2,10.2c-1.3,1.2-2.6,1.6-4.4,1.1c-8.3-2.5-11.2-12.7-5.3-18.9
	c1.6-1.7,3-3.5,4.4-5.4c2-2.8,2.2-2.8,4.4,0C536.9,1567.8,538.7,1572,539,1577.1z"/>
<path class="st1" d="M581.5,1864.6c5.1-4.2,7.1-9.4,7-16.3c1.5,2.5,1.3,4.6,0.9,6.6c-0.5,2.7-1.6,5.3-2.5,7.9
	c-0.5,1.6-1.3,3.2-1.2,5.3c3.1-0.7,4.9-2.6,6.1-5.2c2-4.1,2.6-8.6,2.9-13.1c0.2-2.3,0.5-4.7,0.7-7.3c1.5,0.9,1.8,2,2.2,3.1
	c3.8,10.7-1.3,27.5-10.4,34.3c-0.5,0.3-0.9,0.7-1.4,1c-0.9,0.5-1.6,0.2-2-0.7c-1.6-3.8-3.2-7.7-4.4-11.7
	C578.9,1866.7,580.1,1865.7,581.5,1864.6z"/>
<path class="st1" d="M397.1,1570c1.9,1.5,3.6,3,5.4,4.2c3.8,2.5,7.9,3.6,12.5,3.3c0.8-0.1,1.7-0.6,1.9,0.6c0.1,0.9-0.1,1.9-1.1,2.4
	c-0.8,0.4-1.8,0.5-2.7,0.7c-3.4,0.7-6.8,1.4-10.2,1.8c-4.7,0.6-9-0.6-12.7-3.4c-4.4-3.3-5.1-10.7-1.7-15c0.9-1.1,1.6-0.6,2.3,0
	C392.9,1566.3,394.9,1568.1,397.1,1570z"/>
<path class="st1" d="M499.7,1537.1c-1.9-1-3.3-2.1-4.4-3.7c-4.4-6.2-10-10.9-17.5-13c-0.4-0.1-0.8-0.4-1.6-0.9
	c2.9-2.8,5.9-5.1,9.8-5.8c3.5-0.6,6.4,0.6,8.6,3.4c2.2,2.6,3.6,5.7,4.9,8.8c1.2,2.9,2.2,5.8,3.3,8.8c0.4,1,1.3,2.2,0.2,3.2
	C502,1538.8,501,1537.7,499.7,1537.1z"/>
<path class="st1" d="M353.7,1548.7c-5.1-2.7-10-5.4-14.4-8.7c-3.6-2.7-4.2-6.6-4.9-10.6c1.4-0.3,2.1,0.5,2.8,1
	c3.5,2.3,7.2,3.5,11.4,3.4c5.6-0.1,7.3,1.3,8.4,6.9c0.5,2.4,0.7,4.8,0.9,7.2c0.1,0.8,0.2,1.6-0.2,2.4
	C356.1,1550.5,355.1,1549.4,353.7,1548.7z"/>
<path class="st1" d="M171.5,1634c2.6,1.2,4.3,3.1,6.3,4.7c1,0.9,1.2,1.9,0.3,3c-1.9,2.3-3.6,4.8-6,6.7c-2.8,2.2-4.7,2.1-7.4-0.2
	c-1.8-1.6-3.2-3.6-4.6-5.6c-0.7-1-0.8-1.8,0.1-2.8c1.9-1.9,3.7-3.8,5.9-5.3C167.7,1633.4,169.4,1632.9,171.5,1634z"/>
<path class="st1" d="M573.8,1565.7c0.6-1.8,1.6-2.8,3-3.5c4.4-2.3,5.5-1.8,6.5,2.9c1.3,6,2.8,11.9,4.1,17.9c0.2,1.1,0.9,2.2,0.4,3.4
	c-1.3,0.2-2.1-0.8-3-1.4c-4.3-3.3-7.4-7.5-10-12.3C573.8,1570.6,573.3,1568.4,573.8,1565.7z"/>
<path class="st1" d="M408.6,1467.9c2.1,1.9,2.3,2.6,0.6,3.8c-4.7,3.2-9.4,6.4-14.1,9.5c-1.2,0.8-1.9,0.6-2.2-0.9
	c-0.8-4.4-1.6-8.9-2.5-13.3c-0.3-1.6,0.5-1.7,1.8-1.5C397.5,1466.3,402.9,1467.1,408.6,1467.9z"/>
<path class="st1" d="M616.7,1574.8c5.7,2.7,10.9,5.6,15.4,9.7c3.2,2.9,3.4,4.4,1.2,8.2c-1.1,1.9-2.2,3.7-4.1,5.7
	c-4.7-7.6-8.5-15.1-12.7-22.8C616.4,1575.1,616.4,1574.9,616.7,1574.8z"/>
<path class="st1" d="M167.8,1657c1-1.6,1.6-0.7,2.2,0c2.8,3.5,3.3,7.5,2.8,11.8c-0.3,2.9-0.9,5.7-1.3,8.5c-0.1,0.9-0.3,1.8-0.9,2.6
	c-0.8,1.1-1.9,1.3-3,0.4c-1-0.8-1.6-2-2-3.2c-1.7-4.3-1.9-8.7-0.6-13.2C165.6,1661.6,166.4,1659.3,167.8,1657z"/>
<path class="st1" d="M641.2,1694.6c-0.9-1.6-1.7-3.1-2.5-4.4c-0.7-1.2-0.6-2.1,0.5-3c1.8-1.3,3.5-2.6,5.3-3.9c1-0.7,1.8-0.7,2.7,0.3
	c5.1,5.7,3.6,15.4-0.8,19.4C644.2,1700.5,643,1697.5,641.2,1694.6z"/>
<path class="st1" d="M540.3,1562.3c-3.9-2.2-6.2-5.4-7.2-9.5c-0.2-0.7-0.3-1.4-0.3-2c-0.1-4.7,0.8-5.5,5.3-4.5
	c5.5,1.2,7.1,3.5,6.3,9C544,1558.1,543.1,1560.6,540.3,1562.3z"/>
<path class="st1" d="M321.7,1515.3c1.6,0.2,2.6,0.7,3.1,2.1c2.1,5.4,3.7,10.9,5.3,16.5c0.2,0.5,0.2,1.1-0.3,1.6
	c-0.7,0.2-1.1-0.3-1.4-0.7c-3.6-4.2-7.2-8.4-10.5-12.9c-0.1-0.2-0.3-0.4-0.4-0.6c-1.7-2.9-0.7-5.1,2.5-5.9
	C320.5,1515.3,321,1515.3,321.7,1515.3z"/>
<path class="st1" d="M209.3,1709.5c1.2-3,1.8-6,4.1-8.2c1.2-1.2,2.2-1.3,3.6-0.2c2.5,2,2.8,4.7,2.6,7.5c-0.2,2.6-1.9,4.1-4.3,4.9
	c-2.5,0.9-5,1.7-7.9,2.7C207.7,1713.7,208.7,1711.8,209.3,1709.5z"/>
<path class="st1" d="M611.8,1818.8c1-0.3,1.8-0.7,2.6-0.4c1.2,0.3,1.8,1,1.2,2.3c-0.2,0.4-0.4,0.8-0.6,1.3
	c-2.9,5.8-5.7,11.6-8.6,17.4c-0.3,0.6-0.6,1.2-1,1.8c-0.4,0.7-1,0.9-1.8,0.6c-0.8-0.4-1.4-0.8-1-1.9c0.8-2.5,1.6-5.1,2.5-7.6
	c1.2-3.4,2.4-6.7,3.6-10.1C609.3,1820.8,609.8,1819.3,611.8,1818.8z"/>
<path class="st1" d="M566.6,1564.2c-5.5-1-10.7-2-15.9-2.9c-0.9-0.2-1.9-0.3-2-1.5c-0.1-1.5-0.1-3,0.5-4.4c0.2-0.4,0.8-0.3,1.3-0.1
	c1.6,0.7,3.2,1.4,4.8,2.1c3.3,1.5,6.5,3,9.7,4.6c1.3,0.6,2.8,1,3.8,2.2C568,1564.6,567.4,1564.4,566.6,1564.2z"/>
<path class="st1" d="M560.2,1921.3c-1.7,4.1-4.7,7.4-7.3,11c-1,1.4-2.2,1-2.7-0.6c-1.3-4,0.2-7.3,4.1-9
	C556,1922.1,557.9,1921.5,560.2,1921.3z"/>
<path class="st1" d="M297.6,1447.9c1.5-2.6,3-5,4.4-7.3c0.3-0.5,0.8-1,1.4-0.7c0.4,0.2,0.7,0.7,0.8,1.1c0.4,2.5,0.7,5,1,7.5
	c0.2,1.3-0.5,1.9-1.8,1.9c-1.7,0-3.5,0.1-5.2,0C296.4,1450.1,296.9,1449.1,297.6,1447.9z"/>
<path class="st1" d="M350.7,1498.1c-1.1-2.1-2.7-3.7-3.3-6.3c1.8,0.1,2.8,1,4,1.7c1.4,0.8,2.8,1.6,4.2,2.5c2.4,1.5,2.4,1.6,1.2,4.1
	c-0.6,1.2-1,2.5-2.2,3.7C352.8,1502.2,352,1500.1,350.7,1498.1z"/>
<path class="st1" d="M299.4,1581.8c1,0.2,1.7,0.7,1,1.4c-2.2,2.5-4.5,4.9-6.7,7.3c-0.2,0.2-0.6,0.2-0.9,0.1
	c-0.5-0.1-0.7-0.7-0.6-1.1c0.8-2.5,1.5-5.1,2.6-7.4C295.8,1580.2,297.6,1581.5,299.4,1581.8z"/>
<path class="st1" d="M580.7,1588.3c1.9,2.5,3.6,4.8,5.3,7.1c0.3,0.4,0.8,1,0.2,1.5c-0.5,0.5-1.1,0.3-1.6,0c-1.5-0.9-3-1.7-4.4-2.8
	c-1.9-1.4-2.4-3.7-1.4-5.9C579.3,1587.2,579.9,1587.3,580.7,1588.3z"/>
<path class="st1" d="M178.4,1656.4c-1.2,0.8-2.3,0.8-2-0.6c0.7-2.9,1.6-5.7,3.2-8.3c2.4,2.6,2.7,4.1,1.1,6.4
	C180.1,1654.8,179.4,1655.5,178.4,1656.4z"/>
<path class="st0" d="M322.3,1387.7c-1.3-0.7-3-1.1-2.9-2.5c0.1-1.4,1.9-1.5,3-2c1.3-0.5,2.6-1.4,4.5-1.4
	C326.1,1384.5,326,1387.3,322.3,1387.7z"/>
<path class="st1" d="M489.5,1581.8c-1-1.8-2.4-3.2-2.7-5.1c4.7-0.1,6.1,2,5.3,7.9C490.6,1584.4,490.4,1582.9,489.5,1581.8z"/>
<path class="st4" d="M290.9,1652.1c0.3,0,0.6,0,0.5,0.5c0,0-0.3-0.1-0.6-0.2C290.8,1652.2,290.8,1652.1,290.9,1652.1z"/>
<path class="st5" d="M253.2,1575.6c-0.1-0.1-0.2-0.2-0.2-0.4c0.1,0,0.2,0,0.4,0.1C253.5,1575.4,253.3,1575.6,253.2,1575.6z"/>
<path class="st5" d="M450.3,1435.3c-0.2,0.2-0.4,0.4-0.3-0.2C450,1435.1,450.2,1435.2,450.3,1435.3z"/>
<path class="st6" d="M564.1,1921.3c0.1-0.2,0.3-0.5,0.2,0.1C564.2,1921.4,564.2,1921.4,564.1,1921.3z"/>
<path class="st6" d="M620.3,1575.2c-0.3-0.3-0.6-0.7,0.3-0.5C620.6,1574.9,620.5,1575,620.3,1575.2z"/>
<path class="st1" d="M168.8,1001.8c0.1-3.3,0.1-6.3,0.3-9.3c0.2-3.8,2.6-5.3,6.2-3.9c1.9,0.7,3.4,2,4,4c1.2,3.5,1.3,7,0.2,10.6
	c-1.2,4-5.2,6.2-9.3,5.4c-1.1-0.2-1.4-1-1.7-1.9C168,1005.1,168.5,1003.6,168.8,1001.8z"/>
<path class="st1" d="M527.7,1027.1c-0.1-4,0.3-7.7,1.4-11.2c0.6-1.8,1.3-3.5,2.6-4.8c2.8-3.1,7-2.5,8.7,1.3c0.5,1.1,1,2.4,1.1,3.6
	c0.5,5.8,0.7,11.5-0.6,17.2c-0.9,4-2.7,6.1-5.4,6.4c-2.5,0.2-5.4-2.2-6.7-5.7C528.1,1031.8,527.9,1029.6,527.7,1027.1z"/>
<path class="st1" d="M244.5,1011.3c0.6-1,1.1-1.8,1.7-2.5c2-2,4.6-2.3,6.9-0.8c2.1,1.3,3.3,4.3,2.7,6.6c-0.4,1.3-1.4,1.9-2.5,2
	c-2.3,0.2-4.6,0.2-6.9,0C244.1,1016.3,243.6,1014.9,244.5,1011.3z"/>
<path class="st1" d="M696.8,1009.8c1.9-2.4,4-3.4,6.8-2.3c2.4,0.9,3.7,2.9,3.8,5.6c0.1,2.2-0.7,3.3-2.9,3.5c-2.2,0.2-4.4,0.2-6.5,0
	c-1.9-0.2-2.7-1.4-2.6-3.4C695.5,1012,695.9,1011,696.8,1009.8z"/>
<path class="st7" d="M274.1,1840.7c0,0,0.2-0.1,0.2-0.1S274.2,1840.7,274.1,1840.7C274.1,1840.7,274.1,1840.7,274.1,1840.7z"/>
<path class="st7" d="M379.2,1717.6c0.2-0.4,0.4-0.4,0.4,0.2C379.5,1717.9,379.3,1717.7,379.2,1717.6z"/>
</svg>
